<svg height="166.61093" viewBox="0 0 552.54485 149.94984" width="613.93872" xmlns="http://www.w3.org/2000/svg" xmlns:xlink="http://www.w3.org/1999/xlink"><linearGradient id="a"><stop offset="0" stop-color="#373969"/><stop offset=".43662432" stop-color="#a7bbf1"/><stop offset="1" stop-color="#2170cc"/></linearGradient><linearGradient id="b" gradientUnits="userSpaceOnUse" x1="148.3185" x2="151.97664" xlink:href="#a" y1="162.58894" y2="52.277431"/><filter id="c" color-interpolation-filters="sRGB" height="1.09999" width="1.019479" x="-.006738" y="-.027101"><feGaussianBlur in="SourceGraphic" result="blur" stdDeviation=".8"/><feDiffuseLighting diffuseConstant="1" result="diffuse" surfaceScale="10"><feDistantLight azimuth="236" elevation="13"/></feDiffuseLighting><feComposite in="diffuse" in2="diffuse" k1="1" k2="0" k3="0" k4="0" operator="arithmetic" result="composite1"/><feComposite in="composite1" in2="SourceGraphic" k1="1" k2="0" k3="1" k4="0" operator="arithmetic" result="fbSourceGraphic"/><feColorMatrix in="fbSourceGraphic" result="fbSourceGraphicAlpha" values="0 0 0 -1 0 0 0 0 -1 0 0 0 0 -1 0 0 0 0 1 0"/><feFlood in="fbSourceGraphic" result="flood"/><feComposite in="flood" in2="fbSourceGraphic" operator="in" result="composite1"/><feGaussianBlur in="composite1" result="blur" stdDeviation="0"/><feOffset dx="3" dy="5" result="offset"/><feComposite in="fbSourceGraphic" in2="offset" operator="over" result="composite2"/></filter><filter id="d" color-interpolation-filters="sRGB" height="1.081473" width="1.095714" x="-.032299" y="-.022401"><feGaussianBlur in="SourceGraphic" result="blur" stdDeviation=".926303"/><feDiffuseLighting diffuseConstant="1" result="diffuse" surfaceScale="10"><feDistantLight azimuth="236" elevation="13"/></feDiffuseLighting><feComposite in="diffuse" in2="diffuse" k1="1" k2="0" k3="0" k4="0" operator="arithmetic" result="composite1"/><feComposite in="composite1" in2="SourceGraphic" k1="1" k2="0" k3="1" k4="0" operator="arithmetic" result="fbSourceGraphic"/><feColorMatrix in="fbSourceGraphic" result="fbSourceGraphicAlpha" values="0 0 0 -1 0 0 0 0 -1 0 0 0 0 -1 0 0 0 0 1 0"/><feFlood in="fbSourceGraphic" result="flood"/><feComposite in="flood" in2="fbSourceGraphic" operator="in" result="composite1"/><feGaussianBlur in="composite1" result="blur" stdDeviation="0"/><feOffset dx="3" dy="5" result="offset"/><feComposite in="fbSourceGraphic" in2="offset" operator="over" result="composite2"/></filter><linearGradient id="e" gradientTransform="matrix(.99569185 0 0 1.0043268 -2 -10)" gradientUnits="userSpaceOnUse" x1="148.3185" x2="151.97664" xlink:href="#a" y1="162.58894" y2="52.277431"/><linearGradient id="f" gradientTransform="matrix(.99569185 0 0 1.0043268 0 -4)" gradientUnits="userSpaceOnUse" x1="148.3185" x2="151.97664" xlink:href="#a" y1="162.58894" y2="52.277431"/><linearGradient id="g" gradientTransform="matrix(.99569185 0 0 1.0043268 -.467382 -2)" gradientUnits="userSpaceOnUse" x1="148.3185" x2="151.97664" xlink:href="#a" y1="162.58894" y2="52.277431"/><linearGradient id="h" gradientTransform="matrix(.99569185 0 0 1.0043268 3.367025 0)" gradientUnits="userSpaceOnUse" x1="148.3185" x2="151.97664" xlink:href="#a" y1="162.58894" y2="52.277431"/><linearGradient id="i" gradientTransform="matrix(.99569185 0 0 1.0043268 -19.076266 2)" gradientUnits="userSpaceOnUse" x1="148.3185" x2="151.97664" xlink:href="#a" y1="162.58894" y2="52.277431"/><linearGradient id="j" gradientTransform="matrix(.99569185 0 0 1.0043268 7.367025 0)" gradientUnits="userSpaceOnUse" x1="148.3185" x2="151.97664" xlink:href="#a" y1="162.58894" y2="52.277431"/><linearGradient id="k" gradientTransform="matrix(.99569185 0 0 1.0043268 18.000002 0)" gradientUnits="userSpaceOnUse" x1="148.3185" x2="151.97664" xlink:href="#a" y1="162.58894" y2="52.277431"/><linearGradient id="l" gradientUnits="userSpaceOnUse" x1="37.478284" x2="37.478284" y1="169.473508" y2="32.128748"><stop offset="0" stop-color="#ff7a01"/><stop offset=".35918856" stop-color="#fffc00"/><stop offset=".60327649" stop-color="#ff0"/><stop offset="1" stop-color="#ff7501"/></linearGradient><g transform="translate(12.985949 -24.7988)"><text fill="#ef00eb" font-family="TrasksHand" font-size="2" stroke="#0105ff" stroke-width="2.5" transform="matrix(.84154277 .54019049 -.54019049 .84154277 0 0)" x="150.25597" y="53.502819"><tspan fill="#fafafa" fill-opacity=".4" font-size="2" stroke="none" stroke-width="2.5" x="150.25597" y="53.502819">John Loreth 2022</tspan></text><g stroke="#010000" stroke-width="1.25"><path d="m86.731946 110.98414q-.746668 6.72001-.746668 9.89335-1.86667.56-2.986672.56.746668 1.12 2.613338 3.17334-.560001 1.30667-1.680003 4.10667-3.73334.37334-10.826687 1.30667v5.78668q0 2.24-.560001 6.34668-.373334 4.10667-.373334 6.16001 0 5.04001.933335 17.36003-2.800005 1.30667-5.040009 2.24l-1.86667-2.42667 1.306669-3.17334-.373334-5.04.746668-1.49334-1.493336-3.36001-3.360006 5.22668 1.120002 5.60001-1.493336-2.05334q-1.86667 3.36001-6.160011 9.89335l-2.800005-2.24q-2.240004 2.05334-3.546673 2.8-1.866671-13.81335-3.733341-36.40006-4.293341.37333-38.8267373 13.25336l1.493336-7.84002q.746668-.74667 2.4266713-2.05334-.933335-1.30666-1.306669-2.61333l-2.2400043-1.12001q.933335-1.49333 2.0533373-3.92l-.9333353-1.68001q-2.9866721.37334-4.6666752.74667-.186667-.93333-1.4933361-2.8l2.4266712-4.66668 1.306669-.93333.186667-3.73334-5.4133432 3.17334-.74666804 2.8q-1.68000306-2.42667-2.98667206-4.48001-.9333351-.56-4.4800085-2.61334 4.1066744-9.33335 19.9733702-36.96006 7.093346-12.320022 22.213374-36.026732.933335 1.86667 2.240004 5.60001 1.493336-1.120002 3.920007-4.106674v-2.800005q3.920007-1.306669 7.280014-1.680003l2.053337 9.893351 2.240004-5.413343-.186667-4.853342.746668-1.493337-.560001-1.120002 4.853342-2.240004q0 .186667 2.426671 6.160012 2.240004-2.986673 5.413343-6.533346.933335-.186667 8.026682-2.800005 0 1.306669-.186668 3.920007 0 2.800005 0 4.293342 1.30667-.186667 5.226677-1.493337-5.413344 52.45343-5.413344 68.880128 2.986673-.37334 8.77335-1.49334-.746668 1.68-1.680003 5.04001 1.120002 0 6.160011-.56zm-27.626717-60.106776-1.306669-2.426671-2.240004 3.73334 1.680003 7.093346q.746668-1.306669 1.120002-4.480008.373334-3.173339.746668-3.920007zm-14.560027 64.026776q-.746668-8.58668-1.680003-25.386706-9.146683 13.066696-17.920032 31.546726 10.453352-3.73334 19.600035-6.16002zm19.600036 25.76005-.933335-1.86667-1.680003 2.80001 1.120002 5.78667 1.120002-2.98667-.186667-2.98667zm-3.920007 8.58668-1.120002-2.42667-2.426671 3.92001 1.493336 7.09335 1.680003-3.73334-.186667-3.92001zm-49.653424-43.30674-4.1066744 2.05334-2.2400041 7.09334 3.3600062-2.61334 1.680003-3.36 1.1200023-.56zm526.791723-17.127647q-24.6135 14.823867-24.6135 24.585907 0 3.49506 5.97415 6.267 9.08071 4.3387 11.11192 5.90545 5.97415 4.70025 5.97415 12.77503 0 8.07479-7.7664 17.71633-5.6157 7.47219-14.09899 14.10075-.47794-.24104-.47794-1.08468 0-.48207.35845-1.68727.47793-1.20519.47793-1.68727 0-.84363-4.06242-.84363-1.55328 0-2.27018.24104l5.01829-5.30285q-4.30139.6026-7.0495 3.7361l-.95586.24104-.83638.96415-2.86759-1.20519q15.29382-10.84673 15.29382-16.87269 0-3.85662-8.60278-7.95427-13.62106-6.38752-15.89124-7.95427-8.48329-5.6644-8.48329-13.73919 0-13.8597 16.01072-29.406679 12.78469-12.41348 28.31748-19.765152.47793 1.325712 1.91173 3.012981 1.79224 2.289865 2.15069 2.892461l-1.79224.361557-2.8676 2.289866-.83638.120519-1.67276 2.892461 3.46501.361558 3.94294-5.061807q0 .843634-1.07535 5.061807l3.94294 3.01298h-.11948l-2.1507 1.807788-.7169.120519-1.19483 1.807789 2.50915.241038 2.50914-2.651423.59742.723116zm-10.03658-6.14648-2.15069.361557-1.79225 1.687269h-.59741l-.95586 1.807789 2.27017.120519zm-6.09363 73.516717-2.74811.96415-2.03121 1.56675-.59742.36156-1.19483 1.44623 2.62863-.24104zm-32.41428-10.9901q-.59742 3.01298-.59742 5.6644l-1.91172-.84363v1.92831l-.95587-1.44624-6.69105-.72311 2.8676 2.5309 3.22604 1.08468.83638.72311h.7169l.23896 3.1335q-.47793-.24104-.83638-.24104-.35845 0-1.31431.48208-.7169.24104-1.67276-.12052l3.465 4.94129q-9.67812-3.85662-18.40038-8.91842-10.75347-5.42337-19.47573-11.81089-.23897 8.19531.35844 13.85971-1.19483.48208-3.465 1.56675l-.11949-.12052.95587-2.16934-2.62863-5.78492-.7169 3.49505.59742 2.41039-1.4338-1.44623q-.11948.12052-3.94294 6.50803l-1.67276-1.32571q-1.4338 1.20519-2.50914 2.04883-4.65984-39.89186-5.25726-62.067397l-1.19483.602596-4.1819-.602596-3.34553 3.133497q-.95586-2.169343-1.31431-3.495055.11948 0 4.06242-2.169346l-2.15069-1.56675 1.55328-.843634h1.07534l1.31432-1.928307-3.82346-.361558-1.55328 1.205192-.47793-1.687269q1.31431-2.289865 1.91173-3.856615l-4.18191.723115v-1.928307q.59742-.361558 2.62863-1.807788 20.90953-15.42646 41.69957-15.42646 10.63399 0 17.44452 4.820769 7.64692 5.423364 7.64692 15.667498 0 21.572935-26.16678 39.048225 15.77176 10.72621 29.39282 17.11373zm-23.8966-46.520418q0-8.315826-11.35089-8.315826-1.19483 0-2.62863.120519-1.91173 15.667495-1.91173 24.826955 15.89125-9.15946 15.89125-16.631648zm-33.45525-12.895556-3.10656-.361558-3.46501 3.012981 2.74811-.12052 1.91173-1.205192h.83638zm46.23993 60.982724-1.67276-2.04883-4.30139-.72311 1.79224 1.68727 2.27018.60259.35845.72312zm-37.15922-.6026-1.91173-4.21817-.47793 2.77194.47793 2.04883-.11948.72311.95586 1.44624zm-25.4536-76.819569q-3.34552 29.768247-3.34552 58.331299 0 2.16935-.59742 5.42337-.47793 3.25402-.47793 4.82077 0 .48207.7169 10.12361-2.03121 1.08467-3.22604 1.44623-2.1507-2.65142-3.58449-4.09765-2.27018 3.61557-3.82346 6.14648l-1.55328-1.32571-2.38966 1.80778q-.11948-.72311-1.07535-8.67738-9.91709 5.6644-19.7147 13.73919v.48208q-2.62862 1.32571-4.42087 2.28986l-.35845-3.25402.35845-.96415-1.31431-1.92831-1.91173 3.61558 1.55328 4.45921q-1.91173 1.20519-2.86759 2.28987-.11949-1.2052-.11949-3.7361-.95586.48208-2.74811 1.92831 0-.36156-.95586-10.0031-.95586 3.61558-3.10656 10.48517l-.7169-.12051q-1.91173-41.94069-1.91173-56.04144 0-12.654519.7169-23.742287.7169-.241038 1.31432-.241038.59741 0 1.67276.361558 1.07535.241038 1.79224.241038 1.79225 0 4.18191-2.048827l1.79224 6.025961 1.19484-3.495057-.47794-3.1335.47794-.964153-.47794-.843635q.95587-.241038 1.79225-.241038.83638 0 1.79224.602596 1.07535.602596 1.67277.602596 1.79224 0 3.94294-2.169346 2.62862-2.892461 3.82345-3.374538-1.91173 14.823863-3.70397 29.88877-2.03121 17.23424-2.38966 29.76824 5.73518-3.73609 17.08607-11.44932-2.27018-24.465405-2.50914-50.859113 4.30139-1.687269 10.63399-4.338692.71689 2.048827 1.55328 3.856615 1.19483-1.44623 3.22604-3.977134l1.31431-.482077-1.31431 2.169346 2.03121 6.025961 1.19483-3.374538-.47793-3.254019.47793-.964154-.7169-1.084673q.95586-.241038 2.86759-.964153-.11948 1.928307-.11948 4.941287 1.91173-.241038 3.22604-.723115zm-14.099 8.677384-.35844-1.807789.35844-.602596-.71689-1.205192-.95587 2.048827.95587 3.615576zm3.5845 6.025961-.11949-1.807789.11949-.482077-.59742-1.205192-1.19483 2.048827 1.19483 3.615576zm-36.80078 67.852324q-.11948-1.56675 0-2.53091l-.47793-1.20519-1.19483 2.16935 1.19483 3.49505zm-13.46441-82.676188q-1.07534 3.1335-1.43379 6.508038h-1.07535l-1.91173.964153-.47793-.120519-1.19483 1.205192 2.27018.361558 2.38966-1.687269q-.11949.964154-.35845 2.651423l-4.89881 3.01298 5.37674.361558q-.59742 2.048826-1.79225 6.508037-15.77176 3.856615-27.00316 8.195307-.47793 3.61558-.83638 7.23115 8.36381-2.89246 18.87832-5.905439-.11949.964154-.35845 2.892459 2.27018-.72311 6.81053-1.687266-.7169 2.410386-1.79225 7.110626-1.43379.6026-2.86759.84364.35845.6026 1.31432 1.92831-.35845.84363-.7169 2.41038-9.55864 2.89247-11.23141 3.25402-6.3326 2.04883-10.87295 4.45921-.35845 5.54389-.35845 12.17245 0 3.97713.11948 9.15946 3.94294-2.28987 8.96123-4.94129l1.55328.96415q4.8988-2.5309 13.97951-6.267-.11948.48208-2.15069 8.31583 1.79224-.72312 2.74811-1.08467-.7169 3.49505-.7169 5.18232-20.07315 9.03894-39.07095 23.74229-.47793-2.65143-.47793-3.01298 0-.84364.47793-2.28987.47793-1.32571.47793-2.04883-1.31431-1.9283-2.38966-3.01298.35845-.60259.95587-2.41038l-1.55328.12052-.11949-.48208q.59742-.60259 2.38966-1.9283-1.31431-10.12362-2.15069-23.62177-1.4338.96415-4.30139 2.41038-.7169-3.01298-1.31431-4.57973.7169-1.9283 1.31431-3.25402l-1.91173-1.20519q.35845-2.5309 1.31432-6.38752 2.86759-1.32571 4.30139-2.28987v-7.23115q-2.98708 1.32571-9.08071 4.33869.47793-1.20519 3.58449-8.43634-.59742-1.08467-1.91173-3.012979 2.03121-1.928308 3.22604-3.495058-.59742-.482076-1.07535-2.410384-.35845-2.048827-.7169-2.771942 1.19483-1.928307 1.91173-3.133499 12.54572-5.543884 23.06023-9.400499l.47793-2.169346q15.17434-3.977134 30.2292-6.025961zm-9.91709 11.810883h-1.55328l-1.43379.843635-.47794-.12052-.83638.843635 1.79225.361558zm-4.65984 21.090865-2.15069.12052-1.79225.96415h-.71689l-1.07535 1.08467 2.50914.36156zm-22.58229 46.3999h-1.43379l-1.31432.60259h-.35845l-.59741.72312 1.55328.24104zm-5.01828 4.70025-2.27018.12052-1.79225.84363.59742 1.68727zm-80.81509-48.20769q0 20.72931-15.41331 39.28926-16.13021 19.28308-36.20336 19.28308-13.3821 0-20.90953-9.52102l1.07535.24104-1.07535-3.7361-3.58449-1.9283q-4.06242-7.95427-4.06242-17.71633 0-20.60879 15.41331-39.048225 16.13021-19.403594 36.20335-19.403594 8.84175 0 15.65228 4.820768l2.62863 5.423365-3.70398-.241038-.59741-2.048827-5.85467-2.771942 1.67276 3.254019 2.62863 1.928307.35845.964154.11948 3.615577-4.65984 2.289865-4.42087-2.169346 1.67276 3.374538.83638.602596-2.15069 3.374538 3.46501-2.289865.35845.241038.47793.843635 2.15069.602596-.7169-2.530904 5.73519-.482077-.47793-2.289865 3.10656-.602596-1.31432-2.410384 6.09364 2.410384 1.19483-1.44623q4.30139 8.195306 4.30139 18.077883zm-13.74055-5.061808-.83638-2.530903-3.82346-1.928308 1.07535 2.289865 1.67276 1.325712.35845.482076zm-5.37674 14.582828q0-7.35168-4.1819-12.29296-4.06243-5.06181-11.23141-5.06181-10.87295 0-19.59521 10.72621-8.00537 10.0031-8.00537 21.45242 0 7.11064 3.94294 12.05192 4.18191 5.30285 11.47037 5.30285 10.99244 0 19.47574-10.72621 8.12484-10.24413 8.12484-21.45242zm-45.28406 35.31213-.7169-2.28987-3.22604-1.56675.95586 1.80779 1.4338 1.20519.23896.6026zm3.465 9.52102-1.19483-3.97714-5.73518-3.01298 1.67276 3.49506 2.62863 1.80779.47793.96415zm123.34105-88.027864q-3.34552 29.768244-3.34552 58.331294 0 2.16934-.59742 5.42336-.47793 3.25402-.47793 4.82077 0 .48208.7169 10.12362-2.03121 1.08467-3.22604 1.44623-2.1507-2.65143-3.58449-4.09766-2.27018 3.61558-3.82346 6.14648l-1.55328-1.32571-2.38966 1.80779q-.11948-.72311-1.07535-8.67738-9.91709 5.6644-19.71469 13.73919v.48207q-2.62863 1.32572-4.42088 2.28987l-.35845-3.25402.35845-.96415-1.31431-1.92831-1.91173 3.61558 1.55328 4.45921q-1.91173 1.20519-2.86759 2.28986-.11948-1.20519-.11948-3.73609-.95587.48207-2.74811 1.9283 0-.36155-.95587-10.00309-.95586 3.61558-3.10656 10.48517l-.71689-.12052q-1.91173-41.94069-1.91173-56.04143 0-12.654513.71689-23.742281.7169-.241039 1.31432-.241039.59741 0 1.67276.361558 1.07535.241038 1.79225.241038 1.79224 0 4.1819-2.048826l1.79225 6.02596 1.19483-3.495057-.47794-3.133499.47794-.964154-.47794-.843635q.95587-.241038 1.79225-.241038.83638 0 1.79225.602596 1.07534.602596 1.67276.602596 1.79224 0 3.94294-2.169346 2.62862-2.892461 3.82345-3.374538-1.91172 14.823864-3.70397 29.888765-2.03121 17.23424-2.38966 29.76824 5.73519-3.7361 17.08607-11.44933-2.27018-24.465389-2.50914-50.859098 4.30139-1.687269 10.63399-4.338691.7169 2.048826 1.55328 3.856615 1.19483-1.446231 3.22604-3.977135l1.31431-.482076-1.31431 2.169345 2.03121 6.025961 1.19483-3.374538-.47793-3.254019.47793-.964153-.7169-1.084673q.95587-.241039 2.86759-.964154-.11948 1.928307-.11948 4.941288 1.91173-.241039 3.22604-.723116zm-14.09899 8.677384-.35845-1.807788.35845-.602596-.7169-1.205192-.95587 2.048826.95587 3.615577zm3.58449 6.025961-.11949-1.807788.11949-.482077-.59742-1.205192-1.19483 2.048826 1.19483 3.615577zm-36.80077 67.852309q-.11949-1.56675 0-2.5309l-.47794-1.20519-1.19483 2.16934 1.19483 3.49506zm-91.82237-74.793592-2.86759-.361558-5.01829 4.338692 3.82346-.241039 2.74811-1.687269h1.19483l-.23897 2.530904-2.03121.602596 1.67276 2.410384-1.07534 3.254019q-2.50915.723115-7.88588 1.807788-.35845 22.175535-5.25725 71.106335l-.47794 1.32572q-24.25505-1.08468-43.133371-11.69037l2.987076-2.77194.716898-1.80779 6.213117 1.92831-2.15069-2.89246-2.98708-1.44623-.59742-.96416q3.70398-3.01298 3.70398-3.61557 0-.72312-.59742-2.28987-.47793-1.56675-.47793-2.28986 0 0 .11948-.72312 10.51451 5.30285 21.8654 8.19531 0-24.58592-1.91173-44.592113-10.03657 4.820773-21.62643 10.967243.23897-2.04882.83638-6.26699 1.07535-1.08468 2.50915-2.89246-.35845-.24104-3.10656-1.687274l.23896-.723115 1.67277.361557 5.01829-4.097653-3.82346.120519-2.74811 1.446231q0-3.736096.47793-5.182327-.59742-1.084672-1.4338-3.133499 8.00537-3.495057 24.13558-10.485172 13.38209-6.14648 26.0473-10.003095-.35845 1.325712-.95587 3.977134 1.91173-.241038 4.18191-.723115-.11949.843635-.11949 1.687269 0 1.205192.11949 3.374538.23896 2.169346.23896 3.1335zm-9.55864 5.182326-1.79224-.241038-2.1507 1.928307 1.67276-.120519 1.31432-.723116h.47793zm-2.38966-3.495057-2.86759-.241039-3.58449 2.771942 2.62862-.120519 1.91173-.964154h.95587zm-30.34869 67.731803-1.55328-2.41039-2.03121-1.08467-.35845-.72312-1.79224-.12051 1.31431 2.77194zm2.1507 4.82077-1.4338-1.44623-1.67276-.6026-.59742-.48208-1.19483.12052 1.31432 1.92831z"/><g fill="url(#b)" filter="url(#c)" transform="translate(8 8)"><path d="m143.23948 66.352855-2.86759-.361558-5.01829 4.338692 3.82346-.241039 2.74811-1.687269h1.19483l-.23897 2.530904-2.03121.602596 1.67276 2.410384-1.07534 3.254019q-2.50915.723115-7.88588 1.807788-.35845 22.175538-5.25725 71.106338l-.47794 1.32572q-24.25505-1.08468-43.133368-11.69037l2.987076-2.77194.716898-1.80779 6.213117 1.92831-2.150695-2.89246-2.987075-1.44623-.597415-.96416q3.703973-3.01298 3.703973-3.61557 0-.72312-.597415-2.28987-.477932-1.56675-.477932-2.28986 0 0 .119483-.72312 10.514503 5.30285 21.865393 8.19531 0-24.58592-1.91173-44.592116-10.03657 4.820768-21.626425 10.967248.238966-2.048826.836381-6.266999 1.075347-1.084673 2.509144-2.892461-.358449-.241038-3.106559-1.687269l.238966-.723115 1.672762.361557 5.018287-4.097653-3.823456.120519-2.74811 1.446231q0-3.736096.477932-5.182327-.597415-1.084672-1.433796-3.133499 8.005362-3.495057 24.135574-10.485172 13.38209-6.14648 26.0473-10.003095-.35845 1.325712-.95587 3.977134 1.91173-.241038 4.18191-.723115-.11949.843635-.11949 1.687269 0 1.205192.11949 3.374538.23896 2.169346.23896 3.1335zm-9.55864 5.182326-1.79224-.241038-2.1507 1.928307 1.67276-.120519 1.31432-.723116h.47793zm-2.38966-3.495057-2.86759-.241039-3.58449 2.771942 2.62862-.120519 1.91173-.964154h.95587zm-30.34869 67.731806-1.553276-2.41039-2.031212-1.08467-.358449-.72312-1.792245-.12051 1.314313 2.77194zm2.1507 4.82077-1.4338-1.44623-1.672761-.6026-.597415-.48208-1.194831.12052 1.314314 1.92831z" fill="url(#f)"/><path d="m282.37712 58.590793q-3.34552 29.768247-3.34552 58.331297 0 2.16934-.59742 5.42336-.47793 3.25402-.47793 4.82077 0 .48208.7169 10.12362-2.03121 1.08467-3.22604 1.44623-2.1507-2.65143-3.58449-4.09766-2.27018 3.61558-3.82346 6.14648l-1.55328-1.32571-2.38966 1.80779q-.11948-.72311-1.07535-8.67738-9.91709 5.6644-19.71469 13.73919v.48207q-2.62863 1.32572-4.42088 2.28987l-.35845-3.25402.35845-.96415-1.31431-1.92831-1.91173 3.61558 1.55328 4.45921q-1.91173 1.20519-2.86759 2.28986-.11948-1.20519-.11948-3.73609-.95587.48207-2.74811 1.9283 0-.36155-.95587-10.00309-.95586 3.61558-3.10656 10.48517l-.71689-.12052q-1.91173-41.94069-1.91173-56.041429 0-12.654517.71689-23.742285.7169-.241039 1.31432-.241039.59741 0 1.67276.361558 1.07535.241038 1.79225.241038 1.79224 0 4.1819-2.048826l1.79225 6.02596 1.19483-3.495057-.47794-3.133499.47794-.964154-.47794-.843635q.95587-.241038 1.79225-.241038.83638 0 1.79225.602596 1.07534.602596 1.67276.602596 1.79224 0 3.94294-2.169346 2.62862-2.892461 3.82345-3.374538-1.91172 14.823864-3.70397 29.888766-2.03121 17.234242-2.38966 29.768242 5.73519-3.7361 17.08607-11.44933-2.27018-24.465392-2.50914-50.859101 4.30139-1.687269 10.63399-4.338691.7169 2.048826 1.55328 3.856615 1.19483-1.446231 3.22604-3.977135l1.31431-.482076-1.31431 2.169345 2.03121 6.025961 1.19483-3.374538-.47793-3.254019.47793-.964153-.7169-1.084673q.95587-.241039 2.86759-.964154-.11948 1.928307-.11948 4.941288 1.91173-.241039 3.22604-.723116zm-14.09899 8.677384-.35845-1.807788.35845-.602596-.7169-1.205192-.95587 2.048826.95587 3.615577zm3.58449 6.025961-.11949-1.807788.11949-.482077-.59742-1.205192-1.19483 2.048826 1.19483 3.615577zm-36.80077 67.852312q-.11949-1.56675 0-2.5309l-.47794-1.20519-1.19483 2.16934 1.19483 3.49506z" fill="url(#k)"/><path d="m219.97242 92.264486q0 20.729314-15.41331 39.289264-16.13021 19.28308-36.20336 19.28308-13.3821 0-20.90953-9.52102l1.07535.24104-1.07535-3.7361-3.58449-1.9283q-4.06242-7.95427-4.06242-17.71633 0-20.608788 15.41331-39.048228 16.13021-19.403594 36.20335-19.403594 8.84175 0 15.65228 4.820768l2.62863 5.423365-3.70398-.241038-.59741-2.048827-5.85467-2.771942 1.67276 3.254019 2.62863 1.928307.35845.964154.11948 3.615577-4.65984 2.289865-4.42087-2.169346 1.67276 3.374538.83638.602596-2.15069 3.374538 3.46501-2.289865.35845.241038.47793.843635 2.15069.602596-.7169-2.530904 5.73519-.482077-.47793-2.289865 3.10656-.602596-1.31432-2.410384 6.09364 2.410384 1.19483-1.44623q4.30139 8.195306 4.30139 18.077882zm-13.74055-5.061807-.83638-2.530903-3.82346-1.928308 1.07535 2.289865 1.67276 1.325712.35845.482076zm-5.37674 14.582831q0-7.351678-4.1819-12.292966-4.06243-5.061807-11.23141-5.061807-10.87295 0-19.59521 10.72621-8.00537 10.003103-8.00537 21.452423 0 7.11064 3.94294 12.05192 4.18191 5.30285 11.47037 5.30285 10.99244 0 19.47574-10.72621 8.12484-10.24413 8.12484-21.45242zm-45.28406 35.31213-.7169-2.28987-3.22604-1.56675.95586 1.80779 1.4338 1.20519.23896.6026zm3.465 9.52102-1.19483-3.97714-5.73518-3.01298 1.67276 3.49506 2.62863 1.80779.47793.96415z" fill="url(#e)"/><path d="m342.96501 56.470279q-1.07534 3.1335-1.43379 6.508038h-1.07535l-1.91173.964153-.47793-.120519-1.19483 1.205192 2.27018.361558 2.38966-1.687269q-.11949.964154-.35845 2.651423l-4.89881 3.01298 5.37674.361558q-.59742 2.048826-1.79225 6.508037-15.77176 3.856615-27.00316 8.195307-.47793 3.615577-.83638 7.231153 8.36381-2.892461 18.87832-5.905442-.11949.964154-.35845 2.892462 2.27018-.723116 6.81053-1.687269-.7169 2.410384-1.79225 7.110633-1.43379.602596-2.86759.843635.35845.602596 1.31432 1.928307-.35845.843635-.7169 2.410385-9.55864 2.892469-11.23141 3.254019-6.3326 2.04883-10.87295 4.45921-.35845 5.54389-.35845 12.17245 0 3.97713.11948 9.15946 3.94294-2.28987 8.96123-4.94129l1.55328.96415q4.8988-2.5309 13.97951-6.267-.11948.48208-2.15069 8.31583 1.79224-.72312 2.74811-1.08467-.7169 3.49505-.7169 5.18232-20.07315 9.03894-39.07095 23.74229-.47793-2.65143-.47793-3.01298 0-.84364.47793-2.28987.47793-1.32571.47793-2.04883-1.31431-1.9283-2.38966-3.01298.35845-.60259.95587-2.41038l-1.55328.12052-.11949-.48208q.59742-.60259 2.38966-1.9283-1.31431-10.12362-2.15069-23.62177-1.4338.96415-4.30139 2.41038-.7169-3.01298-1.31431-4.57973.7169-1.9283 1.31431-3.25402l-1.91173-1.20519q.35845-2.5309 1.31432-6.38752 2.86759-1.32571 4.30139-2.28987v-7.231149q-2.98708 1.325712-9.08071 4.338692.47793-1.205192 3.58449-8.436345-.59742-1.084673-1.91173-3.01298 2.03121-1.928308 3.22604-3.495058-.59742-.482076-1.07535-2.410384-.35845-2.048827-.7169-2.771942 1.19483-1.928307 1.91173-3.133499 12.54572-5.543884 23.06023-9.400499l.47793-2.169346q15.17434-3.977134 30.2292-6.025961zm-9.91709 11.810883h-1.55328l-1.43379.843635-.47794-.12052-.83638.843635 1.79225.361558zm-4.65984 21.090863-2.15069.120519-1.79225.964154h-.71689l-1.07535 1.084673 2.50914.361557zm-22.58229 46.399905h-1.43379l-1.31432.60259h-.35845l-.59741.72312 1.55328.24104zm-5.01828 4.70025-2.27018.12052-1.79225.84363.59742 1.68727z" fill="url(#j)"/><path d="m403.7447 56.590798q-3.34552 29.768247-3.34552 58.331302 0 2.16935-.59742 5.42337-.47793 3.25402-.47793 4.82077 0 .48207.7169 10.12361-2.03121 1.08467-3.22604 1.44623-2.1507-2.65142-3.58449-4.09765-2.27018 3.61557-3.82346 6.14648l-1.55328-1.32571-2.38966 1.80778q-.11948-.72311-1.07535-8.67738-9.91709 5.6644-19.7147 13.73919v.48208q-2.62862 1.32571-4.42087 2.28986l-.35845-3.25402.35845-.96415-1.31431-1.92831-1.91173 3.61558 1.55328 4.45921q-1.91173 1.20519-2.86759 2.28987-.11949-1.2052-.11949-3.7361-.95586.48208-2.74811 1.92831 0-.36156-.95586-10.0031-.95586 3.61558-3.10656 10.48517l-.7169-.12051q-1.91173-41.94069-1.91173-56.041444 0-12.654518.7169-23.742286.7169-.241038 1.31432-.241038.59741 0 1.67276.361558 1.07535.241038 1.79224.241038 1.79225 0 4.18191-2.048827l1.79224 6.025961 1.19484-3.495057-.47794-3.1335.47794-.964153-.47794-.843635q.95587-.241038 1.79225-.241038.83638 0 1.79224.602596 1.07535.602596 1.67277.602596 1.79224 0 3.94294-2.169346 2.62862-2.892461 3.82345-3.374538-1.91173 14.823863-3.70397 29.888765-2.03121 17.234248-2.38966 29.768248 5.73518-3.73609 17.08607-11.44932-2.27018-24.465408-2.50914-50.859116 4.30139-1.687269 10.63399-4.338692.71689 2.048827 1.55328 3.856615 1.19483-1.44623 3.22604-3.977134l1.31431-.482077-1.31431 2.169346 2.03121 6.025961 1.19483-3.374538-.47793-3.254019.47793-.964154-.7169-1.084673q.95586-.241038 2.86759-.964153-.11948 1.928307-.11948 4.941287 1.91173-.241038 3.22604-.723115zm-14.099 8.677384-.35844-1.807789.35844-.602596-.71689-1.205192-.95587 2.048827.95587 3.615576zm3.5845 6.025961-.11949-1.807789.11949-.482077-.59742-1.205192-1.19483 2.048827 1.19483 3.615576zm-36.80078 67.852327q-.11948-1.56675 0-2.53091l-.47793-1.20519-1.19483 2.16935 1.19483 3.49505z" fill="url(#h)"/><path d="m477.46944 132.44622q-.59742 3.01298-.59742 5.6644l-1.91172-.84363v1.92831l-.95587-1.44624-6.69105-.72311 2.8676 2.5309 3.22604 1.08468.83638.72311h.7169l.23896 3.1335q-.47793-.24104-.83638-.24104-.35845 0-1.31431.48208-.7169.24104-1.67276-.12052l3.465 4.94129q-9.67812-3.85662-18.40038-8.91842-10.75347-5.42337-19.47573-11.81089-.23897 8.19531.35844 13.85971-1.19483.48208-3.465 1.56675l-.11949-.12052.95587-2.16934-2.62863-5.78492-.7169 3.49505.59742 2.41039-1.4338-1.44623q-.11948.12052-3.94294 6.50803l-1.67276-1.32571q-1.4338 1.20519-2.50914 2.04883-4.65984-39.89186-5.25726-62.0674l-1.19483.602596-4.1819-.602596-3.34553 3.133499q-.95586-2.169345-1.31431-3.495057.11948 0 4.06242-2.169346l-2.15069-1.56675 1.55328-.843634h1.07534l1.31432-1.928307-3.82346-.361558-1.55328 1.205192-.47793-1.687269q1.31431-2.289865 1.91173-3.856615l-4.18191.723115v-1.928307q.59742-.361558 2.62863-1.807788 20.90953-15.42646 41.69957-15.42646 10.63399 0 17.44452 4.820769 7.64692 5.423364 7.64692 15.667498 0 21.572939-26.16678 39.048228 15.77176 10.72621 29.39282 17.11373zm-23.8966-46.520421q0-8.315826-11.35089-8.315826-1.19483 0-2.62863.120519-1.91173 15.667498-1.91173 24.826958 15.89125-9.15946 15.89125-16.631651zm-33.45525-12.895556-3.10656-.361558-3.46501 3.012981 2.74811-.12052 1.91173-1.205192h.83638zm46.23993 60.982727-1.67276-2.04883-4.30139-.72311 1.79224 1.68727 2.27018.60259.35845.72312zm-37.15922-.6026-1.91173-4.21817-.47793 2.77194.47793 2.04883-.11948.72311.95586 1.44624z" fill="url(#g)"/><path d="m526.01393 76.06608q-24.6135 14.823863-24.6135 24.58591 0 3.49506 5.97415 6.267 9.08071 4.3387 11.11192 5.90545 5.97415 4.70025 5.97415 12.77503 0 8.07479-7.7664 17.71633-5.6157 7.47219-14.09899 14.10075-.47794-.24104-.47794-1.08468 0-.48207.35845-1.68727.47793-1.20519.47793-1.68727 0-.84363-4.06242-.84363-1.55328 0-2.27018.24104l5.01829-5.30285q-4.30139.6026-7.0495 3.7361l-.95586.24104-.83638.96415-2.86759-1.20519q15.29382-10.84673 15.29382-16.87269 0-3.85662-8.60278-7.95427-13.62106-6.38752-15.89124-7.95427-8.48329-5.6644-8.48329-13.73919 0-13.859703 16.01072-29.406682 12.78469-12.41348 28.31748-19.765152.47793 1.325712 1.91173 3.012981 1.79224 2.289865 2.15069 2.892461l-1.79224.361557-2.8676 2.289866-.83638.120519-1.67276 2.892461 3.46501.361558 3.94294-5.061807q0 .843634-1.07535 5.061807l3.94294 3.01298h-.11948l-2.1507 1.807788-.7169.120519-1.19483 1.807789 2.50915.241038 2.50914-2.651423.59742.723116zm-10.03658-6.14648-2.15069.361557-1.79225 1.687269h-.59741l-.95586 1.807789 2.27017.120519zm-6.09363 73.51672-2.74811.96415-2.03121 1.56675-.59742.36156-1.19483 1.44623 2.62863-.24104z" fill="url(#i)"/></g><path d="m83.382349 106.23374q-.746668 6.72001-.746668 9.89335-1.86667.56-2.986672.56.746668 1.12 2.613338 3.17334-.560001 1.30667-1.680003 4.10667-3.73334.37334-10.826687 1.30667v5.78668q0 2.24-.560001 6.34668-.373334 4.10667-.373334 6.16001 0 5.04001.933335 17.36003-2.800005 1.30667-5.040009 2.24l-1.86667-2.42667 1.306669-3.17334-.373334-5.04.746668-1.49334-1.493336-3.36001-3.360006 5.22668 1.120002 5.60001-1.493336-2.05334q-1.86667 3.36001-6.160011 9.89335l-2.800005-2.24q-2.240004 2.05334-3.546673 2.8-1.866671-13.81335-3.733341-36.40006-4.293341.37333-38.8267371 13.25336l1.493336-7.84002q.746668-.74667 2.4266711-2.05334-.933335-1.30666-1.306669-2.61333l-2.2400041-1.12001q.933335-1.49333 2.0533371-3.92l-.9333351-1.68001q-2.9866721.37334-4.6666752.74667-.18666698-.93333-1.49333603-2.8l2.42667113-4.66668 1.306669-.93333.186667-3.73334-5.4133432 3.17334-.746668 2.8q-1.6800031-2.42667-2.9866721-4.48001-.9333351-.56-4.4800085-2.61334 4.1066744-9.33335 19.9733701-36.960063 7.0933459-12.320022 22.2133739-36.026732.933335 1.86667 2.240004 5.60001 1.493336-1.120002 3.920007-4.106674v-2.800005q3.920007-1.306669 7.280014-1.680003l2.053337 9.893351 2.240004-5.413343-.186667-4.853342.746668-1.493337-.560001-1.120002 4.853342-2.240004q0 .186667 2.426671 6.160012 2.240004-2.986673 5.413343-6.533346.933335-.186667 8.026682-2.800005 0 1.306669-.186668 3.920007 0 2.800005 0 4.293342 1.30667-.186667 5.226677-1.493337-5.413344 52.45343-5.413344 68.880131 2.986673-.37334 8.77335-1.49334-.746668 1.68-1.680003 5.04001 1.120002 0 6.160011-.56zm-27.626717-60.106779-1.306669-2.426671-2.240004 3.73334 1.680003 7.093346q.746668-1.306669 1.120002-4.480008.373334-3.173339.746668-3.920007zm-14.560027 64.026779q-.746668-8.58668-1.680003-25.386709-9.146683 13.066691-17.920032 31.546729 10.453352-3.73334 19.600035-6.16002zm19.600036 25.76005-.933335-1.86667-1.680003 2.80001 1.120002 5.78667 1.120002-2.98667-.186667-2.98667zm-3.920007 8.58668-1.120002-2.42667-2.426671 3.92001 1.493336 7.09335 1.680003-3.73334-.186667-3.92001zm-49.653424-43.30674-4.1066742 2.05334-2.24000408 7.09334 3.36000618-2.61334 1.680003-3.36 1.1200021-.56z" fill="url(#l)" filter="url(#d)"/></g></g></svg>