<svg height="69.793884" width="629.82434" xmlns="http://www.w3.org/2000/svg"><g transform="translate(-46.613191 -129.6829)"><g fill="#ececec" transform="matrix(3.1542882 0 0 1.9909569 -69.423542 7.398544)"><path d="m69.879412 65.608006h-4.159946l-1.013833 2.119973c-.5399-.988295-1.327528-1.691619-2.362887-2.109973-1.035407-.418302-2.461197-.621632-4.277375-.609992-4.145249.05836-7.651506 1.341675-10.518783 3.84995-2.867295 2.508322-4.703895 5.891608-5.509806 10.149868-.408713 2.379146-.349811 4.530783.176706 6.454916.526509 1.924148 1.475914 3.505792 2.848218 4.744939 2.03039 1.79331 4.939483 2.686631 8.727289 2.679965 1.776038.0033 3.332653-.22333 4.669851-.679991 1.337158-.456661 2.478424-1.163317 3.423803-2.119972l.412041 2.199971h3.519954l1.163846-6.599914c.25435-1.371641.430415-2.228296.528193-2.569967.09772-.341653.234453-.578317.410199-.709991.142349-.159988.355173-.279986.638474-.359995.28324-.07999.671955-.119988 1.166147-.119998h1.199984l.641879-3.639953h-14.559811l-.641879 3.639953h1.679978c.49458-.0025.870069.03251 1.126469.104999.256358.07251.42598.197507.508866.374994.129258.131675.182522.368339.159794.709991-.02277.341671-.148836 1.198326-.378195 2.569967l-.04938.279996c-.184587 1.074991-.583892 1.86498-1.197917 2.369969-.614064.504997-1.478138.754994-2.592222.749991-.743194-.000831-1.422124-.139162-2.036793-.414995-.614699-.275826-1.146018-.684153-1.593958-1.224984-.755561-.90415-1.22952-2.015801-1.42188-3.334958-.192385-1.31914-.116416-2.940783.227905-4.864936.605721-3.392439 1.626552-5.977403 3.062496-7.754899 1.435913-1.777455 3.228715-2.672442 5.378411-2.684965 1.005896.0042 1.866988.205854 2.583278.604992.716243.399184 1.252094.970843 1.607553 1.714978.289748.568347.469825 1.191671.540231 1.869975.07035.678343.05753 1.601664-.03847 2.769964h4.159946z" fill="#ececec"/><path d="m84.883997 65.608006-10.340825 20.07974c-.600578 1.208322-1.137232 2.011644-1.609966 2.409968-.472739.398332-1.11006.581663-1.911963.549993h-1.279983l-.641879 3.639953h12.159842l.641879-3.639953h-1.719978c-.673922.0033-1.14373-.07333-1.409423-.229997-.265712-.15666-.363782-.413323-.294212-.76999.0058-.09916.05589-.250826.150234-.454995.09433-.204158.346122-.705817.755386-1.504979l1.046779-2.079973h8.199894l.313203 2.079973c.108513.797495.171126 1.302488.187839 1.51498.01667.212503.0075.3875-.02758.524993-.04791.370833-.216702.619162-.50637.74499-.289704.125835-.814983.184168-1.575838.174998h-1.55998l-.641879 3.639953h15.199803l.64188-3.639953h-1.319984c-.387231-.0017-.735761-.03833-1.045591-.109998-.309886-.07166-.537836-.168327-.68385-.289996-.142006-.154162-.288711-.465824-.440114-.934989-.151458-.469155-.267604-1.010814-.348438-1.624978l-2.659006-20.07974zm3.272409 14.559811h-6.039921l4.707022-8.999883z" fill="#ececec"/><path d="m131.93696 69.92795-2.63805 14.959806c-.25441 1.371655-.43047 2.22831-.52819 2.569967-.0978.341666-.23451.57833-.4102.709991-.14241.160002-.35523.28-.63848.359995-.28329.08-.67201.120002-1.16614.119998h-1.35998l-.64188 3.639953h15.5598l.64188-3.639953h-2.23998c-.49419.000004-.8688-.03999-1.12382-.119998-.25509-.07999-.4256-.199993-.51151-.359995-.12579-.151661-.17729-.398325-.15451-.739991.0227-.341657.14702-1.188312.37291-2.539967l2.09492-11.879846c.25434-1.371628.43041-2.228283.5282-2.569967.0977-.34164.23444-.578303.4102-.70999.14233-.159975.35516-.279974.63847-.359996.28323-.07998.67195-.119975 1.16615-.119998h2.23997l.64188-3.639953h-15.5598l-7.09666 16.19979-1.34323-16.19979h-15.5598l-.64188 3.639953h2.23997c.49415.000023.86876.04002 1.12383.119998.25504.08002.42555.200021.51151.359996.12927.131687.18253.368351.15979.709991-.0228.341683-.14882 1.198338-.37819 2.569966l-2.09493 11.879846c-.25086 1.351655-.42516 2.19831-.5229 2.539967-.0978.341666-.23625.58833-.41549.739991-.14239.160002-.35521.28-.63848.359995-.28327.08-.67199.120002-1.16614.119998h-2.23997l-.64188 3.639953h12.27984l.64188-3.639953h-1.35998c-.49418.000004-.86878-.03999-1.12383-.119998-.25507-.07999-.42557-.199993-.51151-.359995-.12929-.131661-.18255-.368325-.15979-.709992.0227-.341657.1488-1.198312.37819-2.569966l2.63806-14.959806 2.25695 22.35971h6.27991z" fill="#cdc112"/><path d="m156.44649 65.608006-10.34082 20.07974c-.60058 1.208322-1.13723 2.011644-1.60997 2.409968-.47274.398332-1.11006.581663-1.91196.549993h-1.27998l-.64188 3.639953h12.15984l.64188-3.639953h-1.71998c-.67392.0033-1.14373-.07333-1.40942-.229997-.26571-.15666-.36379-.413323-.29421-.76999.006-.09916.0559-.250826.15023-.454995.0943-.204158.34612-.705817.75539-1.504979l1.04677-2.079973h8.1999l.3132 2.079973c.10851.797495.17113 1.302488.18784 1.51498.0167.212503.007.3875-.0276.524993-.0479.370833-.2167.619162-.50637.74499-.2897.125835-.81498.184168-1.57584.174998h-1.55998l-.64188 3.639953h15.19981l.64187-3.639953h-1.31998c-.38723-.0017-.73576-.03833-1.04559-.109998-.30988-.07166-.53783-.168327-.68385-.289996-.14201-.154162-.28871-.465824-.44011-.934989-.15146-.469155-.26761-1.010814-.34844-1.624978l-2.65901-20.07974zm3.27241 14.559811h-6.03992l4.70702-8.999883z" fill="#ececec"/><path d="m176.9271 65.608006-3.19661 8.584027 3.85714 1.815838c.38993-2.334117 1.11686-4.055759 2.18078-5.164932 1.0639-1.10913 2.48097-1.64079 4.25121-1.59498l-2.75796 15.639797c-.25439 1.371655-.43046 2.22831-.52819 2.569967-.0978.341666-.2345.57833-.4102.709991-.14239.160002-.35522.28-.63848.359995-.28328.08-.67199.120002-1.16614.119998h-2.23997l-.64188 3.639953h16.59978l.64188-3.639953h-2.23997c-.49418.000004-.86879-.03999-1.12383-.119998-.25507-.07999-.42557-.199993-.5115-.359995-.1293-.131661-.18257-.368325-.1598-.709992.0227-.341657.1488-1.198312.3782-2.569966l2.75796-15.639797h.83999c1.48133.0017 2.51216.488349 3.0925 1.459981.58028.971674.70184 2.418321.36467 4.339944l-.16929.959987 4.37624-1.139226-1.1942-9.391066z" fill="#ececec"/><path d="m229.82207 65.608006h-26.51609l-.64188 3.639953h2.23997c.49415.000023.86876.04002 1.12382.119998.25505.08002.42555.200021.51151.359996.12927.131687.18254.368351.1598.709991-.0228.341683-.14883 1.198338-.3782 2.569966l-2.09492 11.879846c-.25439 1.371655-.43045 2.22831-.52819 2.569967-.0978.341666-.23449.57833-.4102.709991-.14239.160002-.35521.28-.63848.359995-.28327.08-.67199.120002-1.16614.119998h-2.23997l-.64188 3.639953h26.51609l4.17393-9.493201-5.48469-1.426657c-.22645 1.080829-.41733 1.88915-.57262 2.424968-.15535.535835-.34156 1.034161-.55863 1.494981-.34634.754162-.82635 1.415819-1.44002 1.984973-.61372.569164-1.26611.960826-1.95717 1.174986-.32442.09583-.6697.154168-1.03585.174997-.36619.02084-1.19265.02917-2.47938.025h-4.39994l1.4601-8.279892h1.23998c1.1134-.01 1.87244.260008 2.27713.809989.40466.550004.49438 1.439991.26917 2.669966l-.14108.799989h3.51996l2.11608-11.999844h-3.51995c-.13233.755009-.25098 1.305001-.35596 1.649979-.10503.345013-.22783.635009-.36842.869988-.29847.558343-.70135.971671-1.20865 1.239984-.50733.268346-1.12083.401677-1.84051.399995h-1.35998l1.33313-7.559902h5.27993c.66178-.00081 1.15639.01086 1.48381.035.32738.02419.59669.06585.80795.124998.4817.122521.90064.317519 1.25682.584993.35613.267518.63215.592514.82806.974987.2921.611679.46748 1.318336.52614 2.119972.0586.801675-.008 1.748328-.20081 2.839963l5.80587-1.141326z" fill="#cdc112"/></g><g fill="#cdc112"><path d="m513.16964 57.820696v-3.563233l4.5759-.04247c4.71617-.04377 5.11174-.07163 6.41911-.452037.66603-.193794 1.58599-.768418 1.91712-1.197457.68415-.886451 1.12194-2.31398 5.34624-17.432834 4.21845-15.097898 4.69223-16.949185 4.55122-17.783822-.0755-.44683-.52884-.969717-1.05532-1.217194-.97448-.458056-1.35872-.488343-6.6873-.527113-2.73772-.01992-4.97585-.04355-4.9736-.05252.002-.009.45524-1.623445 1.00666-3.58773l1.00259-3.5714288 28.05584-.022462 28.05583-.022462v3.6162118 3.616212h-9.98334-9.98333l-1.95039 6.986607c-1.07272 3.842634-2.02271 7.241705-2.11111 7.553491l-.16072.566883 3.36677-.04166c2.57867-.03191 3.58365-.07707 4.29332-.192914 2.81329-.459243 4.57429-1.266877 6.03773-2.769041 1.08236-1.111004 1.68099-2.255163 2.32675-4.447112l.25647-.870536h3.95392 3.95393l-.003 5.602679-.003 5.602679-1.76165 6.294643-1.76166 6.294642-5.51867.02301c-5.22941.0218-5.51622.01478-5.47167-.133929.59879-1.99888.81152-3.190028.73916-4.138841-.13519-1.772839-1.07453-2.876887-3.00584-3.532903-1.5642-.531315-2.09737-.588324-5.90654-.631558l-3.45117-.03917-.13701.476698c-.63426 2.206786-4.43386 15.882912-4.43386 15.959039 0 .133647 20.68916.136285 22.45536.0029 2.77642-.209736 5.1299-.829894 7.38839-1.946889l.87054-.430545v4.807722 4.80772h-34.10714-34.10715z" stroke-width=".089286" transform="translate(46.613191 129.6829)"/><path d="m581.51786 56.552345v-4.791509l1.51818-1.031258c2.79185-1.896428 4.43831-4.194681 6.02721-8.413184l.94351-2.505034 7.85376 1.283771c4.31957.706074 8.15295 1.351196 8.51862 1.433605l.66486.149835-6.47195 9.285715-6.47195 9.285714-6.29112.04693-6.29112.04693z" stroke-width=".178571" transform="translate(46.613191 129.6829)"/><path d="m593.13127 28.604845c.003-.116593.12117-.734309.26159-1.372702.53544-2.434283.26272-5.214832-.69732-7.109365-1.28778-2.541316-4.76725-4.212989-9.25804-4.447927l-1.91964-.100427v-3.546141-3.5461401h13.66071c7.5134 0 13.66073.020089 13.66076.044643.00002.024554.52118 4.0569601 1.15814 8.9609051.63696 4.903944 1.1208 8.953566 1.0752 8.999159-.0456.04559-3.84131.548466-8.43492 1.117495-4.59362.569028-8.6132 1.074621-8.93239 1.123543-.38054.05832-.5782.01595-.57409-.123043z" stroke-width=".178571" transform="translate(46.613191 129.6829)"/><path d="m627.95243 186.26198.00005-4.68084 1.02678-.6986c3.31461-2.25516 4.96365-4.51106 6.74373-9.22542.37084-.98215.724-1.84312.7848-1.91329.16755-.19336 16.72307 2.59653 16.65197 2.80614-.13257.39083-12.59396 18.16053-12.77794 18.22111-.10846.0357-2.94945.089-6.31331.11834l-6.11612.0534z" stroke-width=".178571"/><path d="m517.41072 57.882582v-3.456705l1.09762-.114723c.60369-.0631 1.82914-.115679 2.72321-.116845 2.97383-.0039 4.56577-.713129 5.35762-2.386952.49121-1.038334 2.51965-7.963718 5.89047-20.110928 3.88523-14.000921 3.93767-14.258382 3.0858-15.147547-.27165-.28354-.79125-.603404-1.15467-.71081s-2.97104-.251754-5.7947-.320774-5.13541-.173468-5.13722-.232108c-.002-.05864.41494-1.613315.92612-3.454833l.9294-3.3482141h28.00246 28.00246v3.4821431 3.482143h-9.98733-9.98733l-.26899.9375c-.14794.515625-1.08343 3.858669-2.07886 7.428987s-1.85736 6.615234-1.9154 6.766482c-.0939.244711.31556.261163 3.71798.149382 5.6156-.184489 7.68249-.75606 9.79008-2.707314 1.16588-1.079405 2.13234-2.737223 2.62159-4.496946l.30967-1.113806h3.89929 3.8993v5.478124 5.478121l-1.52749 5.459379c-.84011 3.002657-1.64939 5.881251-1.79838 6.396876l-.2709.9375h-5.24465c-3.17298 0-5.28667-.06799-5.35103-.17213-.0585-.09467.0276-.677261.19136-1.294643.45567-1.717927.4077-3.476521-.12094-4.434118-1.09221-1.978452-3.60091-2.62923-10.26094-2.661773l-1.79368-.0088-1.03409 3.705357c-2.70763 9.701984-3.5198 12.76648-3.41197 12.874184.0643.06429 5.23302.116395 11.48593.115791 10.34442-.0011 11.52984-.03117 13.15463-.334846 1.88757-.352788 3.72963-.946063 5.13393-1.653493l.84822-.427295v4.73515 4.735152h-31.96429-31.96428z" stroke-width=".178571" transform="translate(46.613191 129.6829)"/><path d="m517.41072 57.882582v-3.456705l1.09762-.114723c.60369-.0631 1.79217-.114725 2.64105-.114725 2.39846 0 4.13379-.57695 5.05474-1.680563.56834-.68108 1.99986-5.453643 6.55605-21.857307 2.52936-9.10649 3.22196-11.874913 3.22196-12.878592 0-.753921-.0743-.935737-.54383-1.330825-.29911-.251683-.84152-.536666-1.20536-.633295-.36384-.09663-2.93161-.23173-5.70616-.300225-2.77456-.0685-5.04651-.172352-5.0488-.230794-.002-.05844.41317-1.612953.92323-3.454471l.92737-3.3482141h28.00535 28.00535v3.4821431 3.482143h-9.98797c-9.35899 0-9.99364.01968-10.07805.3125-1.25711 4.361107-4.04113 14.53926-4.04113 14.77408 0 .300648.21381.312071 3.61608.193187 4.31142-.150651 5.81154-.413235 7.74955-1.356507 2.32351-1.1309 3.92382-3.210261 4.70294-6.11076l.22785-.848215h3.90536 3.90537v5.492238 5.492236l-1.52259 5.445264c-.83742 2.994894-1.64323 5.867137-1.7907 6.382762l-.26812.9375h-5.25233c-2.88878 0-5.29361-.06679-5.34406-.148423-.0504-.08163.0651-.915912.25669-1.853955.56715-2.776243.0428-4.391829-1.74033-5.362338-1.39937-.761632-2.84284-1.000925-6.83856-1.133675l-3.66072-.121619-1.23333 4.443934c-2.85706 10.294559-3.33116 12.081826-3.23131 12.181669.19387.193879 17.45934.242797 20.9825.05945 3.9346-.204757 5.93723-.615412 8.28016-1.697912l1.3627-.629606v4.720524 4.720523h-31.96429-31.96428z" stroke-width=".178571" transform="translate(46.613191 129.6829)"/><path d="m438.125 61.249723c0-.102159 1.08504-4.005134 1.62574-5.847937l.35367-1.205357h4.87878c5.1541 0 6.27255-.111999 7.56514-.757549 1.1152-.556955 1.54063-1.278785 2.4478-4.153166.98624-3.12491 9.37887-33.179681 9.37887-33.586583 0-.268714-.20137-.286371-2.00893-.176151-4.0712.24825-6.90908.889674-9.51876 2.151451-2.84887 1.377429-5.11565 3.46501-6.66788 6.140769-.73101 1.260126-1.983 4.24882-1.983 4.733725 0 .159698-.11132.290361-.24737.290361-.20586 0-11.74887-3.369628-11.83384-3.454526-.0152-.01519 2.20023-3.804403 4.92319-8.420474l4.95084-8.3928574 3.2018-.1150606c1.761-.063283 17.63313-.1556659 35.27141-.2052947l32.06961-.090234 1.84599 9.1930417c1.30687 6.50825 1.78702 9.22949 1.64406 9.317842-.30733.189938-13.05495 2.247822-13.17578 2.127-.058-.05804.11001-.966332.37344-2.018421.40916-1.634099.46838-2.189507.40635-3.810881-.0615-1.607554-.14676-2.051738-.55725-2.902704-.8918-1.848784-2.92202-3.30418-5.56888-3.992147-1.80619-.469461-7.79623-.839168-8.0073-.494213-.15129.247252-8.70863 30.997097-9.32752 33.517409-.71606 2.91597-.75229 3.529407-.23881 4.042886.89999.899995 1.3214.961612 6.99327 1.022562 2.92188.0314 5.30985.111984 5.3066.179081-.003.06709-.43236 1.648777-.95358 3.514848l-.94768 3.392857-26.09999.045238c-14.35499.024882-26.09999.0044-26.09999-.045515z" stroke-width=".178571" transform="translate(46.613191 129.6829)"/><path d="m327.84359 61.024838c.0549-.172947.46551-1.639465.91248-3.258929s.85237-3.077279.90089-3.239587c.0776-.259481.55632-.304467 3.96563-.372618 3.41358-.06824 4.00385-.123815 4.93442-.464602 1.48781-.544857 2.49197-1.238584 4.00927-2.76983.72395-.730608 8.84664-10.557756 18.05042-21.838109l16.73415-20.5097344 14.67279-.0456806c8.07003-.025124 14.67279-.01331 14.67279.026255s1.92125 9.220835 4.26946 20.402824c2.51902 11.995419 4.46208 20.843375 4.73929 21.580887.25841.6875.74598 1.628024 1.0835 2.090052.92587 1.267436 1.60505 1.429691 6.39128 1.52687l3.89424.07907-.10605.482868c-.0583.265578-.48919 1.844694-.95745 3.509148l-.8514 3.02628-23.87429.04529c-13.13086.02491-23.87345-.01527-23.87242-.08929.001-.07402.42957-1.661364.95231-3.527435l.95044-3.392858 4.80661-.09232c3.93917-.07566 4.92497-.145477 5.46238-.386872.90861-.408132 1.29817-1.069593 1.28495-2.181795-.01-.827962-1.14565-6.242807-1.51133-7.205087l-.15268-.401786h-12.86019-12.86018l-.43122.491072c-1.65116 1.880318-5.82991 7.354826-5.91713 7.751923-.1467.667909.18081 1.196537.95818 1.546618.54167.243934 1.45376.305552 5.26126.355434 4.20811.05513 4.59827.08618 4.51654.359434-.0492.1645-.45791 1.624984-.90824 3.245519-.45034 1.620536-.86097 3.087054-.91251 3.258929-.0885.295087-1.15831.3125-19.20085.3125-18.16111 0-19.1022-.01557-19.00734-.314448zm59.92427-23.80885c0-.273818-4.09646-17.711257-4.18054-17.795335-.0379-.03788-.82471.840376-1.74853 1.95167-6.1218 7.364143-12.946 15.626823-13.06186 15.815177-.10918.177502 1.82135.223214 9.42682.223214 6.786 0 9.56411-.05656 9.56411-.194726z" stroke-width=".178571" transform="translate(46.613191 129.6829)"/><path d="m201.34633 61.116072c.004-.122768.42841-1.709822.94343-3.526786l.93638-3.303572 5.4405-.102757c5.64057-.106534 6.21899-.17991 7.33226-.930144 1.37571-.92709 1.45292-1.150849 5.9829-17.337413 5.06999-18.116139 5.16678-18.553368 4.28958-19.377457-.84984-.798382-1.82945-.944064-7.16993-1.066262l-5.00569-.114538.96456-3.4375.96457-3.4375001h24.49204 24.49204l2.02431 15.4910711c1.11336 8.52009 2.07892 15.770863 2.14569 16.112829l.12138.621755 2.3577-3.389612c1.29673-1.864288 6.31763-9.094972 11.15756-16.068186l8.79987-12.6785714 22.54047-.04533 22.54048-.04533v3.4572934 3.457294l-4.0625.104844c-4.41723.113999-5.6601.311303-6.8275 1.083853-1.26262.835563-1.38234 1.18981-6.05536 17.917092-3.96954 14.209184-4.50684 16.270251-4.54453 17.432761-.0246.759118.0394.922732.53431 1.365254.86084.769755 1.88609.897268 7.21437.897268 2.64695 0 4.81603.06027 4.82017.133928.004.07366-.41773 1.680625-.9375 3.571031l-.94503 3.437101-24.41965.000358c-19.41879.000357-24.4189-.04531-24.41604-.222817.002-.122767.42538-1.709821.94089-3.526785l.9373-3.303572 4.10375-.104289c6.25433-.158941 6.59364-.359084 7.99709-4.717139.90672-2.815593 9.07144-32.087807 9.00535-32.28607-.0304-.09111-7.16375 9.806805-15.85196 21.99537l-15.79673 22.161064-9.86267.0023-9.86267.0023-.0891-.401786c-.049-.220982-1.61636-10.004464-3.48307-21.741071-1.86671-11.736608-3.45698-21.575396-3.53394-21.863976-.11363-.426104-.93519 2.325198-4.37247 14.642858-4.33658 15.540382-5.31398 19.242912-5.31398 20.130162 0 .782829.31325 1.197397 1.22063 1.615441.75507.347875 1.19603.38945 4.71687.444727 2.78061.04366 3.88393.119518 3.88393.267054 0 .113343-.41757 1.713693-.92793 3.556334l-.92792 3.350257h-19.25065c-15.28522 0-19.24919-.04598-19.2436-.223214z" stroke-width=".178571" transform="translate(46.613191 129.6829)"/><path d="m102.12094 61.026786c.0503-.171875.4607-1.638393.91202-3.258929.45132-1.620535.86048-3.079227.90925-3.241535.078-.259463.55703-.304472 3.96609-.372618 3.42063-.06838 4.00364-.123459 4.94884-.467545 1.39148-.506543 2.57303-1.330962 4.05694-2.830707.65989-.666927 8.73924-10.453666 17.95411-21.748309l16.75431-20.5357144 14.67982-.0456806c8.0739-.025124 14.67982.0049 14.67982.066726 0 .061824 1.93374 9.321359 4.2972 20.576742 4.48533 21.360311 4.69155 22.188007 5.89049 23.642522.87787 1.065014 1.73728 1.248332 6.28553 1.340748 2.13616.0434 3.88308.131316 3.88205.195359-.001.06404-.4297 1.643227-.95259 3.509298l-.95072 3.392857-23.88317.04529-23.88316.04529.11007-.501156c.0605-.275635.49307-1.862982.96118-3.527435l.85112-3.026281 4.81207-.09698c2.64664-.05334 4.97279-.166859 5.16922-.252272.85163-.370316 1.33885-.860986 1.51891-1.529673.1972-.732343-.15505-2.842327-1.11726-6.692507l-.40165-1.607143-12.94643-.04476-12.94643-.04476-3.02372 3.803432c-1.66305 2.091888-3.09871 4.028372-3.19035 4.303297-.2348.704402.0927 1.313364.90197 1.677269.55862.251186 1.43063.310906 5.27524.361274 4.20988.05515 4.59798.08606 4.51283.359434-.13365.429137-1.45938 5.156639-1.69883 6.058019l-.20162.758929h-19.11229c-18.11797 0-19.10754-.01626-19.02086-.3125zm59.93263-23.78112c0-.09078-.92411-4.100862-2.05357-8.911303-1.12946-4.810442-2.05357-8.798948-2.05357-8.863349 0-.0644-.077-.06952-.17104-.01138-.18134.11207-14.489 17.347393-14.71654 17.727868-.10613.177455 1.82717.223214 9.43061.223214 5.73461 0 9.56411-.06609 9.56411-.165048z" stroke-width=".178571" transform="translate(46.613191 129.6829)"/><path d="m47.232143 62.396704c-15.643892-.982734-25.650888-5.649254-29.647251-13.825275-1.354655-2.771441-1.686374-4.265902-1.684564-7.589286.0022-4.039307.650639-6.65705 2.676144-10.803572 2.532627-5.184676 6.56003-9.578871 12.226566-13.340088 9.961648-6.612137 23.444423-9.9191795 38.929105-9.5484956 2.40625.057603 5.138393.1933486 6.071429.3016577 5.29826.6150353 8.812144 1.9021521 11.342448 4.1546789l.958716.853466 1.572632-2.057497 1.572632-2.0574968 6.473214-.00133c3.560266-.0007296 6.472796.058941 6.472286.1326019-.00054.073661-1.23604 4.5535719-2.74563 9.9553579l-2.744697 9.821428-6.500276.0468-6.500277.0468.161243-1.825616c.318976-3.611497-.406166-6.006579-2.444722-8.074687-2.615566-2.653484-6.596223-3.878924-12.5951-3.877385-7.443.0019-12.876377 1.835501-17.896503 6.039496-4.509481 3.776368-8.097586 10.437608-9.456158 17.555158-.49413 2.588741-.428623 6.084573.143965 7.68273 1.551623 4.330763 4.849003 7.138525 10.006618 8.520768 1.607037.430688 2.019105.465534 5.661751.478784 3.215302.0117 4.187943-.04537 5.357143-.314293 3.04704-.700848 5.173936-2.193752 6.196298-4.349289.603554-1.272523 1.928702-6.349889 1.928702-7.389909 0-.803068-.38741-1.284625-1.39958-1.7397-.536407-.241172-1.44862-.305039-5.073634-.35523-2.430804-.033651-4.419643-.095576-4.419643-.137606 0-.09077 1.12182-4.116164 1.625741-5.833604l.353668-1.205357h22.849582c12.56727 0 22.849579.04057 22.849579.09016 0 .101686-1.0865 4.009545-1.62574 5.847343l-.35367 1.205357-3.16208.0031c-4.625364.0045-6.436103.499217-7.368299 2.012975-.463058.751937-1.395367 3.743437-3.37865 10.841068-.891927 3.191964-1.742188 6.225446-1.889468 6.741071l-.267782.9375h-5.507586-5.507586l-.580295-2.008929c-.31916-1.10491-.635785-2.070051-.70361-2.144757-.06782-.0747-.736974.213879-1.486997.641298-5.57081 3.174663-14.081725 4.806934-24.686093 4.734442-1.964285-.01343-4.575892-.08751-5.803571-.164636z" stroke-width=".178571" transform="translate(46.613191 129.6829)"/><path d="m639.56924 158.15613c0-.0662.085-.54619.18894-1.06659.27083-1.35625.33811-2.09786.2961-3.26398-.0537-1.49107-.28701-2.63005-.76971-3.75781-.86591-2.02308-2.88139-3.49853-5.86245-4.29167-1.25772-.33463-2.56475-.50642-4.60154-.60481l-.8681-.0419v-3.52792-3.52792h9.83858c5.41122 0 11.54258.0188 13.62524.0418l3.78666.0418.58475 4.51968c.95246 7.36176 1.6486 12.98198 1.6486 13.30983 0 .0353-.10654.0811-.23676.10186-1.40137.22338-17.00715 2.18811-17.38008 2.18811-.20409 0-.25023-.0222-.25023-.12042z" stroke-width=".063134"/><path d="m628.00212 157.49433-.005-5.44536h1.53625 1.53625l-1.49638 5.35733c-.82301 2.94653-1.51208 5.39694-1.53127 5.44535-.0192.0484-.0371-2.36238-.0399-5.35732z" stroke-width=".063134"/></g></g></svg>