<?xml version="1.0" encoding="UTF-8" standalone="no"?>
<svg
   version="1.0"
   width="599.03864"
   height="126.1"
   viewBox="0 0 5990.3864 1261"
   preserveAspectRatio="xMidYMid meet"
   id="svg24"
   sodipodi:docname="gottlieb-clear.svg"
   inkscape:version="1.1 (c68e22c387, 2021-05-23)"
   xmlns:inkscape="http://www.inkscape.org/namespaces/inkscape"
   xmlns:sodipodi="http://sodipodi.sourceforge.net/DTD/sodipodi-0.dtd"
   xmlns="http://www.w3.org/2000/svg"
   xmlns:svg="http://www.w3.org/2000/svg">
  <defs
     id="defs28" />
  <sodipodi:namedview
     id="namedview26"
     pagecolor="#ffffff"
     bordercolor="#666666"
     borderopacity="1.0"
     inkscape:pageshadow="2"
     inkscape:pageopacity="0.0"
     inkscape:pagecheckerboard="0"
     showgrid="false"
     inkscape:zoom="1.2598286"
     inkscape:cx="271.86238"
     inkscape:cy="75.803964"
     inkscape:window-width="1920"
     inkscape:window-height="1027"
     inkscape:window-x="-8"
     inkscape:window-y="22"
     inkscape:window-maximized="1"
     inkscape:current-layer="svg24"
     fit-margin-top="0"
     fit-margin-left="0"
     fit-margin-right="0"
     fit-margin-bottom="0" />
  <g
     id="layer101"
     fill="#18161a"
     stroke="none"
     transform="translate(-7,-869)">
    <path
       d="m 2432,2113 c -41,-20 -78,-63 -94,-111 -8,-26 -13,-166 -15,-484 l -4,-448 h 160 161 v 95 95 h 80 80 v 110 110 h -81 -81 l 4,173 c 2,144 6,176 21,198 22,33 57,49 107,49 h 40 v 115 115 h -172 c -139,0 -180,-4 -206,-17 z"
       id="path2"
       style="fill:#f9f9f9" />
    <path
       d="m 2974,2111 c -23,-10 -50,-32 -61,-47 -47,-66 -48,-84 -48,-549 v -440 l 158,-3 157,-3 v 96 95 h 80 80 v 110 110 h -80 -80 v 155 c 0,218 23,265 130,265 h 40 v 115 115 h -167 c -142,0 -174,-3 -209,-19 z"
       id="path4"
       style="fill:#f9f9f9" />
    <path
       d="m 3400,1600 v -530 h 155 155 v 530 530 h -155 -155 z"
       id="path6"
       style="fill:#f9f9f9" />
    <path
       d="m 3810,1700 v -430 h 150 150 v 430 430 h -150 -150 z"
       id="path8"
       style="fill:#f9f9f9" />
    <path
       d="m 4507,2119 c -154,-36 -288,-182 -319,-347 -34,-181 67,-386 227,-461 192,-90 390,-57 530,90 86,90 127,202 117,322 l -4,47 h -294 c -229,0 -294,3 -294,13 0,6 9,31 20,55 31,68 50,72 325,72 h 235 v 110 110 l -252,-1 c -139,-1 -270,-5 -291,-10 z m 263,-549 c -24,-48 -80,-87 -135,-95 -51,-8 -120,26 -152,74 -41,61 -40,61 142,61 h 165 z"
       id="path10"
       style="fill:#f9f9f9" />
    <path
       d="m 5120,1595 v -535 h 160 160 v 85 85 h 68 c 157,0 275,44 361,135 97,102 147,256 122,379 -27,138 -118,269 -227,328 -89,48 -156,58 -411,58 h -233 z m 444,284 c 119,-30 173,-183 109,-309 -35,-67 -82,-95 -161,-94 -29,1 -58,6 -63,11 -6,6 -8,87 -7,199 l 3,189 30,6 c 17,4 34,7 38,8 5,0 27,-4 51,-10 z"
       id="path12"
       style="fill:#f9f9f9" />
    <path
       d="M 476,2104 C 275,2055 110,1900 37,1691 11,1617 7,1591 7,1505 8,1313 64,1176 195,1044 261,978 293,954 366,919 l 89,-44 408,-3 407,-3 v 131 130 h -149 c -172,0 -161,8 -161,-117 0,-40 -4,-73 -8,-73 -5,0 -53,38 -108,85 -54,47 -102,84 -105,82 -3,-1 -50,-54 -105,-116 l -98,-115 -7,35 c -4,18 -13,80 -20,136 -6,55 -15,106 -19,113 -5,8 -48,2 -156,-23 -82,-20 -150,-34 -152,-32 -2,1 26,75 62,164 l 64,161 -41,24 c -23,14 -68,37 -99,52 -32,16 -58,32 -58,36 0,6 41,31 187,114 l 51,29 -54,144 c -30,79 -52,146 -50,148 2,2 76,-29 165,-71 88,-41 163,-71 165,-68 2,4 16,52 31,107 15,55 28,101 29,102 1,2 44,-49 95,-112 51,-63 95,-115 97,-115 2,0 72,34 155,76 83,41 153,73 155,71 2,-2 -21,-81 -51,-176 -30,-94 -55,-174 -55,-176 0,-3 -11,-5 -25,-5 -14,0 -25,3 -25,7 0,3 18,62 41,131 22,68 37,127 34,130 -3,4 -57,-20 -121,-51 -63,-31 -118,-57 -123,-57 -5,0 -42,40 -82,90 -40,49 -74,88 -76,86 -2,-2 -13,-43 -24,-90 -12,-47 -25,-86 -30,-86 -5,0 -72,32 -149,70 -77,39 -140,67 -140,63 0,-3 23,-55 50,-114 28,-59 50,-112 50,-117 0,-5 -45,-32 -100,-61 -55,-29 -102,-56 -105,-61 -3,-5 25,-25 62,-44 119,-60 115,-42 44,-201 -34,-75 -60,-139 -59,-141 2,-1 64,12 138,31 74,19 136,33 138,31 2,-2 31,-234 32,-254 0,-11 29,22 96,108 42,55 78,100 80,100 3,0 41,-34 85,-75 44,-41 84,-75 88,-75 4,0 11,41 15,92 4,51 9,95 12,97 3,3 54,-3 115,-13 60,-10 112,-17 114,-14 2,2 -25,44 -60,94 -35,49 -65,92 -65,97 0,4 52,7 115,7 h 115 v 365 365 l -367,-1 c -281,0 -382,-4 -427,-15 z"
       id="path14"
       style="fill:#f9f9f9" />
    <path
       d="m 1691,2104 c -159,-43 -284,-169 -326,-329 -63,-242 88,-484 342,-550 145,-38 324,8 437,113 48,45 103,138 121,206 67,247 -86,502 -336,561 -79,18 -167,18 -238,-1 z m 182,-248 c 18,-7 47,-29 64,-49 111,-127 29,-347 -129,-347 -42,0 -88,28 -124,76 -53,69 -43,224 19,282 54,50 111,63 170,38 z"
       id="path16"
       style="fill:#f9f9f9" />
    <path
       d="m 3810,1135 v -65 h 150 150 v 65 65 h -150 -150 z"
       id="path18"
       style="fill:#f9f9f9" />
  </g>
  <g
     id="layer102"
     fill="#eeab0f"
     stroke="none"
     transform="translate(-7,-869)">
    <path
       d="m 661,1833 c -5,-21 -13,-54 -16,-73 -4,-19 -9,-38 -12,-42 -2,-4 -58,19 -123,52 -66,33 -122,60 -124,60 -3,0 13,-39 35,-86 22,-47 37,-89 34,-94 -3,-5 -47,-31 -97,-56 l -91,-47 77,-39 c 42,-21 76,-40 76,-43 0,-3 -23,-57 -51,-120 -29,-64 -49,-118 -45,-122 3,-3 57,7 120,24 l 114,31 5,-22 c 3,-11 9,-57 12,-101 4,-44 10,-84 12,-88 3,-4 34,29 69,75 36,46 69,85 75,86 5,2 40,-26 77,-62 38,-36 71,-66 74,-66 3,0 8,36 11,81 3,44 7,82 9,84 2,3 43,-3 91,-12 48,-8 90,-13 93,-10 3,3 -18,37 -46,76 l -52,71 H 829 669 l 3,113 3,112 132,3 132,3 30,92 c 17,51 31,95 31,98 0,4 -46,-16 -101,-43 -56,-27 -103,-47 -104,-46 -13,20 -118,148 -121,148 -2,0 -8,-17 -13,-37 z"
       id="path21" />
  </g>
</svg>
