<?xml version="1.0" encoding="utf-8"?>
<!-- Generator: Adobe Illustrator 17.0.0, SVG Export Plug-In . SVG Version: 6.00 Build 0)  -->
<!DOCTYPE svg PUBLIC "-//W3C//DTD SVG 1.1//EN" "http://www.w3.org/Graphics/SVG/1.1/DTD/svg11.dtd">
<svg version="1.1" id="Layer_1" xmlns="http://www.w3.org/2000/svg" xmlns:xlink="http://www.w3.org/1999/xlink" x="0px" y="0px"
	 width="1200px" height="1200px" viewBox="0 0 1200 1200" enable-background="new 0 0 1200 1200" xml:space="preserve">
<g>
	<path d="M948.046,202.493l-1.59,267.125H829.944c-23.11,0-33.381-8.33-33.381-25.311l0.879-161.062
		c0-17.344,11.242-26.016,33.402-26.016h49.783l0.636-54.736H948.046 M864.89,411.395h15.738V308.618H864.89
		c-0.321,0-0.643,0.321-0.643,0.642v101.493C864.248,411.074,864.569,411.395,864.89,411.395 M748.302,257.229
		c22.161,0,33.403,8.672,33.403,26.016l-0.868,186.373h-66.762l0.824-160.358c0-0.321-0.321-0.642-0.642-0.642h-15.095
		c-0.321,0-0.643,0.321-0.643,0.642l-0.814,160.358h-66.761l0.77-212.389h66.805v13.169
		C709.76,261.725,726.462,257.229,748.302,257.229 M581.926,257.229c22.161,0,33.403,8.672,33.403,26.016l-0.759,186.373H498.057
		c-22.147,0-33.381-8.33-33.381-25.311l0.661-84.621c0-17.023,11.242-25.373,33.403-25.373h49.783V309.26
		c0-0.321-0.321-0.642-0.643-0.642h-15.095c-0.321,0-0.643,0.321-0.643,0.642v11.883h-66.805v-37.899
		c0-17.344,11.242-26.016,33.403-26.016H581.926 M532.081,418.737h15.277v-31.801h-15.277c-0.311,0-0.623,0.318-0.623,0.636v30.529
		C531.458,418.419,531.77,418.737,532.081,418.737 M416.197,257.229c22.162,0,33.081,8.672,33.081,26.016v59.739
		c0,9.957-5.46,15.417-16.38,16.701c11.242,1.606,16.701,7.066,16.701,17.022l-0.447,107.966c0,0.318,0.323,0.636,0.646,0.636
		l83.25,0.868v50.222l-0.534-0.002v2.267h49.783c22.161,0,33.403,8.672,33.403,26.016l0.03,187.963h-66.57l-0.266-161.948
		c0-0.321-0.321-0.642-0.642-0.642h-15.738l0.323,162.59h-66.57l-0.455-216.517l-50.238-0.204c-22.278,0-33.578-8.276-33.578-25.147
		l0.753-121.603c0-0.323-0.327-0.645-0.653-0.645h-16v106.532h-66.781l0.295-237.829H416.197 M366.414,339.451h15.737
		c0.321,0,0.643-0.321,0.643-0.642V309.26c0-0.321-0.321-0.642-0.643-0.642h-15.737V339.451 M282.905,257.229l-1.081,253.838
		c0,16.995-11.202,25.332-33.285,25.332H132.361v-50.986h82.252c0.321,0,0.641-0.321,0.641-0.641v-12.185h-49.607
		c-22.084,0-33.285-8.337-33.285-25.332l0.553-164.01c0-17.344,11.241-26.016,33.403-26.016H282.905 M216.1,308.618h-15.738
		c-0.321,0-0.643,0.321-0.643,0.642l-0.577,108.833c0,0.321,0.321,0.643,0.643,0.643h15.757L216.1,308.618 M366.095,509.368
		l0.046,42.464h83.186v50.746h-83.186l-0.046,96.948c0,0.322,0.337,0.645,0.672,0.645h16.145c0.336,0,0.672-0.323,0.672-0.645
		l-0.743-83.779h66.484l-1.098,111.59c0,16.977-11.161,25.305-33.163,25.305h-82.589c-22.003,0-33.163-8.328-33.163-25.305
		l0.022-124.759l-23.872,0.602v-50.881l23.872-0.467l-0.022-42.464H366.095 M1043.447,530.039l0.795,21.111h83.477v50.717h-83.477
		l-0.795,97.66l16.818,0.645c0.336,0,0.672-0.645,0.672-0.645l0.064-84.499h66.717v111.444c0,17.025-11.287,25.376-33.538,25.376
		h-83.521c-22.25,0-33.537-8.352-33.537-25.376l0.08-124.604h-16.438V551.15h16.438l-0.537-21.111H1043.447 M948.046,537.989v51.732
		l-83.429,0.332c-0.321,0-0.642,0.321-0.642,0.642v11.884l83.426-0.249v51.731l-83.426-0.093l-0.141,98.675h-66.841l0.176-187.963
		c0-17.023,11.242-26.016,33.403-26.016L948.046,537.989 M748.026,538.664c22.161,0,33.403,8.672,33.403,26.016l-0.336,109.416
		H698.2v25.116c0,0.322,0.32,0.644,0.641,0.644h15.042c0.321,0,0.641-0.322,0.641-0.644v-12.236h66.57v40.276
		c0,17.034-11.187,25.391-33.242,25.391h-82.786c-22.055,0-33.242-8.357-33.242-25.391l-0.384-162.572
		c0-17.344,11.241-26.016,33.403-26.016H748.026 M698.243,619.28h16.38v-28.585c0-0.321-0.321-0.642-0.642-0.642h-15.095
		c-0.321,0-0.643,0.321-0.643,0.642V619.28 M493.297,776.493l-0.488,22.589h83.185v50.746h-83.185l-0.448,95.999
		c0,0.321,0.321,0.642,0.643,0.642h15.421c0.322,0,0.643-0.321,0.643-0.642l0.443-82.831h66.484l-0.426,109.152
		c0,17.013-11.244,25.358-33.411,25.358H458.95c-22.167,0-33.411-8.346-33.411-25.358l0.465-122.321h-16.38v-50.746h16.38
		l0.513-22.589H493.297 M708.322,785.914c22.162,0,33.403,8.672,33.403,26.015l-0.383,160.22c0,17.013-11.244,25.358-33.411,25.358
		h-83.207c-22.167,0-33.411-8.346-33.411-25.358l0.422-160.22c0-17.344,11.241-26.015,33.403-26.015H708.322 M658.778,946.469
		h15.099c0.321,0,0.643-0.321,0.643-0.642l0.4-107.883c0-0.321-0.321-0.642-0.642-0.642h-15.096c-0.321,0-0.642,0.321-0.642,0.642
		l-0.405,107.883C658.135,946.149,658.456,946.469,658.778,946.469 M399.664,785.914l-0.472,186.235
		c0,17.013-11.244,25.358-33.411,25.358h-83.207c-22.167,0-33.411-8.346-33.411-25.358l0.51-186.235h66.806l-0.494,159.914
		c0,0.321,0.321,0.642,0.643,0.642h15.099c0.321,0,0.643-0.321,0.643-0.642l0.489-159.914H399.664 M200.211,785.914
		c22.161,0,33.403,8.672,33.403,26.015l-0.515,185.578H116.481c-22.167,0-33.411-8.346-33.411-25.358l0.553-83.779
		c0-17.023,11.242-25.373,33.403-25.373h49.783v-25.052c0-0.321-0.321-0.642-0.643-0.642h-15.095c-0.321,0-0.643,0.321-0.643,0.642
		v11.884H83.623v-37.899c0-17.344,11.242-26.015,33.403-26.015H200.211 M167.342,914.826h-16.272c-0.332,0-0.664,0.318-0.664,0.637
		l-0.554,32.118c0,0.318,0.332,0.636,0.664,0.636h16.276L167.342,914.826 M970.609,180.064h-22.563h-66.781h-22.17l-0.258,22.169
		l-0.378,32.567h-27.613c-16.144,0-29.19,3.776-38.773,11.222c-0.82,0.637-1.658,1.334-2.498,2.093
		c-0.841-0.759-1.678-1.456-2.499-2.093c-9.583-7.446-22.628-11.222-38.773-11.222c-9.863,0-18.991,0.814-27.354,2.434V234.8
		h-22.429h-66.805h-22.348l-0.017,4.744c-7.769-3.153-16.943-4.744-27.423-4.744H498.74c-16.144,0-29.19,3.776-38.773,11.222
		c-0.85,0.66-1.717,1.384-2.588,2.175c-0.823-0.753-1.642-1.444-2.445-2.077c-9.662-7.617-22.333-11.319-38.737-11.319H305.43
		h-22.525H166.317c-16.145,0-29.19,3.776-38.773,11.222c-7.779,6.044-17.051,17.405-17.059,37.199l-0.553,163.958l0,0.038v0.038
		c0,5.998,0.867,11.21,2.296,15.729h-2.296v22.429v50.986v22.429h22.429h116.177c1.531,0,3.03-0.031,4.496-0.095v44.447v23.002
		l22.994-0.579l0.874-0.022l-0.018,101.753c0,18.915,8.622,30.024,16.254,36.151h-43.466h-22.368l-0.013,4.607
		c-7.696-3.062-16.755-4.607-27.081-4.607h-83.186c-16.144,0-29.189,3.775-38.773,11.222c-7.782,6.046-17.059,17.413-17.059,37.223
		v37.899v22.429h2.419c-1.496,4.59-2.412,9.905-2.419,16.043l-0.553,83.701l-0.001,0.074v0.074c0,19.75,9.413,31.001,17.31,36.961
		c9.652,7.285,22.255,10.826,38.53,10.826h116.618h22.367l0.012-4.471c7.634,2.999,16.602,4.471,27.096,4.471h83.207
		c16.275,0,28.878-3.541,38.53-10.826c2.652-2.002,5.474-4.599,8.054-7.915c2.58,3.316,5.402,5.914,8.054,7.915
		c9.652,7.285,22.255,10.826,38.53,10.826h83.207c16.275,0,28.878-3.541,38.53-10.826c0.903-0.682,1.827-1.433,2.753-2.258
		c0.927,0.825,1.85,1.576,2.753,2.258c9.652,7.285,22.255,10.826,38.53,10.826h83.207c16.275,0,28.878-3.541,38.53-10.826
		c7.897-5.96,17.31-17.211,17.31-36.961l0.383-160.166c0-19.47-8.912-30.776-16.594-36.911h0.29c10.315,0,19.152-1.434,26.696-4.356
		l-0.004,4.356h22.45h66.841h22.397l0.032-22.397l0.109-76.253l61.004,0.068l7.35,0.008l-0.032,49.958
		c0,19.789,9.445,31.047,17.368,37.009c9.668,7.275,22.293,10.811,38.598,10.811h83.521c16.305,0,28.931-3.536,38.599-10.811
		c7.923-5.962,17.368-17.22,17.368-36.995V624.296v-22.429V551.15v-22.429h-22.429h-61.876l-0.795-21.111h-21.6h-66.781h-23.007
		l0.201,7.916l-5.944,0.034L830.5,516.235c-18.956,0.013-32.284,5.337-41.147,13.366c-0.86-0.779-1.716-1.493-2.555-2.144
		c-9.583-7.446-22.629-11.222-38.773-11.222H664.84c-16.145,0-29.19,3.776-38.773,11.222c-0.82,0.637-1.657,1.334-2.498,2.093
		c-0.841-0.759-1.678-1.456-2.498-2.093c-9.583-7.446-22.629-11.222-38.773-11.222h-26.82v-24.188h52.956h22.511h66.761h22.316
		h60.815h22.325l0.02-4.197c7.517,2.814,16.38,4.197,26.764,4.197h116.511h22.296l0.133-22.296l1.59-267.125L970.609,180.064z"/>
</g>
</svg>
