<!DOCTYPE svg PUBLIC "-//W3C//DTD SVG 20010904//EN" "http://www.w3.org/TR/2001/REC-SVG-20010904/DTD/svg10.dtd">
<svg version="1.0" xmlns="http://www.w3.org/2000/svg" width="776px" height="111px" viewBox="0 0 7760 1110" preserveAspectRatio="xMidYMid meet">
<g id="layer101" fill="#000000" stroke="none">
<path d="M5 1098 c-3 -7 -4 -256 -3 -553 l3 -540 264 0 263 0 77 248 c42 136 78 247 81 247 3 0 41 -107 84 -237 43 -131 83 -244 89 -251 7 -9 68 -12 261 -10 l251 3 0 550 0 550 -210 0 -210 0 -3 -320 -3 -320 -107 320 -107 320 -144 3 c-84 1 -148 -2 -155 -7 -7 -6 -57 -151 -112 -322 l-99 -312 -5 319 -5 319 -103 3 c-76 2 -104 -1 -107 -10z"/>
<path d="M1514 1097 c-2 -7 -3 -82 -2 -167 l3 -155 200 0 200 0 0 165 0 165 -198 3 c-156 2 -199 0 -203 -11z"/>
<path d="M2116 1095 c-52 -18 -110 -77 -138 -139 -23 -51 -23 -52 -23 -501 l0 -450 210 0 210 0 5 417 c5 383 6 419 23 435 16 16 38 18 202 18 138 0 187 -3 197 -13 10 -10 14 -107 18 -435 l5 -422 105 0 105 0 3 415 c2 270 -1 438 -8 482 -16 93 -55 152 -123 183 l-52 25 -350 -1 c-272 0 -359 -3 -389 -14z"/>
<path d="M3164 1097 c-2 -7 -3 -82 -2 -167 l3 -155 200 0 200 0 0 165 0 165 -198 3 c-156 2 -199 0 -203 -11z"/>
<path d="M3746 1095 c-52 -18 -100 -67 -128 -129 -23 -50 -23 -56 -23 -401 0 -251 4 -362 12 -391 17 -54 49 -100 96 -138 l39 -31 431 0 432 0 0 110 0 110 -280 5 c-154 3 -286 9 -292 13 -10 6 -13 79 -13 306 0 350 -6 331 107 331 97 0 103 -8 103 -133 l0 -96 -97 -3 -98 -3 0 -110 0 -110 310 0 310 0 0 340 0 340 -435 2 c-350 2 -443 0 -474 -12z"/>
<path d="M4774 1097 c-2 -7 -3 -82 -2 -167 l3 -155 200 0 200 0 0 165 0 165 -198 3 c-156 2 -199 0 -203 -11z"/>
<path d="M5235 1098 c-3 -7 -4 -256 -3 -553 l3 -540 430 0 430 0 0 110 0 110 -217 3 -218 2 0 95 0 95 208 2 207 3 0 110 0 110 -207 3 -208 2 0 115 0 115 223 2 222 3 0 110 0 110 -433 3 c-341 2 -434 0 -437 -10z"/>
<path d="M6214 1097 c-2 -7 -3 -82 -2 -167 l3 -155 200 0 200 0 0 165 0 165 -198 3 c-156 2 -199 0 -203 -11z"/>
<path d="M6665 1098 c-3 -7 -4 -256 -3 -553 l3 -540 261 -3 c202 -2 264 1 271 10 5 7 84 172 174 367 l164 355 5 -365 5 -364 105 0 105 0 0 550 0 550 -265 0 -264 0 -171 -368 -170 -368 -5 368 -5 368 -103 3 c-76 2 -104 -1 -107 -10z"/>
</g>
<g id="layer102" fill="#33363f" stroke="none">
<path d="M987 1084 c-4 -4 -7 -183 -8 -398 l-1 -391 -130 393 -130 392 -131 0 -132 0 -125 -392 -125 -392 -3 392 -2 392 -85 0 -85 0 0 -525 0 -525 242 2 242 3 83 270 c46 149 86 277 89 285 4 8 50 -113 103 -270 l96 -285 238 -3 237 -2 -2 527 -3 528 -181 3 c-99 1 -183 -1 -187 -4z"/>
<path d="M1530 945 l0 -145 183 2 182 3 0 140 0 140 -182 3 -183 2 0 -145z"/>
<path d="M3180 945 l0 -145 180 0 180 0 0 145 0 145 -180 0 -180 0 0 -145z"/>
<path d="M4797 1084 c-4 -4 -7 -70 -7 -146 l0 -138 183 2 182 3 0 140 0 140 -176 3 c-96 1 -178 -1 -182 -4z"/>
<path d="M6230 945 l0 -145 180 0 180 0 0 145 0 145 -180 0 -180 0 0 -145z"/>
<path d="M2125 1066 c-47 -21 -84 -61 -113 -124 l-27 -57 0 -430 0 -430 185 0 185 0 3 411 2 411 25 27 24 26 199 0 c155 0 202 -3 218 -14 18 -14 19 -33 24 -438 l5 -423 80 0 80 0 0 430 c0 315 -3 441 -12 471 -20 63 -54 107 -103 132 -43 22 -51 22 -395 22 -269 -1 -357 -4 -380 -14z"/>
<path d="M3741 1058 c-52 -26 -95 -88 -110 -159 -17 -78 -14 -631 3 -696 20 -73 51 -119 100 -148 l43 -25 401 0 402 0 0 85 0 84 -273 3 c-214 2 -278 6 -290 17 -15 12 -17 48 -17 335 0 237 3 325 12 334 16 16 210 16 226 0 8 -8 12 -53 12 -135 l0 -123 -95 0 -95 0 0 -90 0 -90 285 0 285 0 0 315 0 315 -422 0 c-414 0 -424 0 -467 -22z"/>
<path d="M5250 555 l0 -525 410 0 410 0 0 85 0 85 -220 0 -220 0 0 125 0 125 210 0 210 0 0 90 0 90 -210 0 -210 0 0 135 0 135 223 2 222 3 3 88 3 87 -416 0 -415 0 0 -525z"/>
<path d="M6690 550 l0 -530 242 2 242 3 190 411 191 411 5 -411 5 -411 85 0 85 0 3 528 2 527 -246 -2 -246 -3 -197 -424 -196 -425 -3 427 -2 427 -80 0 -80 0 0 -530z"/>
</g>
<g id="layer103" fill="#545a6e" stroke="none">
<path d="M30 578 c0 -277 3 -513 6 -525 l6 -23 233 0 233 0 26 78 c14 42 52 167 86 277 33 110 63 207 66 215 4 8 50 -115 103 -275 l98 -290 231 -3 232 -2 0 525 0 525 -180 0 -180 0 -2 -407 -3 -408 -135 408 -134 408 -130 -3 -130 -3 -125 -392 -126 -393 -3 395 -2 395 -85 0 -85 0 0 -502z"/>
<path d="M2130 1064 c-53 -23 -98 -72 -122 -133 -21 -54 -22 -72 -26 -445 -2 -214 -1 -404 3 -423 l6 -33 178 0 c177 0 179 0 185 22 3 13 6 197 6 409 0 376 1 387 21 413 l20 26 208 0 c189 0 209 -2 224 -18 15 -17 17 -62 17 -435 l0 -417 80 0 80 0 0 428 c0 477 -3 502 -62 559 -64 62 -73 63 -445 63 -279 -1 -344 -3 -373 -16z"/>
<path d="M3754 1061 c-22 -10 -54 -35 -71 -56 -54 -65 -58 -97 -58 -460 l0 -330 30 -60 c17 -33 47 -72 68 -90 l39 -30 409 -3 409 -3 0 86 0 85 -269 0 c-256 0 -269 1 -295 21 l-26 20 0 310 0 310 25 24 c22 23 32 25 110 25 78 0 88 -2 110 -25 24 -23 25 -30 25 -139 l0 -115 -97 -3 -98 -3 -3 -87 -3 -88 286 0 285 0 0 315 0 315 -417 0 c-385 0 -421 -2 -459 -19z"/>
<path d="M5250 555 l0 -525 405 0 405 0 0 85 0 85 -220 0 -220 0 0 125 0 125 215 0 215 0 0 90 0 90 -215 0 -216 0 3 138 3 137 223 3 222 2 0 85 0 85 -410 0 -410 0 0 -525z"/>
<path d="M6690 555 l0 -525 240 0 240 0 34 68 c18 37 77 161 131 277 53 116 126 275 163 354 l67 145 3 -422 2 -422 80 0 80 0 0 525 0 525 -239 0 -238 0 -118 -252 c-64 -139 -154 -333 -198 -430 l-82 -177 -3 430 -2 429 -80 0 -80 0 0 -525z"/>
</g>
<g id="layer104" fill="#6b737c" stroke="none">
<path d="M30 586 c0 -271 3 -508 6 -525 l6 -31 234 0 233 0 40 127 c22 71 60 196 86 278 25 83 48 157 51 165 4 8 44 -97 90 -235 46 -137 91 -269 100 -292 l16 -43 229 0 229 0 0 525 0 525 -180 0 -180 0 -2 -407 -3 -408 -135 408 -134 408 -130 -3 -129 -3 -126 -393 -126 -393 -3 395 -2 396 -85 0 -85 0 0 -494z"/>
<path d="M1532 943 l3 -138 178 -3 177 -2 0 140 0 140 -180 0 -181 0 3 -137z"/>
<path d="M2124 1061 c-22 -10 -55 -36 -72 -57 -62 -75 -65 -99 -70 -514 -2 -206 -1 -394 3 -417 l6 -43 178 0 179 0 6 31 c3 17 6 201 6 409 0 367 1 378 21 404 l20 26 208 0 c189 0 209 -2 224 -18 15 -17 17 -62 17 -435 l0 -417 80 0 81 0 -3 448 c-3 436 -4 448 -25 487 -27 50 -58 80 -105 100 -31 12 -93 15 -375 15 -307 0 -342 -2 -379 -19z"/>
<path d="M3180 940 l0 -140 178 2 177 3 3 138 3 137 -181 0 -180 0 0 -140z"/>
<path d="M3754 1061 c-22 -10 -54 -35 -71 -56 -54 -65 -58 -97 -58 -460 l0 -330 30 -60 c17 -33 47 -72 68 -90 l39 -30 409 -3 409 -3 0 86 0 85 -269 0 c-256 0 -269 1 -295 21 l-26 20 0 310 0 310 25 24 c22 23 32 25 108 25 70 0 89 -3 111 -21 25 -20 26 -23 26 -139 l0 -119 -97 -3 -98 -3 -3 -87 -3 -88 286 0 285 0 0 315 0 315 -417 0 c-385 0 -421 -2 -459 -19z"/>
<path d="M4792 943 l3 -138 178 -3 177 -2 0 140 0 140 -180 0 -181 0 3 -137z"/>
<path d="M5250 555 l0 -525 405 0 405 0 0 85 0 85 -220 0 -220 0 0 125 0 125 215 0 215 0 0 90 0 90 -215 0 -215 0 0 140 0 140 225 0 225 0 0 85 0 85 -410 0 -410 0 0 -525z"/>
<path d="M6230 940 l0 -140 178 2 177 3 3 138 3 137 -181 0 -180 0 0 -140z"/>
<path d="M6690 555 l0 -525 240 0 240 0 33 68 c19 37 108 226 198 421 l164 355 3 -422 2 -422 80 0 80 0 0 525 0 525 -239 0 -238 0 -199 -430 -199 -430 -3 430 -2 430 -80 0 -80 0 0 -525z"/>
</g>
<g id="layer105" fill="#889598" stroke="none">
<path d="M40 555 l0 -525 233 0 234 0 10 33 c6 17 45 145 88 282 43 138 80 253 84 257 4 4 37 -86 75 -200 38 -114 82 -244 98 -289 l30 -83 229 0 229 0 0 525 0 525 -180 0 -180 0 -1 -412 -1 -413 -136 412 -137 412 -127 1 -127 0 -96 -297 c-53 -164 -111 -343 -130 -398 l-33 -100 -1 398 -1 397 -80 0 -80 0 0 -525z"/>
<path d="M2145 1068 c-51 -18 -94 -57 -123 -111 l-27 -52 -3 -437 -3 -438 180 0 180 0 3 409 3 409 24 26 24 26 207 0 c188 0 208 -2 223 -18 15 -17 17 -60 17 -413 0 -217 3 -404 6 -416 6 -21 12 -23 80 -23 l74 0 0 423 c0 360 -2 432 -16 477 -20 66 -73 123 -129 139 -53 14 -678 14 -720 -1z"/>
<path d="M3767 1065 c-48 -17 -82 -48 -110 -100 -21 -39 -22 -50 -22 -410 0 -362 0 -371 22 -411 28 -52 72 -90 121 -104 22 -6 187 -10 420 -10 l382 0 0 85 0 85 -266 0 c-261 0 -296 4 -316 34 -4 6 -8 151 -8 323 l0 312 26 20 c22 18 41 21 114 21 78 0 89 -2 109 -23 20 -22 21 -32 19 -143 l-3 -119 -97 -3 -98 -3 0 -84 0 -85 285 0 285 0 0 315 0 315 -412 0 c-324 -1 -421 -4 -451 -15z"/>
<path d="M5250 555 l0 -525 405 0 405 0 0 85 0 85 -220 0 -220 0 0 125 0 125 215 0 215 0 0 85 0 85 -212 2 -213 3 -3 143 -3 142 226 0 225 0 0 85 0 85 -410 0 -410 0 0 -525z"/>
<path d="M6690 555 l0 -525 242 2 242 3 192 413 c106 228 195 416 198 419 3 4 6 -183 6 -415 l0 -422 80 0 80 0 0 525 0 525 -238 0 -238 0 -174 -377 c-96 -208 -187 -402 -202 -433 l-26 -55 -1 433 -1 432 -80 0 -80 0 0 -525z"/>
</g>
<g id="layer106" fill="#8e98c0" stroke="none">
<path d="M40 555 l0 -525 233 0 233 0 48 153 c27 83 57 181 68 217 11 36 29 92 39 124 11 33 19 65 19 73 0 43 23 -10 84 -194 38 -115 82 -245 98 -290 l30 -83 229 0 229 0 0 525 0 525 -180 0 -180 0 0 -412 -1 -413 -28 75 c-15 41 -76 227 -137 412 l-109 337 -127 1 -127 0 -76 -237 c-42 -131 -87 -269 -100 -308 -13 -38 -36 -110 -52 -160 l-28 -90 -3 398 -2 397 -80 0 -80 0 0 -525z"/>
<path d="M1530 945 l0 -135 180 0 180 0 0 135 0 135 -180 0 -180 0 0 -135z"/>
<path d="M2145 1068 c-51 -18 -94 -57 -123 -111 l-27 -52 -3 -437 -3 -438 180 0 180 0 3 409 3 409 24 26 24 26 207 0 c187 0 208 -2 223 -18 15 -16 17 -62 17 -413 1 -217 3 -405 7 -417 5 -20 12 -22 79 -22 l74 0 0 423 c0 360 -2 432 -16 477 -20 66 -73 123 -129 139 -53 14 -678 14 -720 -1z"/>
<path d="M3180 945 l0 -135 180 0 180 0 0 135 0 135 -180 0 -180 0 0 -135z"/>
<path d="M3766 1065 c-54 -19 -93 -60 -116 -123 -20 -53 -21 -73 -18 -406 3 -340 4 -352 25 -392 28 -52 72 -90 121 -104 22 -6 187 -10 420 -10 l382 0 0 85 0 84 -281 3 c-264 3 -281 4 -295 22 -11 16 -14 78 -14 332 l0 313 26 20 c22 18 41 21 115 21 125 0 129 -5 129 -167 l0 -123 -100 0 -100 0 0 -85 0 -85 285 0 285 0 0 315 0 315 -412 0 c-325 -1 -421 -4 -452 -15z"/>
<path d="M5250 555 l0 -525 405 0 405 0 0 85 0 85 -220 0 -220 0 0 125 0 125 215 0 215 0 0 85 0 85 -215 0 -215 0 0 145 0 145 225 0 225 0 0 85 0 85 -410 0 -410 0 0 -525z"/>
<path d="M6230 945 l0 -135 180 0 180 0 0 135 0 135 -180 0 -180 0 0 -135z"/>
<path d="M6690 555 l0 -525 242 2 242 3 152 330 c84 182 173 371 196 420 l43 90 3 -422 2 -423 80 0 80 0 0 525 0 525 -238 0 -238 0 -59 -127 c-32 -71 -71 -155 -86 -188 -16 -33 -80 -172 -143 -310 l-116 -250 0 438 0 437 -80 0 -80 0 0 -525z"/>
</g>
<g id="layer107" fill="#a5b4bb" stroke="none">
<path d="M40 570 l0 -510 236 0 235 0 13 33 c8 17 46 140 86 272 41 132 76 243 79 247 4 4 48 -118 99 -272 l94 -280 234 0 234 0 0 510 0 510 -180 0 -180 0 -2 -412 -3 -413 -135 410 -136 410 -125 3 -125 3 -118 -363 c-65 -200 -124 -381 -131 -403 -12 -36 -14 -10 -14 226 -1 146 -4 327 -8 402 l-6 137 -74 0 -73 0 0 -510z"/>
<path d="M1540 1013 c0 -38 -3 -98 -7 -135 l-6 -68 182 0 181 0 0 135 0 135 -175 0 -175 0 0 -67z"/>
<path d="M2164 1071 c-48 -12 -92 -42 -120 -82 -51 -75 -54 -100 -54 -531 l0 -398 180 0 180 0 0 385 c0 419 1 429 55 453 17 8 88 12 206 12 175 0 212 -5 231 -34 4 -6 8 -182 8 -391 0 -209 3 -390 6 -402 6 -21 12 -23 80 -23 l74 0 0 408 c0 435 -3 466 -50 532 -12 17 -40 40 -63 53 -41 21 -52 22 -372 24 -181 1 -344 -2 -361 -6z"/>
<path d="M3180 945 l0 -135 181 0 182 0 -6 68 c-4 37 -7 97 -7 135 l0 67 -175 0 -175 0 0 -135z"/>
<path d="M3792 1070 c-55 -13 -108 -55 -133 -107 -24 -47 -24 -53 -27 -392 -3 -384 0 -410 63 -476 l32 -35 427 0 426 0 0 70 0 70 -275 0 c-262 0 -276 1 -295 20 -19 19 -20 33 -20 333 0 381 -9 357 135 357 133 0 135 -2 135 -165 l0 -125 -100 0 -101 0 3 -82 3 -83 283 -3 282 -2 0 315 0 315 -402 -1 c-222 -1 -418 -5 -436 -9z"/>
<path d="M6230 945 l0 -135 181 0 182 0 -6 68 c-4 37 -7 97 -7 135 l0 67 -175 0 -175 0 0 -135z"/>
<path d="M6690 565 l0 -505 248 0 247 0 184 398 c101 218 187 401 192 406 5 6 9 -165 9 -397 l0 -407 80 0 80 0 0 505 0 505 -238 0 -239 0 -51 -107 c-28 -60 -119 -254 -201 -433 l-151 -325 0 433 0 432 -80 0 -80 0 0 -505z"/>
</g>
<g id="layer108" fill="#bdcaec" stroke="none">
<path d="M40 570 l0 -510 235 0 c213 0 235 2 243 17 5 10 44 133 87 273 43 140 81 258 84 262 3 4 48 -119 100 -272 l93 -280 234 0 234 0 0 510 0 510 -180 0 -180 0 -2 -412 -3 -413 -136 410 -135 410 -125 3 -125 3 -128 -398 c-71 -219 -133 -402 -137 -407 -5 -6 -9 166 -9 397 l0 407 -75 0 -75 0 0 -510z"/>
<path d="M1540 945 l0 -135 175 0 175 0 0 135 0 135 -175 0 -175 0 0 -135z"/>
<path d="M2164 1071 c-48 -12 -92 -43 -121 -84 -49 -71 -53 -109 -53 -534 l0 -393 180 0 180 0 0 385 c0 419 1 429 55 453 34 16 374 16 408 1 14 -6 30 -22 36 -36 7 -16 11 -149 11 -413 l0 -390 75 0 75 0 0 403 c0 237 -5 420 -11 447 -14 63 -52 116 -102 142 -41 22 -50 23 -372 25 -181 1 -344 -2 -361 -6z"/>
<path d="M3180 945 l0 -135 175 0 175 0 0 135 0 135 -175 0 -175 0 0 -135z"/>
<path d="M3792 1070 c-55 -13 -108 -55 -133 -107 -24 -48 -24 -49 -24 -408 0 -358 0 -360 23 -404 13 -24 34 -54 47 -67 l24 -24 426 0 425 0 0 70 0 70 -273 0 c-230 0 -276 2 -295 16 -22 15 -22 16 -22 335 0 386 -10 359 135 359 133 0 135 -2 135 -165 l0 -125 -95 0 -95 0 0 -80 0 -80 280 0 280 0 0 310 0 310 -402 -1 c-222 -1 -418 -5 -436 -9z"/>
<path d="M4800 945 l0 -135 175 0 175 0 0 135 0 135 -175 0 -175 0 0 -135z"/>
<path d="M5250 570 l0 -510 405 0 405 0 0 70 0 70 -220 0 -220 0 0 125 0 125 215 0 215 0 0 85 0 85 -215 0 -215 0 0 145 0 145 225 0 225 0 0 85 0 85 -410 0 -410 0 0 -510z"/>
<path d="M6230 945 l0 -135 175 0 175 0 0 135 0 135 -175 0 -175 0 0 -135z"/>
<path d="M6690 565 l0 -505 247 2 248 3 167 360 c92 198 179 383 192 410 l25 50 0 -412 1 -413 80 0 80 0 0 505 0 505 -239 0 -238 0 -123 -262 c-67 -145 -156 -338 -198 -430 l-77 -167 -3 430 -2 429 -80 0 -80 0 0 -505z"/>
</g>
<g id="layer109" fill="#e2f6fd" stroke="none">
<path d="M40 435 l0 -335 243 0 244 0 78 253 c43 138 80 256 83 262 3 5 45 -108 92 -250 l87 -260 241 -3 242 -2 0 335 0 335 -180 0 -180 0 -1 -262 -1 -263 -87 260 -88 260 -224 3 -225 2 -78 -242 c-43 -134 -82 -247 -87 -252 -5 -6 -9 94 -9 242 l0 252 -75 0 -75 0 0 -335z"/>
<path d="M1990 435 l0 -335 180 0 180 0 0 335 0 335 -180 0 -180 0 0 -335z"/>
<path d="M2860 435 l0 -335 75 0 75 0 0 335 0 335 -75 0 -75 0 0 -335z"/>
<path d="M3632 483 l3 -288 28 -50 27 -50 445 3 445 2 0 50 0 50 -273 0 c-230 0 -276 2 -295 16 -22 15 -22 17 -22 285 l0 269 -181 0 -180 0 3 -287z"/>
<path d="M4260 695 l0 -75 -95 0 -95 0 0 -80 0 -80 280 0 280 0 0 155 0 155 -185 0 -185 0 0 -75z"/>
<path d="M5250 435 l0 -335 405 0 405 0 0 50 0 50 -220 0 -220 0 0 125 0 125 215 0 215 0 0 85 0 85 -215 0 -215 0 0 75 0 75 -185 0 -185 0 0 -335z"/>
<path d="M6690 435 l0 -335 257 2 257 3 143 305 c78 168 146 317 152 333 l10 27 -197 0 -198 0 -50 -107 c-28 -60 -86 -185 -130 -279 l-79 -172 -3 279 -2 279 -80 0 -80 0 0 -335z"/>
<path d="M7570 435 l0 -335 80 0 80 0 0 335 0 335 -80 0 -80 0 0 -335z"/>
</g>


</svg>