<?xml version="1.0" encoding="UTF-8" standalone="no"?>
<!-- Created with Inkscape (http://www.inkscape.org/) -->

<svg
   width="1074.6505pt"
   height="138.96689pt"
   viewBox="0 0 1074.6504 138.96688"
   version="1.1"
   id="svg8"
   inkscape:version="1.1.2 (b8e25be833, 2022-02-05)"
   sodipodi:docname="pdp1.svg"
   xml:space="preserve"
   xmlns:inkscape="http://www.inkscape.org/namespaces/inkscape"
   xmlns:sodipodi="http://sodipodi.sourceforge.net/DTD/sodipodi-0.dtd"
   xmlns="http://www.w3.org/2000/svg"
   xmlns:svg="http://www.w3.org/2000/svg"
   xmlns:rdf="http://www.w3.org/1999/02/22-rdf-syntax-ns#"
   xmlns:cc="http://creativecommons.org/ns#"
   xmlns:dc="http://purl.org/dc/elements/1.1/"><defs
     id="defs2" /><sodipodi:namedview
     id="base"
     pagecolor="#ffffff"
     bordercolor="#666666"
     borderopacity="1.0"
     inkscape:pageopacity="0.0"
     inkscape:pageshadow="2"
     inkscape:zoom="0.35355339"
     inkscape:cx="661.85195"
     inkscape:cy="-438.40621"
     inkscape:document-units="px"
     inkscape:current-layer="layer1"
     showgrid="true"
     units="pt"
     inkscape:snap-bbox="true"
     inkscape:bbox-paths="true"
     inkscape:bbox-nodes="true"
     inkscape:object-paths="true"
     inkscape:snap-intersection-paths="true"
     inkscape:snap-smooth-nodes="true"
     inkscape:snap-page="true"
     inkscape:snap-text-baseline="true"
     inkscape:window-width="1280"
     inkscape:window-height="961"
     inkscape:window-x="3832"
     inkscape:window-y="568"
     inkscape:window-maximized="1"
     inkscape:snap-grids="false"
     inkscape:showpageshadow="2"
     inkscape:pagecheckerboard="0"
     inkscape:deskcolor="#d1d1d1"
     showguides="true"><inkscape:grid
       type="xygrid"
       id="grid10"
       originx="-29.249999"
       originy="-97.28312"
       units="px"
       spacingx="0.74999996"
       spacingy="0.74999996" /></sodipodi:namedview><metadata
     id="metadata5"><rdf:RDF><cc:Work
         rdf:about=""><dc:format>image/svg+xml</dc:format><dc:type
           rdf:resource="http://purl.org/dc/dcmitype/StillImage" /></cc:Work></rdf:RDF></metadata><g
     inkscape:label="Layer 1"
     inkscape:groupmode="layer"
     id="layer1"
     transform="translate(373.02853,-630.8773)"><g
       id="g42510"
       style="fill:#adadad;fill-opacity:1"><path
         d="m -127.39753,676.40467 c 0,-7.80469 -1.30078,-14.74219 -3.68555,-20.37892 -2.60156,-5.63672 -5.85352,-10.40625 -9.75586,-14.0918 -4.11915,-3.68555 -8.88868,-6.50391 -14.09181,-8.23829 -5.20313,-1.73437 -10.62305,-2.60156 -16.25977,-2.60156 h -201.83801 v 26.88283 h 47.69534 v 84.76762 h -47.69534 v 27.09963 h 129.64461 v -27.09963 h -51.81449 v -22.98048 h 122.9239 c 5.63672,0 11.27345,-0.65039 16.69337,-2.38477 5.41993,-1.73437 10.18946,-4.33594 14.3086,-7.80469 4.11914,-3.46875 7.3711,-7.80469 9.97266,-13.44141 2.60157,-5.41993 3.90235,-11.92384 3.90235,-19.72853 z m -32.51955,-0.65039 c 0,2.16797 -0.43359,4.33594 -1.08398,6.50391 -0.6504,2.16797 -1.73438,3.90235 -3.46876,5.41993 -1.73437,1.73437 -3.90234,3.03515 -6.50391,3.90234 -2.60156,1.08399 -5.85352,1.51758 -9.75586,1.51758 l -114.46882,0.2168 v -35.33791 h 114.68562 c 4.33594,0 7.80469,0.65039 10.40625,1.51758 2.60157,1.08398 4.76954,2.38476 6.28711,4.11914 1.51758,1.73437 2.60157,3.46875 3.03516,5.63672 0.4336,2.16797 0.86719,4.33594 0.86719,6.50391 z"
         style="font-size:216.797px;line-height:1.25;font-family:HellenicWideJF;-inkscape-font-specification:HellenicWideJF;font-variant-ligatures:no-common-ligatures;letter-spacing:13.6125px;stroke-width:20.6473;stroke-linecap:round;stroke-linejoin:round;stroke-miterlimit:2.3;paint-order:stroke markers fill;fill:#adadad;fill-opacity:1"
         id="path42494" /><path
         d="m 145.93743,699.38515 c 0,-22.98048 -6.50391,-40.32424 -19.07814,-51.59768 C 114.06827,636.51402 94.122947,630.8773 67.240119,630.8773 H -96.875208 v 26.23244 h 47.261746 v 85.63481 h -47.261746 v 27.09963 H 75.261608 c 9.972662,0 19.51173,-1.30078 28.183612,-3.90235 8.67188,-2.60156 16.04298,-6.72071 22.33009,-12.35743 6.28711,-5.63672 11.27344,-12.79102 14.74219,-21.89649 3.46876,-8.88868 5.41993,-19.72853 5.41993,-32.30276 z m -33.38674,-1.95117 c 0,7.3711 -0.86719,13.87501 -2.16797,19.51173 -1.51758,5.63672 -4.11914,10.40626 -7.58789,14.3086 -3.468755,3.90235 -8.455086,6.72071 -14.525402,8.67188 -6.287113,1.95117 -14.091805,2.81836 -23.630873,2.81836 h -84.334032 v -85.63481 h 84.334032 c 9.105474,0 16.910166,0.86719 23.197279,2.60156 6.070316,1.73438 11.056647,4.11915 14.742196,7.5879 3.46875,3.46875 6.07032,7.58789 7.58789,12.57422 1.51758,5.20313 2.38477,11.05665 2.38477,17.56056 z"
         style="font-size:216.797px;line-height:1.25;font-family:HellenicWideJF;-inkscape-font-specification:HellenicWideJF;font-variant-ligatures:no-common-ligatures;letter-spacing:13.6125px;stroke-width:20.6473;stroke-linecap:round;stroke-linejoin:round;stroke-miterlimit:2.3;paint-order:stroke markers fill;fill:#adadad;fill-opacity:1"
         id="path42496" /><path
         d="m 421.22356,676.40467 c 0,-7.80469 -1.30078,-14.74219 -3.68555,-20.37892 -2.60156,-5.63672 -5.85351,-10.40625 -9.75586,-14.0918 -4.11914,-3.68555 -8.88868,-6.50391 -14.09181,-8.23829 -5.20312,-1.73437 -10.62305,-2.60156 -16.25977,-2.60156 h -201.838 v 26.88283 h 47.69534 v 84.76762 h -47.69534 v 27.09963 h 129.6446 v -27.09963 h -51.81448 v -22.98048 h 122.9239 c 5.63672,0 11.27344,-0.65039 16.69336,-2.38477 5.41993,-1.73437 10.18946,-4.33594 14.30861,-7.80469 4.11914,-3.46875 7.37109,-7.80469 9.97266,-13.44141 2.60156,-5.41993 3.90234,-11.92384 3.90234,-19.72853 z m -32.51955,-0.65039 c 0,2.16797 -0.43359,4.33594 -1.08398,6.50391 -0.65039,2.16797 -1.73438,3.90235 -3.46875,5.41993 -1.73438,1.73437 -3.90235,3.03515 -6.50391,3.90234 -2.60157,1.08399 -5.85352,1.51758 -9.75587,1.51758 l -114.46881,0.2168 V 657.97693 H 368.1083 c 4.33594,0 7.80469,0.65039 10.40626,1.51758 2.60156,1.08398 4.76953,2.38476 6.28711,4.11914 1.51758,1.73437 2.60156,3.46875 3.03516,5.63672 0.43359,2.16797 0.86718,4.33594 0.86718,6.50391 z"
         style="font-size:216.797px;line-height:1.25;font-family:HellenicWideJF;-inkscape-font-specification:HellenicWideJF;font-variant-ligatures:no-common-ligatures;letter-spacing:13.6125px;stroke-width:20.6473;stroke-linecap:round;stroke-linejoin:round;stroke-miterlimit:2.3;paint-order:stroke markers fill;fill:#adadad;fill-opacity:1"
         id="path42498" /><path
         d="m 701.62191,769.84418 v -27.09963 h -50.5137 V 630.8773 h -74.79497 v 26.23244 h 45.96097 v 85.63481 h -51.38089 v 27.09963 z"
         style="font-size:216.797px;line-height:1.25;font-family:HellenicWideJF;-inkscape-font-specification:HellenicWideJF;font-variant-ligatures:no-common-ligatures;letter-spacing:13.6125px;stroke-width:20.6473;stroke-linecap:round;stroke-linejoin:round;stroke-miterlimit:2.3;paint-order:stroke markers fill;fill:#adadad;fill-opacity:1"
         id="path42491" /><path
         id="rect41505"
         style="opacity:1;stroke-width:3.94538;stroke-linecap:square;stroke-miterlimit:2.3;paint-order:stroke markers fill;fill:#adadad;fill-opacity:1"
         d="m 450.47137,704.96918 h 81 v 26.25 h -81 z" /></g></g></svg>
