<svg id="Layer_1" data-name="Layer 1" xmlns="http://www.w3.org/2000/svg" viewBox="0 0 3840 602.30001"><path d="M1082.5,285a74.251,74.251,0,0,1-69.2-47.5l-21.4-55.4a74.06373,74.06373,0,0,1,33.6-91.7L1173.6,9.2a74.29809,74.29809,0,0,1,103.69995,35.4l30.2,69.1a74.15222,74.15222,0,0,1-38.30005,97.7c-158.19995,68.9-161.1,69.6-168.6,71.5A81.8361,81.8361,0,0,1,1082.5,285Z" transform="translate(0 -0.10001)"/><path d="M3019,598.2a118.83134,118.83134,0,0,1-91.5-43,118.85174,118.85174,0,0,1-183,0,118.88451,118.88451,0,0,1-210.3999-75.9V283.8A118.98545,118.98545,0,0,1,2653,164.9h366a119.04959,119.04959,0,0,1,118.8999,118.9V479.4C3137.8999,544.9,3084.5,598.2,3019,598.2Z" transform="translate(0 -0.10001)"/><path d="M3019,239H2653a44.68352,44.68352,0,0,0-44.7,44.7V479.3a44.69995,44.69995,0,1,0,89.3999,0V328.5h93.5V479.4a44.69995,44.69995,0,1,0,89.3999,0V328.5h93.5V479.4a44.7,44.7,0,1,0,89.39991,0V283.8A44.47125,44.47125,0,0,0,3019,239Z" transform="translate(0 -0.10001)" style="fill:#ffe900"/><path d="M3548.3999,598.2a118.83134,118.83134,0,0,1-91.5-43A118.88451,118.88451,0,0,1,3246.5,479.3V283.8a118.98545,118.98545,0,0,1,118.8999-118.9h183a119.04959,119.04959,0,0,1,118.8999,118.9V479.4C3667.30005,544.9,3614,598.2,3548.3999,598.2Z" transform="translate(0 -0.10001)"/><path d="M3548.3999,239h-183A44.68352,44.68352,0,0,0,3320.7,283.7V479.3a44.69995,44.69995,0,1,0,89.3999,0V328.5h93.5V479.4a44.7,44.7,0,1,0,89.39991,0V283.8A44.61942,44.61942,0,0,0,3548.3999,239Z" transform="translate(0 -0.10001)" style="fill:#ffe900"/><path d="M3192.2,598.2a119.04958,119.04958,0,0,1-118.8999-118.9V405.2a118.8999,118.8999,0,1,1,237.7998,0v74.1A118.98513,118.98513,0,0,1,3192.2,598.2Z" transform="translate(0 -0.10001)"/><path d="M3192.2,405.1a118.9,118.9,0,1,1,118.8999-118.9A119.04958,119.04958,0,0,1,3192.2,405.1Z" transform="translate(0 -0.10001)"/><path d="M3192.2,241.5a44.7,44.7,0,1,0,44.69995,44.7A44.68352,44.68352,0,0,0,3192.2,241.5Z" transform="translate(0 -0.10001)" style="fill:#ffe900"/><path d="M3721.1001,598.2a119.04958,119.04958,0,0,1-118.8999-118.9V405.2a118.98544,118.98544,0,0,1,118.8999-118.9C3786.7,286.3,3840,339.7,3840,405.3v74.1C3840,544.9,3786.7,598.2,3721.1001,598.2Z" transform="translate(0 -0.10001)"/><path d="M3721.1001,405.1A118.9,118.9,0,1,1,3840,286.2,119.04958,119.04958,0,0,1,3721.1001,405.1Z" transform="translate(0 -0.10001)"/><path d="M3721.1001,330.9a44.7,44.7,0,1,0-44.7-44.7A44.68352,44.68352,0,0,0,3721.1001,330.9Z" transform="translate(0 -0.10001)" style="fill:#ffe900"/><path d="M3192.2,360.6a44.68352,44.68352,0,0,0-44.7,44.7v74.1a44.69995,44.69995,0,1,0,89.3999,0V405.3A44.68352,44.68352,0,0,0,3192.2,360.6Z" transform="translate(0 -0.10001)" style="fill:#ffe900"/><path d="M3721.1001,360.6a44.68352,44.68352,0,0,0-44.7,44.7v74.1a44.7,44.7,0,1,0,89.3999,0V405.3A44.68352,44.68352,0,0,0,3721.1001,360.6Z" transform="translate(0 -0.10001)" style="fill:#ffe900"/><path d="M74.2,595.9A74.17381,74.17381,0,0,1,0,521.7V144.8A74.1738,74.1738,0,0,1,74.2,70.6H194.1c211.6,0,243.2,124,243.2,197.8,0,108.2-72.8,181.6-188.5,193.9v59.4a74.17381,74.17381,0,0,1-74.2,74.2Z" transform="translate(0 -0.10001)"/><path d="M542.1,602.4c-130.4,0-221.4-90.9-221.4-221.1,0-130.5,91-221.6,221.4-221.6s221.4,91.1,221.4,221.6C763.5,511.5,672.4,602.4,542.1,602.4Z" transform="translate(0 -0.10001)"/><path d="M895,595.9a74.5608,74.5608,0,0,1-35.5-9,73.39873,73.39873,0,0,1-35.5,9H736.5a74.17382,74.17382,0,0,1-74.2-74.2v-405a74.17381,74.17381,0,0,1,74.2-74.2H824a74.17381,74.17381,0,0,1,74.2,74.2v49.5h95.4a74.13193,74.13193,0,0,1,61.3,115.9l-60.7,89L1063.7,482.3a74.154,74.154,0,0,1-62.9,113.5H895Z" transform="translate(0 -0.10001)"/><path d="M1173.4,602.4c-128.3,0-221.4-93.2-221.4-221.6C952,250.6,1038.2,159.7,1161.7,159.7c122.69995,0,202,91,202,231.9v17.8a74.09989,74.09989,0,0,1-23.30005,54v47a74.28979,74.28979,0,0,1-44.3,67.9C1259.80005,594.3,1218.5,602.4,1173.4,602.4Z" transform="translate(0 -0.10001)"/><path d="M1684.2,595.9a74.18924,74.18924,0,0,1-42.30005-13.2,74.18893,74.18893,0,0,1-42.3,13.2h-87.5a74.18924,74.18924,0,0,1-42.30005-13.2,74.18892,74.18892,0,0,1-42.3,13.2h-87.5a74.17378,74.17378,0,0,1-74.2-74.2V240.4a74.17376,74.17376,0,0,1,74.2-74.2h79.7a75.43882,75.43882,0,0,1,27.4,5.2,184.48028,184.48028,0,0,1,65.9-11.7c30.9,0,59.1,7.6,83,21.7,25.4-14.2,54.6-21.7,86.1-21.7,74.6,0,163.6,34,163.6,196.2V521.7a74.17377,74.17377,0,0,1-74.2,74.2Z" transform="translate(0 -0.10001)"/><path d="M1966.1,602.4c-130.4,0-221.4-90.9-221.4-221.1,0-130.5,91-221.6,221.4-221.6s221.4,91.1,221.4,221.6C2187.5,511.5,2096.5,602.4,1966.1,602.4Z" transform="translate(0 -0.10001)"/><path d="M2342.80005,595.9a73.945,73.945,0,0,1-47.3999-17.1,73.74215,73.74215,0,0,1-47.39991,17.1h-87.5a74.17377,74.17377,0,0,1-74.19995-74.2V240.4a74.17375,74.17375,0,0,1,74.19995-74.2h79.7a75.43818,75.43818,0,0,1,27.3999,5.2A184.47956,184.47956,0,0,1,2333.5,159.7c100.6001,0,170.8999,76.7,170.8999,186.5V521.7A74.17377,74.17377,0,0,1,2430.2,595.9Z" transform="translate(0 -0.10001)"/><path d="M74.2,144.8H194.1c115,0,169,38.9,169,123.7,0,76.1-55.6,121.5-149.6,121.5H174.6V521.8H74.2ZM174.6,318.7h25.9c34.6,0,62.1-12.4,62.1-51.8,0-38.3-27.5-50.8-62.1-50.8H174.6Z" transform="translate(0 -0.10001)" style="fill:#fff"/><path d="M394.9,381.3c0-93.4,63.6-147.4,147.2-147.4s147.2,54,147.2,147.4c0,92.9-63.6,146.9-147.2,146.9C458.5,528.2,394.9,474.2,394.9,381.3Zm204,0c0-42.1-16.5-79.4-56.9-79.4s-56.9,37.3-56.9,79.4c0,41.6,16.5,78.8,56.9,78.8S598.9,422.9,598.9,381.3Z" transform="translate(0 -0.10001)" style="fill:#fff"/><path d="M736.5,116.7H824V358.6h1l72.9-118.3h95.7L905.7,369.4l95.2,152.3H895L825,382.4h-1v139.3H736.5Z" transform="translate(0 -0.10001)" style="fill:#fff"/><path d="M1340.2,240.4h79.69995v51.8h1c17.5-40.5,52.5-58.3,92.30005-58.3,35.9,0,65.6,17.3,79.19995,54,20.4-37.8,53.9-54,89.9-54,72.9,0,89.4,45.9,89.4,122v165.8h-87.5V370.5c0-31.9-10.19995-55.6-35-55.6-31.1,0-49.6,27.5-49.6,88V521.7h-87.5V370.5c0-31.9-10.2-55.6-35-55.6-31.1,0-49.6,27.5-49.6,88V521.7H1340V240.4Z" transform="translate(0 -0.10001)" style="fill:#fff"/><path d="M1818.9,381.3c0-93.4,63.6-147.4,147.2-147.4s147.20007,54,147.20007,147.4c0,92.9-63.6001,146.9-147.19995,146.9C1882.5,528.2,1818.9,474.2,1818.9,381.3Zm204,0c0-42.1-16.5-79.4-56.9-79.4s-56.9,37.3-56.9,79.4c0,41.6,16.5,78.8,56.9,78.8S2022.9,422.9,2022.9,381.3Z" transform="translate(0 -0.10001)" style="fill:#fff"/><path d="M2160.6001,240.4h79.69995v51.8h1c17.5-40.5,52.5-58.3,92.30005-58.3,69,0,96.69995,54,96.69995,112.3v175.5h-87.5V385.6c0-52.9-16.5-70.7-40.3-70.7-36,0-54.3999,27.5-54.3999,88V521.7h-87.5Z" transform="translate(0 -0.10001)" style="fill:#fff"/><path d="M1114.6,409.4c4.9,38.9,31.6,54,74.4,54a150.78048,150.78048,0,0,0,77.30005-21.6v68.6C1238.1001,522.8,1206,528.2,1173.5,528.2c-83.6,0-147.19995-54.5-147.19995-147.4s56.9-146.9,135.6-146.9c93.80005,0,127.80005,74,127.80005,157.7v17.8H1114.6Zm96.20007-55.1c0-32.4-13.6-58.9-48.6-58.9-31.6,0-46.6,26.5-48.6,58.9Z" transform="translate(0 -0.10001)" style="fill:#fff"/><path d="M1061.1,155.4l21.4,55.4c4.4-1.1,156.9-67.5,156.9-67.5l-30.19995-69.1Z" transform="translate(0 -0.10001)" style="fill:#fff"/></svg>