<svg id="Layer_1" data-name="Layer 1" xmlns="http://www.w3.org/2000/svg" viewBox="0 0 3839.5 1547.29993"><path d="M817.1,720.6q58.95,0,104.6,45.6,45.6,45.6,45.6,95.9,0,118.65-132.4,176-132.45,57.29992-288,57.4-223.2,0-385-161.9Q.05,771.6,0,548.5,0,324.55,163.5,163.1,326.85,1.55,546.9,1.6q161.1,0,290.7,56.6Q967.20007,114.75,967.3,235q0,44.85-43.3,92.3-43.2,47.55-107,47.5-40.2,0-99.1-26.7-86.55-39.3-171.5-39.3-97.5,0-171.9,72.3T300.2,548.5q0,93.45,74,166.6,73.95,73.05,172.3,73.1,84.15,0,171.5-40.1Q777.7,720.5,817.1,720.6Z" transform="translate(0 0)" style="fill:#4fbbb2"/><path d="M1164.5,928l-34.1,67.6q-48,93.6-138.4,93.5-63.6,0-108.5-47.9-44.85-47.85-44.8-106.1,0-31.35,9.4-51.9l356.8-765.9q22.79994-49.65,64.1-78,41.25-28.35,86.80005-28.4c30.9,0,60.19995,9.6,87.69995,28.6q41.25,28.65,64.1,77.3L1861,883.2Q1871.20008,906,1871.2,935.1q0,58.95-44.1,106.50006-44.1,47.54992-107.7,47.5-89.70006,0-138.4-93.5l-35.9-67.6H1164.5ZM1425.7,638.8l-70.4-153.2L1285.1,638.8Z" transform="translate(0 0)" style="fill:#4fbbb2"/><path d="M2104,323c0,12.1,4,20,12.2,24q12.15015,5.85,67.19995,14.9A519.40441,519.40441,0,0,1,2288.7,390.6q50.25,19.65,104.1001,72.7,53.84985,53.1,80.5,122.2,26.70008,69.15,26.7,153.2,0,133.65-108.8,244.4-108.75,110.85-251.8999,110.8-153.15,0-259.3-80.5-106.04992-80.55-106.1-192.9,0-57.3,44.80005-100.2,44.85-42.75,107.6-42.8,33,0,61.69995,11.8,28.65,11.85,70.3,57.8,41.70008,46.05,76.2,46,67.5,0,67.6001-78.6,0-52.65-119.3999-70.7-124.95008-18-200-107.7-75-89.55-75-220.8,0-124.2,92.3-218.8,92.4-94.65,244-94.7,135.90015,0,200,42.8,64.04994,42.9,64,134,0,46.35-44,90.8-44.09985,44.4-104.5,44.4-20.40013,0-59.3-11.4-38.84987-11.4-65.6001-11.4c-6.30005,0-13,3.4-20,10.2C2107.5,307.8,2104,315.1,2104,323Z" transform="translate(0 0)" style="fill:#4fbbb2"/><path d="M2788.7,918.6q0,74.7-42.3999,120.19995-42.45007,45.6-108.5,45.6-65.25,0-107.3-45.6-42-45.6-42-120.2V178.4q0-74.7,42.3999-121Q2573.35,11.05,2637.7998,11q64.34987,0,107.7,46.4,43.20006,46.35,43.19995,121V918.6Z" transform="translate(0 0)" style="fill:#4fbbb2"/><path d="M3292.2,0Q3518.4,0,3678.8999,164.6q160.5,164.7,160.6001,383.9,0,219.3-160.2,383.1Q3519.1,1095.3999,3292.2,1095.4q-226.20008,0-386.30005-163.8Q2745.69983,767.8,2745.7,548.5q0-219.3,160.19995-383.9Q3065.9502.05,3292.2,0Zm0,794.4q103.04992,0,175.1001-73.1,72-73.05,72-172.9,0-95.85-72.8-171.7-72.75-75.9-174.3-75.8-96.75,0-171.6001,75.4-74.70008,75.45-74.7,172.1,0,99,72,172.5Q3189.8999,794.55,3292.2,794.4Z" transform="translate(0 0)" style="fill:#4fbbb2"/><path d="M1862.4,1484.7q0,28.20007-16,45.4c-10.6,11.5-24.19995,17.19995-40.5,17.19995-16.4,0-29.9-5.69995-40.69995-17.19995q-16.04993-17.25-16.1-45.4V1300c-16.6,4.6-26.30005,6.80005-29.1,6.80005-11.9,0-23.4-5.19995-34.69995-15.69995-11.30005-10.5-16.9-22.6-16.9-36.5q0-35.25,20.4-48.6l85-54.6c9.1-6.1,18.6-9.19995,28.4-9.19995q27,0,43.5,16.9c11.1,11.30005,16.6,23.19995,16.6,35.9V1484.7Z" transform="translate(0 0)" style="fill:#4fbbb2"/><path d="M2038.1,1142.2q85.94988,0,146.20007,61.1,60.15015,61.04993,60.2,141.7,0,80.4-60.2,141.3-60.15015,60.9-146.19995,60.9-85.95008,0-146.2-60.9-60.15-60.9-60.19995-141.3,0-80.70007,60-141.7Q1951.85,1142.1,2038.1,1142.2Zm0,293.20007q37.8001,0,65.50012-26.69995c18.3999-17.80005,27.69995-39,27.69995-63.80005q0-37.95006-27.5-64.5-27.45007-26.54992-65.6-26.5-40.20007,0-66.6,27.1-26.54993,27.15-26.5,63.9,0,37.35,27.4,63.9C1990.6,1426.6,2012.5,1435.4,2038.1,1435.4Z" transform="translate(0 0)" style="fill:#4fbbb2"/><path d="M2410.30005,1142.2q85.95008,0,146.2,61.1,60.15015,61.04993,60.2,141.7,0,80.4-60.2,141.3-60.15015,60.9-146.2,60.9-85.95007,0-146.19995-60.9-60.15015-60.9-60.2-141.3,0-80.70007,60-141.7Q2324.04993,1142.1,2410.30005,1142.2Zm0,293.20007q37.79993,0,65.5-26.69995c18.3999-17.80005,27.7-39,27.7-63.80005q0-37.95006-27.5-64.5-27.45007-26.54992-65.6001-26.5-40.20007,0-66.6001,27.1-26.54992,27.15-26.5,63.9,0,37.35,27.39991,63.9C2362.80005,1426.6,2384.7,1435.4,2410.30005,1435.4Z" transform="translate(0 0)" style="fill:#4fbbb2"/><path d="M2782.5,1142.2q85.95007,0,146.2,61.1,60.15015,61.04993,60.19995,141.7,0,80.4-60.19995,141.3-60.15015,60.9-146.2,60.9-85.95007,0-146.2-60.9-60.15015-60.9-60.19995-141.3,0-80.70007,60-141.7Q2696.24988,1142.1,2782.5,1142.2Zm0,293.20007q37.79993,0,65.5-26.69995c18.3999-17.80005,27.7-39,27.7-63.80005q0-37.95006-27.5-64.5-27.45008-26.54992-65.6001-26.5-40.20008,0-66.60009,27.1-26.54994,27.15-26.5,63.9,0,37.35,27.3999,63.9C2735,1426.6,2756.8999,1435.4,2782.5,1435.4Z" transform="translate(0 0)" style="fill:#4fbbb2"/><path d="M948.5,1389.5V1484.7q0,28.20007-16,45.4c-10.7,11.5-24.3,17.19995-40.9,17.19995-16.4,0-29.9-5.69995-40.5-17.19995s-15.9-26.6-15.9-45.4v-290.9c0-13.8,5.8-25.9,17.3-36.19995,11.6-10.30005,25.8-15.4,42.6-15.4h91.1q55.8,0,90.7,35.9,34.95008,35.85,35,88.69995,0,44.25-33.69995,83.5-33.6,39.29993-74,39.30005H948.5Zm0-105.30005H988a15.51528,15.51528,0,0,0,12.2-5.6,19.26567,19.26567,0,0,0,4.7-12.5,19.92581,19.92581,0,0,0-4.7-12.6A14.96723,14.96723,0,0,0,988,1247.7H948.5Z" transform="translate(0 0)" style="fill:#4fbbb2"/><path d="M1277.4,1368.1l84.30005-192.30005a61.83261,61.83261,0,0,1,19.8-24c8.9-6.4,17.7-9.69995,26.30005-9.69995q29.54992,0,46.6,16.19995c11.30005,10.80005,17,24.2,17,40.2,0,7.69995-1.3,14.19995-3.9,19.6l-134.4,289.6q-8.54993,18.75-24,29.1a58.13307,58.13307,0,0,1-33.1,10.4c-10.8,0-21.4-3.6-31.8-10.69995A68.85258,68.85258,0,0,1,1220.4,1507.69983l-134.6-289.70007a53.80388,53.80388,0,0,1-3.5-19.6c0-14.19995,5.1-27.19995,15.4-38.80005,10.3-11.69995,23.1-17.5,38.6-17.5q41.25,0,56.1,33.5Z" transform="translate(0 0)" style="fill:#4fbbb2"/><path d="M1443.9,1352.2h0a55.86512,55.86512,0,0,1,55.9-55.9h96a55.86512,55.86512,0,0,1,55.9,55.9h0a55.86512,55.86512,0,0,1-55.9,55.9h-96A55.86512,55.86512,0,0,1,1443.9,1352.2Z" transform="translate(0 0)" style="fill:#4fbbb2"/></svg>