<?xml version="1.0" encoding="UTF-8" standalone="no"?>
<svg
   height="164.58501"
   viewBox="0 0 600.00067 246.877"
   width="400"
   version="1.1"
   id="svg16"
   sodipodi:docname="seibukaihatsu.svg"
   inkscape:version="1.1.2 (b8e25be833, 2022-02-05)"
   xmlns:inkscape="http://www.inkscape.org/namespaces/inkscape"
   xmlns:sodipodi="http://sodipodi.sourceforge.net/DTD/sodipodi-0.dtd"
   xmlns="http://www.w3.org/2000/svg"
   xmlns:svg="http://www.w3.org/2000/svg">
  <defs
     id="defs20" />
  <sodipodi:namedview
     id="namedview18"
     pagecolor="#ffffff"
     bordercolor="#666666"
     borderopacity="1.0"
     inkscape:pageshadow="2"
     inkscape:pageopacity="0.0"
     inkscape:pagecheckerboard="0"
     showgrid="false"
     width="400px"
     inkscape:zoom="1.3155234"
     inkscape:cx="229.18634"
     inkscape:cy="97.299675"
     inkscape:window-width="1280"
     inkscape:window-height="961"
     inkscape:window-x="3832"
     inkscape:window-y="568"
     inkscape:window-maximized="1"
     inkscape:current-layer="svg16" />
  <text
     fill="#ef00eb"
     font-family="TrasksHand"
     font-size="3px"
     stroke="#0105ff"
     stroke-width="3.75"
     x="446.62387"
     y="46.955231"
     id="text4"><tspan
       fill="#fafafa"
       fill-opacity="0.4"
       stroke="none"
       x="446.62387"
       y="46.955231"
       id="tspan2">John Loreth 2022</tspan></text>
  <g
     stroke-linecap="round"
     stroke-linejoin="round"
     transform="translate(8.9238515,-0.47076816)"
     id="g14">
    <path
       d="m 287.268,4.611 c -12.783,0 -25.483,5.28 -34.512,14.334 -9.03,9.056 -14.28,21.772 -14.28,34.565 0,12.792 5.25,25.509 14.28,34.564 0.688,0.69 1.527,1.2 2.256,1.846 -0.814,0.552 -1.624,1.114 -2.305,1.824 -0.491,0.512 -0.832,1.079 -1.232,1.625 -3.325,-2.678 -7.262,-4.95 -11.817,-6.322 a 11.917,11.917 0 0 0 -3.62,-0.506 l -23.77,0.363 a 11.917,11.917 0 0 0 -1.55,0.125 c -5.222,0.767 -9.659,2.921 -13.325,5.647 V 75.31 a 11.917,11.917 0 0 0 -0.233,-2.338 c -0.978,-4.887 -2.997,-10.08 -6.976,-14.371 -3.98,-4.292 -9.728,-7.124 -15.782,-8.133 a 11.917,11.917 0 0 0 -2.47,-0.15 c -23.013,0.988 -44.237,0.98 -64.534,0.423 l 0.184,0.008 c -5.013,-0.214 -9.779,1.053 -14.727,4.668 -4.947,3.614 -9.203,10.17 -10.162,17.998 a 11.917,11.917 0 0 0 -0.082,1.813 c 0.716,23.508 1.146,46.942 0.362,70.636 a 11.917,11.917 0 0 0 0.002,0.838 c 0.161,4.328 1.103,9.757 5.152,15.05 1.14,1.492 2.638,2.82 4.307,4.018 -1.843,0.765 -3.652,1.752 -5.336,3.336 -5.259,4.945 -5.718,12.186 -4.895,16.885 l -0.039,-0.232 c 1.647,10.647 1.964,21.435 2.19,32.726 a 11.917,11.917 0 0 0 0.164,1.744 c 0.534,3.17 0.924,8.404 5.172,13.934 4.247,5.53 12.23,8.573 20.068,8.475 l -0.276,0.002 63.776,0.67 a 11.917,11.917 0 0 0 3.031,-0.36 c 4.14,-1.04 8.395,-2.968 12.365,-6.937 0.329,-0.328 0.606,-0.79 0.922,-1.158 1.25,1.83 2.685,3.57 4.543,5.003 5.175,3.994 11.8,5.171 17.953,4.657 l -0.992,0.04 h 33.74 a 11.917,11.917 0 0 0 0.194,-0.001 c 3.284,-0.054 6.843,-0.915 10.004,-2.666 2.842,2.232 6.364,3.6 10.09,3.6 h 40.109 c 4.04,0 7.491,-1.26 10.562,-3.68 3.767,2.004 7.703,2.334 11.328,1.968 h 36.348 a 11.917,11.917 0 0 0 2.76,-0.324 c 6.512,-1.55 9.163,-4.44 12.152,-8.521 0.451,0.524 0.839,1.119 1.328,1.595 4.679,4.554 10.31,6.865 15.817,8.27 a 11.917,11.917 0 0 0 3.015,0.37 l 52.774,-0.314 c 7.753,0.015 13.316,-2.376 16.637,-3.968 4.065,2.457 8.356,3.136 11.644,3.324 4.214,0.24 7.633,-0.092 10.149,-0.092 a 11.917,11.917 0 0 0 0.746,-0.023 c 4.93,-0.31 11.143,-4.03 13.486,-8.338 2.343,-4.309 2.25,-7.528 2.324,-9.785 a 11.917,11.917 0 0 0 0.006,-0.334 l 0.266,-56.408 c 0.367,-3.092 1.2,-7.363 -2.944,-13.11 -2.18,-3.025 -6.232,-5.372 -9.67,-5.957 -2.523,-0.43 -4.635,-0.195 -6.636,0.197 h -2.547 v -81.09 a 11.917,11.917 0 0 0 -3.912,-8.829 l -6.856,-6.214 a 11.917,11.917 0 0 0 -8.004,-3.088 h -24.654 l 1.354,0.078 c -1.574,-0.18 -3.204,-0.233 -4.93,-0.057 -3.217,0.328 -6.563,2.088 -9.32,4.406 -0.457,-0.45 -0.837,-0.96 -1.37,-1.343 -4.296,-3.097 -8.164,-2.9 -10.167,-2.826 -9.763,0.24 -17.918,1.186 -24.63,0.134 a 11.917,11.917 0 0 0 -0.69,-0.088 c -3.467,-0.336 -6.746,-0.312 -10.26,0.739 -3.515,1.05 -7.25,3.636 -9.34,6.797 -4.18,6.32 -3.014,11.092 -3.012,13.132 a 11.917,11.917 0 0 0 0.002,0.213 l 0.933,49.858 c -2.138,-1.07 -4.288,-1.753 -6.255,-1.994 a 11.917,11.917 0 0 0 -1.45,-0.088 h -1.976 c 0.295,-4.894 0.571,-9.733 0.941,-14.844 a 11.917,11.917 0 0 0 0.028,-1.174 c -0.058,-2.18 0.147,-6.302 -3.573,-10.975 -3.72,-4.672 -10.365,-6.159 -14.965,-5.775 l 0.993,-0.04 h -20.74 l 1.808,0.138 c -0.717,-0.11 -1.592,-0.013 -2.38,-0.041 8.65,-9.01 13.722,-21.38 13.722,-33.877 0,-12.793 -5.25,-25.51 -14.28,-34.565 C 312.75,9.89 300.05,4.611 287.268,4.611 Z m 177.306,233.791 c 0.023,0.022 0.048,0.032 0.07,0.053 l -0.027,-0.014 z"
       fill="#fffff8"
       stroke="#2546a0"
       stroke-width="6"
       id="path6" />
    <path
       d="m 94.883,146.26 c 0.797,-24.098 0.356,-47.792 -0.362,-71.395 1.196,-9.766 8.922,-12.366 12.552,-12.21 20.522,0.562 42.042,0.569 65.371,-0.433 7.998,1.333 11.666,6.257 13.033,13.09 v 38.837 c 0.658,5.546 -1.913,4.509 -3.555,5.367 h -33.31 c -6.662,-1.223 -4.41,-4.549 -4.61,-7.296 0.709,-7.74 2.007,-16.407 2.027,-23.26 -2.492,-9.421 -12.945,-9.627 -14.688,-0.513 l 0.742,43.982 c -0.86,4.58 5.754,7.308 7.817,6.766 l 31.47,-1.366 c 5.13,-0.324 12.527,4.918 12.488,13.306 -1.437,23.17 -1.796,43.938 -0.748,68.197 0.92,7.028 -5.356,10.964 -9.727,12.063 l -63.776,-0.671 c -11.191,0.14 -12.274,-6.162 -13.339,-12.475 -0.227,-11.347 -0.532,-22.706 -2.328,-34.312 -0.936,-5.347 1.37,-8.466 9.253,-7.752 h 24.016 c 2.638,-0.072 5.801,-1.153 5.364,4.694 l -0.398,12.294 c -0.59,4.613 -1.448,8.797 -1.221,13.738 2.106,12.292 13.393,10.15 14.278,0 l -0.8,-37.826 c -0.104,-6.49 -1.597,-11.146 -10.332,-10.874 l -26.424,0.433 c -10.025,0.413 -12.603,-7.297 -12.793,-12.385 z m 141.335,-47.805 -23.771,0.363 c -14.193,2.083 -16.42,16.83 -16.254,20.822 -0.493,28.764 0.42,56.911 0.665,85.675 -0.385,5.745 -0.66,11.46 0.132,16.89 1.336,7.307 5.725,11.135 14.089,10.436 h 33.741 c 11.84,-0.192 5.213,-12.957 2.18,-12.698 l -31.134,-0.395 c -3.935,-0.255 -5.7,-8.037 0.709,-9.173 5.4,-1.426 11.392,-0.068 17.092,0.352 3.918,0.288 8.114,-0.507 11.853,0.158 5.811,0.175 5.826,-2.932 5.555,-6.202 l 0.222,-81.393 c -0.888,-9.794 0.077,-20.267 -15.079,-24.835 z m -12.518,24.09 c 3.789,0 7.02,3.057 6.838,6.842 -0.817,16.933 -2.384,33.777 0,51.102 0.516,3.754 -3.049,6.838 -6.838,6.838 -3.79,0 -7.02,-3.053 -6.841,-6.838 0.808,-17.034 1.11,-34.068 0,-51.102 -0.247,-3.781 3.052,-6.841 6.84,-6.841 z m 41.408,-23.707 c 13.744,1.323 27.478,1.88 40.108,0 3.606,-0.536 4.817,1.555 4.849,4.383 -0.198,1.937 -0.048,4.032 -0.199,6.122 -0.772,10.712 -1.102,23.099 -0.838,34.607 0.554,24.198 -2.026,48.121 0.626,71.854 0.511,4.573 -0.01,9.066 0.335,13.502 0.198,2.42 -2.345,4.266 -4.773,4.266 h -40.108 c -2.428,0 -4.509,-1.958 -4.383,-4.383 2.15,-41.353 2.292,-83.156 -0.489,-125.968 -0.157,-2.423 1.382,-4.719 4.872,-4.383 z"
       fill="#2546a0"
       id="path8" />
    <ellipse
       cx="287.26801"
       cy="53.508999"
       fill="#f3419f"
       rx="36.875"
       ry="36.981998"
       id="ellipse10" />
    <path
       d="m 321.973,99.117 c -4.369,-0.118 -4.327,4.497 -3.978,10.404 3.737,27.149 1.338,53.816 1.588,80.692 1.22,12.294 0.148,24.376 -0.493,36.419 -0.292,3.619 1.736,6.101 7.77,5.23 h 36.595 c 3.006,-0.716 10.033,-7.026 9.653,-16.984 -2.95,-24.566 -1.964,-48.403 -1.582,-72.352 -1.026,-7.676 -6.151,-10.126 -9.325,-10.514 h -6.366 c -4.796,0.277 -7.949,-0.928 -7.99,-4.951 0.456,-7.473 0.865,-14.794 1.436,-22.67 -0.078,-2.977 -0.663,-5.6 -5.631,-5.186 h -20.742 a 7.511,7.511 0 0 0 -0.935,-0.088 z m 24.501,49.705 c 3.627,0 6.91,2.937 6.548,6.545 -1.789,17.824 -0.96,35.649 0,53.473 0.195,3.621 -2.921,6.548 -6.548,6.548 -3.626,0 -6.927,-2.942 -6.545,-6.548 1.828,-17.24 0.42,-35.514 0,-53.473 -0.084,-3.625 2.919,-6.545 6.545,-6.545 z m 70.838,-85.521 c -8.96,0.215 -17.923,1.404 -26.882,0 -9.962,-0.968 -9.547,4.034 -9.542,8.799 l 0.953,51.029 c 2.42,31.55 1.175,62.922 1.763,94.383 0.454,9.124 6.337,13.568 14.854,15.74 l 52.866,-0.314 c 13.346,0.025 15.53,-8.701 21.417,-3.211 3.819,3.594 10.572,2.475 16.989,2.475 3.954,-0.248 4.536,-3.243 4.647,-6.621 l 0.27,-57.04 c 0.457,-4.495 -0.193,-7.956 -6.367,-6.266 h -8.248 c -5.844,0.951 -7.86,-1.813 -7.187,-7.187 v -85.82 l -6.856,-6.216 h -24.653 c -7.046,-0.806 -8.044,4.148 -7.25,10.808 0.56,8.833 1.099,17.663 1.179,26.5 0.319,35.229 -0.112,70.603 0.276,105.905 0.088,12.932 -14.251,13.704 -14.823,0 -0.112,-46.194 -1.72,-91.586 0.686,-139.129 -0.136,-3.477 -1.97,-3.911 -4.092,-3.835 z"
       fill="#2546a0"
       id="path12" />
  </g>
</svg>
