<svg height="175.65114" viewBox="0 0 688.73004 87.825569" width="1377.4601" xmlns="http://www.w3.org/2000/svg" xmlns:xlink="http://www.w3.org/1999/xlink"><linearGradient id="a"><stop offset="0" stop-color="#d03f64"/><stop offset=".26519692" stop-color="#d03f64"/><stop offset=".59987092" stop-color="#2b5070"/><stop offset="1" stop-color="#2a5070"/></linearGradient><linearGradient id="b" gradientUnits="userSpaceOnUse" x1="321.90372" x2="321.90372" xlink:href="#a" y1="108.31639" y2="16.728762"/><linearGradient id="c" gradientTransform="matrix(16.421721 0 0 14.957131 -1129.9905 -1893.6978)" gradientUnits="userSpaceOnUse" x1="136.4678" x2="136.4678" xlink:href="#a" y1="137.76561" y2="126.87331"/><g transform="translate(-24.706668 -18.323202)"><text fill="#ef00eb" font-family="TrasksHand" font-size="2" stroke="#0105ff" stroke-width="2.5" x="513.52856" y="21.025202"><tspan fill="#fafafa" fill-opacity=".4" font-size="2" stroke="none" stroke-width="2.5" x="513.52856" y="21.025202">John Loreth 2022</tspan></text><g fill="url(#b)" stroke="#fff"><g fill="url(#b)" stroke-width=".999996"><path d="m78.079767 28.725407-7.994636 10.764124q-5.32976-6.542922-13.09266-6.542922-4.171118 0-7.415319 2.638288-3.244201 2.532766-3.244201 6.331877 0 2.638214 1.853831 4.748814 1.969695 2.005153 4.982162 3.377022 3.128338 1.266345 6.835993 2.638288 3.707655 1.371868 7.299455 3.271424 3.707655 1.794033 6.720121 4.326799 3.128338 2.427168 4.98217 6.648444 1.969687 4.115679 1.969687 9.497704 0 12.136067-7.762901 19.734289-7.762909 7.492702-20.971433 7.492702-16.684461 0-26.880519-15.513015l11.007111-9.81442q1.853823 4.854486 6.140804 8.231432 4.402844 3.377021 9.616732 3.377021 5.098033 0 8.1105-3.377021 3.128338-3.376946 3.128338-8.125835 0-6.753967-8.45809-10.447556-1.39037-.633435-6.72013-2.532766-9.616732-3.588066-14.598902-8.336955-4.866298-4.854412-4.866298-13.402413 0-10.025391 7.299447-16.884881 7.299455-6.965012 18.190694-6.965012 6.024941 0 12.976797 2.532691 7.067729 2.427243 10.891247 6.331877z"/><path d="m88.168616 69.565779v-47.594339h17.032044v44.53396q0 3.588067.11585 6.331877.23171 2.638214 1.15865 6.22628.9269 3.482544 2.43315 5.698667 1.50623 2.216124 4.5187 3.799112 3.01247 1.582988 7.18359 1.582988 4.17111 0 7.18358-1.582988 3.01247-1.582988 4.51871-3.799112 1.50623-2.216123 2.43315-5.698667.92691-3.588066 1.04278-6.22628.23171-2.74381.23171-6.331877v-44.53396h17.03205v47.594339q0 15.61861-7.87877 24.905269-7.87878 9.181212-24.56323 9.181212-16.68446 0-24.563224-9.181212-7.878773-9.286659-7.878773-24.905269z"/><path d="m182.20631 71.781977v29.759683h-17.03204v-79.57022h23.17286q30.24057 0 30.24057 24.694148 0 12.558232-7.18358 18.890035-7.18359 6.226354-20.73971 6.226354zm0-36.935813v24.061014h3.47593q8.22637 0 11.81817-2.532691 3.70765-2.532766 3.70765-9.814421 0-7.070535-3.93939-9.392181-3.93938-2.321721-12.04988-2.321721z"/><path d="m271.61163 35.479374h-28.15502v17.518092h27.11224v13.507934h-27.11224v21.528323h28.15502v13.507937h-45.18707v-79.57022h45.18707z"/><path d="m318.09091 67.872033 25.12967 33.669627h-21.00043l-21.59021-32.187375h-.23565v32.187375h-17.34298v-79.833092h23.47797q13.9216 0 21.82619 5.929231 7.9046 5.82341 7.9046 18.105458 0 8.046787-4.8371 14.505426-4.83718 6.352742-13.33173 7.62335zm-17.69695-33.457905v24.034614h2.24157q7.90467 0 12.03392-2.647039 4.24731-2.75286 4.24731-9.63501 0-6.88215-4.24731-9.317395-4.12925-2.43517-11.91593-2.43517z"/><path d="m357.62497 21.97144 20.97144 53.609648h.23155l19.46524-53.609648h18.30653l-33.94822 81.68082h-9.96429l-33.36894-81.68082z"/><path d="m437.80436 21.97144v79.57022h-17.03212v-79.57022z"/><path d="m500.58903 29.212187-7.99467 10.706165q-5.32975-6.507698-13.09263-6.507698-4.17111 0-7.41531 2.624079-3.24419 2.519155-3.24419 6.297775 0 2.624079 1.85377 4.723312 1.9697 1.994309 4.98218 3.358848 3.12834 1.25954 6.83604 2.624079 3.70761 1.364465 7.29945 3.253775 3.70762 1.784385 6.7201 4.30354 3.12834 2.414081 4.98219 6.612697 1.9697 4.093468 1.9697 9.446551 0 12.070778-7.76296 19.628093-7.76288 7.452387-20.97144 7.452387-16.68447 0-26.88047-15.429548l11.00707-9.761622q1.85385 4.828386 6.14082 8.187159 4.40283 3.358848 9.61672 3.358848 5.09805 0 8.11053-3.358848 3.12834-3.358773 3.12834-8.082086 0-6.717621-8.45809-10.391317-1.39043-.630443-6.72018-2.519155-9.61673-3.568771-14.59883-8.292084-4.86633-4.828311-4.86633-13.330318 0-9.971396 7.29945-16.794017 7.29946-6.92747 18.19067-6.92747 6.02497 0 12.97678 2.519005 7.06774 2.414231 10.89129 6.29785z"/><path d="m528.56951 21.97144v79.57022h-17.03203v-79.57022z"/></g><path d="m1113.8379 3.0761719c-24.8721 0-45.4975 8.2306431-61.8731 24.6933591-16.3755 16.462816-24.5625 36.092051-24.5625 58.886719 0 22.00443 7.2862 40.97469 21.8575 56.91211l20.455-32.71484c-4.725-8.26017-7.0898-16.748271-7.0898-25.464848 0-13.367188 4.867-25.325853 14.5996-35.878906 9.8871-10.553154 22.0917-15.830078 36.6133-15.830078 14.5217-.000001 26.6482 5.276924 36.3809 15.830078 9.887 10.553053 14.83 22.511718 14.83 35.878906 0 8.425355-2.2064 16.637788-6.6211 24.636718l20.1875 33.09766c14.4377-15.84513 21.6563-34.66696 21.6563-56.4668 0-22.794668-8.1871-42.423903-24.5625-58.886719-16.3755-16.462716-36.9989-24.6933591-61.8711-24.6933591z" fill="url(#c)" stroke-width="1.99999" transform="matrix(.5 0 0 .5 24.706668 18.323202)"/><path d="m632.40003 101.54166v-81.680821h12.53823l46.95923 55.614652h.23647v-53.504051h17.38789v81.15313h-12.53814l-46.95931-55.614726h-.23648v54.031816z" fill="url(#b)" stroke-width=".999996"/></g><path d="m582.07614 46.506179 36.07434 59.142591h-73.05047z" fill="#3aa932" stroke="#fff"/><g fill="none" stroke="#bcc1d5"><path d="m53.450729 67.292664c3.807666-5.296656 9.141048-8.536801 15.447864-10.963573" opacity=".877992"/><path d="m88.269211 54.545019 16.605869 3.299351" opacity=".877992"/><path d="m135.71027 55.610124c5.41022 3.37082 10.89091 8.457233 17.24716 3.922923" opacity=".877992"/><path d="m165.25374 58.227146c4.96112-1.114374 7.5081-1.759375 16.15666 1.675475 3.6848 4.209335 25.88617 4.31217 35.72401-3.432384" opacity=".877992"/><path d="m226.21234 63.62619c9.93387-7.789882 28.83842-11.874779 44.26146-1.07988" opacity=".877992"/><path d="m283.15972 54.72859c5.32515 4.230085 11.09652 5.655241 17.53607 2.880321" opacity=".877992"/><path d="m314.12149 56.201485c8.76417 3.266442 14.16923-.193685 21.26733-5.034629" opacity=".877992"/><path d="m355.05406 61.239522c2.62253-.597267 5.71381.240184 8.23379-1.514627 2.59146-1.804591 6.0168-1.644481 8.8242-.27218" opacity=".877992"/><path d="m382.7508 65.125623c5.00409 4.004045 9.80211 3.772685 16.38853-1.482278" opacity=".877992"/><path d="m420.82868 63.607449c6.82828-6.413947 11.62934-7.418984 16.8041-2.451986" opacity=".877992"/><path d="m457.8213 58.805023c1.78428-3.406595 8.14634.67736 16.16536 4.766471 3.88344 1.980265 8.06813 3.088304 11.28264 3.282599 4.98955-.295924 8.40648-3.776442 10.34989-6.663735" opacity=".877992"/><path d="m511.45256 64.925574c5.54513-4.857012 10.81429-6.353233 17.04841-3.194708" opacity=".877992"/><path d="m540.14392 50.462979c5.39411 8.840374 10.23571 7.57842 16.92913 2.532425" opacity=".877992"/><path d="m604.63693 50.262348c6.20598.134396 11.43335-.982455 19.03727.939344" opacity=".877992"/><path d="m632.50019 55.724532c4.13077 3.138336 7.01165 8.017599 17.38469 6.588571" opacity=".877992"/><path d="m668.61444 69.733169c2.23378-4.335097 4.0182-8.341071 10.47981-9.45668" opacity=".877992"/><path d="m692.4182 59.694403c6.58341 4.153732 12.04316 5.171899 16.97843.09341" opacity=".877992"/></g></g></svg>