<?xml version="1.0" encoding="UTF-8" standalone="no"?>
<!-- Created with Inkscape (http://www.inkscape.org/) -->

<svg
   width="83.227165mm"
   height="11.471174mm"
   viewBox="0 0 83.227165 11.471174"
   version="1.1"
   id="svg5"
   xmlns="http://www.w3.org/2000/svg"
   xmlns:svg="http://www.w3.org/2000/svg">
  <defs
     id="defs2">
    <clipPath
       clipPathUnits="userSpaceOnUse"
       id="clipPath58567">
      <path
         style="display:none;fill:#ff0000;fill-opacity:1;stroke:none;stroke-width:0.304271px;stroke-linecap:butt;stroke-linejoin:miter;stroke-opacity:1"
         d="m 136.70094,129.19061 5.05251,9.09452 -10.23133,-2.3e-4 z"
         id="path58569" />
      <path
         id="lpe_path-effect58571"
         style="display:inline;fill:#ff0000;fill-opacity:1;stroke:none;stroke-width:0.304271px;stroke-linecap:butt;stroke-linejoin:miter;stroke-opacity:1"
         class="powerclip"
         d="m 126.37435,121.81396 h 20.52688 v 21.20421 h -20.52688 z m 10.32659,7.37665 -5.17882,9.09429 10.23133,2.3e-4 z" />
    </clipPath>
  </defs>
  <g
     id="layer1"
     transform="translate(-70.840085,-130.63081)">
    <g
       aria-label="SUPERVISION"
       id="text8537"
       style="font-weight:800;font-size:14.1111px;line-height:1.25;font-family:'Futura LT';-inkscape-font-specification:'Futura LT Ultra-Bold';fill:#4d4b4c;stroke-width:0.264583"
       transform="translate(1.9496117,3.8168458)">
      <path
         d="m 75.311024,127.99929 -0.973666,1.43933 q -0.649111,-0.87489 -1.594554,-0.87489 -0.508,0 -0.903111,0.35278 -0.395111,0.33867 -0.395111,0.84667 0,0.35277 0.225778,0.63499 0.239889,0.26812 0.606777,0.45156 0.381,0.16933 0.832555,0.35278 0.451555,0.18344 0.889,0.43744 0.451555,0.23989 0.818443,0.57856 0.381,0.32455 0.606778,0.889 0.239888,0.55033 0.239888,1.26999 0,1.62278 -0.945443,2.63878 -0.945444,1.00189 -2.554109,1.00189 -2.031999,0 -3.273776,-2.07433 l 1.340555,-1.31234 q 0.225777,0.64912 0.747888,1.10067 0.536222,0.45156 1.171221,0.45156 0.620889,0 0.987777,-0.45156 0.381,-0.45155 0.381,-1.08655 0,-0.90311 -1.03011,-1.397 -0.169333,-0.0847 -0.818444,-0.33867 -1.171221,-0.47978 -1.777999,-1.11478 -0.592666,-0.64911 -0.592666,-1.79211 0,-1.34055 0.888999,-2.25777 0.889,-0.93133 2.215443,-0.93133 0.733777,0 1.580443,0.33866 0.860778,0.32456 1.326444,0.84667 z"
         id="path56776" />
      <path
         d="m 76.693899,133.46028 v -6.3641 h 2.074331 v 5.95488 q 0,0.47978 0.01411,0.84667 0.02822,0.35277 0.141111,0.83255 0.112888,0.46567 0.296333,0.762 0.183444,0.29633 0.550333,0.508 0.366888,0.21167 0.874888,0.21167 0.507999,0 0.874888,-0.21167 0.366889,-0.21167 0.550333,-0.508 0.183444,-0.29633 0.296333,-0.762 0.112889,-0.47978 0.127,-0.83255 0.02822,-0.36689 0.02822,-0.84667 v -5.95488 h 2.074332 v 6.3641 q 0,2.08845 -0.959555,3.33022 -0.959555,1.22767 -2.991553,1.22767 -2.031999,0 -2.991553,-1.22767 -0.959555,-1.24177 -0.959555,-3.33022 z"
         id="path56778" />
      <path
         d="m 88.137999,133.75662 v 3.97933 h -2.074331 v -10.63977 h 2.82222 q 3.682997,0 3.682997,3.30199 0,1.67923 -0.874888,2.52589 -0.874889,0.83256 -2.525887,0.83256 z m 0,-4.93889 v 3.21733 h 0.423333 q 1.001888,0 1.439333,-0.33866 0.451555,-0.33867 0.451555,-1.31234 0,-0.94544 -0.479778,-1.25588 -0.479777,-0.31045 -1.467554,-0.31045 z"
         id="path56780" />
      <path
         d="m 99.017655,128.9024 h -3.428997 v 2.34244 h 3.301998 v 1.80622 h -3.301998 v 2.87867 h 3.428997 v 1.80622 h -5.503329 v -10.63977 h 5.503329 z"
         id="path56782" />
      <path
         d="m 104.59152,133.24862 3.00567,4.48733 h -2.51178 l -2.58233,-4.28978 h -0.0282 v 4.28978 h -2.07433 v -10.63977 h 2.80811 q 1.66511,0 2.61055,0.79022 0.94544,0.77611 0.94544,2.413 0,1.07244 -0.57855,1.93322 -0.57856,0.84666 -1.59456,1.016 z m -2.11666,-4.45911 v 3.20322 h 0.26811 q 0.94544,0 1.43933,-0.35278 0.508,-0.36689 0.508,-1.28411 0,-0.91722 -0.508,-1.24178 -0.49389,-0.32455 -1.42522,-0.32455 z"
         id="path56784" />
      <path
         d="m 109.5445,127.09618 2.55411,7.16844 h 0.0282 l 2.37067,-7.16844 h 2.22955 l -4.13455,10.92199 h -1.21355 l -4.064,-10.92199 z"
         id="path56786" />
      <path
         d="m 119.36583,127.09618 v 10.63977 h -2.07434 v -10.63977 z"
         id="path56788" />
      <path
         d="m 126.85882,127.99929 -0.97367,1.43933 q -0.64911,-0.87489 -1.59455,-0.87489 -0.508,0 -0.90311,0.35278 -0.39511,0.33867 -0.39511,0.84667 0,0.35277 0.22577,0.63499 0.23989,0.26812 0.60678,0.45156 0.381,0.16933 0.83256,0.35278 0.45155,0.18344 0.889,0.43744 0.45155,0.23989 0.81844,0.57856 0.381,0.32455 0.60678,0.889 0.23989,0.55033 0.23989,1.26999 0,1.62278 -0.94545,2.63878 -0.94544,1.00189 -2.55411,1.00189 -2.032,0 -3.27377,-2.07433 l 1.34055,-1.31234 q 0.22578,0.64912 0.74789,1.10067 0.53622,0.45156 1.17122,0.45156 0.62089,0 0.98778,-0.45156 0.381,-0.45155 0.381,-1.08655 0,-0.90311 -1.03011,-1.397 -0.16934,-0.0847 -0.81845,-0.33867 -1.17122,-0.47978 -1.77799,-1.11478 -0.59267,-0.64911 -0.59267,-1.79211 0,-1.34055 0.889,-2.25777 0.889,-0.93133 2.21544,-0.93133 0.73378,0 1.58044,0.33866 0.86078,0.32456 1.32645,0.84667 z"
         id="path56790" />
      <path
         d="m 130.37247,127.09618 v 10.63977 h -2.07433 v -10.63977 z"
         id="path56792" />
      <path
         d="m 140.40546,136.38128 q -1.48167,1.63689 -3.76767,1.63689 -2.28599,0 -3.78177,-1.63689 -1.48167,-1.651 -1.48167,-3.97933 0,-2.286 1.49578,-3.937 1.49578,-1.65099 3.76766,-1.65099 2.27189,0 3.76767,1.65099 1.49577,1.651 1.49577,3.937 0,2.32833 -1.49577,3.97933 z m -1.55222,-6.46288 q -0.889,-1.05834 -2.21545,-1.05834 -1.32644,0 -2.22955,1.05834 -0.889,1.05833 -0.889,2.39888 0,1.28411 0.93133,2.46945 0.93134,1.18533 2.18722,1.18533 1.25589,0 2.18722,-1.18533 0.93134,-1.18534 0.93134,-2.46945 0,-1.34055 -0.90311,-2.39888 z"
         id="path56794"
         clip-path="url(#clipPath58567)" />
      <path
         d="m 142.91723,137.73595 v -10.92199 h 1.49577 l 5.60211,7.43654 h 0.0282 v -7.15432 h 2.07433 v 10.85143 h -1.49577 l -5.60211,-7.43655 h -0.0282 v 7.22489 z"
         id="path56796" />
    </g>
    <path
       style="display:inline;fill:#6de6d3;fill-opacity:1;stroke:none;stroke-width:0.264583px;stroke-linecap:butt;stroke-linejoin:miter;stroke-opacity:1"
       d="m 138.64231,134.1937 4.39349,7.90828 h -8.89681 z"
       id="path57876" />
  </g>
</svg>
