<?xml version="1.0" encoding="UTF-8" standalone="no"?>
<svg
   xmlns:dc="http://purl.org/dc/elements/1.1/"
   xmlns:cc="http://creativecommons.org/ns#"
   xmlns:rdf="http://www.w3.org/1999/02/22-rdf-syntax-ns#"
   xmlns:svg="http://www.w3.org/2000/svg"
   xmlns="http://www.w3.org/2000/svg"
   xmlns:sodipodi="http://sodipodi.sourceforge.net/DTD/sodipodi-0.dtd"
   xmlns:inkscape="http://www.inkscape.org/namespaces/inkscape"
   version="1.0"
   width="464.54422"
   height="64.082977"
   viewBox="0 0 4645.4422 640.82977"
   preserveAspectRatio="xMidYMid meet"
   id="svg26"
   sodipodi:docname="tic80-clear.svg"
   inkscape:version="0.92.5 (2060ec1f9f, 2020-04-08)">
  <metadata
     id="metadata32">
    <rdf:RDF>
      <cc:Work
         rdf:about="">
        <dc:format>image/svg+xml</dc:format>
        <dc:type
           rdf:resource="http://purl.org/dc/dcmitype/StillImage" />
        <dc:title></dc:title>
      </cc:Work>
    </rdf:RDF>
  </metadata>
  <defs
     id="defs30" />
  <sodipodi:namedview
     pagecolor="#ffffff"
     bordercolor="#666666"
     borderopacity="1"
     objecttolerance="10"
     gridtolerance="10"
     guidetolerance="10"
     inkscape:pageopacity="0"
     inkscape:pageshadow="2"
     inkscape:window-width="2488"
     inkscape:window-height="1376"
     id="namedview28"
     showgrid="false"
     inkscape:zoom="2.784233"
     inkscape:cx="187.81"
     inkscape:cy="-53.801923"
     inkscape:window-x="72"
     inkscape:window-y="27"
     inkscape:window-maximized="1"
     inkscape:current-layer="svg26" />
  <g
     id="layer101"
     fill="#1a1c2c"
     fill-rule="evenodd">
    <path
       d="m 80,560 h 10 c 5,0 12,0 15,0 2,0 25,0 50,0 h 45 v 0 5 c 0,2 0,11 0,20 v 15 H 140 80 v -20 -20"
       id="path2" />
    <path
       d="m 320,560 h 10 c 5,0 12,0 15,0 2,0 25,0 50,0 h 45 v 0 5 c 0,2 0,11 0,20 v 15 h -60 -60 v -20 -20"
       id="path4" />
    <path
       d="m 480,510 v -25 c 0,-14 0,-28 0,-30 0,-3 0,-86 0,-185 V 90 80 h 10 15 15 v 120 120 h 20 20 v -60 -60 h 20 20 v 60 60 h -20 -20 v 20 20 h -20 -20 v 80 80 h -10 c -6,0 -13,0 -15,0 h -5 -10"
       id="path6" />
    <path
       d="m 160,260 v -60 h 20 20 v 60 60 h -20 -20 v -60"
       id="path8" />
    <path
       d="m 320,260 v -60 h 20 20 v 60 60 h -20 -20 v -60"
       id="path10" />
  </g>
  <g
     id="layer102"
     fill="#29366f"
     fill-rule="evenodd">
    <path
       d="m 40,520 h 55 c 30,0 57,0 60,0 2,0 74,0 160,0 h 155 10 v 10 15 15 h -15 c -9,0 -18,0 -20,0 h -5 v 0 h -45 c -25,0 -48,0 -50,0 -3,0 -10,0 -15,0 h -10 v 0 h -45 c -25,0 -48,0 -50,0 -3,0 -10,0 -15,0 h -10 v 0 h -45 c -25,0 -48,0 -50,0 -3,0 -10,0 -15,0 H 80 v 0 h -5 c -3,0 -12,0 -20,0 H 40 v -20 -20"
       id="path13" />
    <path
       d="m 440,160 h -45 c -25,0 -48,0 -50,0 -3,0 -64,0 -135,0 H 80 v 0 -20 -20 h 180 180 v 15 c 0,8 0,17 0,20 v 5"
       id="path15" />
    <path
       d="m 80,80 v -5 c 0,-3 0,-12 0,-20 V 40 H 280 480 V 55 70 80 H 470 275 80"
       id="path17" />
  </g>
  <g
     id="layer103"
     fill="#41a6f6"
     fill-rule="evenodd">
    <path
       d="m 40,520 v -40 c 0,-22 0,-121 0,-220 V 80 h 20 20 v 0 h 195 195 10 v 10 180 c 0,99 0,182 0,185 0,2 0,16 0,30 v 25 10 H 470 315 c -86,0 -158,0 -160,0 -3,0 -30,0 -60,0 H 40 m 160,-60 v -20 h -20 -20 v -20 -20 h 20 20 v 20 20 h 60 60 v -20 -20 h 20 20 v 20 20 h -20 -20 v 20 20 H 260 200 V 460 M 80,160 v -20 -20 h 180 180 v 15 c 0,8 0,17 0,20 v 5 0 5 c 0,2 0,47 0,100 v 95 H 260 80 V 260 160"
       id="path20" />
  </g>
  <g
     id="layer104"
     fill="#f4f4f4"
     fill-rule="evenodd">
    <path
       d="M 40,620 V 600 H 20 0 V 320 40 H 20 40 V 20 0 h 240 240 v 20 20 h 20 20 v 60 60 h 40 40 v 100 100 h -20 -20 v 20 20 h -20 -20 v 80 80 h -20 -20 v 20 20 h -20 -20 v 20 20 H 380 280 v -20 -20 h -20 -20 v 20 20 H 140 40 v -20 m 40,-60 h -5 c -3,0 -12,0 -20,0 H 40 v -20 -20 0 -40 c 0,-22 0,-121 0,-220 V 80 h 20 20 v 0 -5 c 0,-3 0,-12 0,-20 V 40 h 200 200 v 15 15 10 h 10 15 15 v 120 120 h 20 20 v -60 -60 h 20 20 v 60 60 h -20 -20 v 20 20 h -20 -20 v 80 80 h -10 c -6,0 -13,0 -15,0 h -5 -10 v 10 15 15 h -15 c -9,0 -18,0 -20,0 h -5 v 0 5 c 0,2 0,11 0,20 v 15 h -60 -60 v -20 -20 0 h -45 c -25,0 -48,0 -50,0 -3,0 -10,0 -15,0 h -10 v 0 5 c 0,2 0,11 0,20 v 15 H 140 80 V 580 560 M 200,460 v -20 h -20 -20 v -20 -20 h 20 20 v 20 20 h 60 60 v -20 -20 h 20 20 v 20 20 h -20 -20 v 20 20 H 260 200 V 460 M 80,160 h 130 c 71,0 132,0 135,0 2,0 25,0 50,0 h 45 v 0 5 c 0,2 0,47 0,100 v 95 H 260 80 V 260 160 m 80,100 v -60 h 20 20 v 60 60 h -20 -20 v -60 m 160,0 v -60 h 20 20 v 60 60 h -20 -20 v -60"
       id="path23" />
  </g>
  <g
     id="g941"
     transform="matrix(11.688857,0,0,11.688857,376.9271,-401.89341)">
    <g
       id="g6"
       style="fill:#657060;fill-opacity:1"
       transform="matrix(0.80490191,0,0,0.83246768,74.616586,6.1909245)">
      <path
         d="M -18.899346,99.722397 V 47.099883 H -30.415992 V 33.938714 H 15.63605 V 47.099883 H 4.1194047 v 52.622514 z m 57.554145,0 V 86.56262 H 50.171445 V 47.099883 H 38.654799 V 33.938714 H 84.706842 V 47.099883 H 73.190195 V 86.56262 h 11.516647 v 13.159777 z m 69.070801,0 V 86.56262 H 96.224696 V 47.099883 H 107.7256 V 33.938714 H 142.261 V 47.099883 H 119.24224 V 86.56262 H 142.261 V 99.722397 Z M 142.261,60.259667 V 47.099883 h 11.51664 v 13.159784 z m 0,26.302953 V 73.401451 h 11.51664 V 86.56262 Z M 176.7964,73.401451 V 60.259667 h 34.53539 v 13.141784 z m 69.07079,26.320946 V 86.56262 h -11.5009 V 73.401451 h 11.5009 V 60.259667 h -11.5009 V 47.099883 h 11.5009 V 33.938714 h 34.53539 v 13.161169 h -23.01876 v 13.159784 h 23.01876 V 73.401451 H 257.38382 V 86.56262 h 23.01876 v 13.159777 z m 34.53539,-39.46273 V 47.099883 h 11.51665 v 13.159784 z m 0,26.302953 V 73.401451 h 11.51665 V 86.56262 Z m 34.5354,13.159777 V 86.56262 H 303.43709 V 47.099883 h 11.50089 V 33.938714 h 34.5354 V 47.099883 H 326.45462 V 86.56262 h 23.01876 V 99.722397 Z M 349.47338,86.56262 V 47.099883 h 11.51664 V 86.56262 Z"
         id="path4-7"
         inkscape:connector-curvature="0"
         style="fill:#c8c4b7;fill-opacity:1;stroke-width:1.29533"
         sodipodi:nodetypes="ccccccccccccccccccccccccccccccccccccccccccccccccccccccccccccccccccccccccccccccccccccccccccccccccccc" />
    </g>
  </g>
</svg>
