<?xml version="1.0" encoding="UTF-8" standalone="no"?>
<svg
   xmlns:dc="http://purl.org/dc/elements/1.1/"
   xmlns:cc="http://creativecommons.org/ns#"
   xmlns:rdf="http://www.w3.org/1999/02/22-rdf-syntax-ns#"
   xmlns:svg="http://www.w3.org/2000/svg"
   xmlns="http://www.w3.org/2000/svg"
   xmlns:sodipodi="http://sodipodi.sourceforge.net/DTD/sodipodi-0.dtd"
   xmlns:inkscape="http://www.inkscape.org/namespaces/inkscape"
   viewBox="0 0 471.70999 80.739372"
   height="80.739372"
   width="471.70999"
   xml:space="preserve"
   version="1.1"
   id="svg2"
   sodipodi:docname="imageviewer.svg"
   inkscape:version="0.92.4 (5da689c313, 2019-01-14)"><sodipodi:namedview
     pagecolor="#ffffff"
     bordercolor="#666666"
     borderopacity="1"
     objecttolerance="10"
     gridtolerance="10"
     guidetolerance="10"
     inkscape:pageopacity="0"
     inkscape:pageshadow="2"
     inkscape:window-width="640"
     inkscape:window-height="480"
     id="namedview118"
     showgrid="false"
     inkscape:zoom="2.1406129"
     inkscape:cx="188.08447"
     inkscape:cy="96.620363"
     inkscape:current-layer="svg2" /><metadata
     id="metadata8"><rdf:RDF><cc:Work
         rdf:about=""><dc:format>image/svg+xml</dc:format><dc:type
           rdf:resource="http://purl.org/dc/dcmitype/StillImage" /><dc:title /></cc:Work></rdf:RDF></metadata><defs
     id="defs6"><clipPath
       id="clipPath16"
       clipPathUnits="userSpaceOnUse"><path
         id="path18"
         d="m 0,64.592 377.368,0 L 377.368,0 0,0 0,64.592 Z" /></clipPath></defs><g
     transform="matrix(1.25,0,0,-1.25,0,80.739375)"
     id="g10"><g
       id="g12"><g
         clip-path="url(#clipPath16)"
         id="g14"><g
           transform="translate(362.2794,17.9215)"
           id="g182"><path
             id="path184"
             style="fill:#0c4c8a;fill-opacity:1;fill-rule:nonzero;stroke:none"
             d="M 0,0 -259.211,0 -256.21,-2.911 3,-2.911 0,0 Z" /></g><g
           transform="translate(366.2072,13.6647)"
           id="g186"><path
             id="path188"
             style="fill:#e5e2e1;fill-opacity:1;fill-rule:nonzero;stroke:none"
             d="M 0,0 -259.211,0 -256.21,-2.911 3,-2.911 0,0 Z" /></g></g></g></g><text
     xml:space="preserve"
     style="font-style:normal;font-variant:normal;font-weight:normal;font-stretch:normal;font-size:33.03963852px;line-height:1.25;font-family:Pixeled;-inkscape-font-specification:Pixeled;letter-spacing:0px;word-spacing:0px;fill:#000000;fill-opacity:1;stroke:none;stroke-width:0.82599097"
     x="119.76005"
     y="57.453373"
     id="text927"
     transform="scale(1.135412,0.88073756)"><tspan
       sodipodi:role="line"
       id="tspan925"
       x="119.76005"
       y="57.453373"
       style="stroke-width:0.82599097">Library</tspan></text>
<flowRoot
     xml:space="preserve"
     id="flowRoot929"
     style="fill:black;fill-opacity:1;stroke:none;font-family:sans-serif;font-style:normal;font-weight:normal;font-size:40px;line-height:1.25;letter-spacing:0px;word-spacing:0px"><flowRegion
       id="flowRegion931"><rect
         id="rect933"
         width="149.96942"
         height="204.1434"
         x="-25.765673"
         y="-54.034912" /></flowRegion><flowPara
       id="flowPara935"></flowPara></flowRoot><g
     transform="matrix(0.47709547,0,0,0.38293611,-26.137598,-16.992289)"
     id="svgg"><path
       style="fill:#fa9c23;fill-rule:evenodd;stroke:none"
       inkscape:connector-curvature="0"
       id="path0"
       d="m 141.11,71.643 c -0.298,0.099 -0.374,12.463 -0.372,60.49 l 0.002,60.365 0.808,0.375 c 0.444,0.207 1.455,0.375 2.248,0.375 0.792,0 1.44,0.121 1.44,0.268 0,0.147 1.351,0.364 3.001,0.482 1.65,0.119 3.001,0.336 3.001,0.483 0,0.147 0.675,0.268 1.5,0.268 0.825,0 1.501,0.12 1.501,0.267 0,0.148 1.35,0.365 3,0.483 1.651,0.118 3.001,0.335 3.001,0.482 0,0.148 0.81,0.268 1.801,0.268 0.99,0 1.8,0.122 1.8,0.271 0,0.149 1.418,0.368 3.151,0.486 1.733,0.118 3.151,0.334 3.151,0.479 0,0.146 0.607,0.264 1.35,0.264 0.743,0 1.35,0.119 1.35,0.265 0,0.145 1.418,0.361 3.151,0.479 1.733,0.118 3.151,0.336 3.151,0.486 0,0.149 0.799,0.271 1.775,0.271 0.977,0 1.821,0.13 1.876,0.29 0.055,0.159 1.416,0.381 3.025,0.494 1.61,0.113 2.926,0.32 2.926,0.46 0,0.141 0.675,0.256 1.501,0.256 0.825,0 1.5,0.121 1.5,0.268 0,0.147 1.35,0.364 3.001,0.482 1.65,0.119 3,0.336 3,0.483 0,0.147 0.811,0.268 1.801,0.268 0.99,0 1.8,0.122 1.8,0.271 0,0.149 1.418,0.368 3.151,0.486 1.733,0.118 3.151,0.333 3.151,0.479 0,0.145 0.608,0.264 1.35,0.264 0.743,0 1.351,0.118 1.351,0.261 0,0.144 1.35,0.358 3,0.475 1.651,0.117 3.001,0.336 3.001,0.488 0,0.152 0.743,0.276 1.651,0.276 0.907,0 1.65,0.118 1.65,0.262 0,0.144 1.485,0.358 3.301,0.475 1.815,0.118 3.301,0.338 3.301,0.489 0,0.151 0.675,0.275 1.5,0.275 0.825,0 1.5,0.12 1.5,0.267 0,0.148 1.351,0.365 3.001,0.483 1.65,0.118 3.001,0.335 3.001,0.482 0,0.148 0.81,0.268 1.8,0.268 0.991,0 1.801,0.121 1.801,0.268 0,0.147 1.35,0.364 3,0.482 1.651,0.118 3.001,0.335 3.001,0.483 0,0.147 0.675,0.267 1.501,0.267 0.825,0 1.5,0.118 1.5,0.262 0,0.144 1.35,0.357 3.001,0.474 1.65,0.117 3,0.337 3,0.489 0,0.152 0.878,0.276 1.951,0.276 1.195,0 1.95,-0.126 1.95,-0.324 0,-0.477 -2.202,-2.573 -2.953,-2.812 -0.356,-0.113 -0.647,-0.331 -0.647,-0.485 0,-0.154 -0.154,-0.28 -0.341,-0.28 -0.188,0 -0.654,-0.338 -1.036,-0.75 -0.382,-0.413 -0.843,-0.751 -1.024,-0.751 -0.181,0 -0.642,-0.337 -1.024,-0.75 -0.382,-0.412 -0.849,-0.75 -1.036,-0.75 -0.187,0 -0.341,-0.126 -0.341,-0.28 0,-0.154 -0.303,-0.376 -0.675,-0.493 -0.371,-0.117 -0.878,-0.444 -1.125,-0.727 -0.248,-0.283 -0.754,-0.611 -1.125,-0.728 -0.372,-0.117 -0.676,-0.339 -0.676,-0.493 0,-0.154 -0.202,-0.28 -0.45,-0.28 -0.247,0 -0.45,-0.132 -0.45,-0.294 0,-0.162 -0.337,-0.379 -0.75,-0.483 -0.413,-0.103 -0.75,-0.308 -0.75,-0.455 0,-0.148 -0.256,-0.268 -0.568,-0.268 -0.313,0 -0.646,-0.203 -0.741,-0.45 -0.095,-0.248 -0.415,-0.45 -0.71,-0.45 -0.296,0 -0.699,-0.258 -0.895,-0.573 -0.197,-0.316 -0.77,-0.664 -1.273,-0.774 -0.503,-0.111 -0.914,-0.326 -0.914,-0.478 0,-0.151 -0.145,-0.276 -0.322,-0.276 -0.177,0 -0.524,-0.202 -0.772,-0.45 -0.247,-0.247 -0.748,-0.45 -1.112,-0.45 -0.365,0 -0.854,-0.265 -1.087,-0.589 -0.234,-0.324 -0.804,-0.672 -1.267,-0.774 -0.463,-0.102 -0.842,-0.309 -0.842,-0.461 0,-0.152 -0.27,-0.277 -0.6,-0.277 -0.33,0 -0.6,-0.135 -0.6,-0.3 0,-0.165 -0.342,-0.3 -0.76,-0.3 -0.417,0 -0.837,-0.202 -0.932,-0.45 -0.095,-0.247 -0.428,-0.45 -0.741,-0.45 -0.312,0 -0.568,-0.118 -0.568,-0.262 0,-0.144 -0.54,-0.348 -1.2,-0.453 -0.66,-0.106 -1.2,-0.294 -1.2,-0.418 0,-0.31 -2.268,-1.268 -3.003,-1.268 -0.329,0 -0.598,-0.135 -0.598,-0.3 0,-0.165 -0.203,-0.3 -0.45,-0.3 -0.248,0 -0.451,-0.117 -0.451,-0.261 0,-0.144 -0.54,-0.348 -1.2,-0.454 -0.66,-0.106 -1.2,-0.325 -1.2,-0.489 0,-0.163 -0.338,-0.296 -0.75,-0.296 -0.413,0 -0.751,-0.127 -0.751,-0.282 0,-0.155 -0.607,-0.373 -1.35,-0.484 -0.743,-0.111 -1.35,-0.322 -1.35,-0.468 0,-0.147 -0.338,-0.266 -0.75,-0.266 -0.413,0 -0.751,-0.118 -0.751,-0.262 0,-0.144 -0.54,-0.348 -1.2,-0.454 -0.66,-0.105 -1.2,-0.325 -1.2,-0.488 0,-0.163 -0.338,-0.297 -0.75,-0.297 -0.413,0 -0.751,-0.122 -0.751,-0.272 0,-0.149 -0.675,-0.364 -1.5,-0.478 -0.825,-0.113 -1.5,-0.329 -1.5,-0.478 0,-0.15 -0.33,-0.272 -0.733,-0.272 -0.403,0 -0.806,-0.119 -0.896,-0.265 -0.09,-0.146 -0.908,-0.358 -1.818,-0.472 -0.91,-0.114 -1.655,-0.332 -1.655,-0.485 0,-0.153 -0.337,-0.279 -0.75,-0.279 -0.412,0 -0.75,-0.125 -0.75,-0.278 0,-0.153 -0.743,-0.371 -1.65,-0.485 -0.908,-0.113 -1.651,-0.325 -1.651,-0.471 0,-0.146 -0.472,-0.266 -1.05,-0.266 -0.578,0 -1.05,-0.116 -1.05,-0.257 0,-0.142 -0.844,-0.346 -1.876,-0.453 -1.031,-0.108 -1.92,-0.33 -1.975,-0.493 -0.055,-0.164 -0.685,-0.297 -1.401,-0.297 -0.715,0 -1.345,-0.131 -1.4,-0.29 -0.055,-0.159 -1.417,-0.382 -3.026,-0.494 -1.609,-0.113 -2.925,-0.32 -2.925,-0.461 0,-0.141 -1.553,-0.256 -3.451,-0.256 -2.101,0 -3.451,-0.117 -3.451,-0.3 0,-0.165 -0.203,-0.3 -0.45,-0.3 -0.399,0 -0.45,-5.737 -0.45,-49.834 0,-42.339 -0.064,-49.897 -0.421,-50.254 -0.268,-0.268 -1.468,-0.494 -3.301,-0.623 -1.584,-0.111 -2.88,-0.318 -2.88,-0.458 0,-0.141 -0.799,-0.256 -1.776,-0.256 -0.976,0 -1.82,-0.131 -1.875,-0.29 -0.055,-0.159 -1.417,-0.382 -3.026,-0.494 -1.609,-0.113 -2.925,-0.32 -2.925,-0.461 0,-0.14 -0.676,-0.256 -1.501,-0.256 -0.825,0 -1.5,-0.122 -1.5,-0.271 0,-0.149 -1.418,-0.368 -3.151,-0.486 -1.733,-0.118 -3.151,-0.333 -3.151,-0.479 0,-0.145 -0.596,-0.264 -1.325,-0.264 -0.729,0 -1.37,-0.117 -1.425,-0.26 -0.106,-0.275 -4.338,-0.628 -4.977,-0.415" /><path
       style="fill:#2bb98b;fill-rule:evenodd;stroke:none"
       inkscape:connector-curvature="0"
       id="path1"
       d="m 187.205,47.68 c 0.372,0.236 1.542,0.12 1.542,-0.153 0,-0.063 -0.439,-0.113 -0.975,-0.111 -0.663,0.004 -0.845,0.088 -0.567,0.264 m 3.343,0.332 c 0,0.165 0.27,0.3 0.6,0.3 0.33,0 0.6,-0.135 0.6,-0.3 0,-0.165 -0.27,-0.3 -0.6,-0.3 -0.33,0 -0.6,0.135 -0.6,0.3 m 2.7,0.6 c 0,0.165 0.203,0.3 0.45,0.3 0.248,0 0.451,-0.135 0.451,-0.3 0,-0.165 -0.203,-0.3 -0.451,-0.3 -0.247,0 -0.45,0.135 -0.45,0.3 m 3.601,0.9 c 0,0.165 0.203,0.3 0.45,0.3 0.248,0 0.45,-0.135 0.45,-0.3 0,-0.165 -0.202,-0.3 -0.45,-0.3 -0.247,0 -0.45,0.135 -0.45,0.3 m 20.105,7.502 c 0,0.165 0.203,0.3 0.45,0.3 0.248,0 0.45,-0.135 0.45,-0.3 0,-0.165 -0.202,-0.3 -0.45,-0.3 -0.247,0 -0.45,0.135 -0.45,0.3 m 26.707,14.072 c 0,0.147 0.214,0.35 0.475,0.45 0.734,0.282 0.807,0.22 0.318,-0.268 -0.51,-0.51 -0.793,-0.575 -0.793,-0.182 m 5.106,3.793 c 0.008,0.517 0.557,1.179 0.786,0.949 0.123,-0.123 -0.005,-0.452 -0.284,-0.731 -0.279,-0.279 -0.505,-0.377 -0.502,-0.218 m 3.296,2.993 c 0,0.282 4.244,4.349 4.539,4.349 0.16,0 -0.721,-1.013 -1.959,-2.251 -2.091,-2.091 -2.58,-2.489 -2.58,-2.098 m -65.266,89.57 c 0.102,0.165 0.582,0.3 1.068,0.3 0.485,0 0.882,-0.135 0.882,-0.3 0,-0.165 -0.48,-0.3 -1.068,-0.3 -0.635,0 -0.993,0.121 -0.882,0.3 m 3.451,0.6 c 0,0.165 0.202,0.3 0.45,0.3 0.247,0 0.45,-0.135 0.45,-0.3 0,-0.165 -0.203,-0.3 -0.45,-0.3 -0.248,0 -0.45,0.135 -0.45,0.3 m 6.241,1.56 c 0.28,0.28 0.44,0.28 0.72,0 0.28,-0.28 0.2,-0.36 -0.36,-0.36 -0.56,0 -0.64,0.08 -0.36,0.36 m 5.161,1.441 c 0,0.165 0.203,0.3 0.451,0.3 0.247,0 0.45,-0.135 0.45,-0.3 0,-0.165 -0.203,-0.3 -0.45,-0.3 -0.248,0 -0.451,0.135 -0.451,0.3 m 3.001,0.9 c 0,0.165 0.203,0.3 0.45,0.3 0.248,0 0.45,-0.135 0.45,-0.3 0,-0.165 -0.202,-0.3 -0.45,-0.3 -0.247,0 -0.45,0.135 -0.45,0.3 m 45.454,20.891 c 0.268,0.267 0.577,0.395 0.688,0.284 0.111,-0.111 0.004,-0.328 -0.239,-0.482 -0.709,-0.448 -0.977,-0.33 -0.449,0.198 m 3.158,2.183 c 0,0.147 0.214,0.35 0.475,0.45 0.734,0.282 0.807,0.22 0.318,-0.268 -0.51,-0.51 -0.793,-0.575 -0.793,-0.182 m 2.844,2.318 c 0.267,0.267 0.577,0.395 0.688,0.284 0.111,-0.111 0.003,-0.328 -0.24,-0.481 -0.708,-0.449 -0.976,-0.331 -0.448,0.197 m -95.267,20.97 v 11.552 h 1.333 c 0.733,0 1.416,-0.135 1.518,-0.3 0.102,-0.165 1.115,-0.3 2.25,-0.3 1.136,0 2.141,-0.122 2.234,-0.272 0.092,-0.15 2.058,-0.369 4.369,-0.488 2.31,-0.119 4.2,-0.335 4.2,-0.478 0,-0.144 0.878,-0.262 1.951,-0.262 1.072,0 1.95,-0.116 1.95,-0.257 0,-0.141 1.992,-0.352 4.426,-0.47 2.435,-0.117 4.471,-0.339 4.526,-0.493 0.055,-0.154 0.959,-0.28 2.008,-0.28 1.049,0 1.984,-0.123 2.076,-0.273 0.093,-0.149 2.059,-0.369 4.369,-0.488 2.31,-0.119 4.201,-0.334 4.201,-0.478 0,-0.144 1.012,-0.262 2.25,-0.262 1.238,0 2.251,-0.12 2.251,-0.266 0,-0.147 1.757,-0.365 3.904,-0.484 2.147,-0.12 3.978,-0.337 4.068,-0.484 0.091,-0.146 1.226,-0.266 2.523,-0.266 1.297,0 2.403,-0.127 2.458,-0.282 0.055,-0.155 1.957,-0.377 4.226,-0.494 2.269,-0.116 4.126,-0.327 4.126,-0.468 0,-0.141 0.81,-0.257 1.8,-0.257 0.991,0 1.801,-0.119 1.801,-0.266 0,-0.146 2.025,-0.364 4.501,-0.484 2.476,-0.12 4.501,-0.337 4.501,-0.484 0,-0.146 1.013,-0.266 2.251,-0.266 1.238,0 2.25,-0.122 2.25,-0.272 0,-0.15 1.891,-0.37 4.201,-0.489 2.311,-0.119 4.201,-0.334 4.201,-0.478 0,-0.144 0.811,-0.261 1.801,-0.261 1.4,0 1.8,-0.1 1.8,-0.45 0,-0.315 -0.316,-0.451 -1.05,-0.451 -0.578,0 -1.05,-0.122 -1.05,-0.272 0,-0.149 -1.891,-0.369 -4.201,-0.488 -2.311,-0.119 -4.201,-0.334 -4.201,-0.478 0,-0.144 -0.878,-0.262 -1.951,-0.262 -1.073,0 -1.95,-0.118 -1.95,-0.262 0,-0.143 -1.891,-0.359 -4.201,-0.478 -2.311,-0.119 -4.201,-0.338 -4.201,-0.488 0,-0.15 -1.005,-0.272 -2.233,-0.272 -1.228,0 -2.309,-0.123 -2.401,-0.272 -0.093,-0.15 -2.059,-0.37 -4.369,-0.489 -2.31,-0.119 -4.201,-0.334 -4.201,-0.478 0,-0.144 -0.877,-0.262 -1.95,-0.262 -1.073,0 -1.951,-0.119 -1.951,-0.266 0,-0.146 -2.025,-0.364 -4.501,-0.484 -2.475,-0.12 -4.501,-0.338 -4.501,-0.484 0,-0.146 -0.87,-0.266 -1.933,-0.266 -1.063,0 -2.008,-0.123 -2.101,-0.272 -0.092,-0.15 -2.058,-0.37 -4.368,-0.489 -2.311,-0.119 -4.201,-0.334 -4.201,-0.478 0,-0.144 -0.812,-0.261 -1.805,-0.261 -0.992,0 -2.039,-0.13 -2.325,-0.288 -0.287,-0.158 -2.378,-0.374 -4.647,-0.481 -2.27,-0.106 -4.126,-0.314 -4.126,-0.462 0,-0.149 -0.851,-0.27 -1.891,-0.27 -1.04,0 -2.019,-0.125 -2.175,-0.278 -0.157,-0.153 -2.213,-0.375 -4.57,-0.493 -2.357,-0.118 -4.356,-0.33 -4.444,-0.472 -0.087,-0.141 -1.029,-0.257 -2.092,-0.257 -1.088,0 -1.933,-0.131 -1.933,-0.3 0,-0.175 -1,-0.3 -2.4,-0.3 h -2.401 v 11.553 m 96.024,8.224 c 0,0.424 0.155,0.531 0.6,0.415 0.33,-0.087 0.601,-0.344 0.601,-0.572 0,-0.229 -0.271,-0.416 -0.601,-0.416 -0.39,0 -0.6,0.201 -0.6,0.573 m -3.001,0.028 c 0,0.165 0.203,0.3 0.451,0.3 0.247,0 0.45,-0.135 0.45,-0.3 0,-0.165 -0.203,-0.3 -0.45,-0.3 -0.248,0 -0.451,0.135 -0.451,0.3 m -3.6,0.6 c 0,0.165 0.27,0.3 0.6,0.3 0.33,0 0.6,-0.135 0.6,-0.3 0,-0.165 -0.27,-0.3 -0.6,-0.3 -0.33,0 -0.6,0.135 -0.6,0.3 m -3.601,0.415 c 0,0.266 1.214,0.406 1.367,0.157 0.093,-0.15 -0.177,-0.272 -0.599,-0.272 -0.423,0 -0.768,0.052 -0.768,0.115 m -3.001,0.485 c 0,0.165 0.27,0.3 0.6,0.3 0.33,0 0.6,-0.135 0.6,-0.3 0,-0.165 -0.27,-0.3 -0.6,-0.3 -0.33,0 -0.6,0.135 -0.6,0.3 m -3.301,0.6 c 0,0.165 0.27,0.3 0.6,0.3 0.33,0 0.6,-0.135 0.6,-0.3 0,-0.165 -0.27,-0.3 -0.6,-0.3 -0.33,0 -0.6,0.135 -0.6,0.3 m -6.602,0.9 c 0,0.165 0.271,0.3 0.601,0.3 0.33,0 0.6,-0.135 0.6,-0.3 0,-0.165 -0.27,-0.3 -0.6,-0.3 -0.33,0 -0.601,0.135 -0.601,0.3 m -3.45,0.601 c -0.106,0.17 0.146,0.3 0.582,0.3 0.422,0 0.768,-0.135 0.768,-0.3 0,-0.166 -0.262,-0.301 -0.583,-0.301 -0.32,0 -0.665,0.135 -0.767,0.301 m -6.452,0.9 c 0,0.165 0.346,0.3 0.768,0.3 0.435,0 0.687,-0.13 0.582,-0.3 -0.102,-0.165 -0.447,-0.3 -0.768,-0.3 -0.32,0 -0.582,0.135 -0.582,0.3 m -3.001,0.6 c 0,0.165 0.203,0.3 0.45,0.3 0.248,0 0.45,-0.135 0.45,-0.3 0,-0.165 -0.202,-0.3 -0.45,-0.3 -0.247,0 -0.45,0.135 -0.45,0.3 m -6.601,0.9 c 0,0.165 0.202,0.3 0.45,0.3 0.247,0 0.45,-0.135 0.45,-0.3 0,-0.165 -0.203,-0.3 -0.45,-0.3 -0.248,0 -0.45,0.135 -0.45,0.3 m -3.601,0.6 c 0,0.165 0.27,0.3 0.6,0.3 0.33,0 0.6,-0.135 0.6,-0.3 0,-0.165 -0.27,-0.3 -0.6,-0.3 -0.33,0 -0.6,0.135 -0.6,0.3 m -6.302,0.901 c 0,0.165 0.278,0.3 0.618,0.3 0.34,0 0.534,-0.135 0.432,-0.3 -0.102,-0.166 -0.38,-0.301 -0.618,-0.301 -0.237,0 -0.432,0.135 -0.432,0.301 m -3.601,0.6 c 0,0.165 0.262,0.3 0.583,0.3 0.32,0 0.666,-0.135 0.768,-0.3 0.105,-0.171 -0.147,-0.3 -0.583,-0.3 -0.422,0 -0.768,0.135 -0.768,0.3 m -2.1,18.304 c 0,0.165 0.337,0.3 0.75,0.3 0.412,0 0.75,-0.135 0.75,-0.3 0,-0.165 -0.338,-0.3 -0.75,-0.3 -0.413,0 -0.75,0.135 -0.75,0.3" /><path
       style="fill:#0c4c8a;fill-rule:evenodd;stroke:none"
       inkscape:connector-curvature="0"
       id="path2"
       d="m 185.746,107.242 v 59.9 h 1.501 c 0.825,0 1.5,0.135 1.5,0.3 0,0.165 0.54,0.3 1.2,0.3 0.661,0 1.201,0.121 1.201,0.27 0,0.148 0.945,0.364 2.1,0.48 1.156,0.116 2.101,0.332 2.101,0.481 0,0.148 0.48,0.269 1.068,0.269 0.587,0 0.993,0.122 0.901,0.271 -0.093,0.149 0.642,0.365 1.632,0.48 0.99,0.114 1.8,0.33 1.8,0.479 0,0.149 0.405,0.271 0.9,0.271 0.496,0 0.901,0.122 0.901,0.272 0,0.149 0.675,0.364 1.5,0.478 0.825,0.113 1.5,0.329 1.5,0.478 0,0.15 0.338,0.272 0.751,0.272 0.412,0 0.75,0.118 0.75,0.261 0,0.144 0.675,0.351 1.5,0.461 0.825,0.109 1.501,0.329 1.501,0.489 0,0.159 0.337,0.289 0.75,0.289 0.412,0 0.75,0.124 0.75,0.274 0,0.151 0.574,0.37 1.275,0.487 0.702,0.117 1.355,0.338 1.453,0.492 0.097,0.153 0.468,0.3 0.825,0.327 0.356,0.027 0.648,0.147 0.648,0.266 0,0.12 0.608,0.309 1.35,0.421 0.743,0.111 1.351,0.322 1.351,0.468 0,0.146 0.337,0.266 0.75,0.266 0.412,0 0.75,0.134 0.75,0.297 0,0.163 0.54,0.383 1.2,0.488 0.66,0.106 1.201,0.31 1.201,0.454 0,0.144 0.27,0.262 0.6,0.262 0.33,0 0.6,0.123 0.6,0.273 0,0.151 0.54,0.365 1.2,0.477 0.66,0.111 1.2,0.326 1.2,0.476 0,0.151 0.346,0.274 0.768,0.274 0.423,0 0.694,0.12 0.604,0.266 -0.091,0.147 0.441,0.358 1.182,0.469 0.741,0.111 1.347,0.329 1.347,0.484 0,0.155 0.203,0.281 0.451,0.281 0.247,0 0.45,0.12 0.45,0.267 0,0.147 0.472,0.355 1.05,0.464 0.578,0.108 1.05,0.293 1.05,0.41 0,0.219 1.127,0.753 2.326,1.103 0.371,0.109 0.675,0.323 0.675,0.477 0,0.154 0.346,0.28 0.768,0.28 0.435,0 0.687,0.13 0.582,0.3 -0.102,0.165 -0.076,0.311 0.058,0.323 0.887,0.084 1.446,0.288 1.537,0.561 0.058,0.174 0.297,0.316 0.531,0.316 0.234,0 0.425,0.12 0.425,0.267 0,0.147 0.473,0.355 1.05,0.464 0.578,0.108 1.05,0.328 1.05,0.488 0,0.16 0.507,0.525 1.126,0.811 0.619,0.285 1.328,0.736 1.575,1.002 0.248,0.266 0.754,0.579 1.125,0.697 0.372,0.117 0.676,0.339 0.676,0.493 0,0.154 0.202,0.28 0.45,0.28 0.247,0 0.45,0.135 0.45,0.3 0,0.165 0.196,0.3 0.436,0.3 0.24,0 0.774,0.337 1.187,0.75 0.413,0.413 0.872,0.75 1.02,0.75 0.241,0 0.764,0.402 2.533,1.943 0.289,0.252 0.678,0.458 0.865,0.458 0.187,0 0.769,0.455 1.294,1.012 0.525,0.557 1.243,1.104 1.596,1.216 0.352,0.111 0.724,0.466 0.826,0.788 0.117,0.368 0.456,0.585 0.916,0.585 h 0.73 V 141.196 84.042 l -0.89,-0.911 c -0.49,-0.501 -1.025,-0.91 -1.188,-0.91 -0.254,0 -4.791,-4.446 -5.961,-5.841 -0.213,-0.253 -0.652,-0.461 -0.975,-0.461 -0.324,0 -0.589,-0.116 -0.589,-0.258 0,-0.443 -2.037,-2.443 -2.488,-2.443 -0.236,0 -0.676,-0.329 -0.978,-0.732 -0.303,-0.402 -0.853,-0.808 -1.223,-0.901 -0.369,-0.093 -0.758,-0.438 -0.862,-0.768 -0.105,-0.33 -0.414,-0.599 -0.686,-0.599 -0.272,0 -0.803,-0.359 -1.18,-0.797 -0.377,-0.439 -0.685,-0.631 -0.685,-0.429 0,0.247 -0.155,0.213 -0.471,-0.103 -0.26,-0.26 -0.656,-0.472 -0.88,-0.472 -0.225,0 -0.494,-0.27 -0.599,-0.6 -0.106,-0.332 -0.454,-0.6 -0.78,-0.6 -0.324,0 -0.667,-0.203 -0.762,-0.45 -0.095,-0.248 -0.428,-0.45 -0.741,-0.45 -0.312,0 -0.568,-0.125 -0.568,-0.277 0,-0.152 -0.405,-0.365 -0.9,-0.474 -0.495,-0.108 -0.9,-0.322 -0.9,-0.474 0,-0.151 -0.203,-0.276 -0.451,-0.276 -0.247,0 -0.45,-0.124 -0.45,-0.276 0,-0.152 -0.405,-0.365 -0.9,-0.474 -0.495,-0.109 -0.9,-0.322 -0.9,-0.474 0,-0.152 -0.203,-0.276 -0.45,-0.276 -0.248,0 -0.45,-0.12 -0.45,-0.267 0,-0.147 -0.473,-0.355 -1.051,-0.464 -0.577,-0.108 -1.05,-0.326 -1.05,-0.483 0,-0.158 -0.27,-0.287 -0.6,-0.287 -0.33,0 -0.6,-0.124 -0.6,-0.276 0,-0.152 -0.405,-0.365 -0.9,-0.474 -0.495,-0.108 -0.901,-0.322 -0.901,-0.474 0,-0.152 -0.337,-0.276 -0.75,-0.276 -0.412,0 -0.75,-0.129 -0.75,-0.286 0,-0.158 -0.473,-0.376 -1.05,-0.484 -0.578,-0.108 -1.05,-0.317 -1.05,-0.464 0,-0.146 -0.271,-0.266 -0.601,-0.266 -0.33,0 -0.6,-0.118 -0.6,-0.262 0,-0.144 -0.546,-0.349 -1.214,-0.456 -0.668,-0.107 -1.15,-0.298 -1.072,-0.425 0.078,-0.127 -0.212,-0.26 -0.644,-0.295 -0.433,-0.036 -0.875,-0.209 -0.983,-0.383 -0.108,-0.175 -0.656,-0.389 -1.218,-0.476 -0.561,-0.087 -1.065,-0.281 -1.12,-0.431 -0.055,-0.15 -0.359,-0.273 -0.676,-0.273 -0.316,0 -0.575,-0.127 -0.575,-0.282 0,-0.155 -0.607,-0.373 -1.35,-0.484 -0.743,-0.111 -1.35,-0.322 -1.35,-0.468 0,-0.147 -0.27,-0.266 -0.6,-0.266 -0.331,0 -0.601,-0.124 -0.601,-0.274 0,-0.151 -0.54,-0.365 -1.2,-0.477 -0.66,-0.111 -1.2,-0.326 -1.2,-0.476 0,-0.151 -0.338,-0.274 -0.75,-0.274 -0.413,0 -0.751,-0.133 -0.751,-0.296 0,-0.163 -0.54,-0.383 -1.2,-0.489 -0.66,-0.105 -1.2,-0.31 -1.2,-0.453 0,-0.144 -0.338,-0.262 -0.75,-0.262 -0.413,0 -0.751,-0.123 -0.751,-0.272 0,-0.15 -0.675,-0.365 -1.5,-0.478 -0.825,-0.114 -1.5,-0.329 -1.5,-0.479 0,-0.149 -0.405,-0.272 -0.901,-0.272 -0.495,0 -0.9,-0.121 -0.9,-0.27 0,-0.149 -0.81,-0.365 -1.8,-0.48 -0.99,-0.115 -1.801,-0.33 -1.801,-0.479 0,-0.149 -0.607,-0.271 -1.35,-0.271 -0.744,0 -1.35,-0.142 -1.35,-0.315 0,-0.184 -0.657,-0.305 -1.576,-0.289 -0.866,0.014 -1.946,-0.062 -2.4,-0.17 l -0.826,-0.196 v 59.9 m 69.018,119.315 c 0,0.165 -0.743,0.3 -1.651,0.3 -0.907,0 -1.65,0.135 -1.65,0.3 0,0.165 -0.72,0.3 -1.601,0.3 -0.88,0 -1.693,0.093 -1.807,0.207 -0.114,0.114 -0.879,0.171 -1.7,0.128 -0.914,-0.049 -1.494,0.046 -1.494,0.243 0,0.19 -0.674,0.322 -1.65,0.322 -0.908,0 -1.651,0.12 -1.651,0.267 0,0.147 -1.485,0.365 -3.3,0.483 -1.816,0.119 -3.301,0.336 -3.301,0.483 0,0.147 -0.743,0.267 -1.651,0.267 -0.907,0 -1.65,0.124 -1.65,0.275 0,0.151 -1.483,0.371 -3.295,0.489 -1.812,0.117 -3.222,0.331 -3.133,0.475 0.089,0.144 -0.656,0.262 -1.656,0.262 -1,0 -1.819,0.12 -1.819,0.267 0,0.147 -1.485,0.364 -3.3,0.483 -1.816,0.119 -3.301,0.336 -3.301,0.483 0,0.147 -0.743,0.267 -1.651,0.267 -0.907,0 -1.65,0.124 -1.65,0.275 0,0.151 -1.483,0.371 -3.295,0.488 -1.812,0.118 -3.222,0.332 -3.133,0.476 0.089,0.144 -0.581,0.262 -1.489,0.262 -0.907,0 -1.733,0.135 -1.835,0.3 -0.102,0.165 -0.786,0.3 -1.519,0.3 -0.863,0 -1.334,0.132 -1.337,0.375 -0.003,0.25 -0.101,0.225 -0.295,-0.075 -0.192,-0.296 -0.293,2.616 -0.296,8.516 l -0.004,8.966 1.415,-0.159 c 0.779,-0.088 1.465,-0.308 1.526,-0.489 0.06,-0.182 0.436,-0.33 0.835,-0.33 0.398,0 0.725,-0.135 0.725,-0.3 0,-0.165 0.26,-0.3 0.579,-0.3 0.318,0 0.781,-0.203 1.028,-0.45 0.248,-0.248 0.663,-0.45 0.922,-0.45 0.259,0 0.472,-0.129 0.472,-0.287 0,-0.157 0.472,-0.375 1.05,-0.483 0.577,-0.109 1.05,-0.289 1.05,-0.4 0,-0.112 0.292,-0.225 0.648,-0.252 0.357,-0.027 0.729,-0.18 0.828,-0.34 0.099,-0.16 0.55,-0.384 1.003,-0.498 0.452,-0.113 0.822,-0.326 0.822,-0.474 0,-0.147 0.27,-0.267 0.6,-0.267 0.33,0 0.6,-0.118 0.6,-0.262 0,-0.144 0.54,-0.348 1.2,-0.454 0.661,-0.105 1.201,-0.325 1.201,-0.488 0,-0.163 0.202,-0.297 0.45,-0.297 0.247,0 0.45,-0.128 0.45,-0.286 0,-0.158 0.473,-0.375 1.05,-0.484 0.578,-0.108 1.051,-0.317 1.051,-0.463 0,-0.147 0.345,-0.267 0.767,-0.267 0.423,0 0.692,-0.123 0.599,-0.273 -0.093,-0.151 0.372,-0.365 1.033,-0.477 0.661,-0.112 1.201,-0.326 1.201,-0.477 0,-0.15 0.203,-0.273 0.451,-0.273 0.247,0 0.45,-0.121 0.45,-0.268 0,-0.147 0.371,-0.357 0.825,-0.467 1.138,-0.275 2.475,-0.872 2.475,-1.106 0,-0.106 0.473,-0.282 1.051,-0.39 0.577,-0.108 1.05,-0.326 1.05,-0.484 0,-0.157 0.439,-0.288 0.975,-0.291 0.647,-0.003 0.841,-0.09 0.576,-0.257 -0.27,-0.172 -0.004,-0.317 0.825,-0.45 0.674,-0.107 1.225,-0.329 1.225,-0.492 0,-0.163 0.202,-0.296 0.45,-0.296 0.248,0 0.45,-0.127 0.45,-0.282 0,-0.155 0.608,-0.373 1.35,-0.484 0.743,-0.112 1.351,-0.323 1.351,-0.469 0,-0.146 0.202,-0.266 0.45,-0.266 0.247,0 0.45,-0.124 0.45,-0.276 0,-0.152 0.405,-0.365 0.9,-0.474 0.495,-0.109 0.9,-0.322 0.9,-0.474 0,-0.152 0.271,-0.276 0.601,-0.276 0.33,0 0.6,-0.134 0.6,-0.297 0,-0.163 0.54,-0.383 1.2,-0.488 0.66,-0.106 1.2,-0.31 1.2,-0.454 0,-0.144 0.203,-0.262 0.451,-0.262 0.247,0 0.45,-0.12 0.45,-0.266 0,-0.147 0.472,-0.356 1.05,-0.464 0.578,-0.108 1.05,-0.326 1.05,-0.483 0,-0.158 0.27,-0.287 0.6,-0.287 0.33,0 0.6,-0.123 0.6,-0.274 0,-0.15 0.541,-0.365 1.201,-0.476 0.66,-0.112 1.2,-0.326 1.2,-0.477 0,-0.15 0.203,-0.273 0.45,-0.273 0.248,0 0.45,-0.127 0.45,-0.282 0,-0.155 0.607,-0.373 1.348,-0.484 0.741,-0.111 1.273,-0.322 1.182,-0.468 -0.09,-0.147 0.113,-0.267 0.453,-0.267 0.34,0 0.618,-0.129 0.618,-0.286 0,-0.158 0.472,-0.375 1.048,-0.483 0.576,-0.108 0.973,-0.317 0.882,-0.464 -0.09,-0.147 0.147,-0.271 0.528,-0.277 0.789,-0.01 1.743,-0.639 1.743,-1.148 0,-0.191 -0.464,-0.342 -1.05,-0.342 -0.578,0 -1.05,0.135 -1.05,0.3" /></g></svg>