<?xml version="1.0" encoding="UTF-8" standalone="no"?>
<!-- Generator: Adobe Illustrator 16.0.0, SVG Export Plug-In . SVG Version: 6.00 Build 0)  -->

<svg
   version="1.1"
   id="Layer_1"
   x="0px"
   y="0px"
   width="1000px"
   height="300px"
   viewBox="0 0 1000 300"
   enable-background="new 0 0 1000 300"
   xml:space="preserve"
   sodipodi:docname="arcadia.svg"
   inkscape:version="1.1.2 (b8e25be833, 2022-02-05)"
   xmlns:inkscape="http://www.inkscape.org/namespaces/inkscape"
   xmlns:sodipodi="http://sodipodi.sourceforge.net/DTD/sodipodi-0.dtd"
   xmlns="http://www.w3.org/2000/svg"
   xmlns:svg="http://www.w3.org/2000/svg"><defs
   id="defs79" /><sodipodi:namedview
   id="namedview77"
   pagecolor="#ffffff"
   bordercolor="#666666"
   borderopacity="1.0"
   inkscape:pageshadow="2"
   inkscape:pageopacity="0.0"
   inkscape:pagecheckerboard="0"
   showgrid="false"
   inkscape:zoom="0.5345"
   inkscape:cx="609.91581"
   inkscape:cy="273.15248"
   inkscape:window-width="1280"
   inkscape:window-height="961"
   inkscape:window-x="3832"
   inkscape:window-y="1128"
   inkscape:window-maximized="1"
   inkscape:current-layer="Layer_1" />
<g
   id="g40"
   style="fill:#ffffff">
	<path
   d="M635.153,46.499c7.146-7.551,17.843-10.568,27.982-10.68c9.703-0.056,19.961,1.611,27.918,7.535   c12.563,9.274,13.65,29.618,3.327,40.956c-6.249,7.179-14.857,11.554-22.717,16.66c9.369,0.04,18.748,0,28.124,0.024   c0,7.535,0,15.07,0,22.606c-19.89,0-39.789,0.016-59.68-0.007c-4.875,0.007-10.085-1.874-12.832-6.098   c-3.86-5.749-2.009-14.143,3.398-18.256c10.743-8.083,21.574-16.063,32.356-24.099c3.525-2.676,6.98-6.996,5.543-11.697   c-1.198-4.089-6.972-4.907-9.83-2.088c-2.247,2.136-2.708,5.423-2.7,8.377c-9.687,0-19.373,0.008-29.069-0.008   C626.769,61.355,629.229,52.628,635.153,46.499z"
   id="path2"
   style="fill:#ffffff" />
	<g
   id="g6"
   style="fill:#ffffff">
		<path
   d="M71.533,38.78c6.606-3.804,15.126-3.922,21.956-0.619c5.335,2.581,8.957,7.766,10.664,13.332    c7.543,24.028,15.046,48.072,22.558,72.107c-10.37,0-20.749,0.008-31.126-0.007c-0.92-4.399-1.85-8.798-2.787-13.197    c-6.479-0.017-12.958-0.017-19.446,0c-0.913,4.399-1.866,8.798-2.771,13.204c-10.426-0.007-20.844,0.032-31.27-0.023    c7.575-24.004,15.086-48.032,22.67-72.036C63.617,46.396,66.785,41.543,71.533,38.78z M77.56,90.576    c3.676,0,7.361,0.007,11.037-0.008c-1.85-8.496-3.708-16.992-5.582-25.489C81.181,73.576,79.371,82.072,77.56,90.576z"
   id="path4"
   style="fill:#ffffff" />
	</g>
	<g
   id="g10"
   style="fill:#ffffff">
		<path
   d="M296.645,38.559c6.741-3.677,15.364-3.652,22.153-0.088c5.051,2.676,8.441,7.71,10.092,13.078    c7.527,24.012,15.031,48.032,22.535,72.051c-10.379,0-20.757,0.016-31.126-0.007c-0.921-4.399-1.85-8.798-2.788-13.197    c-6.479-0.008-12.966-0.017-19.446,0c-0.905,4.406-1.866,8.798-2.771,13.197c-10.426-0.008-20.852,0.063-31.277-0.032    c7.606-24.003,15.095-48.048,22.686-72.051C288.386,46.228,291.697,41.265,296.645,38.559z M307.729,65.087    c-1.851,8.489-3.646,16.992-5.455,25.489c3.676,0,7.36,0.007,11.037-0.008C311.461,82.072,309.603,73.583,307.729,65.087z"
   id="path8"
   style="fill:#ffffff" />
	</g>
	<g
   id="g14"
   style="fill:#ffffff">
		<path
   d="M498.331,38.559c6.758-3.685,15.396-3.652,22.186-0.072c5.034,2.675,8.416,7.71,10.061,13.07    c7.527,24.012,15.038,48.031,22.534,72.051c-10.378-0.015-20.756,0.008-31.135-0.015c-0.912-4.408-1.842-8.806-2.779-13.205    c-6.479,0-12.966-0.009-19.445,0.008c-0.913,4.399-1.866,8.798-2.771,13.204c-10.425,0-20.843,0.024-31.27-0.016    c7.576-24.012,15.088-48.032,22.671-72.044C490.058,46.253,493.376,41.265,498.331,38.559z M503.961,90.576    c3.676,0,7.353,0.007,11.036-0.008c-1.842-8.489-3.715-16.977-5.573-25.465C507.55,73.583,505.777,82.079,503.961,90.576z"
   id="path12"
   style="fill:#ffffff" />
	</g>
	<g
   id="g18"
   style="fill:#ffffff">
		<path
   d="M733.479,36.978c10.49-2.263,22.13-0.96,31.134,5.162c9.934,6.63,15.223,18.351,16.676,29.904    c1.509,12.427,0.311,25.702-6.019,36.725c-4.623,8.154-12.626,14.301-21.75,16.491c-11.821,2.867-25.328,1.025-34.801-6.995    c-8.704-7.257-13.056-18.501-14.191-29.546c-1.206-12.244,0.224-25.298,6.798-35.946C716.17,44.776,724.341,38.939,733.479,36.978    z M741.15,60.315c-4.034,1.016-6.13,5.13-7.154,8.822c-1.683,6.384-1.676,13.117-0.913,19.645    c0.651,4.359,1.803,9.203,5.47,12.038c3.384,2.556,8.632,1.524,10.982-1.954c3.344-4.731,3.803-10.791,4.011-16.396    c0.008-6.067-0.255-12.522-3.318-17.93C748.512,61.378,744.731,59.322,741.15,60.315z"
   id="path16"
   style="fill:#ffffff" />
	</g>
	<g
   id="g22"
   style="fill:#ffffff">
		<path
   d="M816.701,36.971c10.49-2.256,22.131-0.946,31.143,5.184c9.902,6.631,15.184,18.319,16.636,29.848    c1.524,12.459,0.325,25.783-6.042,36.828c-4.614,8.115-12.594,14.229-21.678,16.42c-11.848,2.883-25.387,1.033-34.875-7.019    c-8.67-7.25-13.023-18.47-14.149-29.483c-1.223-12.261,0.206-25.33,6.789-35.986C799.375,44.768,807.556,38.931,816.701,36.971z     M824.324,60.323c-2.929,0.699-4.947,3.271-6.099,5.916c-1.969,4.573-2.366,9.639-2.421,14.57    c0.023,5.233,0.35,10.64,2.493,15.492c1.199,2.755,3.469,5.375,6.591,5.836c3.382,0.667,6.82-1.262,8.474-4.193    c2.992-5.129,3.317-11.283,3.389-17.08c-0.119-5.725-0.516-11.839-3.637-16.817C831.327,61.133,827.69,59.386,824.324,60.323z"
   id="path20"
   style="fill:#ffffff" />
	</g>
	<g
   id="g26"
   style="fill:#ffffff">
		<path
   d="M127.299,51.397c-0.325-7.512,6.948-13.355,14.158-12.911c10.037,0.007,20.074-0.04,30.11,0.024    c8.313,0.143,16.929,3.12,22.455,9.56c7.091,8.313,9.275,21.296,3.629,30.944c-2.827,4.828-7.218,8.561-12.029,11.323    c6.813,11.093,13.634,22.178,20.438,33.27c-11.315-0.102-22.646,0.183-33.946-0.143c-3.986-7.933-8.234-15.722-12.323-23.591    c-1.341-2.335-2.493-4.789-3.057-7.44c0.055,10.394,0.008,20.78,0.023,31.166c-9.822,0.008-19.644,0.008-29.467,0    C127.307,99.532,127.275,75.465,127.299,51.397z M156.75,61.109c-0.023,8.163,0.08,16.326-0.047,24.488    c0.777-2.755,2.088-5.447,4.311-7.322c2.295-2.183,5.686-2.62,7.925-4.875c3.073-2.954,2.351-8.679-1.271-10.878    C164.405,60.497,160.394,61.228,156.75,61.109z"
   id="path24"
   style="fill:#ffffff" />
	</g>
	<path
   d="M219.344,46.832c8.353-5.638,18.525-8.044,28.514-8.313c5.122-0.08,10.243-0.024,15.372-0.032   c0.009,8.424,0,16.85,0,25.274c-7.694,0.262-16.119-1.215-23.003,3.144c-9.807,5.773-9.877,22.217-0.175,28.125   c6.876,4.526,15.42,3.033,23.178,3.295c0,8.425,0.009,16.85-0.008,25.282c-9.091-0.15-18.326,0.612-27.267-1.445   c-10.41-2.191-20.422-7.733-26.561-16.603c-6.924-9.886-8.44-22.757-6.177-34.415C205.115,61.331,210.967,52.334,219.344,46.832z"
   id="path28"
   style="fill:#ffffff" />
	<g
   id="g32"
   style="fill:#ffffff">
		<path
   d="M361.509,38.931c8.091-0.977,16.318-0.199,24.464-0.453c9.592-0.413,19.28,2.446,27.038,8.115    c9.821,7.036,16.611,18.294,17.778,30.372c1.152,10.91-2.406,22.123-9.346,30.57c-7.941,9.862-20.351,16.104-33.063,16.063    c-8.171-0.04-16.333,0.088-24.496-0.063c-6.575-0.222-12.752-5.742-12.657-12.521c-0.008-20.105-0.048-40.211,0.024-60.316    C351.361,44.966,355.975,40.003,361.509,38.931z M380.67,98.31c6.178,0.366,13.006-1.557,16.707-6.837    c4.812-7.019,4.216-17.897-2.461-23.559c-3.899-3.343-9.211-4.296-14.206-4.177C380.63,75.259,380.709,86.789,380.67,98.31z"
   id="path30"
   style="fill:#ffffff" />
	</g>
	<path
   d="M435.387,38.487c9.814-0.008,19.637-0.008,29.458,0c0,28.371,0,56.742,0,85.113c-9.821,0.008-19.645,0-29.467,0   C435.387,95.229,435.379,66.857,435.387,38.487z"
   id="path34"
   style="fill:#ffffff" />
	<path
   d="M868.519,38.487c7.703,0.024,15.412-0.08,23.115,0.047c5.534,0.199,11.648,2.089,14.722,7.051   c2.778,4.32,2.627,9.656,2.572,14.587c0,21.146-0.008,42.283,0,63.428c-9.742,0.008-19.485,0-29.229,0   c-0.008-19.017,0-38.043,0-57.06c0.016-1.04-0.166-2.509-1.43-2.724c-3.256-0.143-6.512,0.008-9.759-0.079   C868.527,55.32,868.511,46.903,868.519,38.487z"
   id="path36"
   style="fill:#ffffff" />
	<path
   d="M567.474,75.76c12.998,0,26.005-0.031,39.003,0.016c-0.04,6.979,0.009,13.967-0.024,20.954   c-12.997-0.031-25.996,0.009-38.986-0.024C567.481,89.727,567.466,82.74,567.474,75.76z"
   id="path38"
   style="fill:#ffffff" />
</g>
<polygon
   fill="#ED1C24"
   points="133.333,149 79.311,149 39.311,256.332 93.333,256.332 "
   id="polygon42" />
<polygon
   fill="#8DC63F"
   points="209.354,149 155.333,149 115.333,256.332 169.354,256.332 "
   id="polygon44" />
<polygon
   fill="#1C75BC"
   points="287.021,149 233,149 193,256.332 247.021,256.332 "
   id="polygon46" />
<g
   id="g50"
   style="fill:#cccccc">
	<path
   fill-rule="evenodd"
   clip-rule="evenodd"
   d="M909.932,231.952v5.861h0.937v-2.581h1.055l1.524,2.581h1.055l-1.756-2.581   l0.701-0.234l0.469-0.233l0.352-0.587v-0.586l-0.117-0.703l-0.352-0.585l-0.703-0.233l-0.937-0.118H909.932L909.932,231.952z    M910.868,234.531v-1.876h1.291l0.937,0.233l0.233,0.352v0.352l-0.233,0.703l-0.703,0.236H910.868L910.868,234.531z    M906.791,234.795c0-2.813,2.296-5.106,5.108-5.106c2.815,0,5.109,2.294,5.109,5.106c0,2.817-2.294,5.111-5.109,5.111   C909.087,239.906,906.791,237.612,906.791,234.795L906.791,234.795z M907.783,234.797c0-2.269,1.85-4.116,4.116-4.116   c2.27,0,4.119,1.848,4.119,4.116c0,2.267-1.85,4.117-4.119,4.117C909.633,238.914,907.783,237.063,907.783,234.797L907.783,234.797   z M473.922,256.099V184.01h72.097v72.089H473.922L473.922,256.099z M510.029,252.816l3.282-0.233l3.281-0.47l3.164-0.821   l2.933-1.055l2.931-1.405l2.579-1.643l2.581-1.873l2.345-2.112l2.107-2.345l1.876-2.461l1.642-2.697l1.406-2.928l1.055-2.931   l0.821-3.166l0.47-3.282l0.117-3.284l-0.117-3.397l-0.47-3.164l-0.821-3.166l-1.055-3.049l-1.406-2.812l-1.642-2.697l-1.876-2.576   l-2.107-2.229l-2.345-2.109l-2.581-1.874l-2.579-1.642l-2.931-1.406l-2.933-1.17l-3.164-0.706l-3.281-0.585l-3.282-0.118   l-3.399,0.118l-3.282,0.585l-3.049,0.706l-3.047,1.17l-2.814,1.406l-2.696,1.642l-2.58,1.874l-2.344,2.109l-2.109,2.229   l-1.876,2.576l-1.642,2.697l-1.288,2.812l-1.173,3.049l-0.82,3.166l-0.469,3.164l-0.117,3.397l0.117,3.284l0.469,3.282l0.82,3.166   l1.173,2.931l1.288,2.928l1.642,2.697l1.876,2.461l2.109,2.345l2.344,2.112l2.58,1.873l2.696,1.643l2.814,1.405l3.047,1.055   l3.049,0.821l3.282,0.47L510.029,252.816L510.029,252.816z M514.6,196.316l-0.115,1.878l-0.352,1.64l-0.468,1.408l-0.472,1.171   l-0.937,1.521l-0.47,0.472l0.821,3.752l0.585,1.873h2.229l2.461,0.47l2.345,0.937l2.109,1.406l1.876,1.758l1.524,2.111l0.585,1.173   l0.354,1.29l0.352,1.289v1.406l-0.235,2.578l-0.819,2.343l-1.29,1.994l-1.526,1.758l-1.758,1.408l-1.874,1.171l-1.993,0.82   l-1.758,0.588v7.383l-0.236,1.76l-0.818,1.758l-1.173,1.524l-1.29,1.288l-1.524,1.057l-1.521,0.819l-1.291,0.469l-1.055,0.236   l-1.526-0.236l-1.405-0.703l-0.47-0.469l-0.469-0.703l-0.233-0.703v-0.937l0.116-1.758l0.353-0.706l0.352-0.585l0.585-0.47   l0.822-0.352l0.938-0.233l1.17-0.118l1.175,0.118l0.939,0.352l0.703,0.47l0.467,0.467l0.703,0.703l0.352,0.118l0.47-0.118   l0.352-0.352l0.233-0.467l0.118-1.291v-3.164l-0.233-1.523l-0.352-1.173l-0.588-1.291l-2.343,0.354h-2.699l-2.93-0.47l-3.048-1.055   l-1.29-0.705l-1.406-1.053l-1.172-1.057l-0.937-1.406l-0.939-1.524l-0.585-1.758l-0.47-2.111l-0.118-2.226l0.118-2.345l0.47-2.109   l0.703-1.876l0.821-1.64l1.053-1.526l1.172-1.286l1.173-1.175l1.406-1.055l2.579-1.758l2.464-1.291l1.991-1.055l1.288-0.818   l-0.818-2.229l-0.47-2.461l-0.233-3.279l0.116-1.643l0.354-1.406l0.349-1.175l0.588-0.937l0.588-0.821l0.703-0.467l0.582-0.352   l0.588-0.12l1.173,0.235l0.47,0.352l0.585,0.588l0.47,0.938l0.469,1.055l0.234,1.522L514.6,196.316L514.6,196.316z    M508.271,233.123l-1.642-0.819l-1.406-1.055l-1.057-1.057l-0.937-1.288l-0.82-1.524l-0.468-1.524l-0.354-1.758l-0.117-1.875   l0.235-2.112l0.468-1.991l0.703-1.758l1.056-1.64l1.29-1.526l1.523-1.17l1.64-1.055l1.879-0.703l-0.824-2.109l-2.225,0.703   l-2.228,1.288l-2.111,1.64l-1.876,1.878l-1.522,1.991l-1.174,2.228l-0.703,2.225l-0.234,2.229l0.234,2.577l0.703,2.229l1.057,2.109   l1.523,1.758l1.876,1.406l2.108,1.057l2.347,0.585l2.576,0.233L508.271,233.123L508.271,233.123z M512.375,196.2l-0.118-1.642   l-0.352-1.173l-0.47-0.585l-0.467-0.236l-0.588,0.352l-0.467,0.823l-0.236,1.171l-0.236,1.758l0.236,2.345l0.467,1.643l0.588,1.406   l0.236-0.236l0.582-0.818l0.588-1.758l0.236-1.406V196.2L512.375,196.2z M595.371,184.01h7.153l7.267-0.118l18.053,0.118h18.051   l0.588,0.117l0.588,0.116l0.352,0.352l0.115,0.703l-0.703,1.76l-1.291,3.046l-2.227,4.807l-0.35,1.055l-0.47,1.055l-0.703,1.29   l-0.469,0.588l-0.588,0.115l-0.467-0.115l-0.352-0.354v-0.585l0.115-0.821l0.352-1.523l0.236-1.406l-0.236-1.406l-0.703-1.291   l-0.818-1.17l-0.823-0.939l-1.286-1.055h-0.12v0.116l0.587,0.587l-0.821-0.587l-0.82-0.468l-1.758-0.585l-2.109-0.118h-2.346   h-5.627h-1.524l-1.055,0.236l-0.818,0.35l-0.705,0.469l-0.586,0.703l-0.469,0.819l-1.055,2.581l-3.752,9.728l-4.924,11.724   l-0.352,1.055l-0.118,0.703l0.118,0.703l0.352,0.47l0.472,0.352l0.583,0.233l1.408,0.233l2.461,0.118h1.524l1.64-0.233l1.643-0.588   l1.64-1.055l1.76-1.642l1.64-2.461l1.406-2.343l0.939-0.821l0.587-0.233l0.586-0.118l0.703,0.118l0.349,0.233l0.12,0.467v0.824   l-0.587,1.873l-0.703,1.878l-5.628,15.119l-0.818,2.579l-0.233,0.469l-0.354,0.47l-0.586,0.233l-0.703,0.118l-0.703-0.118   l-0.587-0.233l-0.236-0.47l-0.233-0.585v-1.406l0.233-1.524l0.12-1.642v-1.406l-0.354-1.29l-0.937-1.289l-0.703-0.585l-0.821-0.354   l-1.76-0.47l-1.991-0.115h-1.876l-0.352,0.115l-1.055,0.47l-0.703,0.47l-0.703,0.818l-0.823,1.175l-0.703,1.524l-3.634,8.321   l-1.991,4.219l-2.228,5.394l-1.172,3.046l-0.706,2.228v1.524l0.118,1.055l0.236,0.705l0.585,0.467l0.585,0.354l0.821,0.115h1.875   l3.988-0.115l3.515-0.236l3.049-0.585l2.696-0.705l2.346-0.819l1.993-0.937l1.758-1.057l1.406-1.173l1.171-1.288l1.057-1.173   l1.64-2.461l1.291-2.346l1.17-2.108l0.236-0.236h0.352l0.587,0.703l0.586,1.057l0.117,1.053l-0.587,1.993l-0.937,2.112   l-2.815,7.033l-0.938,2.343l-0.35,0.703l-0.47,0.588l-0.587,0.233l-0.701,0.233l-2.111,0.118H600.88h-17.464l-19.933,0.233h-0.937   l-0.821-0.352l-0.467-0.585l-0.12-1.055l0.235-0.585l0.588-0.354l0.703-0.233l0.937-0.115l3.634,0.115l1.526-0.352l2.109-0.703   l1.993-0.938l1.406-0.938l0.819-0.937l0.938-1.29l1.758-3.164l1.761-3.4l1.055-2.461l17.464-42.317l1.408-3.398l0.585-1.875   l0.47-1.526v-0.937l-0.233-0.701l-0.352-0.354l-0.588-0.35l-1.521-0.118l-1.76-0.118h-9.612l-2.463,0.118l-2.343,0.468   l-1.055,0.354l-0.821,0.588l-0.821,0.582l-0.47,0.821l0.821,0.233l1.64,0.821l0.823,0.705l0.819,0.819l0.587,1.055l0.236,1.172   l-0.236,1.289l-0.469,1.175l-0.703,1.17l-0.938,0.939l-1.057,0.818l-1.055,0.588l-1.173,0.352l-1.055,0.115l-1.17-0.115   l-1.057-0.236l-0.938-0.467l-0.938-0.703l-0.819-0.939l-0.587-1.17l-0.352-1.526l-0.116-1.992l0.116-0.938l0.235-1.053l0.468-0.938   l0.587-0.939l1.522-1.758l2.111-1.521l2.579-1.291l3.048-1.055l3.282-0.587l3.518-0.233H595.371L595.371,184.01z M694.194,232.889   l-1.173,2.461l-0.467,1.409l-0.352,1.17v0.47l0.23,0.352l0.236,0.352h0.467l0.939-0.116l0.939-0.354l1.64-1.173l1.057-1.17   l0.47-0.588l0.467,0.118l0.47,0.352l0.352,0.47l0.118,0.47l-0.821,1.055l-2.579,2.576l-2.694,2.229l-1.29,0.821l-1.291,0.7   l-1.291,0.47l-1.405,0.354l-1.522,0.233l-1.76,0.115l-1.173-0.233l-1.055-0.47l-0.938-0.703l-0.819-1.055l-0.587-1.17l-0.468-1.293   l-0.235-1.404l0.117-1.523l0.234-1.758l0.587-1.878l1.406-4.102l3.282-7.502l1.288-2.931l1.526-4.104l1.286-4.103l0.705-2.697v-0.7   v-0.821l-0.349-0.703l-0.356-0.236l-0.347-0.115l-0.706,0.115l-0.585,0.236l-1.526,1.055l-1.521,1.521l-1.524,1.758l-2.931,3.987   l-1.876,2.931l-1.29,2.343l-1.524,2.931l-3.048,7.035l-3.049,7.149l-2.109,5.394l-0.938,1.758l-0.468,0.47l-0.587,0.352   l-1.288,0.233h-1.761h-3.397h-2.345l-1.173-0.233l-0.352-0.236l-0.116-0.352l0.234-2.228l5.157-14.651l3.518-9.494l1.874-5.273   l0.938-3.751l-0.115-0.588l-0.354-0.467l-0.47-0.354l-0.585-0.118l-1.173,0.236l-1.288,0.585l-1.173,0.821l-1.173,1.055   l-2.228,2.346l-1.642,2.345l-11.137,25.085l-0.937,2.343l-1.173,2.228l-0.354,0.233l-0.467,0.236l-1.055,0.233h-2.109h-2.933   l-1.055,0.118l-1.522-0.118l-0.705-0.115l-0.703-0.236l-0.352-0.352l-0.118-0.47l0.47-1.524l0.585-1.523l6.8-19.104l1.994-5.275   l1.055-2.931l0.585-2.111l-0.116-0.467l-0.354-0.588l-0.35-0.467l-0.469-0.236l-1.171,0.118l-1.175,0.352l-1.055,0.585   l-0.937,0.823l-1.643,1.758l-1.172,1.17h-0.234l-0.233-0.115l-0.587-0.587l-0.352-0.703l-0.118-0.588l2.696-2.928l2.815-2.697   l2.93-2.229l2.931-1.638l1.524-0.587l1.524-0.352l1.521-0.352h1.408l1.055,0.115l0.937,0.352l1.527,1.055l1.054,1.175l0.586,0.937   l0.82,3.282l-0.587,2.229l2.461-2.933l1.526-1.524l1.642-1.524l1.992-1.172l2.227-1.055l2.461-0.703l2.933-0.233l1.171,0.115   l1.173,0.236l1.172,0.467l1.055,0.588l0.939,0.938l0.818,1.17l0.588,1.524l0.352,1.876l-0.588,3.987l1.175-1.758l1.406-1.76   l1.991-1.994l2.464-1.991l1.406-0.938l1.642-0.821l1.643-0.703l1.873-0.585l1.878-0.352l2.107-0.118l1.29,0.118l1.291,0.352   l1.288,0.585l1.173,0.703l0.937,1.057l0.821,1.17l0.354,1.291v1.521l-0.47,2.582l-0.705,2.461l-1.991,4.924L694.194,232.889   L694.194,232.889z M716.467,231.131l-0.818,2.109l-0.47,2.109l-0.233,1.876l0.233,1.76l0.47,1.522l0.937,1.172l1.29,0.703   l1.758,0.352l1.406-0.115l1.288-0.236l2.581-1.055l2.228-1.288l1.991-1.642l1.761-1.758l1.288-1.524l1.642-1.993l0.47-0.116   l0.703,0.233l0.585,0.47l0.233,0.352l-1.17,1.876l-1.408,1.876l-1.406,1.758l-1.291,1.17l-3.046,2.111l-3.048,1.524l-1.524,0.585   l-1.524,0.47l-1.642,0.233h-1.64l-3.049-0.233l-2.813-0.939l-1.29-0.585l-1.171-0.821l-1.057-0.818l-0.937-1.057l-0.939-1.171   l-0.703-1.29l-0.585-1.291l-0.47-1.521l-0.352-1.643l-0.118-1.64v-1.758l0.118-1.876l0.47-3.048l0.821-2.813l1.17-2.814   l1.291-2.461l1.523-2.461l1.641-2.229l1.875-1.989l1.994-1.878l2.109-1.643l2.109-1.521l2.229-1.175l2.227-1.055l2.109-0.818   l2.228-0.703l2.111-0.352l1.992-0.118l2.109,0.118l2.111,0.352l1.876,0.703l1.758,0.937l1.523,1.172l1.173,1.524l0.701,1.876   l0.12,2.346l-0.12,1.993l-0.583,1.873l-0.706,1.876l-1.054,1.64l-1.289,1.758l-1.523,1.526l-1.643,1.404l-1.876,1.291l-1.875,1.29   l-2.109,1.055l-2.228,0.938l-2.346,0.703l-2.345,0.586l-2.343,0.467l-2.464,0.354h-2.343L716.467,231.131L716.467,231.131z    M729.597,219.879l1.994-2.463l1.993-2.931l1.64-3.163l0.585-1.527l0.236-1.521v-1.406l-0.585-1.291l-0.47-0.469l-0.47-0.35   l-0.703-0.235l-0.587-0.116l-1.288,0.233l-1.289,0.585l-1.175,0.939l-1.17,1.17l-1.173,1.527l-1.055,1.64l-2.111,3.634   l-1.876,3.751l-1.524,3.634l-1.873,5.039l0.818,0.118l0.821-0.118l1.288-0.352l1.524-0.703l1.876-1.172l2.228-1.874   L729.597,219.879L729.597,219.879z M776.489,202.062l2.344,0.233l0.938,0.352l0.937,0.587l0.703,0.701l0.47,0.823l0.352,1.055   l0.118,1.288l-0.118,1.173l-0.352,1.406l-0.47,1.406l-0.821,1.291l-0.937,1.172l-1.172,0.937l-1.524,0.703l-1.643,0.236   l-1.873-0.12l-1.643-0.583l-0.703-0.472l-0.469-0.583l-0.468-0.703l-0.235-0.938l-0.118-1.055l-0.116-0.236l-0.233-0.115   l-0.587,0.23l-0.47,0.473l-1.055,1.17l-1.055,1.876l-1.055,1.993l-1.758,4.219l-1.408,2.931l-8.791,19.93l-0.588,0.818   l-0.467,0.703l-0.823,0.236l-1.874,0.118h-3.518h-2.346l-1.64-0.118l-0.82-0.236l-0.116-0.352l-0.118-0.467l0.703-2.346   l8.791-22.506l1.994-4.69l1.055-2.692l0.585-1.993v-0.47l-0.115-0.47l-0.352-0.236l-0.47-0.115l-0.703,0.115l-0.703,0.236   l-1.524,0.818l-2.696,2.23h-0.47l-0.703-0.352l-0.47-0.588v-0.236v-0.23l1.173-1.173l1.29-1.055l2.461-1.876l2.579-1.876   l2.581-1.406l2.576-0.938l1.291-0.233h1.291l1.055,0.115l1.055,0.352l0.938,0.705l0.818,0.938l0.588,1.172l0.352,1.64v1.879   l-0.236,2.345l0.821-1.411l2.463-3.164l1.641-1.758l1.76-1.405l1.991-1.055l1.057-0.236L776.489,202.062L776.489,202.062z    M816.227,242.034l-1.17-1.406l-1.055-1.643l-0.821-1.76l-0.585-1.993l-0.47-1.992l-0.352-2.109l-0.236-4.339l0.118-2.46   l0.47-2.461l0.818-2.461l1.058-2.464l1.288-2.225l1.524-2.345l1.758-2.109l1.878-1.994l2.109-1.758l2.109-1.643l2.345-1.521   l2.346-1.175l2.461-1.055l2.463-0.703l2.578-0.467l2.461-0.236l1.876,0.118l1.758,0.233l1.876,0.47l1.642,0.585l1.643,0.703   l1.521,0.939l1.291,0.937l1.288,1.172l1.173,1.406l0.938,1.406l0.821,1.643l0.585,1.758l0.47,1.878l0.233,1.991v2.109l-0.233,2.346   l-0.47,2.696l-0.82,2.577l-1.055,2.578l-1.173,2.463l-1.406,2.346l-1.643,2.225l-1.758,1.994l-1.875,1.991l-1.994,1.76   l-2.109,1.524l-2.228,1.406l-2.227,1.055l-2.346,0.937l-2.343,0.703l-2.345,0.354l-2.346,0.233l-3.282-0.233l-3.048-0.703   l-1.406-0.588l-1.406-0.703l-1.291-0.939L816.227,242.034L816.227,242.034z M844.362,211.556l0.47-1.761l0.352-1.637v-1.409   l-0.116-1.288l-0.469-1.173l-0.821-0.82l-1.288-0.47l-1.524-0.233l-1.055,0.115l-0.939,0.236l-1.758,0.937l-1.408,1.408   l-1.406,1.758l-1.172,1.994l-1.055,1.993l-1.992,3.982l-2.463,4.573l-2.461,5.155l-2.109,4.572l-1.173,3.048l-0.469,2.112   l-0.234,1.873l0.116,1.758l0.352,1.524l0.703,1.172l0.937,0.938l1.291,0.587l1.523,0.233l1.406-0.233l1.291-0.703l1.406-1.17   l1.408-1.526l1.404-1.876l1.29-2.109l2.579-4.806l2.345-5.158l2.109-5.157L844.362,211.556L844.362,211.556z M777.896,227.965   l-1.057,0.118l-1.17,0.352l-1.173,0.47l-1.055,0.703l-1.055,0.937l-0.703,1.055l-0.47,1.408l-0.233,1.524l0.115,1.758l0.468,1.876   l0.938,1.875l1.406,1.874l0.939,0.82l1.17,0.706l1.291,0.703l1.408,0.585l1.758,0.588l1.876,0.349l2.109,0.236h2.345l2.579-0.116   l2.345-0.354l2.109-0.585l1.994-0.821l1.76-0.939l1.638-1.052l1.408-1.175l1.173-1.171l2.109-2.578l1.288-2.579l0.821-2.228   l0.354-1.76l-0.117-1.406l-0.352-1.522l-0.588-1.408l-0.703-1.29l-1.758-2.811l-2.109-2.696l-1.993-2.579l-1.761-2.696   l-0.703-1.291l-0.585-1.288l-0.352-1.406l-0.115-1.288l0.233-1.409l0.467-1.173l0.821-0.937l0.937-0.703l0.939-0.587l0.938-0.352   l1.291-0.233l0.233,0.115l0.233,0.236v0.938l-0.117,3.4l0.117,1.055l0.352,1.055l0.47,0.938l0.703,0.935l0.937,0.823l1.058,0.585   l1.288,0.47l1.524,0.116l1.406-0.116l1.172-0.47l1.055-0.705l0.703-0.818l0.703-0.939l0.352-1.055l0.236-0.939l0.115-0.934   l-0.115-1.058l-0.354-1.055l-0.585-1.288l-1.17-1.175l-1.643-1.055l-2.227-0.937l-3.049-0.585l-3.867-0.236l-2.111,0.118   l-1.994,0.233l-1.758,0.47l-1.758,0.585l-1.523,0.703l-1.409,0.939l-1.288,0.82l-1.172,1.055l-1.876,2.228l-1.406,2.346   l-0.821,2.343l-0.233,2.227l0.115,2.228l0.354,1.876l0.585,1.64l0.703,1.408l0.821,1.289l0.937,1.055l1.993,1.875l2.109,1.758   l1.76,1.878l0.701,1.055l0.588,1.173l0.352,1.406l0.117,1.64l-0.235,2.228l-0.701,1.758l-1.057,1.29l-1.406,1.055l-1.406,0.703   l-1.643,0.352l-1.405,0.233l-1.406,0.118l-1.994-0.118l-1.291-0.233l-0.937-0.467l-0.467-0.354l-0.236-0.469v-0.352v-0.468   l0.819-0.233l1.645-1.173l0.937-0.82l0.703-1.055l0.587-1.409l0.234-1.523l-0.234-1.641l-0.469-1.288l-0.703-1.057l-0.939-0.821   l-1.055-0.703l-1.173-0.35l-1.29-0.235L777.896,227.965L777.896,227.965z M869.216,243.674l9.027-18.403l4.688-8.791l2.111-2.931   l2.694-3.048l1.406-1.288l1.408-1.055l1.173-0.473l0.585-0.115l0.468,0.115l0.587,0.473l0.352,0.703v0.585l-0.115,0.821   l-0.705,1.642l-0.701,1.758l-5.16,11.955l-3.164,7.97l-0.938,3.167l-0.47,2.109l0.118,1.523l0.233,1.406l0.47,1.406l0.703,1.173   l0.937,1.055l1.057,0.703l1.406,0.585l1.758,0.118l1.758-0.118l1.876-0.467l1.996-0.703l1.873-0.939l1.876-1.17l1.876-1.526   l1.758-1.756l1.642-1.878l0.118-0.585v-0.47l-0.234-0.467l-0.469-0.354l-0.588-0.115h-0.585l-1.406,1.406l-1.173,0.937   l-1.172,0.705l-0.939,0.234l-0.585-0.118l-0.352-0.585l-0.118-1.055l0.47-1.524l1.993-5.275l2.813-7.268l2.697-7.033l1.64-4.454   l0.354-1.409l0.116-1.637v-1.761l-0.47-1.758l-0.352-0.821l-0.585-0.82l-0.703-0.585l-0.821-0.703l-1.055-0.47l-1.29-0.352   l-1.404-0.233l-1.645-0.118l-1.524,0.118l-1.521,0.352l-2.813,1.055l-2.581,1.523l-2.228,1.758l-1.993,1.761l-1.406,1.521   l-1.289,1.526l0.352-1.411l0.116-1.521v-1.758l-0.468-1.758l-0.469-0.705l-0.588-0.819l-0.818-0.587l-1.058-0.47l-1.172-0.233   l-1.522-0.118l-1.523,0.118l-1.524,0.233l-3.049,0.939l-2.813,1.29l-2.578,1.521l-1.994,1.524l-1.642,1.288l-1.406,1.291v0.352   v0.352l0.233,0.472l0.354,0.231l0.468,0.236h0.469l2.813-2.109l2.112-1.406l0.82-0.354l0.701-0.233l0.588,0.115l0.585,0.354   l0.235,0.585l-0.117,1.055l-0.703,2.931l-1.289,3.751l-1.408,3.634l-10.081,23.679l-0.116,0.585l0.233,0.588l0.585,0.352   l0.821,0.118h8.912l1.172-0.118l0.701-0.352l0.354-0.588L869.216,243.674L869.216,243.674z M508.505,222.223l0.118-1.289   l0.352-1.055l0.467-1.057l0.703-0.821l0.824-0.703l1.055-0.585l1.055-0.352l1.172-0.118l1.173,0.118l1.055,0.352l0.937,0.585   l0.821,0.703l0.703,0.821l0.587,1.057l0.352,1.055l0.116,1.289l-0.116,1.172l-0.352,1.055l-0.587,1.055l-0.703,0.821l-0.821,0.821   l-0.937,0.469l-1.055,0.35l-1.173,0.118l-1.172-0.118l-1.055-0.35l-1.055-0.469l-0.824-0.821l-0.703-0.821l-0.467-1.055   l-0.352-1.055L508.505,222.223L508.505,222.223z M514.25,231.365l1.758-0.234l1.758-0.469l1.643-0.819l1.288-1.175l1.175-1.406   l0.818-1.521l0.468-1.76l0.235-1.758l-0.235-1.876l-0.468-1.758l-0.818-1.524l-1.175-1.406l-1.288-1.057l-1.643-0.935l-1.758-0.472   l-1.758-0.231l-1.875,0.231l-1.761,0.472l-1.521,0.935l-1.406,1.057l-1.057,1.406l-0.938,1.524l-0.469,1.758l-0.234,1.876   l0.234,1.758l0.469,1.76l0.938,1.521l1.057,1.406l1.406,1.175l1.521,0.819l1.761,0.469L514.25,231.365L514.25,231.365z"
   id="path48"
   style="fill:#cccccc" />
</g>
<g
   id="g56"
   style="fill:#cccccc">
	<path
   d="M425.506,249.65c0,0.86-0.119,1.641-0.356,2.339c-0.237,0.699-0.564,1.317-0.982,1.854   c-0.418,0.536-0.917,0.998-1.498,1.385c-0.58,0.387-1.22,0.705-1.918,0.955c-0.699,0.249-1.444,0.434-2.236,0.552   c-0.792,0.119-1.675,0.178-2.648,0.178h-6.438c-0.412,0-0.758-0.122-1.039-0.365s-0.421-0.639-0.421-1.188v-21.112   c0-0.549,0.14-0.945,0.421-1.188s0.627-0.365,1.039-0.365h6.083c1.485,0,2.742,0.125,3.771,0.375   c1.03,0.249,1.896,0.627,2.602,1.132c0.705,0.506,1.245,1.146,1.619,1.919s0.562,1.685,0.562,2.732   c0,0.587-0.075,1.139-0.225,1.656s-0.368,0.989-0.655,1.413c-0.287,0.425-0.639,0.799-1.057,1.123   c-0.418,0.325-0.896,0.587-1.432,0.786c0.686,0.125,1.32,0.344,1.9,0.655s1.085,0.714,1.516,1.207s0.77,1.07,1.02,1.731   C425.381,248.084,425.506,248.826,425.506,249.65z M419.142,239.449c0-0.486-0.075-0.923-0.225-1.31   c-0.15-0.387-0.375-0.708-0.674-0.964s-0.677-0.452-1.132-0.59c-0.456-0.138-1.064-0.206-1.825-0.206h-2.489v6.289h2.751   c0.711,0,1.279-0.084,1.703-0.253c0.424-0.168,0.777-0.399,1.058-0.692s0.49-0.637,0.627-1.029   C419.073,240.301,419.142,239.887,419.142,239.449z M420.396,249.818c0-0.562-0.094-1.063-0.281-1.507   c-0.187-0.442-0.462-0.813-0.824-1.113s-0.823-0.53-1.385-0.692s-1.292-0.243-2.19-0.243h-2.92v6.888h3.556   c0.686,0,1.264-0.072,1.731-0.216c0.468-0.143,0.873-0.355,1.217-0.636c0.343-0.281,0.611-0.63,0.805-1.049   C420.299,250.832,420.396,250.355,420.396,249.818z"
   id="path52"
   style="fill:#cccccc" />
	<path
   d="M437.934,247.723v8.516c0,0.125-0.041,0.237-0.122,0.337s-0.215,0.181-0.402,0.243s-0.44,0.112-0.758,0.149   c-0.318,0.038-0.715,0.057-1.189,0.057c-0.486,0-0.886-0.019-1.198-0.057c-0.312-0.037-0.564-0.087-0.758-0.149   c-0.194-0.063-0.328-0.144-0.402-0.243c-0.075-0.1-0.112-0.212-0.112-0.337v-8.516l-6.626-13.195   c-0.237-0.462-0.39-0.82-0.458-1.076c-0.069-0.256-0.031-0.449,0.112-0.581c0.144-0.131,0.409-0.212,0.795-0.243   c0.387-0.03,0.923-0.047,1.61-0.047c0.574,0,1.032,0.013,1.375,0.038c0.343,0.024,0.614,0.071,0.814,0.14   c0.199,0.069,0.346,0.159,0.439,0.271c0.094,0.112,0.184,0.256,0.271,0.431l2.695,5.952c0.262,0.574,0.521,1.179,0.777,1.815   c0.255,0.637,0.515,1.304,0.776,2.003h0.038c0.237-0.674,0.48-1.329,0.73-1.966c0.25-0.636,0.493-1.241,0.73-1.815l2.658-5.914   c0.063-0.199,0.141-0.358,0.234-0.478c0.094-0.118,0.234-0.215,0.421-0.29c0.187-0.075,0.443-0.125,0.767-0.149   c0.325-0.025,0.755-0.038,1.292-0.038c0.711,0,1.264,0.017,1.657,0.047c0.393,0.031,0.661,0.112,0.805,0.243   c0.143,0.132,0.178,0.328,0.103,0.59c-0.075,0.262-0.225,0.618-0.449,1.067L437.934,247.723z"
   id="path54"
   style="fill:#cccccc" />
</g>
<g
   id="g62"
   style="fill:#ffffff">
	<path
   d="M951.928,97.056c0,0.436-0.019,0.808-0.056,1.116c-0.038,0.309-0.095,0.557-0.169,0.744   c-0.076,0.188-0.17,0.327-0.282,0.417c-0.113,0.09-0.237,0.135-0.372,0.135h-7.308v23.525c0,0.15-0.05,0.286-0.147,0.406   c-0.098,0.12-0.259,0.218-0.484,0.293s-0.53,0.135-0.914,0.181c-0.383,0.045-0.86,0.067-1.432,0.067   c-0.572,0-1.049-0.022-1.433-0.067c-0.383-0.045-0.688-0.105-0.913-0.181s-0.388-0.173-0.485-0.293   c-0.098-0.121-0.146-0.256-0.146-0.406V99.469h-7.308c-0.15,0-0.278-0.045-0.384-0.135s-0.195-0.229-0.271-0.417   c-0.075-0.188-0.132-0.436-0.169-0.744c-0.038-0.308-0.057-0.68-0.057-1.116c0-0.451,0.019-0.835,0.057-1.15   c0.037-0.316,0.094-0.567,0.169-0.756c0.075-0.188,0.165-0.323,0.271-0.406s0.233-0.124,0.384-0.124h20.57   c0.135,0,0.259,0.042,0.372,0.124c0.112,0.083,0.206,0.218,0.282,0.406c0.074,0.188,0.131,0.44,0.169,0.756   C951.909,96.221,951.928,96.605,951.928,97.056z"
   id="path58"
   style="fill:#ffffff" />
	<path
   d="M989.393,122.994c0,0.15-0.042,0.286-0.124,0.406c-0.083,0.12-0.233,0.218-0.451,0.293   c-0.219,0.075-0.508,0.135-0.868,0.181c-0.361,0.045-0.82,0.067-1.376,0.067c-0.542,0-0.992-0.022-1.354-0.067   c-0.361-0.045-0.646-0.105-0.857-0.181c-0.21-0.075-0.36-0.173-0.451-0.293c-0.09-0.121-0.135-0.256-0.135-0.406v-23.75h-0.045   l-8.458,23.728c-0.061,0.195-0.158,0.357-0.294,0.485c-0.135,0.128-0.319,0.229-0.553,0.305c-0.233,0.075-0.529,0.124-0.891,0.146   c-0.36,0.022-0.797,0.034-1.308,0.034c-0.512,0-0.948-0.019-1.309-0.056c-0.361-0.038-0.658-0.098-0.891-0.181   c-0.233-0.083-0.418-0.184-0.553-0.304c-0.136-0.121-0.226-0.263-0.271-0.429l-8.165-23.728h-0.045v23.75   c0,0.15-0.042,0.286-0.124,0.406c-0.083,0.12-0.237,0.218-0.463,0.293s-0.516,0.135-0.868,0.181   c-0.354,0.045-0.809,0.067-1.364,0.067c-0.542,0-0.993-0.022-1.354-0.067c-0.361-0.045-0.65-0.105-0.868-0.181   c-0.219-0.075-0.369-0.173-0.451-0.293c-0.083-0.121-0.124-0.256-0.124-0.406V96.988c0-0.767,0.202-1.354,0.608-1.759   s0.947-0.609,1.624-0.609h3.88c0.691,0,1.285,0.056,1.781,0.169s0.925,0.301,1.286,0.564c0.36,0.263,0.661,0.609,0.902,1.038   c0.24,0.429,0.451,0.958,0.631,1.59l6.315,17.39h0.091l6.541-17.345c0.195-0.632,0.409-1.165,0.643-1.602   c0.232-0.436,0.504-0.79,0.812-1.06c0.309-0.271,0.673-0.462,1.094-0.575s0.91-0.169,1.467-0.169h3.992   c0.406,0,0.755,0.053,1.049,0.158c0.293,0.105,0.533,0.259,0.722,0.462c0.188,0.203,0.33,0.451,0.429,0.744   c0.098,0.293,0.146,0.628,0.146,1.004V122.994z"
   id="path60"
   style="fill:#ffffff" />
</g>
<g
   id="g64">
</g>
<g
   id="g66">
</g>
<g
   id="g68">
</g>
<g
   id="g70">
</g>
<g
   id="g72">
</g>
<g
   id="g74">
</g>
</svg>
