<?xml version="1.0" encoding="UTF-8" standalone="no"?>
<!-- Created with Inkscape (http://www.inkscape.org/) -->

<svg
   version="1.1"
   id="svg73381"
   width="2144.5186"
   height="939.19244"
   viewBox="0 0 2144.5185 939.19244"
   sodipodi:docname="atari800.svg"
   inkscape:version="1.1.2 (0a00cf5339, 2022-02-04, custom)"
   inkscape:export-filename="/home/john/Batocera Theme/logo/Working SVGs/Today/atari800.png"
   inkscape:export-xdpi="380.92001"
   inkscape:export-ydpi="380.92001"
   xmlns:inkscape="http://www.inkscape.org/namespaces/inkscape"
   xmlns:sodipodi="http://sodipodi.sourceforge.net/DTD/sodipodi-0.dtd"
   xmlns:xlink="http://www.w3.org/1999/xlink"
   xmlns="http://www.w3.org/2000/svg"
   xmlns:svg="http://www.w3.org/2000/svg">
  <defs
     id="defs73385">
    <linearGradient
       inkscape:collect="always"
       id="linearGradient86375">
      <stop
         style="stop-color:#72c04e;stop-opacity:1"
         offset="0"
         id="stop86371" />
      <stop
         style="stop-color:#6dbe48;stop-opacity:1"
         offset="0.19587433"
         id="stop165145" />
      <stop
         style="stop-color:#376577;stop-opacity:1"
         offset="0.35207254"
         id="stop108959" />
      <stop
         style="stop-color:#5c3b70;stop-opacity:1"
         offset="0.52399886"
         id="stop158401" />
      <stop
         style="stop-color:#5c3b70;stop-opacity:1"
         offset="1"
         id="stop86373" />
    </linearGradient>
    <linearGradient
       inkscape:collect="always"
       xlink:href="#linearGradient86375"
       id="linearGradient86377"
       x1="2230.3506"
       y1="931.17126"
       x2="182.13921"
       y2="-195.91103"
       gradientUnits="userSpaceOnUse" />
    <linearGradient
       inkscape:collect="always"
       xlink:href="#linearGradient86375"
       id="linearGradient221739"
       gradientUnits="userSpaceOnUse"
       x1="2230.3506"
       y1="931.17126"
       x2="182.13921"
       y2="-195.91103" />
    <linearGradient
       inkscape:collect="always"
       xlink:href="#linearGradient86375"
       id="linearGradient221741"
       gradientUnits="userSpaceOnUse"
       x1="2230.3506"
       y1="931.17126"
       x2="182.13921"
       y2="-195.91103" />
    <linearGradient
       inkscape:collect="always"
       xlink:href="#linearGradient86375"
       id="linearGradient221743"
       gradientUnits="userSpaceOnUse"
       x1="2230.3506"
       y1="931.17126"
       x2="182.13921"
       y2="-195.91103" />
    <linearGradient
       inkscape:collect="always"
       xlink:href="#linearGradient86375"
       id="linearGradient221745"
       gradientUnits="userSpaceOnUse"
       x1="2230.3506"
       y1="931.17126"
       x2="182.13921"
       y2="-195.91103" />
    <linearGradient
       inkscape:collect="always"
       xlink:href="#linearGradient86375"
       id="linearGradient221747"
       gradientUnits="userSpaceOnUse"
       x1="2230.3506"
       y1="931.17126"
       x2="182.13921"
       y2="-195.91103" />
  </defs>
  <sodipodi:namedview
     id="namedview73383"
     pagecolor="#ffffff"
     bordercolor="#111111"
     borderopacity="1"
     inkscape:pageshadow="0"
     inkscape:pageopacity="0"
     inkscape:pagecheckerboard="1"
     showgrid="false"
     inkscape:zoom="0.12446809"
     inkscape:cx="1373.8462"
     inkscape:cy="803.4188"
     inkscape:window-width="1366"
     inkscape:window-height="703"
     inkscape:window-x="0"
     inkscape:window-y="0"
     inkscape:window-maximized="1"
     inkscape:current-layer="g73387"
     fit-margin-top="0"
     fit-margin-left="0"
     fit-margin-right="0"
     fit-margin-bottom="0" />
  <g
     inkscape:groupmode="layer"
     inkscape:label="Atari800"
     id="g73387"
     transform="translate(-12.994023,0.14398243)">
    <g
       aria-label="ATARI"
       id="text79544"
       style="font-size:266.667px;font-family:'SF Atarian System';-inkscape-font-specification:'SF Atarian System';fill:url(#linearGradient86377);fill-opacity:1;stroke-width:0.998675;stroke-linecap:round;stop-color:#000000"
       transform="matrix(1,0,0,1.0026555,0,3.8234336e-4)"
       inkscape:label="Atari">
      <path
         d="M 613.92157,797.59671 H 471.73301 L 422.6237,623.43 H 219.90508 L 170.22472,797.59671 H 29.178239 L 229.04168,84.369711 q 23.98362,-84.51369343 92.50824,-84.51369343 67.95356,0 92.50824,84.51369343 z M 384.93518,486.95181 321.54992,261.96266 258.16466,486.95181 Z"
         style="font-weight:bold;-inkscape-font-specification:'SF Atarian System Bold';fill:url(#linearGradient221739);fill-opacity:1;stroke-width:0.998674"
         id="path105494" />
      <path
         d="M 971.57996,136.33421 H 815.6865 v 661.2625 H 679.20831 V 136.33421 H 523.31482 V -0.14398243 h 448.26514 z"
         style="font-weight:bold;-inkscape-font-specification:'SF Atarian System Bold';fill:url(#linearGradient221741);fill-opacity:1;stroke-width:0.998674"
         id="path105496" />
      <path
         d="M 1454.7002,797.59671 H 1312.5117 L 1263.4026,623.43 h -202.7188 l -49.6803,174.16671 H 869.95699 L 1069.8205,84.369711 q 23.9836,-84.51369343 92.5083,-84.51369343 67.9533,0 92.5082,84.51369343 z m -228.9861,-310.6449 -63.3853,-224.98915 -63.3853,224.98915 z"
         style="font-weight:bold;-inkscape-font-specification:'SF Atarian System Bold';fill:url(#linearGradient221743);fill-opacity:1;stroke-width:0.998674"
         id="path105498" />
      <path
         d="M 1983.5037,797.59671 H 1824.7552 L 1660.8671,541.7715 q -35.9754,-55.39074 -35.9754,-86.79787 0,-58.81692 50.8223,-95.93445 23.9837,-13.13386 46.8252,-26.26776 22.8416,-13.13387 46.8253,-26.26778 50.8223,-33.69125 50.8223,-82.80056 0,-33.69127 -26.8388,-60.53008 -26.8387,-26.8388 -61.101,-26.8388 H 1624.8917 V 797.59671 H 1488.4134 V 87.224913 q 0,-34.833368 26.2678,-61.101137 26.2678,-26.26775843 61.6723,-26.26775843 h 155.8935 q 87.9398,0 155.8935,63.38528443 67.9535,62.814228 67.9535,150.754138 0,81.65846 -53.1066,149.04099 -52.5355,66.81152 -133.052,95.36345 z"
         style="font-weight:bold;-inkscape-font-specification:'SF Atarian System Bold';fill:url(#linearGradient221745);fill-opacity:1;stroke-width:0.998674"
         id="path105500" />
      <path
         d="M 2153.6649,797.59671 H 2017.1868 V -0.14398243 h 136.4781 z"
         style="font-weight:bold;-inkscape-font-specification:'SF Atarian System Bold';fill:url(#linearGradient221747);fill-opacity:1;stroke-width:0.998674"
         id="path105502" />
    </g>
    <g
       id="g57853"
       inkscape:label="Home"
       transform="translate(-1.3030583)"
       style="fill:#b6b6b6;fill-opacity:1">
      <g
         aria-label="H"
         transform="scale(0.95381557,1.0484207)"
         id="text6476"
         style="font-size:121.427px;font-family:Manolo;-inkscape-font-specification:Manolo;fill:#b6b6b6;fill-opacity:1;stroke-linecap:round;stop-color:#000000">
        <path
           d="m 19.376855,894.19679 v 0 q -1.838006,0 -3.142398,-1.30439 -1.245101,-1.2451 -1.245101,-3.08311 v -79.92363 q 0,-1.77872 1.245101,-3.08311 1.304392,-1.30439 3.142398,-1.30439 h 0.415034 q 1.838006,0 3.083107,1.30439 1.304392,1.30439 1.304392,3.08311 v 33.73631 h 50.219077 v -33.73631 q 0,-1.77872 1.245101,-3.08311 1.304392,-1.30439 3.142398,-1.30439 h 0.474325 q 1.778716,0 3.023817,1.30439 1.304391,1.30439 1.304391,3.08311 v 79.92363 q 0,1.83801 -1.304391,3.08311 -1.245101,1.30439 -3.023817,1.30439 h -0.474325 q -1.838006,0 -3.142398,-1.30439 -1.245101,-1.2451 -1.245101,-3.08311 V 852.812 H 24.179388 v 36.99729 q 0,1.83801 -1.304392,3.08311 -1.245101,1.30439 -3.083107,1.30439 z"
           id="path26499"
           style="fill:#b6b6b6;fill-opacity:1" />
      </g>
      <g
         aria-label="o"
         transform="scale(0.98622878,1.0139635)"
         id="text20279"
         style="font-size:125.553px;font-family:Manolo;-inkscape-font-specification:Manolo;fill:#b6b6b6;fill-opacity:1;stroke-linecap:round;stop-color:#000000">
        <path
           d="m 218.1477,916.24651 v 0 q 10.60579,0 19.12721,-4.96572 8.58273,-4.96572 13.60975,-13.42584 5.02702,-8.52141 5.02702,-19.0046 0,-10.54449 -5.02702,-19.06591 -5.02702,-8.52142 -13.60975,-13.54844 -8.52142,-5.02703 -19.12721,-5.02703 -10.54449,0 -19.06591,5.02703 -8.52142,5.02702 -13.54845,13.54844 -5.02702,8.52142 -5.02702,19.06591 0,10.48319 5.02702,19.0046 5.02703,8.46012 13.54845,13.42584 8.52142,4.96572 19.06591,4.96572 z m 0,9.56361 v 0 q -9.50231,0 -18.08503,-3.4944 -8.58273,-3.5557 -15.3263,-10.11535 -6.68226,-6.68227 -10.23796,-15.26499 -3.4944,-8.58273 -3.4944,-18.08503 0,-9.5023 3.4944,-18.08503 3.5557,-8.64403 10.23796,-15.32629 6.74357,-6.68227 15.3263,-10.17666 8.58272,-3.5557 18.08503,-3.5557 9.5636,0 18.14633,3.5557 8.64403,3.49439 15.3876,10.17666 6.68226,6.68226 10.23796,15.32629 3.5557,8.58273 3.5557,18.08503 0,9.5023 -3.5557,18.08503 -3.5557,8.58272 -10.29927,15.26499 -6.68226,6.62096 -15.32629,10.11535 -8.58273,3.4944 -18.14633,3.4944 z"
           id="path26502"
           style="fill:#b6b6b6;fill-opacity:1" />
      </g>
      <g
         aria-label="M"
         transform="scale(0.97505515,1.025583)"
         id="text23079"
         style="font-size:124.131px;font-family:Manolo;-inkscape-font-specification:Manolo;fill:#b6b6b6;fill-opacity:1;stroke-linecap:round;stop-color:#000000">
        <path
           d="m 357.16709,908.83564 v 0 -0.0606 l 23.50719,-83.76418 c 0.36367,-1.6971 1.33344,-2.8285 2.90932,-3.39421 l 2.48504,-0.12122 c 1.6567,0.40407 2.7679,1.43446 3.3336,3.09115 l 19.94992,69.64186 20.02681,-69.64186 c 0.52529,-1.57588 1.57588,-2.58606 3.15177,-3.03054 l 2.42443,0.0606 c 1.53547,0.44448 2.56586,1.45466 3.09115,3.03055 l 0.0606,0.24244 23.56803,83.94601 c 0.28286,1.53547 0.0808,2.72749 -0.60611,3.57604 -0.64651,0.84855 -1.45465,1.37385 -2.42443,1.57588 l -0.84855,0.24244 c -1.1314,0.28285 -2.18198,0.16163 -3.15176,-0.36366 -0.40407,-0.24245 -0.80814,-0.60611 -1.21222,-1.091 -0.40407,-0.48489 -0.68692,-1.1516 -0.84855,-2.00015 l -19.87077,-65.45971 -18.99643,67.15681 c -0.5657,1.73751 -1.71731,2.7881 -3.45482,3.15176 h -1.63649 c -1.73751,-0.36366 -2.90932,-1.41425 -3.51543,-3.15176 l -19.04076,-67.0962 -19.74932,65.33849 c -0.20203,0.88895 -0.50509,1.57587 -0.90916,2.06076 -0.36367,0.48489 -0.74753,0.84855 -1.1516,1.091 -1.01019,0.52529 -2.06078,0.64651 -3.15177,0.36366 l -0.90916,-0.24244 c -0.92937,-0.20203 -1.73751,-0.72733 -2.42443,-1.57588 -0.64652,-0.84855 -2.23925,-3.57604 -0.60611,-3.57604 z"
           id="path26505"
           sodipodi:nodetypes="ccccccccccccccccccscccccccccccccsc"
           style="fill:#b6b6b6;fill-opacity:1" />
      </g>
      <g
         aria-label="E"
         transform="scale(0.97505516,1.025583)"
         id="text24961"
         style="font-size:124.131px;font-family:Manolo;-inkscape-font-specification:Manolo;fill:#b6b6b6;fill-opacity:1;stroke-linecap:round;stop-color:#000000">
        <path
           d="m 553.24942,827.92017 v 0 c 0,-1.21221 0.42428,-2.2628 1.27283,-3.15176 0.88896,-0.88896 1.93955,-1.33344 3.15176,-1.33344 h 56.69334 c 1.25262,0 2.30321,0.44448 3.15176,1.33344 0.88896,0.88896 1.33344,1.93955 1.33344,3.15176 v 0.48489 c 0,1.25262 -0.44448,2.32341 -1.33344,3.21237 -0.84855,0.84855 -1.89914,1.27283 -3.15176,1.27283 H 562.6441 v 29.51748 h 37.82117 c 1.21221,0 2.2628,0.44448 3.15176,1.33344 0.88896,0.84855 1.33344,1.89913 1.33344,3.15176 v 0.48489 c 0,1.21221 -0.44448,2.2628 -1.33344,3.15176 -0.88896,0.84855 -1.93955,1.27283 -3.15176,1.27283 H 562.6441 v 32.91168 h 51.72325 c 1.25262,0 2.30321,0.44448 3.15176,1.33344 0.88896,0.84855 1.33344,1.87894 1.33344,3.09115 v 0.48489 c 0,1.25263 -0.44448,2.30321 -1.33344,3.15176 -0.84855,0.88896 -1.89914,1.33344 -3.15176,1.33344 h -56.69334 c -1.21221,0 -2.2628,-0.44448 -3.15176,-1.33344 -0.84855,-0.84855 -1.27283,-1.89913 -1.27283,-3.15176 z"
           id="path26508"
           sodipodi:nodetypes="cscsscssssccscsscsccscsscssssc"
           style="fill:#b6b6b6;fill-opacity:1" />
      </g>
    </g>
    <g
       id="g57873"
       inkscape:label="Computers"
       transform="translate(-1.3030583)"
       style="fill:#b6b6b6;fill-opacity:1">
      <g
         aria-label="C"
         transform="scale(0.98126036,1.0190975)"
         id="text30430"
         style="font-size:122.26px;font-family:Manolo;-inkscape-font-specification:Manolo;fill:#b6b6b6;fill-opacity:1;stroke-linecap:round;stop-color:#000000">
        <path
           d="m 872.06064,837.01528 v 0 q -10.14854,0 -18.56585,4.95487 -8.35762,4.95488 -13.37219,13.31249 -4.95488,8.29792 -4.95488,18.38676 0,10.20823 4.89518,18.50615 4.95487,8.23823 13.31249,13.07371 8.35762,4.83547 18.68525,4.83547 13.67067,0 24.65497,-9.90974 1.49243,-1.31334 3.40274,-1.19395 1.73122,0.23879 2.80577,1.55213 l 0.47758,0.59697 q 1.07455,1.25365 1.01485,2.86547 0,1.61183 -1.19394,2.80577 l -0.0597,0.0597 q -13.37219,12.53643 -31.10227,12.53643 -9.25308,0 -17.6704,-3.40275 -8.41731,-3.40274 -14.98401,-9.85005 -6.5667,-6.507 -10.02914,-14.86462 -3.46244,-8.35761 -3.46244,-17.61069 0,-9.25308 3.46244,-17.61069 3.46244,-8.35762 10.02914,-14.92432 6.6264,-6.507 14.98401,-9.90975 8.41732,-3.46244 17.6704,-3.46244 8.7158,0 16.17795,2.86547 7.46216,2.80577 14.62584,8.89489 l 0.11939,0.0597 0.11939,0.1194 q 2.2685,2.56698 0.59698,5.49214 l -0.1194,0.1194 -0.83576,1.01485 -0.11939,0.1194 q -1.25365,1.19394 -2.92517,1.25364 -1.61183,0 -2.92517,-1.13425 -10.56641,-9.55156 -24.71466,-9.55156 z"
           id="path49488"
           style="fill:#b6b6b6;fill-opacity:1" />
      </g>
      <g
         aria-label="O"
         transform="scale(0.98935065,1.010764)"
         id="text33340"
         style="font-size:123.268px;font-family:Manolo;-inkscape-font-specification:Manolo;fill:#b6b6b6;fill-opacity:1;stroke-linecap:round;stop-color:#000000">
        <path
           d="m 1031.4463,917.58815 v 0 q 10.3525,0 18.7791,-4.87534 8.4265,-4.87535 13.362,-13.18149 4.9356,-8.36634 4.9356,-18.65873 0,-10.35259 -4.9356,-18.71892 -4.9355,-8.36634 -13.362,-13.30187 -8.4266,-4.93554 -18.7791,-4.93554 -10.3526,0 -18.7791,4.93554 -8.3664,4.93553 -13.30192,13.30187 -4.87534,8.36633 -4.87534,18.71892 0,10.29239 4.87534,18.65873 4.93552,8.30614 13.30192,13.18149 8.4265,4.87534 18.7791,4.87534 z m 0,9.38956 v 0 q -9.3896,0 -17.8161,-3.4308 -8.4265,-3.49099 -14.98719,-9.93126 -6.56065,-6.56065 -10.05164,-14.98717 -3.49099,-8.42653 -3.49099,-17.75589 0,-9.32937 3.49099,-17.75589 3.49099,-8.48671 9.99145,-15.04736 6.62088,-6.56065 15.04738,-9.99145 8.4265,-3.49099 17.8161,-3.49099 9.3293,0 17.7558,3.49099 8.4868,3.4308 15.1076,9.99145 6.5607,6.56065 10.0516,15.04736 3.491,8.42652 3.491,17.75589 0,9.32936 -3.491,17.75589 -3.4909,8.42652 -10.0516,14.98717 -6.6208,6.50046 -15.1076,9.93126 -8.4265,3.4308 -17.7558,3.4308 z"
           id="path49509"
           style="fill:#b6b6b6;fill-opacity:1" />
      </g>
      <g
         aria-label="P"
         transform="scale(0.946024,1.0570556)"
         id="text35252"
         style="font-size:117.87px;font-family:Manolo;-inkscape-font-specification:Manolo;fill:#b6b6b6;fill-opacity:1;stroke-linecap:round;stop-color:#000000">
        <path
           d="m 1447.9913,848.56979 v 0 q 5.5827,0 10.187,-2.76258 4.6619,-2.76258 7.3669,-7.36688 2.7626,-4.66185 2.7626,-10.24456 0,-5.58271 -2.7626,-10.12945 -2.7626,-4.54674 -7.4244,-7.25177 -4.6043,-2.70502 -10.2446,-2.70502 h -18.82 v 40.46026 z m -23.597,36.66171 v 0 q -1.7842,0 -3.0503,-1.26618 -1.2087,-1.20863 -1.2087,-2.99279 v -77.58241 q 0,-1.72661 1.2087,-2.99279 1.2661,-1.26618 3.0503,-1.26618 h 23.4819 q 11.741,0 20.7194,8.51795 8.633,8.92082 8.633,20.54667 0,11.68341 -8.5755,20.71934 -8.9784,8.63306 -20.6618,8.63306 h -18.9351 v 23.42436 q 0,1.78416 -1.2662,2.99279 -1.2087,1.26618 -2.9928,1.26618 z"
           id="path49506"
           style="fill:#b6b6b6;fill-opacity:1" />
      </g>
      <g
         aria-label="U"
         transform="scale(0.96350241,1.0378801)"
         id="text38256"
         style="font-size:120.048px;font-family:Manolo;-inkscape-font-specification:Manolo;fill:#b6b6b6;fill-opacity:1;stroke-linecap:round;stop-color:#000000">
        <path
           d="m 1550.2234,813.89538 v 0 q 1.7585,0 3.0481,1.28958 1.2895,1.28958 1.2895,3.04809 v 50.8211 q 0,11.37174 6.4479,17.99548 6.5065,6.56513 17.6438,6.56513 11.3131,0 17.8196,-6.56513 6.5651,-6.62374 6.5651,-17.99548 v -50.8211 q 0,-1.75851 1.231,-3.04809 1.2896,-1.28958 3.1067,-1.28958 h 0.469 q 1.7585,0 2.9894,1.28958 1.2896,1.28958 1.2896,3.04809 v 50.8211 q 0,14.59568 -9.027,24.2089 -9.5546,9.49599 -24.4434,9.49599 -14.7715,0 -24.2089,-9.55461 -8.9684,-9.5546 -8.9684,-24.15028 v -50.8211 q 0,-1.75851 1.2309,-3.04809 1.2896,-1.28958 3.0481,-1.28958 z"
           id="path49503"
           style="fill:#b6b6b6;fill-opacity:1" />
      </g>
      <g
         aria-label="T"
         transform="scale(1.0512349,0.95126222)"
         id="text41116"
         style="font-size:133.703px;font-family:Manolo;-inkscape-font-specification:Manolo;fill:#b6b6b6;fill-opacity:1;stroke-linecap:round;stop-color:#000000">
        <path
           d="m 1623.7728,888.00527 v 0 q 1.9586,0 3.3296,1.43626 1.4362,1.43626 1.4362,3.3948 v 0.52228 q 0,2.02383 -1.4362,3.46009 -1.371,1.37098 -3.3296,1.37098 h -23.0454 v 82.65039 q 0,2.02382 -1.4363,3.3948 -1.371,1.43626 -3.3948,1.43626 h -0.5223 q -1.9585,0 -3.3948,-1.43626 -1.371,-1.37098 -1.371,-3.3948 v -82.65039 h -22.7843 q -2.0238,0 -3.4601,-1.37098 -1.371,-1.43626 -1.371,-3.46009 v -0.52228 q 0,-1.95854 1.371,-3.3948 1.4363,-1.43626 3.4601,-1.43626 z"
           id="path49500"
           style="fill:#b6b6b6;fill-opacity:1" />
      </g>
      <g
         aria-label="E"
         transform="scale(1.0512349,0.95126218)"
         id="text44246"
         style="font-size:133.703px;font-family:Manolo;-inkscape-font-specification:Manolo;fill:#b6b6b6;fill-opacity:1;stroke-linecap:round;stop-color:#000000">
        <path
           d="m 1715.8386,892.83633 v 0 c 0,-1.30569 0.457,-2.43729 1.371,-3.3948 0.9575,-0.95751 2.0891,-1.43626 3.3948,-1.43626 h 52.2278 c 1.3492,0 2.4808,0.47875 3.3948,1.43626 0.9575,0.95751 1.4362,2.08911 1.4362,3.3948 v 0.52228 c 0,1.34922 -0.4787,2.50258 -1.4362,3.46009 -0.914,0.91399 -2.0456,1.37098 -3.3948,1.37098 h -46.8744 v 31.79363 h 31.7362 c 1.3057,0 2.4373,0.47875 3.3948,1.43626 0.9575,0.91399 1.4363,2.04559 1.4363,3.39481 v 0.52227 c 0,1.30569 -0.4788,2.4373 -1.4363,3.39481 -0.9575,0.91398 -2.0891,1.37097 -3.3948,1.37097 h -31.7362 v 35.44958 h 46.8744 c 1.3492,0 2.4808,0.47875 3.3948,1.43626 0.9575,0.91399 1.4362,2.02383 1.4362,3.32952 v 0.52228 c 0,1.34921 -0.4787,2.48081 -1.4362,3.3948 -0.914,0.95751 -2.0456,1.43626 -3.3948,1.43626 h -52.2278 c -1.3057,0 -2.4373,-0.47875 -3.3948,-1.43626 -0.914,-0.91399 -1.371,-2.04559 -1.371,-3.3948 z"
           id="path49497"
           sodipodi:nodetypes="cscsscssssccscsscsccscsscssssc"
           style="fill:#b6b6b6;fill-opacity:1" />
      </g>
      <g
         aria-label="R"
         transform="scale(0.92000957,1.0869452)"
         id="text45990"
         style="font-size:117.013px;font-family:Manolo;-inkscape-font-specification:Manolo;fill:#b6b6b6;fill-opacity:1;stroke-linecap:round;stop-color:#000000">
        <path
           d="m 2136.0472,786.06887 v 33.07571 c 8.2533,-0.0764 16.5177,0.16137 24.7633,-0.13531 5.4,0.25166 16.9512,-5.13974 17.574,-14.37144 0.3435,-9.09086 -7.3571,-16.99958 -16.1229,-18.23686 -5.834,-0.6355 -11.7281,-0.20643 -17.5899,-0.3321 z m 49.3051,26.6067 c -3.2909,6.5536 -10.446,10.53637 -15.4423,13.19935 5.1559,8.66262 16.807,21.60086 21.9361,30.27897 1.9939,4.07237 -5.2455,8.17452 -8.2116,4.90381 -7.5654,-11.16097 -16.5903,-22.84542 -24.3904,-33.17142 h -23.1969 c -0.049,8.87159 0.098,22.49961 -0.075,31.36572 -0.7414,5.09529 -9.213,4.06954 -8.6667,-1.0665 v -76.80172 c -0.1068,-3.62446 3.7182,-4.57496 6.6107,-4.228 9.0171,0.0656 18.0419,-0.14018 27.0536,0.12052 19.7175,0.23146 31.8679,21.12711 24.3825,35.39927 z"
           id="path49494"
           sodipodi:nodetypes="ccccccccccccccccccc"
           style="fill:#b6b6b6;fill-opacity:1" />
      </g>
      <g
         aria-label="S"
         transform="scale(0.927212,1.078502)"
         id="text48322"
         style="font-size:114.685px;font-family:Manolo;-inkscape-font-specification:Manolo;fill:#b6b6b6;fill-opacity:1;stroke-linecap:round;stop-color:#000000">
        <path
           d="m 2292.8461,823.94186 c -9.2565,-3.15041 -14.0127,-10.41538 -14.7202,-18.49948 -0.4806,-14.26839 11.1006,-22.71051 24.1991,-22.74709 4.8822,0.16917 8.9281,1.08017 12.8575,2.93726 3.1953,1.5225 6.0665,3.76542 8.9956,5.86449 3.3401,3.18237 -1.3603,9.53391 -5.3339,6.90882 -6.2251,-3.87109 -11.4535,-8.36611 -18.7588,-7.16507 -3.1738,0.31558 -7.2218,2.13007 -9.6833,4.42154 -2.6807,2.63541 -4.2156,10.00582 -2.0714,14.00797 5.0534,7.38892 14.2616,7.71906 16.5852,8.30236 4.6848,1.19082 9.5461,3.16721 13.4555,5.79821 8.9492,6.08811 10.0615,13.63167 9.9018,20.98914 -0.018,2.26165 -0.4034,4.65899 -1.364,7.32179 -1.3954,4.35359 -4.2867,8.25553 -7.9869,10.98169 -9.1564,7.22076 -22.1753,7.93906 -32.7211,3.52178 -4.5709,-1.88794 -9.1147,-4.37164 -12.4527,-8.07429 -2.6162,-3.51623 2.645,-8.67717 6.0933,-5.93935 7.6963,6.89127 19.1994,10.32871 29.071,6.34841 3.9737,-1.55499 7.9175,-4.68163 9.4915,-8.70516 4.2401,-17.75838 -6.1167,-22.44871 -25.5582,-26.27302 z"
           id="path49491"
           sodipodi:nodetypes="cccccccccccccccccccc"
           style="fill:#b6b6b6;fill-opacity:1" />
      </g>
      <g
         aria-label="M"
         transform="matrix(0.97505515,0,0,1.025583,804,0)"
         id="g57683"
         style="font-size:124.131px;font-family:Manolo;-inkscape-font-specification:Manolo;fill:#b6b6b6;fill-opacity:1;stroke-linecap:round;stop-color:#000000">
        <path
           d="m 357.16709,908.83564 v 0 -0.0606 l 23.50719,-83.76418 c 0.36367,-1.6971 1.33344,-2.8285 2.90932,-3.39421 l 2.48504,-0.12122 c 1.6567,0.40407 2.7679,1.43446 3.3336,3.09115 l 19.94992,69.64186 20.02681,-69.64186 c 0.52529,-1.57588 1.57588,-2.58606 3.15177,-3.03054 l 2.42443,0.0606 c 1.53547,0.44448 2.56586,1.45466 3.09115,3.03055 l 0.0606,0.24244 23.56803,83.94601 c 0.28286,1.53547 0.0808,2.72749 -0.60611,3.57604 -0.64651,0.84855 -1.45465,1.37385 -2.42443,1.57588 l -0.84855,0.24244 c -1.1314,0.28285 -2.18198,0.16163 -3.15176,-0.36366 -0.40407,-0.24245 -0.80814,-0.60611 -1.21222,-1.091 -0.40407,-0.48489 -0.68692,-1.1516 -0.84855,-2.00015 l -19.87077,-65.45971 -18.99643,67.15681 c -0.5657,1.73751 -1.71731,2.7881 -3.45482,3.15176 h -1.63649 c -1.73751,-0.36366 -2.90932,-1.41425 -3.51543,-3.15176 l -19.04076,-67.0962 -19.74932,65.33849 c -0.20203,0.88895 -0.50509,1.57587 -0.90916,2.06076 -0.36367,0.48489 -0.74753,0.84855 -1.1516,1.091 -1.01019,0.52529 -2.06078,0.64651 -3.15177,0.36366 l -0.90916,-0.24244 c -0.92937,-0.20203 -1.73751,-0.72733 -2.42443,-1.57588 -0.64652,-0.84855 -2.23925,-3.57604 -0.60611,-3.57604 z"
           id="path57681"
           sodipodi:nodetypes="ccccccccccccccccccscccccccccccccsc"
           style="fill:#b6b6b6;fill-opacity:1" />
      </g>
    </g>
  </g>
</svg>
