<svg enable-background="new 0 0 566.929 129.21" height="150.67877" viewBox="0 0 490.05566 120.54302" width="612.56958" xmlns="http://www.w3.org/2000/svg"><g><g transform="translate(-39.915043 -6.346393)"><g><path d="m121.8848 96.362531-.47501 4.037589q-1.74171 4.11676-3.56258 4.2751l-15.83369 1.34586h-.23751q-1.7417 0-2.058378-3.72091l9.500218-96.1896762q1.58337-4.1167596 5.46262-4.5917703l13.69614-1.1875268h.47501q3.80009 0 5.93764 3.483412l26.04642 93.1021013v.870853q0 3.087567-2.21672 3.325077l-15.20034 1.34586h-.15834q-1.90004 0-4.11676-3.641747l-1.10836-3.879254zm10.68774-20.821303-6.17514-21.692157-2.37505 22.483841z" fill="#f3010f" stroke-width="2.5" transform="matrix(.99263153 .09663273 -.09610646 .9980672 0 0)"/><path d="m115.49023 10.603516c-4.22676.03624-8.16362 3.056616-9.50585 7.023437-.46496 1.932091-.76436 3.904448-1.18165 5.849609-5.88597 29.966956-11.77171 59.933538-17.658199 89.900388-.06327 2.52644.348836 5.38869 2.429688 7.08399 1.614436 1.37196 3.837457 1.26912 5.822265 1.22461 4.765216.0689 9.537616.17706 14.300786.13086 2.85591-.41971 4.87747-2.78594 6.2207-5.16602.54715-.79644.87513-1.72069 1.04297-2.66797 3.19531.0273 6.39061.0547 9.58594.082.29125 1.97732 1.44576 3.68762 2.63476 5.24219 1.41564 1.78168 3.63571 2.99421 5.95117 2.80078 5.11851.059 10.24036.1384 15.35742.0957 2.96183-.25978 5.28771-2.91604 5.61915-5.79687.36381-1.6103.17975-3.26326-.19141-4.85156-5.54982-31.328306-11.10086-62.656017-16.65039-93.984378-1.48546-3.549032-4.83718-6.401177-8.7461-6.726562-2.61952-.250962-5.25763-.07858-7.88476-.175781-2.3824-.02376-4.76409-.05005-7.14649-.06445zm.19922 3.99414 13.70899.138672.47265.04492c2.51473.244809 4.36725 1.59529 5.5586 4.050781l16.90625 95.439451-.084.86914c-.19782 2.05441-1.03738 3.08829-2.51953 3.10352l-15.2168-.125-.1582-.0156c-1.25736-.12241-2.50273-1.46531-3.73633-4.03125l-.72656-3.98047-16.16797-.13672-.86133 3.98242c-1.41635 2.62699-2.73215 3.93577-3.94726 3.92383l-15.845704-.1875-.236328-.0234c-1.152578-.11224-1.714386-1.4159-1.685547-3.91211l18.675789-95.085996c1.31157-2.637198 3.26574-3.988534 5.86328-4.054688zm6.60157 53.361328-4.51954 22.210938 8.56446.03711z" fill="#845f23" stroke-width="2.5"/><path d="m113.68945 12.597656c-2.59754.06615-4.55171 1.417489-5.86328 4.054688l-18.675779 95.085936c-.02884 2.49622.532965 3.79991 1.685547 3.91211l.236328.0234.224609.002c-.101156-.53959-.155283-1.17594-.146484-1.9375l18.675779-95.085946c1.31157-2.637198 3.26574-3.988534 5.86328-4.054688l13.70899.138672.47265.04492c1.11451.108497 2.09086.447449 2.94532.990234-1.17967-1.780373-2.82352-2.783677-4.94532-2.990234l-.47265-.04492zm8.60157 55.361328-.86329 4.248047 2.90821 16-6.16016-.02734-.4043 1.990234 8.56446.03711zm5.96679 42.119136.36328 1.99415c.99436 2.06832 1.99606 3.32794 3.00586 3.80859-.336-.51574-.67159-1.1133-1.00586-1.80859l-.72656-3.98047z" fill="#bb000f"/><path d="m113.49023 8.6035156c-4.22676.03624-8.16362 3.0566164-9.50585 7.0234374-.46496 1.932091-.76436 3.904448-1.18165 5.849609-5.885972 29.966956-11.77171 59.933538-17.658199 89.900388-.06327 2.52644.348836 5.38869 2.429688 7.08399 1.614436 1.37196 3.837457 1.26912 5.822265 1.22461 4.76522.0689 9.537616.17706 14.300786.13086 2.85591-.41971 4.87747-2.78594 6.2207-5.16602.54715-.79644.87513-1.72069 1.04297-2.66797 3.19531.0273 6.39061.0547 9.58594.082.29125 1.97732 1.44576 3.68762 2.63476 5.24219 1.41564 1.78168 3.63571 2.99421 5.95117 2.80078 5.11851.059 10.24036.1384 15.35742.0957 2.96183-.25978 5.28771-2.91604 5.61915-5.79687.36381-1.6103.17975-3.26326-.19141-4.85156-5.54982-31.328306-11.10086-62.656017-16.65039-93.984378-1.48546-3.549032-4.83718-6.4011772-8.7461-6.726562-2.61952-.2509615-5.25763-.078578-7.88476-.1757812-2.3824-.023759-4.76409-.050052-7.14649-.064453zm.19922 3.9941404 13.70899.138672.47265.04492c2.51473.244809 4.36725 1.59529 5.5586 4.050781l16.90625 95.439451-.084.86914c-.19782 2.05441-1.03738 3.08829-2.51953 3.10352l-15.2168-.125-.1582-.0156c-1.25736-.12241-2.50273-1.46531-3.73633-4.03125l-.72656-3.98047-16.16797-.13672-.86133 3.98242c-1.41635 2.62699-2.73215 3.93577-3.94726 3.92383l-15.845704-.1875-.236328-.0234c-1.152578-.11224-1.714386-1.4159-1.685547-3.91211l18.675789-95.085996c1.31157-2.637198 3.26574-3.988534 5.86328-4.054688zm6.60157 53.361328-4.51954 22.210938 8.56446.03711z" fill="#fad60b" stroke-width="2.5"/></g><g><path d="m62.80595 74.847839v39.062501q0 3.90625-3.90625 3.90625h-11.71875q-3.90625 0-3.90625-3.90625v-93.750001q0-3.90625 3.90625-3.90625h54.6875q3.90625 0 3.90625 3.90625v11.71875q0 3.90625-3.90625 3.90625h-39.0625v23.4375h31.25q3.90625 0 3.90625 3.90625v7.8125q0 3.90625-3.90625 3.90625z" fill="#f3010f" stroke-width="2.5" transform="matrix(.99945684 -.03295479 .03295479 .99945684 0 0)"/><path d="m104.2168 10.892578c-18.501768.621444-37.006265 1.188613-55.505862 1.857422-3.09993.224687-6.032946 2.545103-6.572266 5.673828-.482273 2.385006-.02964 4.820892-.06055 7.228516.9911 29.911677 1.955351 59.824515 2.984375 89.734376.221767 3.10408 2.538456 6.05039 5.675781 6.58789 2.38625.48094 4.823703.0335 7.232422.0586 2.840582-.13463 5.786867-.061 8.658203-.41601 3.007672-.54183 5.533109-3.15127 5.792969-6.22657.258144-2.37533-.08679-4.76171-.07813-7.14257l-.976554-29.646498c9.422145-.325756 18.848914-.579835 28.267582-.972656 3.10117-.290635 5.96155-2.69812 6.42773-5.83789.40699-2.325922.009-4.691475.0117-7.033204-.0663-2.723635.10797-5.796185-1.78516-8.003906-1.49001-1.870746-3.92913-2.783848-6.28515-2.642578-2.220595-.0083-4.418137.163651-6.576176.195313l-20.841796.685547-.50586-15.433594c11.992514-.407948 23.988703-.755593 35.978512-1.216797 3.10716-.255242 6.00325-2.624467 6.50586-5.763672.44661-2.390733.0121-4.824539.0352-7.234375-.13072-2.803899-.0641-5.719217-.41211-8.554688-.53032-2.94519-3.03432-5.420816-6.02734-5.783203-.64303-.09807-1.29349-.129861-1.94336-.113281zm.13281 3.996094c2.60275-.08582 3.94543 1.172638 4.03125 3.77539l.38672 11.712891c.0858 2.602752-1.17264 3.94543-3.77539 4.03125l-39.041018 1.287109.771484 23.425782 31.234375-1.029297c2.602749-.08582 3.947389 1.172638 4.033199 3.775391l.25586 7.80664c.0858 2.602753-1.17263 3.947384-3.77539 4.033203l-31.232419 1.03125 1.28711 39.041019c.08582 2.60275-1.172639 3.94738-3.775391 4.0332l-11.712891.38477c-2.602752.0858-3.94543-1.17264-4.03125-3.77539l-3.089843-93.699224c-.08582-2.602752 1.172638-3.947383 3.77539-4.033203z" fill="#845f23" stroke-width="2.5"/><path d="m102.34961 12.888672-54.658204 1.800781c-2.602752.08582-3.86121 1.430451-3.77539 4.033203l3.089843 93.699224c.06356 1.92776.82132 3.11354 2.265625 3.5664-.151404-.45492-.245979-.9706-.265625-1.5664l-3.089843-93.699224c-.08582-2.602752 1.172638-3.947383 3.77539-4.033203l54.658204-1.800781c.67505-.02226 1.262.05039 1.76758.208984-.51007-1.533563-1.75988-2.275184-3.76758-2.208984zm-6.392579 43.203125-29.302734.964844.06836 2.064453 31.234375-1.029297c.67505-.02226 1.261802.05039 1.767578.208984-.510071-1.533563-1.759874-2.275184-3.767579-2.208984z" fill="#bb000f"/><path d="m102.2168 8.8925781c-18.501768.6214438-37.006265 1.1886129-55.505862 1.8574219-3.09993.224687-6.032946 2.545103-6.572266 5.673828-.482273 2.385006-.02964 4.820892-.06055 7.228516.9911 29.911677 1.955351 59.824515 2.984375 89.734376.221767 3.10408 2.538456 6.05039 5.675781 6.58789 2.38625.48094 4.823703.0335 7.232422.0586 2.840582-.13463 5.786867-.061 8.658203-.41601 3.007672-.54183 5.533109-3.15127 5.792969-6.22657.258144-2.37533-.08679-4.76171-.07813-7.14257l-.976554-29.646498c9.422145-.325756 18.848914-.579835 28.267578-.972656 3.101174-.290635 5.961554-2.69812 6.427734-5.83789.40699-2.325922.009-4.691475.0117-7.033204-.0663-2.723635.10797-5.796185-1.78516-8.003906-1.49001-1.870746-3.929133-2.783848-6.285154-2.642578-2.220591-.0083-4.418133.163651-6.576172.195313l-20.841796.685547-.50586-15.433594c11.992514-.407948 23.988703-.755593 35.978512-1.216797 3.10716-.255242 6.00325-2.624467 6.50586-5.763672.44661-2.390733.0121-4.824539.0352-7.234375-.13072-2.803899-.0641-5.719217-.41211-8.554688-.53032-2.94519-3.03432-5.4208156-6.02734-5.7832026-.64303-.098071-1.29349-.1298612-1.94336-.1132813zm.13281 3.9960939c2.60275-.08582 3.94543 1.172638 4.03125 3.77539l.38672 11.712891c.0858 2.602752-1.17264 3.94543-3.77539 4.03125l-39.041018 1.287109.771484 23.425782 31.234375-1.029297c2.602753-.08582 3.947384 1.172638 4.033203 3.775391l.255856 7.80664c.0858 2.602753-1.172632 3.947384-3.775387 4.033203l-31.232422 1.03125 1.28711 39.041019c.08582 2.60275-1.172639 3.94738-3.775391 4.0332l-11.712891.38477c-2.602752.0858-3.94543-1.17264-4.03125-3.77539l-3.089843-93.699224c-.08582-2.602752 1.172638-3.947383 3.77539-4.033203z" fill="#fad60b" stroke-width="2.5"/></g><g><g stroke-width="2.5"><path d="m238.83008 11.294922c-12.00136.0332-22.21768 5.301086-30.65235 15.802734-8.43489 10.448727-12.62485 23.082728-12.56835 37.900391s4.34281 27.453441 12.85742 37.908203c8.5144 10.40184 18.77208 15.58593 30.77343 15.55273 12.00136-.0332 22.21942-5.27393 30.6543-15.72265 8.43468-10.501651 12.62291-23.160855 12.56641-37.978518-.0565-14.817664-4.34107-27.428236-12.85547-37.830078-8.5146-10.454763-18.77403-15.666012-30.77539-15.632812zm.10547 37.019531c.0463-.000892.0929.0094.13476.03125 1.56438 2.446664 1.85333 5.546264 3.33985 8.064453 1.2103 2.110336 3.80444 2.70653 6.06836 2.570313 1.40655.200363 3.16293-.207981 4.33789.398437-2.05146 1.949451-5.31785 3.238242-6.21485 6.16211-.62583 3.530112 1.29883 6.905559 2.19727 10.253906.0113.738075 1.00781 1.780273.3789 2.375-1.04612-.504722-1.87861-1.434984-2.82226-2.121094-2.30668-1.660065-4.49801-4.460022-7.63086-4.226562-3.37938.339927-5.52057 3.412771-8.0957 5.269531-.5245.239337-1.38839 1.698902-1.85743.826172.62265-3.478922 2.35873-6.739072 2.91797-10.25586.29944-3.138521-2.4113-5.269273-4.71289-6.859375-.52643-.271594-1.50796-1.219002-.50781-1.542968 2.71014-.626381 5.92573.420029 8.18555-1.679688 2.42319-2.48739 2.39678-6.347901 4.14843-9.228516.0414-.02459.0865-.03622.13282-.03711z" fill="#845f23"/><path d="m239.42703 11.924301q18.05041 0 30.79653 15.675354 12.74612 15.596185 12.74612 37.763352 0 22.167167-12.74612 37.842523-12.74612 15.59618-30.79653 15.59618-18.0504 0-30.79652-15.59618-12.74613-15.675356-12.74613-37.842523 0-22.167167 12.74613-37.763352 12.74612-15.675354 30.79652-15.675354zm19.79212 81.147665q1.34586.633348 1.97921.633348.63335 0 .63335-.633348 0-.633348-.63335-1.979211l-8.31269-25.254737 14.25032-10.371068q1.97921-1.979211 1.97921-3.008401 0-.950021-1.97921-.950021h-19.3171l-6.41264-19.792114q-.95003-1.979211-1.97922-1.979211-.95002 0-1.97921 1.979211l-6.41264 19.792114h-19.31711q-1.97921 0-1.97921 1.02919 0 .950021 1.90005 2.929232l14.32949 10.371068-8.39186 25.254737q-.63335 1.266695-.63335 1.979211 0 .633348.71252.633348.63335 0 1.97921-.633348l19.79211-16.704544z" fill="#f3010f" transform="matrix(.99732021 -.00275879 .00382407 1.0026764 0 0)"/><path d="m238.69531 11.298828c-.35026.0046-.70052.01053-1.05078.01563-8.85395.197806-17.58629 3.448948-24.43359 9.0625-6.5502 5.291166-11.74208 12.16921-15.44532 19.707031-5.18336 10.744486-6.84646 22.941166-5.9121 34.765625.77289 10.075423 3.76518 20.052931 9.2207 28.599616 4.68018 7.40679 10.94556 13.98331 18.68555 18.20311 9.95441 5.39759 22.16692 6.25012 32.85156 2.58985 8.60316-2.93043 15.84094-8.99637 21.30273-16.15235 4.85719-6.35183 8.44088-13.671697 10.40039-21.427726 2.32065-9.030953 2.67866-18.517468 1.47852-27.746093-1.24452-9.249002-4.46765-18.274612-9.74024-26.001954-4.40905-6.526116-10.04351-12.364049-16.90039-16.320312-6.18801-3.551172-13.32517-5.38298-20.45703-5.294922zm.13477 3.996094c12.00136-.0332 22.26078 5.178048 30.77539 15.632812 8.5144 10.401842 12.79895 23.012414 12.85547 37.830078.0565 14.817664-4.13171 27.476867-12.56641 37.978518-8.43488 10.44872-18.65294 15.68945-30.6543 15.72265-12.00135.0332-22.25903-5.15089-30.77343-15.55273-8.51462-10.454763-12.80091-23.09054-12.85742-37.908203-.0565-14.817664 4.13345-27.451664 12.56835-37.900391 8.43468-10.501647 18.65099-15.769535 30.65235-15.802734z" fill="#845f23"/></g><path d="m238.69531 11.298828c-.51613.0031-1.02564.02434-1.53515.04687-.49467.01729-.98708.06148-1.48047.09766-10.64645.877642-19.81661 6.085615-27.50196 15.654297-8.43488 10.448728-12.62487 23.082727-12.56835 37.900391.002.527799.0224 1.046096.0352 1.568359.38974-13.771477 4.56413-25.597059 12.5332-35.46875 8.43468-10.501647 18.65099-15.769535 30.65235-15.802734 12.00136-.0332 22.26078 5.178048 30.77539 15.632812 8.21112 10.031333 12.47533 22.123487 12.82031 36.261719.0228-.80515.0383-1.613327.0352-2.431641-.0565-14.817663-4.34107-27.428236-12.85547-37.830078-8.13016-9.982718-17.8549-15.171334-29.16406-15.591796-.58084-.01828-1.1609-.04423-1.74219-.03711-.001.000008-.003-.000008-.004.000001z" fill="#bb000f"/><path d="m240.1875 7.3007812c-.84491-.023486-1.68983-.020781-2.53516.00781-8.8617.1957852-17.604 3.4508808-24.45312 9.0742178-6.6233 5.356575-11.85855 12.3334-15.56445 19.978516-4.71305 9.898806-6.44627 21.026047-5.94141 31.925781.47583 11.157654 3.58135 22.322583 9.73633 31.705079 4.90789 7.615535 11.54124 14.324155 19.71679 18.376955 9.09468 4.46607 19.86454 5.27981 29.57813 2.47266 6.31039-1.79924 12.05761-5.28099 16.83789-9.7461 6.24494-5.80985 11.11094-13.067802 14.3125-20.962891 4.38584-10.981729 5.41656-23.116976 3.9707-34.796874-1.22044-9.430684-4.46372-18.655297-9.86328-26.515626-4.7903-7.076219-11.04738-13.355558-18.72265-17.248046-5.29018-2.6689817-11.1579-4.1070803-17.07227-4.2714844zm-1.35742 3.9941408c12.00136-.0332 22.26078 5.17805 30.77539 15.632812 8.5144 10.401842 12.79895 23.012415 12.85547 37.830078.0565 14.817664-4.13173 27.476869-12.56641 37.978518-8.43488 10.44873-18.65294 15.68946-30.6543 15.72265-12.00135.0332-22.25903-5.15089-30.77343-15.55273-8.51461-10.454762-12.80091-23.09054-12.85742-37.908203-.0565-14.817664 4.13347-27.451663 12.56835-37.900391 8.43468-10.501647 18.65099-15.769536 30.65235-15.802734zm.0684 17.861328c-.63165.0017-1.2856.665336-1.96485 1.990234l-6.32031 19.863282-19.26562.05273c-1.31594.0036-1.97333.349146-1.97071 1.037109.002.635043.63791 1.61213 1.90625 2.931641l14.33203 10.359375-8.27343 25.345703c-.41787.847889-.62682 1.510046-.625 1.986328.002.423362.2411.634123.71484.632813.4211-.0012 1.07748-.214788 1.9707-.640625l19.67578-16.802735 19.80274 16.69336c.89645.420886 1.55546.632024 1.97656.630859.4211-.0012.63052-.213357.62891-.636719-.002-.423361-.21414-1.085896-.63867-1.984375l-8.38868-25.298828 14.17383-10.4375c1.3109-1.326646 1.96356-2.333521 1.96094-3.021484-.002-.635043-.66062-.950906-1.97656-.947266l-19.26563.05273-6.4707-19.828125c-.6367-1.321259-1.29813-1.980409-1.98242-1.978516zm.0352 8.884766c1.69141 5.183593 3.38282 10.367187 5.07422 15.550781.29505.444932.13073 1.524383.85157 1.380859 4.98321-.01371 9.96601-.02708 14.94921-.04102-4.01918 2.959219-8.03555 5.922272-12.05664 8.878906 2.17495 6.561258 4.35029 13.122387 6.52539 19.683594-5.07222-4.276744-10.14483-8.553033-15.21679-12.830079-5.06794 4.325792-10.13399 8.653792-15.20117 12.980469 2.15312-6.595659 4.3051-13.191694 6.45898-19.787109-4.06016-2.938283-8.12351-5.872162-12.18359-8.810547 5.13411-.01368 10.26822-.0273 15.40234-.04102 1.79748-5.655455 3.59233-11.311606 5.39648-16.964843z" fill="#fad60b"/></g><g><path d="m181.63954 123.92445q-1.97921 3.95843-6.09597 4.03759h-13.77531q-3.87925-.0792-5.85846-4.03759l-17.81291-95.002142q0-3.879254 1.97921-3.958423h15.8337q1.90004 0 3.95842 3.958423l9.0252 45.917703 8.7877-45.917703q1.97921-3.958423 3.95842-3.958423h15.20035q2.61256.07917 2.61256 3.958423z" fill="#f3010f" stroke-width="2.5" transform="matrix(.99488014 -.06977591 .07119874 1.0001527 0 0)"/><path d="m199.32617 9.244141c-5.29873.395607-10.61202.689756-15.91601 1.164062-2.905.626343-4.81979 3.227056-5.92969 5.814453-.91573 1.726758-.7348 3.738631-1.06641 5.611328l-2.60742 22.171875c-2.33306-8.625547-4.66307-17.251926-6.99805-25.876953-1.50796-2.449119-3.36682-5.07157-6.30273-5.845703-2.00428-.443033-4.06535.07374-6.08984.113281-4.12235.32151-8.27791.499639-12.40625.941407-2.73209.564873-4.47193 3.349083-4.55274 6.019531-.31703 2.630306.7813 5.113025 1.34375 7.628906 7.80281 29.881 15.60537 59.761582 23.4082 89.642582 1.7413 3.33278 5.14389 6.02847 9.02149 6.04101 2.60328.0294 5.19058-.34094 7.78906-.46094 2.91655-.24188 5.8612-.28402 8.75195-.75195 3.73382-.85726 6.86793-3.98007 7.73243-7.70898 3.66708-32.21952 7.33328-64.444757 11.0039-96.666019-.0783-2.758318-1.1669-5.799998-3.7539-7.132812-1.04626-.554686-2.251-.769873-3.42774-.705078zm.28321 3.988281c1.73654-.06874 2.69672 1.19078 2.88085 3.777344l-10.95703 96.259764c-1.12482 2.73142-3.05064 4.21861-5.77734 4.46289l-13.70508.96094c-2.57669.12765-4.61463-1.08165-6.11523-3.62891l-24.48633-93.773434c-.18413-2.586564.37854-3.952802 1.6875-4.097657l15.75195-1.103515c1.26021-.08838 2.66759 1.138039 4.22071 3.68164l12.24804 45.294922 5.47266-46.537109c1.12482-2.731419 2.34353-4.144261 3.65625-4.236328z" fill="#845f23" stroke-width="2.5"/><path d="m197.60938 11.232422-15.12305 1.060547c-1.31272.09207-2.53142 1.504909-3.65625 4.236328l-5.03125 42.775391 1.55859 5.761718 5.47266-46.537109c1.12482-2.731419 2.34353-4.144261 3.65625-4.236328l15.12305-1.060547c.20398-.0081.39556.0066.57812.03516-.43475-1.404529-1.29247-2.086049-2.57812-2.035156zm-40.72071 2.857422-15.75195 1.103515c-1.30896.144855-1.87163 1.511092-1.6875 4.097657l24.48633 93.773434c.69617 1.18176 1.51362 2.06194 2.4414 2.66797-.14993-.21506-.30089-.42945-.4414-.66797l-24.48633-93.773434c-.18413-2.586564.37854-3.952802 1.6875-4.097657l15.75195-1.103515c.43088-.03022.88047.105526 1.34571.382812-1.21079-1.650061-2.32651-2.454294-3.34571-2.382812z" fill="#bb000f"/><path d="m197.32617 7.2441406c-5.29873.3956071-10.61202.6897564-15.91601 1.1640625-2.905.6263428-4.81979 3.2270559-5.92969 5.8144529-.91573 1.726758-.7348 3.738631-1.06641 5.611328l-2.60742 22.171875c-2.33306-8.625547-4.66307-17.251926-6.99805-25.876953-1.50796-2.449119-3.36682-5.07157-6.30273-5.845703-2.00428-.4430327-4.06535.07374-6.08984.113281-4.12235.32151-8.27791.499639-12.40625.941407-2.73209.564873-4.47193 3.349083-4.55274 6.019531-.31703 2.630306.7813 5.113025 1.34375 7.628906 7.80281 29.881 15.60537 59.761582 23.4082 89.642582 1.7413 3.33278 5.14389 6.02847 9.02149 6.04101 2.60328.0294 5.19058-.34094 7.78906-.46094 2.91655-.24188 5.8612-.28402 8.75195-.75195 3.73382-.85726 6.86793-3.98007 7.73243-7.70898 3.66708-32.21952 7.33328-64.444757 11.0039-96.666019-.0783-2.758318-1.1669-5.7999983-3.7539-7.1328122-1.04626-.5546862-2.251-.769873-3.42774-.7050782zm.28321 3.9882814c1.73654-.06874 2.69672 1.19078 2.88085 3.777344l-10.95703 96.259764c-1.12482 2.73142-3.05064 4.21861-5.77734 4.46289l-13.70508.96094c-2.57669.12765-4.61463-1.08165-6.11523-3.62891l-24.48633-93.773434c-.18413-2.586564.37854-3.952802 1.6875-4.097657l15.75195-1.103515c1.26021-.08838 2.66759 1.138039 4.22071 3.68164l12.24804 45.294922 5.47266-46.537109c1.12482-2.731419 2.34353-4.144261 3.65625-4.236328z" fill="#fad60b" stroke-width="2.5"/></g></g><g transform="translate(-37.915043 -6.346393)"><path d="m310.11386 52.034115-11.7961-1.108358-2.13755 23.671368 11.87527 1.02919q.63335.07917 1.2667.07917 4.11676 0 7.44183-2.770896 3.72092-3.166738 4.11676-8.075182.0792-.633348.0792-1.266695 0-4.11676-2.7709-7.441835-3.16673-3.720917-8.07518-4.11676zm7.20433 54.230395h-.15834q.23751-.95003.31668-1.97922.0792-.55417.0792-1.10835 0-4.195931-2.85007-7.600175-3.16674-3.720917-8.07518-4.11676l-11.7961-1.029189-3.48341 39.425894q-.31668 3.56258-3.72092 3.56258h-.55418l-11.7961-1.02919q-3.64175-.31668-3.64175-3.72092v-.55418l8.31269-94.685471q.31667-3.562581 3.72092-3.562581h.55418l27.62979 2.375054q13.06279 1.187527 21.53382 10.608573 7.521 8.471024 7.521 19.158766 0 1.266695-.0792 2.612559-1.10836 12.191941-11.08358 20.108787-.39584.316674-.95002.712516.47501.395842.79168.870853 7.521 8.391856 7.521 19.079594 0 1.2667-.0792 2.61256l-2.29589 25.65058q-.31667 3.56258-3.72092 3.56258h-.55418l-11.7961-1.02919q-3.64174-.31667-3.64174-3.72092v-.55417z" fill="#f3010f" stroke-width="2.5" transform="matrix(.99541819 -.06162638 .06300598 1.0007022 0 0)"/><path d="m286.26562 12.382813c-2.89121.06631-5.85599 1.727671-6.86523 4.539062-.96792 2.443371-.54562 5.121547-.73437 7.679687-.73229 30.41039-1.48957 60.819766-2.19336 91.230468.009 2.96276 1.69418 6.03851 4.58203 7.06055 2.48727.97029 5.20554.55285 7.80664.74219 2.90416.0284 5.89906.28584 8.8457.082 2.98287-.34335 5.69865-2.63918 6.23242-5.64453.47506-2.29528.22452-4.65563.38086-6.98047.25374-10.21992.50798-20.440244.76172-30.660159 2.80221.07469 5.56746.100499 8.31445.24414 4.29317.125272 7.82385 4.520105 7.1543 8.740235-.28487 2.054069-.6505 4.096503-.95312 6.148437.83167-.418951.95674.02969.81445.804688-.16443 7.020049-.41687 14.039529-.49219 21.060549.1322 2.94912 2.03068 5.87531 4.93946 6.72656 2.42842.79647 5.02255.42719 7.52929.60937 2.82702.0279 5.76051.27158 8.64258.0918 3.01911-.3046 5.78906-2.61167 6.33203-5.64844.47607-2.29569.23154-4.65692.38867-6.98242.16502-7.4944.46162-14.988581.51367-22.484372-.1585-6.797642-2.4862-13.544584-6.71289-18.888672-.3836-.498766-.78884-.981774-1.20117-1.457032 5.05423-5.253001 8.32439-12.236635 8.86133-19.527343.63877-7.452908-1.25786-15.145339-5.57227-21.28711-4.97658-7.176254-12.59826-12.56823-21.14648-14.507782-3.71158-.931456-7.55122-1.076809-11.35937-1.109375-8.28965-.194133-16.57911-.425939-24.86915-.582031zm.53907 3.990234 27.65429.673828c8.71851.255565 16.08632 3.35198 22.10352 9.289063 5.34684 5.34232 8.24443 11.576866 8.69336 18.707031.0532.845056.0819 1.718014.0859 2.61914-.22341 8.179205-3.47849 15.115213-9.76563 20.806641-.24938.227527-.55121.484636-.90234.771484.33185.244565.61365.51838.84375.822266 5.34351 5.289505 8.24052 11.500697 8.68945 18.630859.0532.84506.08 1.718017.084 2.619141l-.66797 25.81055c-.0605 2.38973-1.22134 3.65311-3.48047 3.79297l-.55078.0352-11.80664-.30273c-2.43001-.0617-3.71639-1.22894-3.85938-3.5l-.0352-.55469.66993-25.810547-.15821.0098c.11772-.643556.18015-1.310139.18946-2 .0293-.37296.033-.743569.01-1.113281-.17624-2.799253-1.28207-5.275691-3.3164-7.429688-2.25778-2.35225-5.02295-3.560626-8.29688-3.623047l-11.80664-.302734-.98437 39.667967c-.0605 2.38973-1.21945 3.65506-3.47852 3.79492l-.55273.0352-11.80664-.30274c-2.43002-.0617-3.71639-1.22893-3.85938-3.5l-.0352-.55469 2.3086-95.263664c.0605-2.389731 1.22139-3.655061 3.48047-3.794922zm15.35547 20.205078-.63672 23.818359 11.88476.298828c.42362.02679.84728.02599 1.26758 0 2.73193-.169133 5.14226-1.245299 7.23242-3.230468 2.33624-2.265512 3.53333-5.043128 3.58985-8.333985.0259-.425782.0246-.85091-.002-1.273437-.17292-2.746434-1.24809-5.170958-3.22656-7.275391-2.25777-2.35225-5.02489-3.560626-8.29883-3.623047zm3.89062 4.125c2.5905.08398 5.18099.167969 7.77149.251953 4.01299-.103951 7.67839 3.442952 7.6914 7.460938.13798 2.590316-.97328 5.245855-3.10351 6.779296-1.54924 1.210812-3.55803 1.710324-5.5 1.486329-2.42713-.06092-4.85412-.122672-7.28125-.183594.14062-5.264974.28125-10.529948.42187-15.794922z" fill="#845f23" stroke-width="2.5"/><path d="m288.04297 12.402344c-1.79663.09183-3.5924.791761-4.91992 1.998047-.2068.507301-.33187 1.100012-.34961 1.800781l-2.3086 95.263668.0352.55469c.0995 1.57993.76636 2.6124 1.97266 3.12305l2.30078-94.941408c.0605-2.389731 1.22139-3.655061 3.48047-3.794922l.55078-.0332 27.65429.673828c8.71851.255565 16.08632 3.35198 22.10352 9.289063 1.90766 1.906051 3.4893 3.931097 4.77344 6.064453-1.45563-3.647863-3.70991-7.003512-6.77344-10.064453-6.0172-5.937082-13.38501-9.033498-22.10352-9.289063zm37.07617 29.189453c.19578.730266.32769 1.483261.37695 2.265625.0266.422528.0279.847657.002 1.273437-.0518 3.015978-1.07444 5.595231-3.04102 7.75-.51161.898823-1.19296 1.699764-2.04687 2.314453-1.54924 1.210812-3.55803 1.710324-5.5 1.486329-.028-.000703-.056-.0013-.084-.002-.0507.0038-.0994.01247-.15039.01562-.4203.02602-.84395.0268-1.26758 0l-9.77929-.246093-.10547 3.947265 11.88476.298828c.42362.02679.84728.02599 1.26758 0 2.73193-.169133 5.14226-1.245299 7.23242-3.230468 2.33624-2.265512 3.53333-5.043128 3.58985-8.333985.0259-.425782.0246-.85091-.002-1.273437-.146-2.318887-.94391-4.404614-2.37695-6.265625zm12.53711 26.800781c-.0275.02503-.0525.05119-.0801.07617-.24938.227527-.55121.484636-.90234.771484.33185.244565.61365.51838.84375.822266 1.91429 1.894941 3.50086 3.913528 4.78711 6.044922-1.09234-2.74323-2.64216-5.315311-4.64844-7.714844zm-13.44531 12.958984c.20372.750415.34003 1.524534.39062 2.328126.0233.369712.0195.740316-.01 1.113281-.009.689861-.0717 1.35645-.18946 2l.15821-.0098-.66993 25.810551.0352.55469c.0995 1.58097.76483 2.61471 1.97266 3.125l.66211-25.490241-.15821.0098c.11772-.643556.18015-1.310139.18946-2 .0293-.37296.0328-.743569.01-1.113281-.147-2.334855-.95078-4.442232-2.39062-6.328126z" fill="#bb000f" transform="translate(-2)"/><path d="m284.26562 8.3828125c-2.89121.066307-5.85599 1.7276715-6.86523 4.5390625-.96792 2.443371-.54562 5.121547-.73437 7.679687-.73229 30.41039-1.48957 60.819766-2.19336 91.230468.009 2.96276 1.69418 6.03851 4.58203 7.06055 2.48727.97029 5.20554.55285 7.80664.74219 2.90416.0284 5.89906.28584 8.8457.082 2.98287-.34335 5.69865-2.63918 6.23242-5.64453.47506-2.29528.22452-4.65563.38086-6.98047.25374-10.219923.50798-20.440244.76172-30.660159 2.80221.07469 5.56746.100499 8.31445.24414 4.29317.125272 7.82385 4.520105 7.1543 8.740235-.28487 2.054069-.6505 4.096503-.95312 6.148437.83167-.418951.95674.02969.81445.804688-.16443 7.020047-.41687 14.039529-.49219 21.060549.1322 2.94912 2.03068 5.87531 4.93946 6.72656 2.42842.79647 5.02255.42719 7.52929.60937 2.82702.0279 5.76051.27158 8.64258.0918 3.01911-.3046 5.78906-2.61167 6.33203-5.64844.47607-2.29569.23154-4.65692.38867-6.98242.16502-7.4944.46162-14.988581.51367-22.484372-.1585-6.797642-2.4862-13.544584-6.71289-18.888672-.3836-.498766-.78884-.981774-1.20117-1.457032 5.05423-5.253001 8.32439-12.236635 8.86133-19.527343.63877-7.452908-1.25786-15.145339-5.57227-21.28711-4.97658-7.176254-12.59826-12.56823-21.14648-14.507782-3.71158-.9314564-7.55122-1.0768086-11.35937-1.1093752-8.28965-.1941325-16.57911-.4259392-24.86915-.5820313zm.53907 3.9902345 27.65429.673828c8.71851.255565 16.08632 3.35198 22.10352 9.289063 5.34684 5.34232 8.24443 11.576866 8.69336 18.707031.0532.845056.0819 1.718014.0859 2.61914-.22341 8.179205-3.47849 15.115213-9.76563 20.806641-.24938.227527-.55121.484636-.90234.771484.33185.244565.61365.51838.84375.822266 5.34351 5.289505 8.24052 11.500697 8.68945 18.630859.0532.84506.08 1.718017.084 2.619141l-.66797 25.81055c-.0605 2.38973-1.22134 3.65311-3.48047 3.79297l-.55078.0352-11.80664-.30273c-2.43001-.0617-3.71639-1.22894-3.85938-3.5l-.0352-.55469.66993-25.810547-.15821.0098c.11772-.643556.18015-1.310139.18946-2 .0293-.37296.033-.743569.01-1.113281-.17624-2.799253-1.28207-5.275691-3.3164-7.429688-2.25778-2.35225-5.02295-3.560626-8.29688-3.623047l-11.80664-.302734-.98437 39.667967c-.0605 2.38973-1.21945 3.65506-3.47852 3.79492l-.55273.0352-11.80664-.30274c-2.43002-.0617-3.71639-1.22893-3.85938-3.5l-.0352-.55469 2.3086-95.263664c.0605-2.389731 1.22139-3.655061 3.48047-3.794922zm15.35547 20.205078-.63672 23.818359 11.88476.298828c.42362.02679.84728.02599 1.26758 0 2.73193-.169133 5.14226-1.245299 7.23242-3.230468 2.33624-2.265512 3.53333-5.043128 3.58985-8.333985.0259-.425782.0246-.85091-.002-1.273437-.17292-2.746434-1.24809-5.170958-3.22656-7.275391-2.25777-2.35225-5.02489-3.560626-8.29883-3.623047zm3.89062 4.125c2.5905.08398 5.18099.167969 7.77149.251953 4.01299-.103951 7.67839 3.442952 7.6914 7.460938.13798 2.590316-.97328 5.245855-3.10351 6.779296-1.54924 1.210812-3.55803 1.710324-5.5 1.486329-2.42713-.06092-4.85412-.122672-7.28125-.183594.14062-5.264974.28125-10.529948.42187-15.794922z" fill="#fad60b" stroke-width="2.5"/></g><g transform="translate(-39.915043 -6.346393)"><path d="m496.58813 39.880223q4.90844 0 8.39185-3.483412 3.48342-3.483412 3.48342-8.391856 0-4.908444-3.48342-8.391856-3.48341-3.483412-8.39185-3.483412-13.14197 0-22.40468-8.7085299-9.2627-8.70853-9.2627-20.9796401 0-12.271111 9.2627-20.97964 9.26271-8.70853 22.40468-8.70853h23.75053q3.95843 0 3.95843 3.958422v11.875268q0 3.958423-3.95843 3.958423h-23.75053q-4.90845 0-8.39186 3.483412-3.48341 3.483412-3.48341 8.391856 0 4.9084443 3.48341 8.3918563 3.48341 3.48341192 8.39186 3.48341192 13.14196 0 22.40467 8.70852988 9.26271 8.7085299 9.26271 20.9796399 0 12.271111-9.26271 20.979641-9.26271 8.70853-22.40467 8.70853h-23.75054q-3.95842 0-3.95842-3.958423v-11.875268q0-3.958423 3.95842-3.958423z" fill="#f3010f" stroke-width="2.5" transform="matrix(.99079461 .11393571 -.11350436 .99623857 0 0)"/><path d="m494.12891 13.253906c-8.07218.05844-16.02751 3.101717-22.20508 8.273438-5.50388 4.48519-9.58865 10.771456-11.08399 17.742187-1.82294 7.893879-.78067 16.525606 3.41211 23.517578 4.58369 7.939953 12.23582 14.1435 21.11133 16.587891 2.5076.739103 5.10987 1.052773 7.67578 1.496094 3.76526 1.031643 6.32778 5.188608 5.52539 9.019531-.61056 3.953669-4.6485 7.054731-8.64062 6.439453-8.21023-.915304-16.40901-1.945501-24.62695-2.777344-3.10524-.143736-6.25196 1.843848-7.17188 4.867188-.73445 2.183538-.66847 4.463028-1.01953 6.699218-.29538 3.03069-.82212 6.04856-.90625 9.09375.0824 3.07506 2.29099 5.99803 5.31836 6.7168 2.28611.60755 4.67376.61496 7.0039.96875 6.91323.76284 13.81325 1.66825 20.73829 2.31054 7.8825.50419 15.92485-1.68606 22.38476-6.25195 6.21488-4.25325 11.19573-10.52737 13.20508-17.84961 2.43336-8.358638 1.60426-17.760556-2.89063-25.291014-4.6854-8.180893-12.64139-14.527201-21.82421-16.841797-2.26294-.633875-4.59797-.923796-6.91016-1.294921-3.77536-.98657-6.39374-5.111656-5.63477-8.951172.54307-3.807032 4.2466-6.876131 8.10352-6.589844 5.81044.630213 11.61743 1.34069 17.42773 1.992187 2.66777.27936 5.33114.653865 8.00586.84375 3.02855.03142 6.04056-1.942572 6.92188-4.894531.73959-2.209151.6687-4.513882 1.02539-6.77539.29529-3.003787.8128-5.994585.89648-9.013672-.0907-3.068454-2.2954-5.97723-5.31445-6.699219-2.28861-.606291-4.67757-.613609-7.00977-.966797-6.88569-.761268-13.75957-1.658609-20.65625-2.306641-.95283-.05552-1.90689-.07388-2.86132-.06445zm.0137 4c1.56071-.02653 3.15558.05502 4.7832.242188l23.53125 2.705078c2.61466.300671 3.77218 1.765509 3.47266 4.394531l-1.34766 11.830078c-.29953 2.629023-1.75643 3.792859-4.37109 3.492188l-23.53125-2.705078c-3.24218-.372832-6.14645.464721-8.71094 2.513671-2.56448 2.04895-4.03288 4.702904-4.4043 7.962891-.37142 3.259988.4627 6.179683 2.5 8.757813 2.03731 2.578129 4.67579 4.052949 7.91797 4.425781 8.68066.998226 15.75161 4.741098 21.21094 11.228515 5.45932 6.487419 7.72542 13.807063 6.79687 21.957032-.92855 8.149966-4.78328 14.765426-11.56054 19.845706s-14.50489 7.12127-23.18555 6.12304l-23.5332-2.70703c-2.61466-.30067-3.77219-1.76551-3.47266-4.39453l1.34961-11.83008c.29953-2.62902 1.75644-3.792855 4.37109-3.492184l23.53125 2.705074c3.24218.37283 6.14646-.464719 8.71094-2.513668 2.56449-2.048949 4.03093-4.702903 4.40235-7.962891.37142-3.259987-.46074-6.179682-2.49805-8.757812s-4.67775-4.05295-7.91992-4.425781c-8.68066-.998226-15.74966-4.741098-21.20899-11.228516-5.45931-6.487417-7.72542-13.807063-6.79687-21.957031.92854-8.14997 4.78133-14.76347 11.55859-19.84375 5.50653-4.127728 11.64123-6.250271 18.4043-6.365235z" fill="#845f23" stroke-width="2.5"/><path d="m493.74609 13.265625c-7.94037.150292-15.74247 3.171852-21.82226 8.261719-1.90881 1.555517-3.63178 3.33905-5.15039 5.28125-2.5171 3.700887-4.05387 7.915673-4.59375 12.654297-.73207 6.425408.53109 12.332591 3.76953 17.724609-1.72828-4.27852-2.32467-8.852118-1.76953-13.724609.92854-8.14997 4.78133-14.76347 11.55859-19.84375 5.50653-4.127728 11.64123-6.250271 18.4043-6.365235 1.56071-.02653 3.15558.05502 4.7832.242188l23.53125 2.705078c.56386.06484 1.04628.194066 1.47461.367187.28777-2.610846-.86956-4.067621-3.47461-4.367187l-23.53125-2.705078c-1.07444-.123554-2.13441-.200037-3.17969-.230469zm-9.86523 38.927734c.41077 1.507897 1.13491 2.926838 2.18359 4.253907 2.03731 2.578129 4.67579 4.052949 7.91797 4.425781 8.68066.998226 15.75161 4.741099 21.21094 11.228515 1.15483 1.372304 2.1583 2.783706 3.02734 4.230469-1.16235-2.876798-2.83257-5.622376-5.02734-8.230469-5.45932-6.487417-12.53028-10.230289-21.21094-11.228515-3.24217-.372832-5.88066-1.847652-7.91797-4.425781-.0659-.08342-.12019-.169769-.18359-.253907zm16.40625 29.134766c.38705 1.421488.49666 2.921829.31641 4.503906-.2949 2.588342-1.29136 4.78837-2.96875 6.613281-1.52546 2.595781-4.5679 4.314166-7.60743 3.894532-.8222.07466-1.66597.06893-2.53711-.03125l-23.44335-2.695313c-1.50294.200533-2.94259.870344-4.05469 1.890625-.1956.453627-.33448.978996-.4043 1.591797l-1.34961 11.830077c-.23493 2.062.44029 3.39766 1.99805 4.02734.001-.01.00085-.0177.002-.0273l1.34961-11.83008c.29953-2.629017 1.75644-3.792855 4.37109-3.492184l23.53125 2.705074c3.24218.37283 6.14646-.464719 8.71094-2.513668 2.56449-2.048949 4.03093-4.702903 4.40235-7.962891.35944-3.154884-.41999-5.987583-2.31641-8.503906z" fill="#bb000f"/><path d="m492.12891 9.2539062c-8.07218.058438-16.02751 3.1017168-22.20508 8.2734378-5.50388 4.48519-9.58865 10.771456-11.08399 17.742187-1.82294 7.893879-.78067 16.525606 3.41211 23.517578 4.58369 7.939953 12.23582 14.1435 21.11133 16.587891 2.5076.739103 5.10987 1.052773 7.67578 1.496094 3.76526 1.031643 6.32778 5.188608 5.52539 9.019531-.61056 3.953669-4.6485 7.054731-8.64062 6.439453-8.21023-.915304-16.40901-1.945501-24.62695-2.777344-3.10524-.143736-6.25196 1.843848-7.17188 4.867188-.73445 2.183538-.66847 4.463025-1.01953 6.699218-.29538 3.03069-.82212 6.04856-.90625 9.09375.0824 3.07506 2.29099 5.99803 5.31836 6.7168 2.28611.60755 4.67376.61496 7.0039.96875 6.91323.76284 13.81325 1.66825 20.73829 2.31054 7.8825.50419 15.92485-1.68606 22.38476-6.25195 6.21488-4.25325 11.19573-10.52737 13.20508-17.849608 2.43336-8.35864 1.60426-17.760558-2.89063-25.291016-4.6854-8.180893-12.64139-14.527201-21.82421-16.841797-2.26294-.633875-4.59797-.923796-6.91016-1.294921-3.77536-.98657-6.39374-5.111656-5.63477-8.951172.54307-3.807032 4.2466-6.876131 8.10352-6.589844 5.81044.630213 11.61743 1.34069 17.42773 1.992187 2.66777.27936 5.33114.653865 8.00586.84375 3.02855.03142 6.04056-1.942572 6.92188-4.894531.73959-2.209151.6687-4.513882 1.02539-6.77539.29529-3.003787.8128-5.994585.89648-9.013672-.0907-3.068454-2.2954-5.97723-5.31445-6.699219-2.28861-.606291-4.67757-.613609-7.00977-.966797-6.88569-.761268-13.75957-1.6586088-20.65625-2.3066406-.95283-.055516-1.90689-.073881-2.86132-.064453zm.0137 3.9999998c1.56071-.02653 3.15558.05502 4.7832.242188l23.53125 2.705078c2.61466.300671 3.77218 1.765509 3.47266 4.394531l-1.34766 11.830078c-.29953 2.629023-1.75643 3.792859-4.37109 3.492188l-23.53125-2.705078c-3.24218-.372832-6.14645.464721-8.71094 2.513671-2.56448 2.04895-4.03288 4.702904-4.4043 7.962891-.37142 3.259988.4627 6.179683 2.5 8.757813 2.03731 2.578129 4.67579 4.052949 7.91797 4.425781 8.68066.998226 15.75161 4.741098 21.21094 11.228515 5.45932 6.487419 7.72542 13.807063 6.79687 21.957032-.92855 8.149967-4.78328 14.765426-11.56054 19.845706s-14.50489 7.12127-23.18555 6.12304l-23.5332-2.70703c-2.61466-.30067-3.77219-1.76551-3.47266-4.39453l1.34961-11.830077c.29953-2.629023 1.75644-3.792858 4.37109-3.492187l23.53125 2.705078c3.24218.37283 6.14646-.464723 8.71094-2.513672 2.56449-2.048949 4.03093-4.702903 4.40235-7.962891.37142-3.259987-.46074-6.179682-2.49805-8.757812s-4.67775-4.05295-7.91992-4.425781c-8.68066-.998226-15.74966-4.741098-21.20899-11.228516-5.45931-6.487417-7.72542-13.807063-6.79687-21.957031.92854-8.14997 4.78133-14.76347 11.55859-19.84375 5.50653-4.127728 11.64123-6.250271 18.4043-6.365235z" fill="#fad60b" stroke-width="2.5"/></g><g transform="translate(-39.915043 -6.346393)"><path d="m423.80249 119.11326v23.75054h39.58423q3.95842 0 3.95842 3.95842v11.87527q0 3.95842-3.95842 3.95842h-55.41792q-3.95842 0-3.95842-3.95842v-95.002143q0-3.958423 3.95842-3.958423h55.41792q3.95842 0 3.95842 3.958423v11.875268q0 3.958423-3.95842 3.958423h-39.58423v23.750532h31.66738q3.95842 0 3.95842 3.95843v7.91684q0 3.95842-3.95842 3.95842z" fill="#f3010f" stroke-width="2.5" transform="matrix(.9916639 -.10610376 .10771839 .99688077 0 0)"/><path d="m468.25 10.353516c-18.45599 1.916118-36.90044 3.954317-55.35547 5.880859-2.65699.220804-5.41382 1.513331-6.61523 4.013672-1.39971 2.684298-.5846 5.758442-.34375 8.603515 3.31068 30.579842 6.59408 61.164499 9.93945 91.740238.45403 3.01104 2.84116 5.75079 5.93164 6.16406 2.22758.3931 4.40731-.19318 6.58789-.33203 17.30655-1.86339 34.6193-3.67078 51.91992-5.58399 3.09163-.45535 5.85913-3.00117 6.16407-6.17968.30752-2.42657-.32106-4.83675-.47657-7.25196-.37051-2.96133-.4991-5.96498-1.11133-8.888669-.79237-2.959477-3.60694-5.259987-6.69921-5.27539-2.34011-.07624-4.64657.434484-6.97461.59375l-30.01172 3.210937c-.56641-5.240885-1.13281-10.481771-1.69922-15.722656 9.4853-1.033029 18.98028-1.987161 28.45703-3.087891 3.05803-.520522 5.72776-3.102538 5.99219-6.251953.26241-2.359553-.31712-4.700168-.49414-7.044922-.2878-2.728913-.29039-5.80673-2.26953-7.949218-1.6135-1.830459-4.15181-2.652404-6.54688-2.341797-3.80821.337046-7.60325.816549-11.4082 1.195312l-16.29492 1.742188c-.56641-5.240886-1.13282-10.481771-1.69922-15.722657 12.06981-1.306321 24.14826-2.547735 36.21093-3.912109 3.09355-.485146 5.81747-3.075971 6.08594-6.257813.27264-2.428746-.34455-4.835621-.50195-7.251953-.36232-2.928206-.49867-5.895658-1.09961-8.787109-.77355-2.868336-3.43234-5.131336-6.42578-5.273437-.41935-.03918-.841-.04282-1.26172-.0293zm.63477 3.99414c2.03469.07336 3.17705 1.260623 3.42578 3.5625l1.27929 11.837891c.28426 2.630717-.88305 4.085232-3.5 4.365234l-39.2539 4.201172 2.55859 23.675781 31.4043-3.359375c2.61694-.280002 4.0673.894669 4.35156 3.525391l.85156 7.892578c.28427 2.630715-.8811 4.085232-3.49804 4.365234l-31.4043 3.361329 2.55859 23.675779 39.25391-4.199217c2.61695-.280003 4.06925.894675 4.35351 3.525387l1.27735 11.83789c.28427 2.63072-.88109 4.08719-3.49805 4.36719l-54.95508 5.87891c-2.61694.28-4.06925-.89468-4.35351-3.52539l-10.23242-94.707034c-.28427-2.630717.88109-4.085232 3.49804-4.365234l54.95703-5.88086c.32712-.035.63512-.04564.92579-.03516z" fill="#845f23" stroke-width="2.5"/><path d="m467.54688 10.427734c-18.2213 1.894806-36.43172 3.904568-54.65235 5.806641-1.86383.15489-3.76553.85082-5.15625 2.107422-.24576.62693-.3322 1.381784-.23437 2.287109l10.23242 94.707034c.17854 1.65235.81916 2.72837 1.91797 3.23242l-10.15039-93.939454c-.28427-2.630717.88109-4.085232 3.49804-4.365234l54.95703-5.88086c.32712-.035.63512-.04564.92579-.03516.57777.02083 1.07592.141312 1.50976.341797l-.084-.779297c-.21999-2.035848-1.14668-3.189756-2.76367-3.482422zm-3.1504 44.248047c-3.72487.335666-7.43792.799393-11.16015 1.169922l-16.29492 1.742188c-.007-.06312-.0127-.126336-.0195-.189453l-3.97657.425781.44922 4.166015 31.4043-3.359375c.97322-.10413 1.78303-.0053 2.43359.292969l-.082-.767578c-.21956-2.031887-1.14277-3.184987-2.75391-3.480469zm12.02149 38.609375c-1.73714.12017-3.46296.43382-5.20117.552735l-30.01172 3.210937c-.007-.06312-.0127-.126336-.0195-.189453l-3.97657.425781.44922 4.166014 39.25391-4.199217c.97325-.104133 1.78464-.0054 2.43555.292969l-.082-.767578c-.22356-2.069026-1.18117-3.223624-2.84765-3.492188z" fill="#bb000f"/><path d="m466.25 6.3535156c-18.45599 1.9161186-36.90044 3.9543174-55.35547 5.8808594-2.65699.220804-5.41382 1.513331-6.61523 4.013672-1.39971 2.684298-.5846 5.758442-.34375 8.603515 3.31068 30.579842 6.59408 61.164499 9.93945 91.740238.45403 3.01104 2.84116 5.75079 5.93164 6.16406 2.22758.3931 4.40731-.19318 6.58789-.33203 17.30655-1.86339 34.6193-3.67078 51.91992-5.58399 3.09163-.45535 5.85913-3.00117 6.16407-6.17968.30752-2.42657-.32106-4.83675-.47657-7.25196-.37051-2.96133-.4991-5.964985-1.11133-8.888669-.79237-2.959477-3.60694-5.259987-6.69921-5.27539-2.34011-.07624-4.64657.434484-6.97461.59375l-30.01172 3.210937c-.56641-5.240885-1.13281-10.481771-1.69922-15.722656 9.4853-1.033029 18.98028-1.987161 28.45703-3.087891 3.05803-.520522 5.72776-3.102538 5.99219-6.251953.26241-2.359553-.31712-4.700168-.49414-7.044922-.2878-2.728913-.29039-5.80673-2.26953-7.949218-1.6135-1.830459-4.15181-2.652404-6.54688-2.341797-3.80821.337046-7.60325.816549-11.4082 1.195312l-16.29492 1.742188c-.56641-5.240886-1.13282-10.481771-1.69922-15.722657 12.06981-1.306321 24.14826-2.547735 36.21093-3.912109 3.09355-.485146 5.81747-3.075971 6.08594-6.257813.27264-2.428746-.34455-4.835621-.50195-7.251953-.36232-2.928206-.49867-5.895658-1.09961-8.787109-.77355-2.8683357-3.43234-5.1313361-6.42578-5.2734375-.41935-.03918-.841-.042822-1.26172-.029297zm.63477 3.9941404c2.03469.07336 3.17705 1.260623 3.42578 3.5625l1.27929 11.837891c.28426 2.630717-.88305 4.085232-3.5 4.365234l-39.2539 4.201172 2.55859 23.675781 31.4043-3.359375c2.61694-.280002 4.0673.894669 4.35156 3.525391l.85156 7.892578c.28427 2.630715-.8811 4.085232-3.49804 4.365234l-31.4043 3.361329 2.55859 23.675781 39.25391-4.199219c2.61695-.280003 4.06925.894675 4.35351 3.525391l1.27735 11.837886c.28427 2.63072-.88109 4.08719-3.49805 4.36719l-54.95508 5.87891c-2.61694.28-4.06925-.89468-4.35351-3.52539l-10.23242-94.707034c-.28427-2.630717.88109-4.085232 3.49804-4.365234l54.95703-5.88086c.32712-.035.63512-.04564.92579-.03516z" fill="#fad60b" stroke-width="2.5"/></g><g transform="translate(-39.915043 -6.346393)"><path d="m402.90444 100.19478q0 3.95842-3.95842 3.95842h-11.87527q-3.95842 0-3.95842-3.95842v-79.168458h-17.8129q-3.95843 0-3.95843-3.958423v-11.875268q0-3.9584227 3.95843-3.9584227h55.41791q3.95843 0 3.95843 3.9584227v11.875268q0 3.958423-3.95843 3.958423h-17.8129z" fill="#f3010f" stroke-width="2.5" transform="matrix(.99681389 .03189578 -.03101725 1.0022038 0 0)"/><path d="m365.43555 12.892578c-3.184-.0115-6.33576 2.196844-7.05078 5.365234-.60462 2.367648-.32476 4.835407-.50391 7.25-.0446 2.866811-.30931 5.836399-.13867 8.753907.33905 3.082511 2.82801 5.81118 5.92773 6.255859 2.33765.398751 4.72365.21331 7.08203.375 2.78802.08888 5.57527.178693 8.36328.267578-.77591 25.395785-1.60066 50.790651-2.33007 76.187504.0308 3.08243 2.07386 6.15477 5.12695 6.95507 2.35865.69646 4.84878.38203 7.26953.57227 2.91322.0453 5.91377.31694 8.87109.1543 3.05485-.33517 5.76235-2.78216 6.23633-5.84766.42494-2.33734.22384-4.72723.38867-7.08789.72191-23.348013 1.44411-46.696913 2.16602-70.044922 5.01874.135292 10.03721.386556 15.05664.417969 3.01151-.198555 5.87283-2.361718 6.54102-5.363281.60043-2.362138.3213-4.823803.5-7.232422.0461-2.867519.30676-5.837182.14062-8.75586-.3454-3.055127-2.78832-5.772253-5.86133-6.238281-2.35945-.415955-4.77077-.226172-7.15234-.390625-16.8783-.529941-33.75453-1.108196-50.63281-1.59375zm.66211 3.996094 55.24023 1.767578c2.63055.08417 3.90607 1.448986 3.82422 4.09375l-.36914 11.900391c-.0819 2.644764-1.43782 3.925968-4.06836 3.841797l-17.75586-.56836-2.45508 79.341792c-.0818 2.64476-1.43782 3.92597-4.06836 3.8418l-11.83789-.3789c-2.63054-.0842-3.90607-1.44899-3.82422-4.09375l2.45703-79.341801-17.75781-.56836c-2.63054-.08417-3.90411-1.448985-3.82226-4.09375l.36914-11.902343c.0819-2.644765 1.43781-3.924016 4.06836-3.839844z" fill="#845f23" stroke-width="2.5"/><path d="m365.0957 12.919922c-1.74976.0802-3.45151.813866-4.72851 2.001953-.2005.509076-.31621 1.106101-.33789 1.806641l-.36914 11.902343c-.0599 1.935298.61534 3.177968 2.00781 3.742188l.36133-11.644531c.0819-2.644765 1.43781-3.924016 4.06836-3.839844l55.24023 1.767578c.70577.02258 1.30576.144624 1.81641.351562l.008-.257812c.0819-2.644764-1.19368-4.009579-3.82422-4.09375zm16.02344 24.304687-2.33594 75.410161c-.0599 1.93518.61552 3.17792 2.00782 3.74218l2.44921-79.083981z" fill="#bb000f"/><path d="m363.43555 8.8925781c-3.184-.011497-6.33576 2.1968439-7.05078 5.3652339-.60462 2.367648-.32476 4.835407-.50391 7.25-.0446 2.866811-.30931 5.836399-.13867 8.753907.33905 3.082511 2.82801 5.81118 5.92773 6.255859 2.33765.398751 4.72365.21331 7.08203.375 2.78802.08888 5.57527.178693 8.36328.267578-.77591 25.395785-1.60066 50.790651-2.33007 76.187504.0308 3.08243 2.07386 6.15477 5.12695 6.95507 2.35865.69646 4.84878.38203 7.26953.57227 2.91322.0453 5.91377.31694 8.87109.1543 3.05485-.33517 5.76235-2.78216 6.23633-5.84766.42494-2.33734.22384-4.72723.38867-7.08789.72191-23.348013 1.44411-46.696913 2.16602-70.044922 5.01874.135292 10.03721.386556 15.05664.417969 3.01151-.198555 5.87283-2.361718 6.54102-5.363281.60043-2.362138.3213-4.823803.5-7.232422.0461-2.867519.30676-5.837182.14062-8.75586-.3454-3.055127-2.78832-5.772253-5.86133-6.238281-2.35945-.415955-4.77077-.226172-7.15234-.390625-16.8783-.5299413-33.75453-1.1081957-50.63281-1.5937499zm.66211 3.9960939 55.24023 1.767578c2.63055.08417 3.90607 1.448986 3.82422 4.09375l-.36914 11.900391c-.0819 2.644764-1.43782 3.925968-4.06836 3.841797l-17.75586-.56836-2.45508 79.341792c-.0818 2.64476-1.43782 3.92597-4.06836 3.8418l-11.83789-.3789c-2.63054-.0842-3.90607-1.44899-3.82422-4.09375l2.45703-79.341801-17.75781-.56836c-2.63054-.08417-3.90411-1.448985-3.82226-4.09375l.36914-11.902343c.0819-2.644765 1.43781-3.924016 4.06836-3.839844z" fill="#fad60b" stroke-width="2.5"/></g><g transform="translate(-39.915043 -6.346393)"><g stroke-width="2.5"><path d="m361.71951 125.51262q0 3.95842-3.87925 3.95842h-11.95444q-3.95842 0-3.95842-3.95842v-95.002148q0-3.958423 3.95842-3.958423h11.87527q3.95842 0 3.95842 3.958423z" fill="#f3010f" transform="matrix(.99649149 -.04074225 .04201076 1.0018032 0 0)"/><path d="m359.52148 12.025391c-4.43842.220549-8.88892.273678-13.31836.626953-3.06333.457377-5.74188 3.007568-6.06835 6.134765-.31582 2.362739.0917 4.740948.0937 7.111329 1.27387 30.304163 2.52139 60.60999 3.83593 90.912112.25625 3.03768 2.46298 5.93055 5.52539 6.54101 2.43076.56059 4.92747.0525 7.38672.0625 2.97857-.16955 5.97981-.11332 8.93946-.5 3.01531-.57279 5.50626-3.24309 5.7207-6.33008.2307-2.41224-.13336-4.82892-.14844-7.24414-1.26818-30.136638-2.51325-60.275139-3.8125-90.410152-.21561-3.034232-2.37242-5.947382-5.41016-6.623047-.89287-.242595-1.82275-.298384-2.74414-.28125zm.0996 3.998047c2.62969-.107517 4.00047 1.16098 4.11133 3.804687l3.99024 95.173825c.11086 2.64371-1.12213 4.01769-3.69922 4.12305l-11.91211.48828c-2.6297.10751-4.00047-1.16098-4.11133-3.80469l-3.99023-95.173824c-.11087-2.643708 1.14765-4.019437 3.77734-4.126954z" fill="#845f23"/><path d="m357.52148 8.0253906c-4.43842.2205494-8.88892.2736785-13.31836.6269532-3.06333.4573772-5.74188 3.0075682-6.06835 6.1347652-.31582 2.362739.0917 4.740948.0937 7.111329 1.27387 30.304163 2.52139 60.60999 3.83593 90.912112.25625 3.03768 2.46298 5.93055 5.52539 6.54101 2.43076.56059 4.92747.0525 7.38672.0625 2.97857-.16955 5.97981-.11332 8.93946-.5 3.01531-.57279 5.50626-3.24309 5.7207-6.33008.2307-2.41224-.13336-4.82892-.14844-7.24414-1.26818-30.136638-2.51325-60.275139-3.8125-90.410152-.21561-3.034232-2.37242-5.9473819-5.41016-6.6230474-.89287-.2425944-1.82275-.2983832-2.74414-.28125zm.0996 3.9980474c2.62969-.107517 4.00047 1.16098 4.11133 3.804687l3.99024 95.173825c.11086 2.64371-1.12213 4.01769-3.69922 4.12305l-11.91211.48828c-2.6297.10751-4.00047-1.16098-4.11133-3.80469l-3.99023-95.173824c-.11087-2.643708 1.14765-4.019437 3.77734-4.126954z" fill="#fad60b"/></g><path d="m358.61523 12.060547c-4.13793.18634-8.28393.262549-12.41211.591797-1.45957.217925-2.82246.921595-3.89453 1.925781-.22266.571474-.33275 1.247719-.29882 2.056641l3.99023 95.173824c.0752 1.79253.74341 2.93715 1.97656 3.46485l-3.96679-94.638674c-.11087-2.643708 1.14765-4.019436 3.77734-4.126954l11.83398-.484374c.84606-.03459 1.54742.08959 2.13282.339843l-.0215-.535156c-.0959-2.286163-1.13773-3.538791-3.11719-3.767578z" fill="#bb000f"/></g></g></svg>