<svg height="166.61093" viewBox="0 0 518.84577 149.94984" width="576.4953" xmlns="http://www.w3.org/2000/svg" xmlns:xlink="http://www.w3.org/1999/xlink"><linearGradient id="a" gradientUnits="userSpaceOnUse" x1="336.9906" x2="336.9906" y1="161.47" y2="57.731853"><stop offset="0" stop-color="#373969"/><stop offset=".43662432" stop-color="#a7bbf1"/><stop offset="1" stop-color="#2170cc"/></linearGradient><filter id="b" color-interpolation-filters="sRGB" height="1.111886" width="1.020885" x="-.006774" y="-.030333"><feGaussianBlur in="SourceGraphic" result="blur" stdDeviation=".926303"/><feDiffuseLighting diffuseConstant="1" result="diffuse" surfaceScale="10"><feDistantLight azimuth="236" elevation="13"/></feDiffuseLighting><feComposite in="diffuse" in2="diffuse" k1="1" k2="0" k3="0" k4="0" operator="arithmetic" result="composite1"/><feComposite in="composite1" in2="SourceGraphic" k1="1" k2="0" k3="1" k4="0" operator="arithmetic" result="fbSourceGraphic"/><feColorMatrix in="fbSourceGraphic" result="fbSourceGraphicAlpha" values="0 0 0 -1 0 0 0 0 -1 0 0 0 0 -1 0 0 0 0 1 0"/><feFlood in="fbSourceGraphic" result="flood"/><feComposite in="flood" in2="fbSourceGraphic" operator="in" result="composite1"/><feGaussianBlur in="composite1" result="blur" stdDeviation="0"/><feOffset dx="3" dy="5" result="offset"/><feComposite in="fbSourceGraphic" in2="offset" operator="over" result="composite2"/></filter><filter id="c" color-interpolation-filters="sRGB" height="1.081473" width="1.095714" x="-.032299" y="-.022401"><feGaussianBlur in="SourceGraphic" result="blur" stdDeviation=".926303"/><feDiffuseLighting diffuseConstant="1" result="diffuse" surfaceScale="10"><feDistantLight azimuth="236" elevation="13"/></feDiffuseLighting><feComposite in="diffuse" in2="diffuse" k1="1" k2="0" k3="0" k4="0" operator="arithmetic" result="composite1"/><feComposite in="composite1" in2="SourceGraphic" k1="1" k2="0" k3="1" k4="0" operator="arithmetic" result="fbSourceGraphic"/><feColorMatrix in="fbSourceGraphic" result="fbSourceGraphicAlpha" values="0 0 0 -1 0 0 0 0 -1 0 0 0 0 -1 0 0 0 0 1 0"/><feFlood in="fbSourceGraphic" result="flood"/><feComposite in="flood" in2="fbSourceGraphic" operator="in" result="composite1"/><feGaussianBlur in="composite1" result="blur" stdDeviation="0"/><feOffset dx="3" dy="5" result="offset"/><feComposite in="fbSourceGraphic" in2="offset" operator="over" result="composite2"/></filter><linearGradient id="d" gradientUnits="userSpaceOnUse" x1="43.024655" x2="43.024655" y1="170.828346" y2="33.483586"><stop offset="0" stop-color="#ff7a01"/><stop offset=".35918856" stop-color="#fffc00"/><stop offset=".60327649" stop-color="#ff0"/><stop offset="1" stop-color="#ff7501"/></linearGradient><g transform="translate(7.439579 -26.153643)"><text fill="#ef00eb" font-family="TrasksHand" font-size="1.8" stroke="#0105ff" stroke-width="2.25" x="84.584236" y="102.141"><tspan fill="#fafafa" fill-opacity=".4" font-size="1.8" stroke="none" stroke-width="2.25" x="84.584236" y="102.141">John Loreth 2022</tspan></text><g stroke="#010000" stroke-width="1.25"><path d="m92.121168 112.76749q-.746669 6.72001-.746669 9.89335-1.86667.56-2.986672.56.746668 1.12 2.613338 3.17334-.560001 1.30667-1.680003 4.10668-3.73334.37333-10.826686 1.30667v5.78667q0 2.24001-.560001 6.34668-.373334 4.10667-.373334 6.16001 0 5.04001.933335 17.36003-2.800005 1.30667-5.040009 2.24001l-1.86667-2.42667 1.306669-3.17334-.373334-5.04001.746668-1.49334-1.493336-3.36-3.360006 5.22667 1.120002 5.60001-1.493336-2.05333q-1.866671 3.36-6.160012 9.89335l-2.800005-2.24001q-2.240004 2.05334-3.546673 2.80001-1.86667-13.81336-3.73334-36.40007-4.293341.37334-38.826738 13.25336l1.493336-7.84002q.746668-.74666 2.426672-2.05333-.933336-1.30667-1.30667-2.61334l-2.240004-1.12q.933335-1.49334 2.053337-3.92001l-.933335-1.68q-2.986672.37333-4.6666752.74667-.186667-.93334-1.493336-2.80001l2.4266712-4.66668 1.306669-.93333.186667-3.73334-5.4133433 3.17334-.746668 2.8q-1.6800031-2.42667-2.9866721-4.48-.9333351-.56001-4.4800082-2.61334 4.1066742-9.33335 19.9733706-36.96007 7.093346-12.320022 22.213373-36.026732.933336 1.86667 2.240005 5.60001 1.493336-1.120002 3.920007-4.106674v-2.800005q3.920007-1.306669 7.280013-1.680003l2.053337 9.893351 2.240004-5.413343-.186667-4.853342.746668-1.493336-.560001-1.120002 4.853342-2.240005q0 .186667 2.426671 6.160012 2.240005-2.986672 5.413344-6.533346.933335-.186667 8.026681-2.800005 0 1.306669-.186667 3.920007 0 2.800006 0 4.293342 1.306669-.186667 5.226676-1.493336-5.413343 52.453429-5.413343 68.880127 2.986672-.37334 8.773349-1.49334-.746668 1.68001-1.680003 5.04001 1.120002 0 6.160012-.56zm-27.626718-60.106776-1.306669-2.426671-2.240004 3.73334 1.680003 7.093346q.746668-1.306669 1.120002-4.480008.373334-3.173339.746668-3.920007zm-14.560026 64.026786q-.746668-8.58668-1.680003-25.386715-9.146684 13.066695-17.920033 31.546725 10.453352-3.73334 19.600036-6.16001zm19.600036 25.76004-.933335-1.86667-1.680003 2.80001 1.120002 5.78668 1.120002-2.98668-.186667-2.98667zm-3.920008 8.58669-1.120002-2.42667-2.426671 3.92 1.493336 7.09335 1.680003-3.73334-.186667-3.92001zm-49.653424-43.30675-4.106674 2.05334-2.2400042 7.09334 3.3600062-2.61333 1.680003-3.36001 1.120002-.56zm492.704682-22.646887q-24.72969 14.1331-24.72969 23.440267 0 3.33219 6.00235 5.97497 9.12358 4.13652 11.16438 5.63026 6.00235 4.48123 6.00235 12.17975 0 7.69852-7.80306 16.89078-5.64221 7.12399-14.16555 13.44368-.48019-.22981-.48019-1.03414 0-.45961.36014-1.60865.48019-1.14903.48019-1.60863 0-.80433-4.0816-.80433-1.56061 0-2.28089.22981l5.04197-5.05575q-4.32169.57452-7.08277 3.562l-.96038.22981-.84033.91923-2.88112-1.14904q15.36601-10.34129 15.36601-16.08645 0-3.6769-8.64338-7.58361-13.68537-6.08988-15.96626-7.58362-8.52334-5.40045-8.52334-13.09897 0-13.21388 16.08631-28.0364 12.84503-11.835036 28.45115-18.844134.48018 1.263936 1.92075 2.872581 1.8007 2.183162 2.16084 2.757678l-1.8007.34471-2.88113 2.183162-.84033.114903-1.68066 2.757678 3.48137.34471 3.96155-4.825937q0 .804323-1.08043 4.825937l3.96156 2.872582h-.12005l-2.16085 1.723549-.72028.114903-1.20047 1.723549 2.52099.229806 2.52098-2.527871.60024.689419zm-10.08395-5.860067-2.16085.34471-1.8007 1.608646h-.60024l-.96037 1.723549 2.28089.114903zm-6.12241 70.090984-2.76108.91923-2.0408 1.49374-.60023.34471-1.20047 1.37885 2.64103-.22981zm-32.86654-7.74946q-.60024 3.02848-.60024 5.69356l-1.92075-.84799v1.93823l-.96038-1.45367-6.72264-.72683 2.88113 2.54392 3.24127 1.09026.84034.72683h.72028l.24009 3.14962q-.48019-.24227-.84033-.24227-.36014 0-1.32051.48456-.72029.24227-1.68066-.12115l3.48137 4.96672q-9.72383-3.87646-18.48727-8.96431-10.80424-5.45127-19.56769-11.87166-.24009 8.23748.36015 13.93102-1.20047.48456-3.48137 1.57482l-.12004-.12114.96037-2.18051-2.64104-5.81469-.72028 3.51304.60024 2.42279-1.44057-1.45367q-.12005.12114-3.96155 6.54153l-1.68067-1.33254q-1.44057 1.21139-2.52098 2.05937-4.68184-40.09713-5.28208-62.386763l-1.20047.605696-4.20165-.605696-3.36133 3.149622q-.96037-2.180508-1.32051-3.51304.12004 0 4.0816-2.180508l-2.16085-1.574812 1.56062-.847975h1.08042l1.32052-1.938229-3.84151-.363418-1.56061 1.211393-.48019-1.695951q1.32051-2.301647 1.92075-3.876458l-4.20165.726836v-1.93823q.60024-.363417 2.64104-1.817089 21.00825-15.505836 41.89646-15.505836 10.68419 0 17.52688 4.845573 7.68302 5.45127 7.68302 15.748114 0 21.683951-26.29033 39.249151 15.84622 10.78139 29.5316 17.20178zm-24.00943-46.759784q0-8.358614-11.40448-8.358614-1.20047 0-2.64103.121139-1.92077 15.748109-1.92077 24.954699 15.96628-9.20659 15.96628-16.717224zm-33.6132-12.961909-3.12123-.363417-3.48136 3.028483 2.76107-.12114 1.92077-1.211393h.84032zm46.45824 61.296513-1.68065-2.05938-4.32171-.72683 1.80071 1.69595 2.2809.6057.36014.72683zm-37.33466-.6057-1.92075-4.23988-.48019 2.7862.48019 2.05938-.12005.72683.96037 1.45367zm-23.7422-77.287379q-1.08001 3.26873-1.44001 6.788902h-1.08l-1.92 1.005763-.48-.12572-1.2 1.257204 2.28.377161 2.4-1.760086q-.12 1.005764-.36 2.765849l-4.92001 3.143011 5.40002.377161q-.60001 2.137247-1.80001 6.788902-15.84002 4.023054-27.12004 8.548989-.48 3.771612-.84 7.543223 8.40001-3.017288 18.96003-6.160298-.12 1.005763-.36 3.017289 2.28-.754322 6.84001-1.760085-.72001 2.514408-1.80001 7.417504-1.43999.6286-2.88.88004.36.62861 1.32 2.01153-.36.88005-.72 2.51441-9.60001 3.01729-11.28002 3.39445-6.36 2.13725-10.92001 4.65166-.36 5.78313-.36 12.69776 0 4.14878.12 9.55475 3.96-2.38868 9.00001-5.15454l1.56001 1.00577q4.92-2.64013 14.04001-6.53747-.11999.50289-2.16 8.67472 1.8-.75432 2.76001-1.13149-.72 3.6459-.72 5.40598-20.16004 9.42903-39.24006 24.76693-.48-2.76586-.48-3.14302 0-.88004.48-2.38868.48-1.38293.48-2.13725-1.32-2.01153-2.4-3.14302.36-.6286.95999-2.51441l-1.56.12573-.12-.50289q.6-.62859 2.4-2.01152-1.31999-10.56052-2.15999-24.6412-1.44001 1.00576-4.32001 2.51441-.72001-3.14302-1.32-4.77738.72-2.01153 1.32-3.39445l-1.92001-1.25721q.36-2.64012 1.32001-6.66318 2.88-1.38293 4.32-2.38868v-7.54323q-3 1.38292-9.12001 4.52594.48-1.25721 3.6-8.800438-.59999-1.131483-1.92-3.14301 2.04001-2.011527 3.24001-3.645892-.60001-.502882-1.08001-2.514408-.36-2.137247-.72-2.89157 1.2-2.011527 1.92-3.268731 12.60002-5.783139 23.16004-9.806192l.48-2.262968q15.24002-4.148773 30.36005-6.28602zm-9.96002 12.3206h-1.56l-1.44.880043-.48001-.125721-.84.880043 1.80001.377162zm-4.68001 22.001073-2.15999.12572-1.80001 1.005766h-.72l-1.08 1.13148 2.52.37716zm-22.68003 48.402356h-1.44001l-1.31999.62861h-.36l-.60001.75432 1.56001.25145zm-5.04001 4.90311-2.28.12571-1.8.88004.6 1.76009zm-12.12647-83.427803q-1.2 2.16-3.84 6.36.96.36 3.6 1.08-4.08 6-22.44 35.280003-3 4.56-8.52 13.8-2.52 5.04-8.04 13.92-2.64 3.36-5.76 9-2.28 4.68-4.68 9.48-1.44 0-3.84-.24 0-3.36-.12-5.4l.6-.24 1.56-3 .96-.6.24-2.16-3.72 1.68-1.32 3.84q-3.12 2.4-6 4.32l-.6-2.76-3.36.96q5.4-13.2 17.28-39.36-11.76-14.76-22.56-31.440003.84-.84 2.52-1.32 1.8-.6 2.4-1.44.72-.96 1.32-4.68.6-2.76 3.24-3.24l.24 2.88 5.4 4.44-.96-3.96-2.28-2.76-.24-.96h-.12q1.32-1.08 1.8-4.08.6-3.12 1.32-4.08 8.88 15.6 17.76 30.24 7.2-14.64 15.24-29.64 2.64.12 7.56.48l-1.8.96-1.92 6.12 3-2.16 1.44-2.88.96-.48.12-1.44 3 .36q-.84 3.12-1.2 5.52 2.04-1.08 5.76-3.12 3.12.48 6 .72zm-14.76 6.84-2.88 1.44-1.44 4.68 2.28-1.8 1.2-2.16.72-.36zm-34.32 16.92-.48-1.92-.96-1.2-.12-.6-1.08-.48.12 2.04zm-6.6-3.84-.84-2.76-1.68-2.04-.12-.72-1.8-.84.24 3.24zm6.24 49.320003-2.64 1.44-1.56 4.68 2.28-1.8 1.08-2.04.72-.48zm-17.26074 1.53339-1.44.48q-1.32 2.88-1.68 3.6-1.08 1.44-2.76 2.52-2.52-1.2-3.96-.6-1.44.6-6.12 2.64-2.76-9.96-5.52-21.24-6.36 2.28-17.16 7.44-1.32 8.52-2.28 16.8-.24.12-.48.12-.36 0-1.08-.72-.72-.84-.96-.84-.72 0-1.32 2.04-.6 1.92-1.08 2.4-3.72 2.52-3.36 1.8.48-.6.48-3.84l.6-1.08-.84-1.92-2.64 3.6.6 4.68q-1.2.6-2.04.6-1.08 0-1.32-1.32-.24-1.2-.36-1.2-.48 0-1.56 2.76h-.24q.6-9.24.6-20.88 0-26.04 6.12-62.160008 2.64-.84 8.04-2.76.96-.48 4.08-2.76 2.04-1.44 4.92-1.44 2.04 0 8.28-2.64-.72 3.12-1.32 6 1.32-.36 3.72-1.08.6-.96 2.28-2.16.36-.12 1.08-.36l-1.2 3 3.24 5.64.72-4.2-1.08-3.24.36-1.08-.6-.72q2.4-1.2 7.68-3.12.24 19.2 3.72 42.600008 2.16-.72 5.52-1.8-.12 1.2-.36 3.84-.12.84-1.32 1.92-1.08.96-1.08 2.28 0 .48.72 1.56.84 1.08.84 1.92 0 .6-.24 1.92-.24 1.32-.24 1.92l-1.56.48q1.56 9.72 3.6 18.6zm-17.64-57.360008-.6-1.92.12-.72-1.08-1.08-.96 2.88 2.04 3.48zm-7.2 29.760008q-2.64-12.12001-4.44-24.240008-4.56 19.560008-6.36 29.760008 6-3.48 10.8-5.52zm-24 24.96-.36-.96-1.2 1.68.24 2.88.84-1.56.12-1.56zm3.84 4.8-.48-1.56-1.92 2.64.6 4.32q1.56-2.4 1.44-4.8zm-12.60755-13.3392q-.37512 1.19535-.76237 3.35063l-2.87523-.39634-4.84811 3.77908 3.48124-.076 2.89947-1.52351.95993.0121q-.25665 1.31687-.77299 4.19058l-3.01188.92204 1.41715 1.81804-.63026 2.39223q-17.5974 6.01825-39.00089 18.82898-.34178-1.44443-1.02384-4.45328.50118-1.67381 1.12386-3.46609l-1.66926-.86115.14424-1.91833.84145-.10938 1.57048-.82023.59995.008.97508-1.18778-2.39678-.27029-1.45504 1.18172q.13818-1.43837.65148-4.07209-4.29196-40.25741-3.93129-68.815138 2.41193-.929615 7.35427-2.66734l-.98417 1.907724 2.08557 5.906808 1.12387-3.466083-.56056-3.127329.4936-1.073852-.59086-.72752 2.5289-.688119q.70175 1.448978 1.75591 3.502454 1.09203-.946285 3.64972-3.914222 2.52737-.568129 5.90074-1.605611-.2718 2.516768-.30211 4.916577 1.32444-.343302 3.73031-.792956-4.61337 32.704347-4.9604 60.182157 6.63585-2.79642 20.01995-7.7878l-.39786 2.99521q2.16741-.57267 6.86673-2.07344zm-34.49772-43.159098-.33269-2.164374.24907-.716912-.82175-1.450493-1.47322 2.621605 1.62531 4.340871zm25.85717 52.650738-2.39375-.51027-3.0331 2.6019 2.28134-.0912 1.57199-.94022.59996.008zm-41.96884-51.316076q0 14.879996-12.12 27.480006-8.52 8.64-25.2 18v6.36q0 .72-.36 2.28-.36 1.56-.36 2.16 0 .12.84 9.96-1.2.48-3.48 1.56l.96-2.28-2.64-5.76-.84 3.48.6 2.4-1.44-1.44q-1.44 2.16-3.84 6.48l-1.8-1.32-2.4 2.04q-4.68-40.32-5.16-61.800006l-1.439998.6-4.08-.6-3.48 3.12q-.96-1.92-1.32-3.48 1.92-.84 4.08-2.16l-2.04-1.56 1.68-.84h.96l1.32-1.92-3.84-.36-1.56 1.2-.6-1.68q1.32-2.28 1.92-3.84-2.16.48-4.08.72v-1.92q.36-.12 2.52-1.8 9-6.84 19.799998-10.8 11.88-4.56 22.2-4.56 10.44 0 17.4 4.8 7.8 5.28 7.8 15.48zm-20.88 9.6q0-8.16-11.4-8.16-1.2 0-2.64.12-1.92 17.760006-1.92 24.720006 15.96-9.12001 15.96-16.680006zm-33.6-12.72-2.88-.36-3.719998 3 2.76-.12 2.039998-1.2h.72zm9.12 60.120006-1.92-4.2-.36 2.76.36 2.04-.24.72 1.08 1.44z"/><g fill="url(#a)" filter="url(#b)" transform="translate(.248444 .554146)"><path d="m154.50645 81.479828q0 14.88-12.12 27.480002-8.52 8.64-25.2 18v6.36q0 .72-.36 2.28-.36 1.56-.36 2.16 0 .12.84 9.96-1.2.48-3.48 1.56l.96-2.28-2.64-5.76-.84 3.48.6 2.4-1.44-1.44q-1.44 2.16-3.84 6.48l-1.8-1.32-2.4 2.04q-4.68-40.32-5.16-61.800002l-1.44.6-4.08-.6-3.48 3.12q-.96-1.92-1.32-3.48 1.92-.84 4.08-2.16l-2.04-1.56 1.68-.84h.96l1.32-1.92-3.84-.36-1.56 1.2-.6-1.68q1.32-2.28 1.92-3.84-2.16.48-4.08.72v-1.92q.36-.12 2.52-1.8 9-6.84 19.8-10.8 11.88-4.56 22.2-4.56 10.44 0 17.4 4.8 7.8 5.28 7.8 15.48zm-20.88 9.6q0-8.16-11.4-8.16-1.2 0-2.64.12-1.92 17.760002-1.92 24.720002 15.96-9.120002 15.96-16.680002zm-33.6-12.72-2.88-.36-3.72 3 2.76-.12 2.04-1.2h.72zm9.12 60.120002-1.92-4.2-.36 2.76.36 2.04-.24.72 1.08 1.44z"/><path d="m205.11584 123.30426q-.37512 1.19535-.76237 3.35063l-2.87523-.39634-4.84811 3.77908 3.48124-.076 2.89947-1.52351.95993.0121q-.25665 1.31687-.77299 4.19058l-3.01188.92204 1.41715 1.81804-.63026 2.39223q-17.5974 6.01825-39.00089 18.82898-.34178-1.44443-1.02384-4.45328.50118-1.67381 1.12386-3.46609l-1.66926-.86115.14424-1.91833.84145-.10938 1.57048-.82023.59995.008.97508-1.18778-2.39678-.27029-1.45504 1.18172q.13818-1.43837.65148-4.07209-4.29196-40.25741-3.93129-68.815134 2.41193-.929615 7.35427-2.66734l-.98417 1.907724 2.08557 5.906808 1.12387-3.466083-.56056-3.127329.4936-1.073852-.59086-.72752 2.5289-.688119q.70175 1.448978 1.75591 3.502454 1.09203-.946285 3.64972-3.914222 2.52737-.568129 5.90074-1.605611-.2718 2.516768-.30211 4.916577 1.32444-.343302 3.73031-.792956-4.61337 32.704343-4.9604 60.182153 6.63585-2.79642 20.01995-7.7878l-.39786 2.99521q2.16741-.57267 6.86673-2.07344zm-34.49772-43.159094-.33269-2.164374.24907-.716912-.82175-1.450493-1.47322 2.621605 1.62531 4.340871zm25.85717 52.650734-2.39375-.51027-3.0331 2.6019 2.28134-.0912 1.57199-.94022.59996.008z"/><path d="m262.72339 134.48346-1.44.48q-1.32 2.88-1.68 3.6-1.08 1.44-2.76 2.52-2.52-1.2-3.96-.6-1.44.6-6.12 2.64-2.76-9.96-5.52-21.24-6.36 2.28-17.16 7.44-1.32 8.52-2.28 16.8-.24.12-.48.12-.36 0-1.08-.72-.72-.84-.96-.84-.72 0-1.32 2.04-.6 1.92-1.08 2.4-3.72 2.52-3.36 1.8.48-.6.48-3.84l.6-1.08-.84-1.92-2.64 3.6.6 4.68q-1.2.6-2.04.6-1.08 0-1.32-1.32-.24-1.2-.36-1.2-.48 0-1.56 2.76h-.24q.6-9.24.6-20.88 0-26.04 6.12-62.160004 2.64-.84 8.04-2.76.96-.48 4.08-2.76 2.04-1.44 4.92-1.44 2.04 0 8.28-2.64-.72 3.12-1.32 6 1.32-.36 3.72-1.08.6-.96 2.28-2.16.36-.12 1.08-.36l-1.2 3 3.24 5.64.72-4.2-1.08-3.24.36-1.08-.6-.72q2.4-1.2 7.68-3.12.24 19.2 3.72 42.600004 2.16-.72 5.52-1.8-.12 1.2-.36 3.84-.12.84-1.32 1.92-1.08.96-1.08 2.28 0 .48.72 1.56.84 1.08.84 1.92 0 .6-.24 1.92-.24 1.32-.24 1.92l-1.56.48q1.56 9.72 3.6 18.6zm-17.64-57.360004-.6-1.92.12-.72-1.08-1.08-.96 2.88 2.04 3.48zm-7.2 29.760004q-2.64-12.120004-4.44-24.240004-4.56 19.560004-6.36 29.760004 6-3.48 10.8-5.52zm-24 24.96-.36-.96-1.2 1.68.24 2.88.84-1.56.12-1.56zm3.84 4.8-.48-1.56-1.92 2.64.6 4.32q1.56-2.4 1.44-4.8z"/><path d="m329.42413 63.710071q-1.2 2.16-3.84 6.36.96.36 3.6 1.08-4.08 6-22.44 35.279999-3 4.56-8.52 13.8-2.52 5.04-8.04 13.92-2.64 3.36-5.76 9-2.28 4.68-4.68 9.48-1.44 0-3.84-.24 0-3.36-.12-5.4l.6-.24 1.56-3 .96-.6.24-2.16-3.72 1.68-1.32 3.84q-3.12 2.4-6 4.32l-.6-2.76-3.36.96q5.4-13.2 17.28-39.36-11.76-14.759999-22.56-31.439999.84-.84 2.52-1.32 1.8-.6 2.4-1.44.72-.96 1.32-4.68.6-2.76 3.24-3.24l.24 2.88 5.4 4.44-.96-3.96-2.28-2.76-.24-.96h-.12q1.32-1.08 1.8-4.08.6-3.12 1.32-4.08 8.88 15.6 17.76 30.24 7.2-14.64 15.24-29.64 2.64.12 7.56.48l-1.8.96-1.92 6.12 3-2.16 1.44-2.88.96-.48.12-1.44 3 .36q-.84 3.12-1.2 5.52 2.04-1.08 5.76-3.12 3.12.48 6 .72zm-14.76 6.84-2.88 1.44-1.44 4.68 2.28-1.8 1.2-2.16.72-.36zm-34.32 16.92-.48-1.92-.96-1.2-.12-.6-1.08-.48.12 2.04zm-6.6-3.84-.84-2.76-1.68-2.04-.12-.72-1.8-.84.24 3.24zm6.24 49.319999-2.64 1.44-1.56 4.68 2.28-1.8 1.08-2.04.72-.48z"/><path d="m383.91067 59.510735q-1.08001 3.26873-1.44001 6.788902h-1.08l-1.92 1.005763-.48-.12572-1.2 1.257204 2.28.377161 2.4-1.760086q-.12 1.005764-.36 2.765849l-4.92001 3.143011 5.40002.377161q-.60001 2.137247-1.80001 6.788902-15.84002 4.023054-27.12004 8.548989-.48 3.771612-.84 7.543225 8.40001-3.01729 18.96003-6.1603-.12 1.005763-.36 3.017289 2.28-.754322 6.84001-1.760085-.72001 2.514408-1.80001 7.417504-1.43999.628602-2.88.880043.36.628603 1.32 2.011523-.36.88005-.72 2.51441-9.60001 3.01729-11.28002 3.39445-6.36 2.13725-10.92001 4.65166-.36 5.78313-.36 12.69776 0 4.14878.12 9.55475 3.96-2.38868 9.00001-5.15454l1.56001 1.00577q4.92-2.64013 14.04001-6.53747-.11999.50289-2.16 8.67472 1.8-.75432 2.76001-1.13149-.72 3.6459-.72 5.40598-20.16004 9.42903-39.24006 24.76693-.48-2.76586-.48-3.14302 0-.88004.48-2.38868.48-1.38293.48-2.13725-1.32-2.01153-2.4-3.14302.36-.6286.95999-2.51441l-1.56.12573-.12-.50289q.6-.62859 2.4-2.01152-1.31999-10.56052-2.15999-24.6412-1.44001 1.00576-4.32001 2.51441-.72001-3.14302-1.32-4.77738.72-2.01153 1.32-3.39445l-1.92001-1.25721q.36-2.64012 1.32001-6.66318 2.88-1.38293 4.32-2.38868v-7.54323q-3 1.382925-9.12001 4.52594.48-1.25721 3.6-8.800434-.59999-1.131483-1.92-3.14301 2.04001-2.011527 3.24001-3.645892-.60001-.502882-1.08001-2.514408-.36-2.137247-.72-2.89157 1.2-2.011527 1.92-3.268731 12.60002-5.783139 23.16004-9.806192l.48-2.262968q15.24002-4.148773 30.36005-6.28602zm-9.96002 12.3206h-1.56l-1.44.880043-.48001-.125721-.84.880043 1.80001.377162zm-4.68001 22.001073-2.15999.12572-1.80001 1.005764h-.72l-1.08 1.131483 2.52.377162zm-22.68003 48.402352h-1.44001l-1.31999.62861h-.36l-.60001.75432 1.56001.25145zm-5.04001 4.90311-2.28.12571-1.8.88004.6 1.76009z"/><path d="m456.15192 135.82899q-.60024 3.02848-.60024 5.69356l-1.92075-.84799v1.93823l-.96038-1.45367-6.72264-.72683 2.88113 2.54392 3.24127 1.09026.84034.72683h.72028l.24009 3.14962q-.48019-.24227-.84033-.24227-.36014 0-1.32051.48456-.72029.24227-1.68066-.12115l3.48137 4.96672q-9.72383-3.87646-18.48727-8.96431-10.80424-5.45127-19.56769-11.87166-.24009 8.23748.36015 13.93102-1.20047.48456-3.48137 1.57482l-.12004-.12114.96037-2.18051-2.64104-5.81469-.72028 3.51304.60024 2.42279-1.44057-1.45367q-.12005.12114-3.96155 6.54153l-1.68067-1.33254q-1.44057 1.21139-2.52098 2.05937-4.68184-40.09713-5.28208-62.386759l-1.20047.605696-4.20165-.605696-3.36133 3.149622q-.96037-2.180508-1.32051-3.51304.12004 0 4.0816-2.180508l-2.16085-1.574812 1.56062-.847975h1.08042l1.32052-1.938229-3.84151-.363418-1.56061 1.211393-.48019-1.695951q1.32051-2.301647 1.92075-3.876458l-4.20165.726836v-1.93823q.60024-.363417 2.64104-1.817089 21.00825-15.505836 41.89646-15.505836 10.68419 0 17.52688 4.845573 7.68302 5.45127 7.68302 15.748114 0 21.683947-26.29033 39.249147 15.84622 10.78139 29.5316 17.20178zm-24.00943-46.75978q0-8.358614-11.40448-8.358614-1.20047 0-2.64103.121139-1.92077 15.748113-1.92077 24.954695 15.96628-9.206582 15.96628-16.71722zm-33.6132-12.961909-3.12123-.363417-3.48136 3.028483 2.76107-.12114 1.92077-1.211393h.84032zm46.45824 61.296509-1.68065-2.05938-4.32171-.72683 1.80071 1.69595 2.2809.6057.36014.72683zm-37.33466-.6057-1.92075-4.23988-.48019 2.7862.48019 2.05938-.12005.72683.96037 1.45367z"/><path d="m505.22482 79.347537q-24.72969 14.1331-24.72969 23.440263 0 3.33219 6.00235 5.97497 9.12358 4.13652 11.16438 5.63026 6.00235 4.48123 6.00235 12.17975 0 7.69852-7.80306 16.89078-5.64221 7.12399-14.16555 13.44368-.48019-.22981-.48019-1.03414 0-.45961.36014-1.60865.48019-1.14903.48019-1.60863 0-.80433-4.0816-.80433-1.56061 0-2.28089.22981l5.04197-5.05575q-4.32169.57452-7.08277 3.562l-.96038.22981-.84033.91923-2.88112-1.14904q15.36601-10.34129 15.36601-16.08645 0-3.6769-8.64338-7.58361-13.68537-6.08988-15.96626-7.58362-8.52334-5.40045-8.52334-13.09897 0-13.213876 16.08631-28.036396 12.84503-11.835036 28.45115-18.844134.48018 1.263936 1.92075 2.872581 1.8007 2.183162 2.16084 2.757678l-1.8007.34471-2.88113 2.183162-.84033.114903-1.68066 2.757678 3.48137.34471 3.96155-4.825937q0 .804323-1.08043 4.825937l3.96156 2.872582h-.12005l-2.16085 1.723549-.72028.114903-1.20047 1.723549 2.52099.229806 2.52098-2.527871.60024.689419zm-10.08395-5.860067-2.16085.34471-1.8007 1.608646h-.60024l-.96037 1.723549 2.28089.114903zm-6.12241 70.09098-2.76108.91923-2.0408 1.49374-.60023.34471-1.20047 1.37885 2.64103-.22981z"/></g><path d="m88.92872 107.58858q-.746669 6.72001-.746669 9.89335-1.86667.56-2.986672.56.746668 1.12 2.613338 3.17334-.560001 1.30667-1.680003 4.10668-3.73334.37333-10.826686 1.30667v5.78667q0 2.24001-.560001 6.34668-.373334 4.10667-.373334 6.16001 0 5.04001.933335 17.36003-2.800005 1.30667-5.040009 2.24001l-1.86667-2.42667 1.306669-3.17334-.373334-5.04001.746668-1.49334-1.493336-3.36-3.360006 5.22667 1.120002 5.60001-1.493336-2.05333q-1.866671 3.36-6.160012 9.89335l-2.800005-2.24001q-2.240004 2.05334-3.546673 2.80001-1.86667-13.81336-3.73334-36.40007-4.293341.37334-38.8267376 13.25336l1.4933356-7.84002q.746668-.74666 2.426672-2.05333-.933336-1.30667-1.30667-2.61334l-2.240004-1.12q.933335-1.49334 2.053337-3.92001l-.933335-1.68q-2.9866717.37333-4.6666748.74667-.186667-.93334-1.493336-2.80001l2.4266711-4.66668 1.306669-.93333.186667-3.73334-5.4133432 3.17334-.746668 2.8q-1.6800031-2.42667-2.98667213-4.48-.93333507-.56001-4.48000817-2.61334 4.10667415-9.33335 19.9733702-36.96007 7.093346-12.320022 22.213373-36.026732.933336 1.86667 2.240005 5.60001 1.493336-1.120002 3.920007-4.106674v-2.800005q3.920007-1.306669 7.280013-1.680003l2.053337 9.893351 2.240004-5.413343-.186667-4.853342.746668-1.493336-.560001-1.120002 4.853342-2.240005q0 .186667 2.426671 6.160012 2.240005-2.986672 5.413344-6.533346.933335-.186667 8.026681-2.800005 0 1.306669-.186667 3.920007 0 2.800006 0 4.293342 1.306669-.186667 5.226676-1.493336-5.413343 52.453429-5.413343 68.880127 2.986672-.37334 8.773349-1.49334-.746668 1.68001-1.680003 5.04001 1.120002 0 6.160012-.56zm-27.626718-60.106776-1.306669-2.426671-2.240004 3.73334 1.680003 7.093346q.746668-1.306669 1.120002-4.480008.373334-3.173339.746668-3.920007zm-14.560026 64.026786q-.746668-8.58668-1.680003-25.386715-9.146684 13.06669-17.920033 31.546725 10.453352-3.73334 19.600036-6.16001zm19.600036 25.76004-.933335-1.86667-1.680003 2.80001 1.120002 5.78668 1.120002-2.98668-.186667-2.98667zm-3.920008 8.58669-1.120002-2.42667-2.426671 3.92 1.493336 7.09335 1.680003-3.73334-.186667-3.92001zm-49.653424-43.30675-4.1066737 2.05334-2.2400041 7.09334 3.3600062-2.61333 1.6800026-3.36001 1.120002-.56z" fill="url(#d)" filter="url(#c)"/></g></g></svg>