<?xml version="1.0" encoding="utf-8"?>
<!-- Generator: Adobe Illustrator 16.0.0, SVG Export Plug-In . SVG Version: 6.00 Build 0)  -->
<!DOCTYPE svg PUBLIC "-//W3C//DTD SVG 1.1//EN" "http://www.w3.org/Graphics/SVG/1.1/DTD/svg11.dtd">
<svg version="1.1" id="Layer_1" xmlns="http://www.w3.org/2000/svg" xmlns:xlink="http://www.w3.org/1999/xlink" x="0px" y="0px"
	 width="576px" height="183px" viewBox="0 0 576 183" enable-background="new 0 0 576 183" xml:space="preserve">
<path fill="#010101" d="M289.459,6.35c-1.418-0.986-2.708-1.393-4.37-1.741c-8.058-1.656-16.311-2.576-24.532-1.742
	c-22.83,1.925-44.398,14.155-58.31,32.279c-3.01,3.858-5.92,7.788-8.806,11.737c-0.223,0.335-0.684,1.005-0.907,1.34
	c-4.758,6.236-7.446,13.656-10.146,20.93c-1.249,4.482-2.425,9.017-3.089,13.623c-0.729,6.454-0.657,12.972-0.25,19.439
	c1.255,14.629,7.005,28.771,15.667,40.594c2.07,2.693,4.239,5.322,6.572,7.799c4.225,4.213,8.852,8.045,13.885,11.258
	c6.519,4.369,13.735,7.736,21.305,9.814c14.439,4.152,30.275,4.836,44.642,0.077l8.338-13.063v-28.525l61.333-0.063l7.741-12.742
	l-29.862-30.15l-4.467-0.028l27.854-28.241l8.563-11.458h-71.161V6.35L289.459,6.35z M280.06,122.449
	c-8.813,2.438-20.159,2.393-28.618-1.242c-9.68-4.087-17.895-11.882-21.865-21.688c-3.726-8.167-4.12-17.504-2.136-26.182
	c1.203-4.797,3.713-9.463,7.695-12.512c6.545-5.514,15.227-7.399,23.514-8.333c7.301,0.25,15.1,1.688,21.409,5.552L280.06,122.449
	L280.06,122.449z"/>
<path fill="#010101" d="M88.46,171.447l10.015-13.616L119.134,6.35H79.979l-7.004,8.764L65.44,79.53L56.205,6.35h-39.54l-7.188,9.22
	l21.975,155.756L88.46,171.447z"/>
<path fill="#010101" d="M512.711,6.35c-8.543,0-11.24,3.176-13.843,4.931c-2.233,1.688-3.809,3.178-5.968,4.939
	c-4.563,3.746-7.354,7.929-10.461,12.916c-3.179,5.148-5.914,9.132-5.914,17.894l0.192,83.273c0.105,7.53-0.897,15.344,1.771,22.579
	c1.771,4.495,4.486,8.845,8.411,11.763c3.68,3.174,10.731,6.683,16.481,6.683h29.736c8.955,0,17.252-5.423,22.837-12.075
	l5.449-7.063c6.38-9.774,7.663-15.058,7.374-23.15l1.109-96.635c-0.132-8.405-2.806-15.768-9.906-20.571
	c-3.608-2.327-7.299-5.479-13.451-5.479h-33.82L512.711,6.35L512.711,6.35z M519.561,41.055h4.238
	c2.423-0.161,2.425,3.27,2.425,4.872l-0.002,87.859l-2.921,0.08c-1.703,0-3.739-3.271-3.739-4.871L519.561,41.055z"/>
<path fill="#010101" d="M421.312,82.293c-0.104,2.458-2.209,6.043-4.298,7.226c-6.882,3.851-13.715,7.788-20.612,11.605
	c-3.708,1.78-7.396,3.812-10.206,6.873c-5.618,6.04-9.863,13.88-9.732,22.323l-0.371,41.195l78.313,0.026l9.002-12.854v-24.906
	H416.99c0,0-0.149-7.395,1.191-9.354c1.759-2.564,5.505-4.146,8.188-5.816c5.81-3.438,11.822-6.53,17.638-9.975
	c3.721-2.145,6.776-5.244,9.135-8.82c1.827-2.653,3.996-5.047,5.977-7.584c2.892-3.718,4.641-8.313,4.814-13.03l0.259-45.462
	c-0.44-7.446-2.559-15.352-8.233-20.55c-4.751-5.001-10.104-6.919-16.951-6.841c-7.358-0.381-18.479-0.053-25.848,0
	c-4.182,0.138-7.602,0.508-11.542,1.974c-3.076,0.947-6.495,3.877-7.777,4.929c-3.962,3.917-7.016,6.708-10.655,10.926
	c-3.581,4.351-6.31,11.08-6.109,16.843l0.262,31.169l31.266-0.013c2.17-2.615,6.771-7.729,8.736-10.507
	c1.07-1.407,0.782-3.28,0.861-4.929c-0.119-4.758-0.008-10.837-0.146-15.595c0.578,0.007,1.666,0.722,2.541,2.047
	c0.715,1.192,0.777,3.493,0.729,6.299v32.802L421.312,82.293L421.312,82.293z"/>
<g>
	<path fill="#DEDEDD" d="M284.529,6.258c-7.596-1.676-15.39-2.097-23.145-1.63c-18.493,1.814-36.519,9.706-49.747,22.862
		c-1.268,1.367-2.373,2.878-3.594,4.285c11.395-9.857,25.931-15.765,40.803-17.756l0.539-0.092c4.85-0.138,9.706-0.789,14.555-0.335
		c3.595,0.328,7.17,0.795,10.772,1.084c2.26,0.5,4.507,1.052,6.813,1.301c0.243-0.342,0.729-1.025,0.973-1.367
		c1.511-2.28,2.878-4.666,4.587-6.808C286.475,6.941,285.594,6.35,284.529,6.258z"/>
	<path fill="#DEDEDD" d="M455.698,15.642c-3.519-4.271-6.851-6.234-12.25-6.99c-8.49-1.104-18.481-0.686-27.014-0.876
		c-4.387,0.405-7.857-0.282-11.32,0.986c-4.479,1.531-8.816,4.233-11.958,7.794l-0.026,0.033c0.263,0.125,0.789,0.362,1.053,0.487
		c5.316-1.413,10.855-1.157,16.307-1.301c7.912,0.138,15.854-0.48,23.729,0.512c5.642,1.025,11.055,3.595,15.082,7.729
		L455.698,15.642z"/>
	<path fill="#DEDEDD" d="M278.556,124.874c-2.543,0.563-5.106,1.091-7.709,1.248c-5.454,0.401-10.973-0.157-16.23-1.649
		c-4.672-1.603-9.121-3.89-13.117-6.802c-5.441-4.205-9.898-9.674-12.887-15.864c-4.081-8.355-5.185-18.091-3.286-27.186
		c0.375-2.057,0.979-4.062,1.597-6.053c-1.597,1.879-2.997,3.923-4.081,6.145c-2.734,5.868-4.862,12.25-4.666,18.801
		c-0.151,8.057,2.201,16.107,6.513,22.902c0.42,0.689,0.866,1.374,1.347,2.037c5.191,6.882,12.361,12.367,20.668,14.879
		c10.31,3.229,21.804,2.207,31.445-2.648c0.664-0.397,1.314-0.834,1.958-1.269c0.039-1.608,0.045-3.228,0-4.836
		C279.719,124.65,278.944,124.796,278.556,124.874z"/>
	<path fill="#DEDEDD" d="M560.891,14.875c-1.354-1.051-3.081-2.229-4.521-3.156c-4.337-2.852-8.52-3.7-13.648-3.943
		c-5.757-0.19-12.979,0.033-18.729,0c-5.967,0.086-12.866-0.694-18.551,1.534c-5.586,2.519-7.164,5.04-10.877,8.417
		c8.563-2.458,17.523-1.689,26.316-1.722c3.456-0.046,6.913,0.013,10.376-0.026c4.063,0.21,8.208,0.545,12.046,2.024
		c2.904,1.071,5.454,2.905,7.827,4.863c0.702,0.598,1.399,1.203,2.109,1.807L560.891,14.875z"/>
</g>
<path fill="#010101" d="M158.79,171.268l8.713-12.635L167.208,6.35h-36.5l-7.26,9.47l-0.085,155.448H158.79z"/>
<g>
	<g>
		<path fill="#FFFFFF" d="M412.327,39.73c-3.818,0-5.033,6.22-5.053,9.118v22.146l-28.619-0.119l0.203-29.953
			c0.599-9.332,5.961-19.413,15.417-22.192c2.51-0.729,5.109-1.137,7.728-1.183c7.867-0.27,15.753,0.092,23.612-0.368
			c5.704,0.466,11.819,0.473,16.837,3.627c6.176,3.325,9.979,9.693,10.564,16.692c0.288,17.296-0.063,33.852,0,51.148
			c0.041,2.978-0.179,6.892-1.519,9.573c-1.578,3.285-4.035,6.211-7.223,8.023c-8.341,4.764-16.771,9.357-25.063,14.193
			c-4.259,2.512-9.286,4.869-11.468,9.582c-1.367,5.149-0.828,10.561-0.907,15.83h46.18v23.914l-75.127,0.077v-41.877
			c1.764-9.315,9.229-19.446,17.486-23.894c6.44-3.629,12.834-7.318,19.32-10.86c3.549-1.959,8.411-4.16,8.438-8.898
			c0.093-12.907-0.085-22.541,0.063-35.454c-0.147-3.998-1.285-9.131-5.61-9.131h-5.259V39.73L412.327,39.73z"/>
	</g>
	<polygon fill="#323EAA" points="349.673,58.709 318.623,90.148 282.364,90.148 282.364,58.709 	"/>
	<polygon fill="#FA362C" points="349.673,128.046 318.623,98.044 282.364,98.044 282.364,128.046 	"/>
	<path fill="#FFFFFF" d="M530.679,169.895c15.854,0,28.707-13.617,28.707-24.74V46.851c0-11.122-10.881-29.339-26.732-29.339h-27.73
		c-15.854,0-26.734,18.217-26.734,29.339v98.303c0,11.123,12.854,24.74,28.706,24.74H530.679L530.679,169.895z M510.196,45.269
		c0-1.602,0.938-5.529,3.736-5.529h9.699c3.163,0,3.739,3.927,3.739,5.529v95.553c0,1.603-2.695,4.871-4.396,4.871h-8.384
		c-1.703,0-4.396-3.271-4.396-4.871L510.196,45.269L510.196,45.269z"/>
</g>
<polygon fill="#DEDEDD" points="53.426,7.775 17.528,7.775 11.695,15.246 47.592,15.246 "/>
<polygon fill="#DEDEDD" points="117.142,7.748 81.245,7.748 75.412,15.219 111.309,15.219 "/>
<polygon fill="#DEDEDD" points="164.485,7.775 131.216,7.775 125.383,15.246 158.652,15.246 "/>
<polygon fill="#DEDEDD" points="356.82,48.999 289.379,48.999 282.889,57.126 350.329,57.126 "/>
<polygon fill="#DEDEDD" points="326.377,88.416 323.417,88.443 320.288,91.757 286.377,91.757 282.778,96.365 320.04,96.365 
	320.083,96.311 320.149,96.311 "/>
<polygon fill="#DEDEDD" points="460.274,135.132 417.148,135.132 410.001,143.917 453.127,143.917 "/>
<g>
	<polygon fill="#2E329A" points="47.213,16.826 11.343,16.826 23.762,103.844 54.708,70.815 	"/>
	<polygon fill="#2E329A" points="74.639,16.826 69.871,54.633 105.295,16.826 	"/>
	<polygon fill="#DC2770" points="157.793,16.825 124.547,16.825 124.547,71.221 157.793,35.739 	"/>
	<polygon fill="#DC2770" points="105.521,16.826 105.295,16.826 69.871,54.633 69.835,54.913 61.583,120.334 54.737,71.026 
		54.708,70.815 23.762,103.844 23.792,104.055 33.044,168.881 98.056,99.495 109.855,16.826 	"/>
	<path fill="#FA6B28" d="M180.566,86.322l66.315-70.778C211.332,20.948,183.961,50.077,180.566,86.322z"/>
	<polygon fill="#FA6B28" points="33.044,168.881 33.053,168.939 33.169,169.752 88.028,169.752 98.044,99.577 98.056,99.495 	"/>
	<polygon fill="#FA6B28" points="124.547,71.221 124.547,71.291 124.547,146.107 157.793,110.626 157.793,35.808 157.793,35.739 	
		"/>
	<g>
		<path fill="#FFCD1C" d="M258.852,14.643c-4.027,0-7.978,0.303-11.833,0.881c-0.046,0.007-0.092,0.013-0.137,0.02l-66.315,70.778
			c-0.005,0.046-0.009,0.093-0.012,0.139c-0.227,2.465-0.349,4.961-0.349,7.484c0,18.724,6.372,35.93,17.086,49.494l25.424-27.135
			c-3.882-6.513-6.103-14.166-6.103-22.357c0-23.691,18.549-42.895,42.239-42.895c7.323,0,14.213,1.844,20.244,5.08l0.49-0.523V17.4
			C272.975,15.613,266.027,14.643,258.852,14.643z"/>
		<polygon fill="#FFCD1C" points="124.547,146.234 124.547,169.752 157.793,169.752 157.793,110.753 157.793,110.626 
			124.547,146.107 		"/>
	</g>
	<path fill="#53A520" d="M258.852,136.844c-15.487,0-28.774-8.211-36.121-20.514c-0.005-0.01-0.01-0.018-0.016-0.023l-25.424,27.135
		c0.006,0.008,0.012,0.016,0.017,0.021c10.9,13.79,26.288,23.816,44.043,27.84l36.403-38.854
		C272.05,135.258,265.638,136.844,258.852,136.844z"/>
	<path fill="#53A520" d="M279.096,56.132c0.009,0.004,0.017,0.009,0.026,0.013c0.154,0.084,0.311,0.163,0.464,0.249v-0.743v-0.042
		L279.096,56.132z"/>
	<path fill="#42591F" d="M277.98,132.338c-0.075,0.038-0.149,0.074-0.225,0.111l-36.403,38.854c0.034,0.006,0.067,0.014,0.101,0.02
		c5.588,1.262,11.409,1.93,17.399,1.93c7.176,0,14.124-0.973,20.734-2.756V131.5C279.058,131.791,278.521,132.068,277.98,132.338z"
		/>
</g>
</svg>
