<?xml version="1.0" encoding="UTF-8" standalone="no"?>
<svg
   enable-background="new 0 0 566.929 87.964"
   height="70.468"
   viewBox="0 0 343.64012 70.467654"
   width="343.64"
   version="1.1"
   id="svg26"
   sodipodi:docname="coco.svg"
   inkscape:version="1.1.2 (b8e25be833, 2022-02-05)"
   xmlns:inkscape="http://www.inkscape.org/namespaces/inkscape"
   xmlns:sodipodi="http://sodipodi.sourceforge.net/DTD/sodipodi-0.dtd"
   xmlns="http://www.w3.org/2000/svg"
   xmlns:svg="http://www.w3.org/2000/svg">
  <defs
     id="defs30" />
  <sodipodi:namedview
     id="namedview28"
     pagecolor="#ffffff"
     bordercolor="#666666"
     borderopacity="1.0"
     inkscape:pageshadow="2"
     inkscape:pageopacity="0.0"
     inkscape:pagecheckerboard="0"
     showgrid="false"
     inkscape:zoom="0.54991933"
     inkscape:cx="-276.40418"
     inkscape:cy="-92.740875"
     inkscape:window-width="1280"
     inkscape:window-height="961"
     inkscape:window-x="3832"
     inkscape:window-y="1128"
     inkscape:window-maximized="1"
     inkscape:current-layer="g20" />
  <g
     transform="matrix(.81916268 0 0 .81916268 -.000017 0)"
     id="g20">
    <path
       d="m333.43 86.024h34.396l51.675-86.024h-34.384l-51.69 86.024"
       fill="#498cc1"
       id="path2" />
    <g
       fill="#666"
       stroke="#000"
       stroke-width="1.110435"
       id="g14"
       style="fill:#cccccc">
      <path
         d="m135 23.469v46.875h28.125c8.7494-1.435 13.753-6.3365 15.656-14.062.0175-6.2553.003-12.495 0-18.75-1.9033-7.726-6.9069-12.627-15.656-14.062h-28.125zm11 9.4062h12.469c3.9161.69463 7.6321 1.9226 9.4062 7.8125l-.0312 12.5c-1.7896 5.8814-5.4902 7.1179-9.4063 7.8125h-12.469l.0312-28.125z"
         id="path4"
         style="fill:#cccccc" />
      <path
         d="m14.64 70.354v-35.926h-14.071l-.004331-10.935h43.78l-4.6933 10.935-10.944.0043v35.921l-14.067.000037"
         id="path6"
         style="fill:#cccccc" />
      <path
         d="m49.031 23.5-17.188 46.844h14.094l5.4375-17.156 5.4688 7.8125h9.375l3.125 9.3438h14.188l-17.312-46.844h-17.188zm8.5312 12.469 5.5312 14.094h-10.938l5.4062-14.094z"
         id="path8"
         style="fill:#cccccc" />
      <path
         d="m84.957 70.354v-46.861h17.225l17.195 34.381v-34.381h10.944l-.009 46.861h-17.192l-17.197-34.351-.0044 34.351h-10.961"
         id="path10"
         style="fill:#cccccc" />
      <path
         d="m191.27 48.513-18.746-25.02h14.059l10.195 15.598 10.146-15.598h15.604l-18.804 24.942.0346 21.919h-12.477l-.0122-21.841"
         id="path12"
         style="fill:#cccccc" />
    </g>
    <path
       d="m288.28 86.024h34.396l51.67-86.024h-34.39l-51.68 86.024"
       fill="#197123"
       id="path16" />
    <path
       d="m243.12 86.024h34.396l51.67-86.024h-34.384l-51.69 86.024"
       fill="#ae1f19"
       id="path18" />
  </g>
  <text
     x="295.30255"
     y="32.581753"
     id="text24"><tspan
       x="295.30255"
       y="32.581753"
       id="tspan22" /></text>
</svg>
