<?xml version="1.0" encoding="UTF-8" standalone="no"?>
<!-- Created with Inkscape (http://www.inkscape.org/) -->

<svg
   version="1.1"
   id="svg30761"
   width="443"
   height="152.23145"
   viewBox="0 0 443 152.23145"
   sodipodi:docname="fmtowns.svg"
   inkscape:version="1.1.2 (0a00cf5339, 2022-02-04)"
   xmlns:inkscape="http://www.inkscape.org/namespaces/inkscape"
   xmlns:sodipodi="http://sodipodi.sourceforge.net/DTD/sodipodi-0.dtd"
   xmlns="http://www.w3.org/2000/svg"
   xmlns:svg="http://www.w3.org/2000/svg">
  <defs
     id="defs30765" />
  <sodipodi:namedview
     id="namedview30763"
     pagecolor="#ffffff"
     bordercolor="#111111"
     borderopacity="1"
     inkscape:pageshadow="0"
     inkscape:pageopacity="0"
     inkscape:pagecheckerboard="1"
     showgrid="false"
     inkscape:zoom="1.2576087"
     inkscape:cx="215.48833"
     inkscape:cy="1.9878997"
     inkscape:window-width="1366"
     inkscape:window-height="703"
     inkscape:window-x="0"
     inkscape:window-y="0"
     inkscape:window-maximized="1"
     inkscape:current-layer="g30767"
     fit-margin-top="0"
     fit-margin-left="0"
     fit-margin-right="0"
     fit-margin-bottom="0" />
  <g
     inkscape:groupmode="layer"
     inkscape:label="FM Towns Marty"
     id="g30767"
     transform="translate(-8,-8.7685571)">
    <path
       style="display:inline;fill:#4566ff;stroke:none"
       d="M 8,129 33.581,127.821 40.3997,113 57,74 h 1 v 39 c 0,3.731 -1.4234,11.302 1.0278,14.397 2.8777,3.633 16.4304,2.324 19.3349,-0.715 C 81.9586,122.92 83.9441,116.618 86.2469,112 91.7413,100.983 98.7574,88.8508 102,77 h 1 v 35 c 0,4.155 -1.268,10.878 0.603,14.682 2.128,4.324 21.645,4 23.079,-0.83 C 128.401,120.061 127,112.021 127,106 V 63 c 0,-6.4072 1.881,-16.4963 -2.514,-21.7863 C 119.157,34.7994 105.129,35.5709 99.0432,40.419 90.0757,47.563 83.3763,65.544 79,76 75.9584,65.7099 80.8156,48.9274 73.436,40.2785 67.6033,33.4427 50.8697,36.2227 46.3241,43.044 37.6081,56.1233 32.7296,72.6007 26.5725,87 20.678,100.785 12.1417,114.623 8,129 M 142,39 c -0.2,4.6656 -3.953,15.5366 -0.968,19.3966 1.956,2.5301 7.195,1.6032 9.968,1.6034 7.184,5e-4 22.723,-2.8987 28.567,1.858 C 183.705,65.2255 184.589,75.9636 185,81 181.993,77.5249 177.719,68.7854 172.91,67.9938 168,67.1857 160.805,73.1191 157,75.6705 143.169,84.9445 128.396,98.8446 136.133,116.985 143.727,134.79 174.785,129 190,129 c 5.546,0 15.094,1.673 19.486,-2.564 4.766,-4.598 2.207,-14.717 1.564,-20.436 -1.721,-15.3212 -3.493,-30.912 -6.711,-46 -1.486,-6.9674 -2.711,-14.1286 -9.343,-18.142 C 182.219,34.1258 156.48,39 142,39 m 162,0 c 0,4.7176 -2.368,18.8269 1.603,21.9722 C 309.454,64.0218 320.25,62 325,62 v 48 c 0,4.513 -1.895,14.706 1.028,18.397 2.821,3.562 22.262,3.145 23.654,-1.545 C 351.484,120.783 350,112.314 350,106 V 62 c 4.75,0 15.546,2.0218 19.397,-1.0278 C 373.368,57.8269 371,43.7176 371,39 h -67 m 71,0 c 0,27.0527 5.277,50.1204 35,57 -6.136,13.942 -20.223,11 -33,11 0,5.132 -2.249,17.259 1.028,21.397 2.233,2.819 8.821,1.603 11.972,1.603 12.451,0 23.77,0.974 32.895,-9.004 5.507,-6.021 7.318,-13.672 10.388,-20.996 7.637,-18.2166 16.1,-40.2037 17.717,-60 -5.415,0 -19.153,-2.4729 -23.157,1.6034 -7.226,7.3571 -2.623,25.6036 -11.782,31.4645 -3.229,2.0661 -8.673,-2.2482 -10.836,-4.3966 C 398.492,61.9844 398.184,47.9194 398,39 h -23 m -154,1 v 62 c 0,6.627 -2.343,18.694 0.603,24.682 1.928,3.917 18.866,3.917 20.794,0 C 246.939,117.451 243,97.322 243,87 h 1 c 13.614,26.704 36.965,52.965 58,74 h 1 l 17,-17 v -1 C 303.666,126.666 286.191,110.826 274,91 291.05,82.5183 315.735,52.7618 286,41.4028 279.29,38.8395 271.054,40 264,40 h -43 m 22,44 V 60 c 6.318,0 23.751,-3.0276 28.381,1.7423 3.114,3.2076 -0.955,7.7931 -3.425,9.868 C 261.219,77.2692 251.436,81.6927 243,84 m -57,0 c 0.218,5.0885 5.02,19.311 0.397,22.972 -3.565,2.823 -27.53,2.832 -27.53,-3.081 0,-9.5038 20.276,-16.2829 27.133,-19.891 z"
       id="path30900"
       sodipodi:nodetypes="cccccscccccsccsscccccccccscccccsccscccccsccsccccccccscccccccccscccccccccssccccccccsc"
       inkscape:label="Marty" />
    <g
       aria-label="FM"
       transform="scale(0.96454279,1.0367606)"
       id="text2848"
       style="font-size:33.3897px;line-height:1.25;font-family:Ornitons-Regular;-inkscape-font-specification:Ornitons-Regular;display:inline;fill:#4566ff;stroke-width:0.999997"
       inkscape:label="FM">
      <path
         d="m 147.04458,32.531624 h 7.21218 v -9.382506 h 6.41082 l 1.40237,-5.375742 h -7.81319 V 13.96695 h 7.84658 l 1.50254,-5.5093012 h -16.5613 z"
         style="font-family:Ornitons-Bold;-inkscape-font-specification:Ornitons-Bold"
         id="path826" />
      <path
         d="m 162.9715,32.531624 h 7.07862 l 1.06847,-11.819955 c 0.0334,-0.367286 0.0334,-0.834742 0.0334,-1.435757 0,-0.534235 0,-1.13525 -0.0668,-2.637786 0.13356,0.801353 0.26712,1.368978 0.3339,1.769654 0.20034,1.16864 0.36729,1.936603 0.46745,2.2705 l 3.67287,11.853344 h 5.37574 l 3.63948,-11.853344 c 0.16695,-0.333897 0.30051,-1.10186 0.50085,-2.2705 0.0668,-0.400676 0.16695,-0.968301 0.33389,-1.769654 -0.0668,1.335588 -0.0668,2.003382 -0.0668,2.571007 0,0.567625 0,1.10186 0.0334,1.502536 l 1.10186,11.819955 h 7.07862 L 189.91699,8.4576488 h -7.14539 l -4.07355,12.9885942 c -0.20033,0.701184 -0.3005,1.368978 -0.43406,2.971683 -0.13356,-1.702875 -0.23373,-2.370669 -0.46746,-2.971683 L 173.72299,8.4576488 h -7.1454 z"
         style="font-family:Ornitons-Bold;-inkscape-font-specification:Ornitons-Bold"
         id="path828" />
    </g>
    <g
       aria-label="TOWNS"
       transform="scale(1.0017464,0.99825663)"
       id="text16120"
       style="font-size:35.5301px;line-height:1.25;font-family:TrasksHand;-inkscape-font-specification:TrasksHand;display:inline;fill:#4566ff"
       inkscape:label="Towns">
      <path
         d="m 198.76567,15.958971 h 5.15187 v 18.973074 h 7.6745 V 15.958971 h 4.58338 l 1.91863,-6.6441294 h -19.1152 z"
         style="font-family:Ornitons-Bold;-inkscape-font-specification:Ornitons-Bold"
         id="path831" />
      <path
         d="m 216.81502,22.141208 c 0,7.603442 5.96905,13.288258 13.9278,13.288258 7.99427,0 13.89227,-5.684816 13.89227,-13.288258 0,-7.567911 -5.898,-13.3237878 -13.67909,-13.3237878 -8.17193,0 -14.14098,5.6137558 -14.14098,13.3237878 z m 13.9278,-6.466478 c 3.51748,0 6.32435,2.842408 6.32435,6.466478 0,3.588541 -2.80687,6.466479 -6.32435,6.466479 -3.55301,0 -6.35989,-2.877938 -6.35989,-6.466479 0,-3.62407 2.80688,-6.466478 6.35989,-6.466478 z"
         style="font-family:Ornitons-Bold;-inkscape-font-specification:Ornitons-Bold"
         id="path833" />
      <path
         d="m 244.91936,9.3148416 7.4258,25.6172034 h 6.82178 l 2.98452,-13.288258 c 0.28425,-1.243554 0.35531,-1.918626 0.60402,-5.933527 0.31977,4.157022 0.39083,4.689973 0.67507,5.933527 l 3.02006,13.288258 h 6.78625 l 7.46132,-25.6172034 h -7.3192 L 270.35892,22.81628 c -0.14212,0.746132 -0.21318,1.350144 -0.49742,4.583383 -0.10659,-1.136963 -0.17765,-2.025215 -0.21318,-2.593697 -0.0711,-0.923783 -0.17765,-1.634385 -0.28425,-2.025216 L 266.02425,9.3148416 H 259.5933 L 256.18241,22.78075 c -0.0711,0.390831 -0.17765,1.101433 -0.21318,2.025216 -0.0711,0.568482 -0.10659,1.456734 -0.24871,2.593697 -0.10659,-1.136963 -0.17765,-2.025215 -0.24871,-2.593697 -0.0711,-0.888253 -0.14213,-1.563325 -0.24872,-1.989686 L 252.2741,9.3148416 Z"
         style="font-family:Ornitons-Bold;-inkscape-font-specification:Ornitons-Bold"
         id="path835" />
      <path
         d="m 282.22596,34.932045 h 7.46132 l -0.14212,-12.755307 c -0.0355,-1.385674 -0.14212,-2.344986 -0.60401,-4.796563 0.17765,0.639542 0.39083,1.243553 0.53295,1.740975 0.49742,1.421204 0.95931,2.451577 1.38568,3.126649 l 8.13639,12.684246 h 7.78109 V 9.3148416 h -7.46132 l 0.14212,13.0395474 c 0.0355,1.492264 0.17765,2.522637 0.78166,5.009744 -1.31461,-3.73066 -1.45673,-4.014901 -2.06074,-5.009744 L 289.97152,9.3148416 h -7.74556 z"
         style="font-family:Ornitons-Bold;-inkscape-font-specification:Ornitons-Bold"
         id="path837" />
      <path
         d="m 308.98015,32.409408 c 2.30946,1.527794 3.33983,2.025216 5.25845,2.522637 1.27909,0.355301 2.5937,0.532952 3.83725,0.532952 5.93353,0 10.33926,-3.908312 10.33926,-9.095707 0,-2.487107 -1.0659,-4.547853 -2.91346,-5.613756 -0.95932,-0.532951 -1.66992,-0.817192 -3.69513,-1.385674 l -2.06075,-0.532951 c -1.63439,-0.461891 -2.30946,-1.030373 -2.30946,-1.954156 0,-1.350144 1.1725,-2.273926 2.84241,-2.273926 0.85272,0 1.66992,0.24871 2.77135,0.639542 0.88825,0.390831 1.38567,0.675072 2.52264,1.385674 l 1.7765,-5.436106 c -1.84756,-1.030373 -2.62923,-1.3501439 -4.15702,-1.7765051 -1.31461,-0.2842408 -2.52264,-0.4974214 -3.73066,-0.4974214 -5.57823,0 -9.73525,3.6951305 -9.73525,8.6693445 0,3.055589 1.63439,5.187395 4.76103,6.324358 0.71061,0.213181 1.91863,0.568482 3.51748,0.959313 1.81204,0.426361 2.45158,0.994843 2.45158,2.096276 0,1.421204 -1.17249,2.380517 -2.949,2.380517 -1.10143,0 -2.1318,-0.284241 -3.44642,-1.030373 -0.99484,-0.568482 -1.52779,-0.959313 -2.80688,-2.025216 z"
         style="font-family:Ornitons-Bold;-inkscape-font-specification:Ornitons-Bold"
         id="path839" />
    </g>
  </g>
</svg>
