<svg height="43.616314mm" viewBox="0 0 232.19609 88.606372" width="114.29807mm" xmlns="http://www.w3.org/2000/svg"><g transform="translate(-505.96994 -955.67951)"><path d="m593.23206 986.31403h143.21399v55.50399h-143.21399z" fill="#fff"/><path d="m508.77686 957.53412h26.724142v27.066759h-26.724142z" fill="#0fc"/><path d="m508.09164 985.79993h27.923302v55.50399h-27.923302z" fill="#0055d4"/><path d="m537.04279 986.14246h27.580685v55.50399h-27.580685z" fill="#fff"/><path d="m560.68341 985.11475h32.377331v27.751993h-32.377331z" fill="#fff"/><g fill="none" stroke="#000" stroke-width="3.87627"><path d="m507.90808 957.61765v84.30265l56.82168.4133v-28.3075h28.30752v28.3075h143.19062v-56.82168h-200.42555v-27.89427z"/><path d="m507.42944 985.39094h28.30756v55.78856"/><path d="m593.03092 985.79159v28.23451"/><path d="m613.90631 1004.5213h15.49682"/><path d="m613.49306 1024.1507h36.77914"/><path d="m651.0987 985.71852v55.99518"/><path d="m678.78632 1013.6128v27.8943"/><path d="m706.88724 1013.8194v27.8943"/></g></g></svg>