<?xml version="1.0" encoding="UTF-8" standalone="no"?>
<!-- Created with Inkscape (http://www.inkscape.org/) -->

<svg
   xmlns:dc="http://purl.org/dc/elements/1.1/"
   xmlns:cc="http://creativecommons.org/ns#"
   xmlns:rdf="http://www.w3.org/1999/02/22-rdf-syntax-ns#"
   xmlns:svg="http://www.w3.org/2000/svg"
   xmlns="http://www.w3.org/2000/svg"
   xmlns:sodipodi="http://sodipodi.sourceforge.net/DTD/sodipodi-0.dtd"
   xmlns:inkscape="http://www.inkscape.org/namespaces/inkscape"
   width="5425.7588"
   height="1020.9942"
   viewBox="0 0 5425.7588 1020.9942"
   id="svg4774"
   version="1.1"
   inkscape:version="0.92.5 (2060ec1f9f, 2020-04-08)"
   sodipodi:docname="konami-clear.svg">
  <defs
     id="defs4776" />
  <sodipodi:namedview
     id="base"
     pagecolor="#ffffff"
     bordercolor="#666666"
     borderopacity="1.0"
     inkscape:pageopacity="0.0"
     inkscape:pageshadow="2"
     inkscape:zoom="0.25000001"
     inkscape:cx="2591.5804"
     inkscape:cy="938.87242"
     inkscape:document-units="px"
     inkscape:current-layer="layer1"
     showgrid="false"
     showguides="true"
     units="px"
     inkscape:window-width="2488"
     inkscape:window-height="1376"
     inkscape:window-x="72"
     inkscape:window-y="27"
     inkscape:window-maximized="1"
     fit-margin-top="0"
     fit-margin-left="0"
     fit-margin-right="0"
     fit-margin-bottom="0" />
  <metadata
     id="metadata4779">
    <rdf:RDF>
      <cc:Work
         rdf:about="">
        <dc:format>image/svg+xml</dc:format>
        <dc:type
           rdf:resource="http://purl.org/dc/dcmitype/StillImage" />
        <dc:title></dc:title>
      </cc:Work>
    </rdf:RDF>
  </metadata>
  <g
     inkscape:label="Layer 1"
     inkscape:groupmode="layer"
     id="layer1"
     transform="translate(351.99997,43.361798)">
    <g
       id="g5425"
       transform="matrix(2.3182223,0,0,2.3182223,-743.36683,-2214.5792)"
       style="fill:#0000ff">
      <path
         sodipodi:nodetypes="ccsccccsccc"
         inkscape:connector-curvature="0"
         id="path5421"
         d="m 588.14626,936.58723 -22.2859,62.12083 c -37.18187,96.04544 -102.87956,76.94224 -153.09179,92.59004 -34.53898,10.7634 -54.02563,47.1606 -68.56713,85.9197 l -17.77783,55.3687 H 168.82197 l 25.61548,-71.1808 c 35.33678,-89.452 110.21577,-66.9028 159.35211,-90.3456 32.04308,-15.2877 49.60388,-46.8905 58.43306,-79.8412 l 18.8408,-54.63167 z"
         style="fill:#ff7b18;fill-opacity:1;fill-rule:evenodd;stroke:none;stroke-width:1.32150757px;stroke-linecap:butt;stroke-linejoin:miter;stroke-opacity:1" />
      <path
         style="fill:#ff0018;fill-opacity:1;fill-rule:evenodd;stroke:none;stroke-width:1.32150757px;stroke-linecap:butt;stroke-linejoin:miter;stroke-opacity:1"
         d="m 273.32217,1377.0084 22.28591,-62.1208 c 37.18187,-96.0454 101.46844,-76.891 151.00843,-94.5519 34.87271,-12.4321 51.75966,-33.606 70.65049,-83.9577 l 17.77782,-55.3688 h 158.60284 l -25.6392,69.9504 c -46.36527,96.5255 -109.97359,65.621 -159.14966,88.9801 -29.37321,13.9528 -51.96371,53.262 -60.79288,86.2129 l -17.6609,50.8558 z"
         id="path5423"
         inkscape:connector-curvature="0"
         sodipodi:nodetypes="ccsccccsccc" />
    </g>
    <path
       style="fill:#ececec;fill-opacity:1;fill-rule:nonzero;stroke:none;stroke-width:6797.23876953;stroke-linecap:square;stroke-linejoin:miter;stroke-miterlimit:4;stroke-dasharray:none;stroke-opacity:1;paint-order:markers stroke fill"
       d="M 920.66264,109.95688 V 839.1076 H 1124.2541 V 466.65259 l 237.0272,363.60274 h 234.1926 L 1336.0497,434.75764 1585.1675,109.95688 H 1362.7979 L 1124.2541,420.93207 V 109.95688 Z"
       id="rect11184"
       inkscape:connector-curvature="0" />
    <path
       style="fill:#ececec;fill-opacity:1;fill-rule:nonzero;stroke:none;stroke-width:6571.85693359;stroke-linecap:square;stroke-linejoin:miter;stroke-miterlimit:4;stroke-dasharray:none;stroke-opacity:1;paint-order:markers stroke fill"
       d="M 2339.6476,109.95688 V 839.1076 h 190.3173 V 305.35822 l 238.983,533.74938 h 277.3937 V 109.95688 H 2856.0254 V 651.4801 L 2620.7213,109.95688 Z"
       id="path11189"
       inkscape:connector-curvature="0"
       sodipodi:nodetypes="ccccccccccc" />
    <path
       style="fill:#ececec;fill-opacity:1;fill-rule:nonzero;stroke:none;stroke-width:6571.85693359;stroke-linecap:square;stroke-linejoin:miter;stroke-miterlimit:4;stroke-dasharray:none;stroke-opacity:1;paint-order:markers stroke fill"
       d="M 3370.9119,109.95688 3085.0703,839.1076 h 188.5078 l 50.5372,-145.5004 h 292.6876 l 50.5006,145.5004 h 219.0811 L 3601.0933,109.95688 Z m 99.6081,162.21128 98.6544,284.24012 h -197.3952 z"
       id="path11195"
       inkscape:connector-curvature="0" />
    <path
       style="fill:#ececec;fill-opacity:1;fill-rule:nonzero;stroke:none;stroke-width:6571.85693359;stroke-linecap:square;stroke-linejoin:miter;stroke-miterlimit:4;stroke-dasharray:none;stroke-opacity:1;paint-order:markers stroke fill"
       d="m 3930.988,109.95688 v 729.14977 h 170.3979 V 251.82343 l 163.7451,587.28088 h 166.3864 l 163.436,-587.28088 v 587.28088 h 175.8321 V 109.95456 H 4474.3708 L 4354.4328,594.7848 4228.6563,109.95456 Z"
       id="path11197"
       inkscape:connector-curvature="0"
       sodipodi:nodetypes="cccccccccccccc" />
    <path
       sodipodi:nodetypes="ccccc"
       inkscape:connector-curvature="0"
       id="path11201"
       d="m 4870.1658,109.95688 v 729.14977 h 203.593 V 109.95688 Z"
       style="fill:#ececec;fill-opacity:1;fill-rule:nonzero;stroke:none;stroke-width:6797.23876953;stroke-linecap:square;stroke-linejoin:miter;stroke-miterlimit:4;stroke-dasharray:none;stroke-opacity:1;paint-order:markers stroke fill" />
    <path
       style="fill:#ececec;fill-opacity:1;fill-rule:nonzero;stroke:none;stroke-width:6797.23876953;stroke-linecap:square;stroke-linejoin:miter;stroke-miterlimit:4;stroke-dasharray:none;stroke-opacity:1;paint-order:markers stroke fill"
       d="m 1934.4924,104.41851 c -192.4258,0 -378.9211,106.76381 -378.9211,351.86795 0,312.70257 180.1934,392.74722 391.4393,392.74722 148.6548,0 346.8432,-76.91353 346.8432,-389.61838 0,-246.66828 -209.1844,-354.99679 -359.3614,-354.99679 z m 3.1299,140.40186 c 123.3952,0 148.1888,132.32089 148.1888,233.89842 0,101.57807 -31.781,230.33987 -148.1888,230.33987 -108.9379,0 -171.6611,-66.17022 -171.6611,-230.33987 0,-164.16875 48.2661,-233.89842 171.6611,-233.89842 z"
       id="path11205"
       inkscape:connector-curvature="0"
       sodipodi:nodetypes="ssssssscss" />
  </g>
</svg>
