<svg id="Layer_1" data-name="Layer 1" xmlns="http://www.w3.org/2000/svg" xmlns:xlink="http://www.w3.org/1999/xlink" viewBox="0 0 3839 1221.29993">
  <defs>
    <linearGradient id="Dégradé_sans_nom" data-name="Dégradé sans nom" x1="637.70001" y1="2488.69208" x2="637.70001" y2="1887.19202" gradientTransform="translate(1523.5 -1268.39203)" gradientUnits="userSpaceOnUse">
      <stop offset="0" stop-color="#48407d"/>
      <stop offset="1" stop-color="#6a93c9"/>
    </linearGradient>
    <linearGradient id="Dégradé_sans_nom_2" data-name="Dégradé sans nom 2" x1="-867.49997" y1="2488.79205" x2="-867.49997" y2="1887.19202" xlink:href="#Dégradé_sans_nom"/>
    <linearGradient id="Dégradé_sans_nom_3" data-name="Dégradé sans nom 3" x1="31.10004" y1="2488.69208" x2="31.10004" y2="1887.19202" xlink:href="#Dégradé_sans_nom"/>
    <linearGradient id="Dégradé_sans_nom_4" data-name="Dégradé sans nom 4" x1="1241" y1="2488.69208" x2="1241" y2="1887.19202" xlink:href="#Dégradé_sans_nom"/>
    <linearGradient id="Dégradé_sans_nom_5" data-name="Dégradé sans nom 5" x1="1895.90002" y1="2489.69196" x2="1895.90002" y2="1738.39203" xlink:href="#Dégradé_sans_nom"/>
  </defs>
  <g>
    <g>
      <polygon points="1423.2 184.3 718.8 184.3 718.8 410.7 760.5 410.7 760.5 225.9 1464.9 225.9 1464.9 0 718.8 0 718.8 41.8 1423.2 41.8 1423.2 184.3" style="fill: #fff"/>
      <polygon points="3078.6 184.3 2374 184.3 2374 410.7 2415.8 410.7 2415.8 225.9 3120.2 225.9 3120.2 0 2374 0 2374 41.8 3078.6 41.8 3078.6 184.3" style="fill: #fff"/>
      <polygon points="1464.9 410.7 1888.1 410.7 1888.1 41.8 2267.6 41.8 2267.6 0 1844.8 0 1844.8 369.1 1464.9 369.1 1464.9 410.7" style="fill: #fff"/>
    </g>
    <g>
      <path d="M2161.2,618.8c-246.2,0-359.9,159.3-359.9,308.2v293.30005h127.6v-293.3c0-107.7,57.7-206.5,232.30005-206.5s232.3,98.9,232.3,206.5v293.3h127.6001v-293.3C2521.1001,778.1,2407.5,618.8,2161.2,618.8Z" transform="translate(0 0)" style="fill: url(#Dégradé_sans_nom)"/>
      <path d="M952.2,618.8c-141.2,0-238.5,52.4-296.1,125.1-57.6-72.7-155-125.1-296.1-125.1C113.7,618.8,0,778.1,0,927.1v293.3H127.6V927.1c0-107.7,57.7-206.5,232.3-206.5s232.3,98.9,232.3,206.5v293.3H719.8V927.1c0-107.7,57.7-206.5,232.3-206.5s232.3,98.9,232.3,206.5v293.3H1312V927.1C1312.1,778.1,1198.4,618.8,952.2,618.8Z" transform="translate(0 0)" style="fill: url(#Dégradé_sans_nom_2)"/>
      <path d="M1490.80005,1220.30005h127.6V828h-127.6Zm0-601.50006V720.5h127.6V618.8Z" transform="translate(0 0)" style="fill: url(#Dégradé_sans_nom_3)"/>
      <path d="M2700.7,1220.30005h127.6001V828H2700.7Zm0-601.50006V720.5h127.6001V618.8Z" transform="translate(0 0)" style="fill: url(#Dégradé_sans_nom_4)"/>
      <path d="M3715.5,470c-246.2,0-359.8999,159.3-359.8999,308.2V913.1c0,107.7-57.7,206.5-232.30005,206.5h-123.5v101.69995h123.5c246.2,0,359.8999-159.3,359.8999-308.2V778.2c0-107.7,57.69995-206.5,232.3-206.5H3839V470Z" transform="translate(0 0)" style="fill: url(#Dégradé_sans_nom_5)"/>
    </g>
  </g>
</svg>
