<?xml version="1.0" encoding="UTF-8" standalone="no"?>
<svg
   version="1.1"
   width="315.06201"
   height="162.90639"
   id="svg8"
   xmlns="http://www.w3.org/2000/svg"
   xmlns:svg="http://www.w3.org/2000/svg">
  <defs
     id="defs8" />
  <path
     d="m 89.781006,49.203194 c 9.302687,7.647608 15.190284,16.707984 16.687504,28.875 0.50495,11.030156 -3.05489,20.879374 -9.687504,29.703126 -6.523474,7.12146 -15.849198,12.20761 -25.535156,12.91015 -13.522009,0.26569 -23.019221,-2.88154 -32.84375,-12.27343 -7.730471,-8.07215 -11.296568,-17.412563 -11.082031,-28.632815 0.814599,-9.005852 3.508448,-16.332294 9.210937,-23.332031 0.502734,-0.626485 1.005469,-1.252969 1.523438,-1.898438 13.1446,-14.68348 35.882717,-16.439224 51.726562,-5.351562 z"
     fill="#ff0000"
     id="path1" />
  <path
     d="m 115.53101,46.453194 c 41.09919,0 41.09919,0 50,8 4.63057,6.007598 5.85266,12.598369 5,20 -1.79984,6.035302 -4.51321,9.603476 -9,14 0.4241,0.741614 0.8482,1.483228 1.28515,2.247314 1.57057,2.753462 3.13536,5.510107 4.69629,8.269043 0.67673,1.193369 1.35576,2.385439 2.03711,3.576169 0.979,1.71183 1.9491,3.42873 2.91895,5.14575 0.87978,1.54748 0.87978,1.54748 1.77734,3.12623 1.28516,2.63549 1.28516,2.63549 1.28516,5.63549 -6.6,0 -13.2,0 -20,0 -1.83831,-3.45577 -3.67083,-6.9144 -5.5,-10.375 -0.52465,-0.98484 -1.0493,-1.96968 -1.58985,-2.98437 -0.49629,-0.94102 -0.99258,-1.88203 -1.5039,-2.85156 -0.46084,-0.869315 -0.92168,-1.738627 -1.39649,-2.634281 -1.00976,-2.154785 -1.00976,-2.154785 -1.00976,-4.154785 -3.63,0 -7.26,0 -11,0 0,7.589996 0,15.179996 0,22.999996 -5.94,0 -11.88,0 -18,0 0,-23.099996 0,-46.199996 0,-69.999996 z m 18,15 c 0,5.61 0,11.22 0,17 2.81531,0.09281 2.81531,0.09281 5.6875,0.1875 1.58361,0.05221 1.58361,0.05221 3.19921,0.105469 3.50394,-0.329731 5.31027,-1.207122 8.11329,-3.292969 1.54586,-3.091738 1.29359,-5.594296 1,-9 -2.21863,-2.907171 -3.51945,-3.839816 -7,-5 -1.89471,-0.06855 -3.79169,-0.0848 -5.6875,-0.0625 -1.75313,0.02062 -3.50625,0.04125 -5.3125,0.0625 z"
     fill="#000000"
     id="path2" />
  <path
     d="m 269.53101,0.45319366 c 5.01703,-0.0992263 10.03348,-0.17163587 15.05127,-0.21972656 1.70517,-0.0200571 3.41029,-0.04731 5.11523,-0.0820313 2.45769,-0.0487808 4.91447,-0.0712694 7.37256,-0.0888672 0.75649,-0.0206451 1.51297,-0.0412903 2.29239,-0.062560995449 C 304.50991,-0.00215145 307.57929,0.8665285 311.53101,4.4531937 c 3.8336,6.5552263 3.43038,13.0820933 3.40405,20.5192873 0.006,1.367351 0.0127,2.734697 0.0208,4.102036 0.0179,3.698421 0.0168,7.396604 0.0111,11.095055 -0.003,3.093848 0.003,6.187651 0.009,9.281492 0.014,7.301774 0.0125,14.603431 0.001,21.905206 -0.0115,7.51923 0.003,15.038104 0.0294,22.557287 0.0222,6.469023 0.0288,12.937943 0.0229,19.407003 -0.003,3.85786 -10e-4,7.71549 0.0163,11.57332 0.0155,3.62895 0.0115,7.25737 -0.007,10.8863 -0.005,1.95695 0.009,3.91392 0.0237,5.87082 -0.059,7.07199 -0.67005,11.81107 -4.53097,17.80219 -4.02007,3.57677 -8.22139,3.3975 -13.36329,3.29297 -0.79198,-0.004 -1.58396,-0.008 -2.39994,-0.0129 -2.51678,-0.0167 -5.03274,-0.0544 -7.54927,-0.0926 -1.71158,-0.0151 -3.42317,-0.0287 -5.13477,-0.041 -4.18456,-0.033 -8.36851,-0.0847 -12.55273,-0.14647 0,-3.96 0,-7.92 0,-12 10.89,0 21.78,0 33,0 0,-45.54 0,-91.079996 0,-137.999996 -10.89,0 -21.78,0 -33,0 0,-3.9600003 0,-7.9200003 0,-12.00000034 z"
     fill="#000000"
     id="path3" />
  <path
     d="m 17.894287,0.16022466 c 0.791983,0.004245 1.583966,0.00849 2.399948,0.0128632 2.516777,0.016724 5.032738,0.0543633 7.549271,0.0926056 1.711577,0.015055 3.423166,0.028742 5.134765,0.0410156 4.184557,0.0329855 8.368508,0.0847234 12.552735,0.14648437 0,3.95999992 0,7.92000002 0,12.00000062 -10.89,0 -21.78,0 -33,0 0,45.54 0,91.079996 0,137.999996 10.89,0 21.78,0 33,0 0,3.96 0,7.92 0,12 -4.856304,0.0994 -9.712008,0.17171 -14.569092,0.21973 -1.649845,0.02 -3.299619,0.0473 -4.949219,0.082 -2.380792,0.0489 -4.76064,0.0713 -7.141846,0.0889 -0.729453,0.0206 -1.458906,0.0413 -2.210464,0.0626 -5.477899,0.002 -8.7342352,-1.10353 -13.1293791,-4.45318 -3.87962104,-6.50809 -3.43028304,-13.11124 -3.40405304,-20.51929 -0.0057,-1.36735 -0.01267,-2.7347 -0.0208,-4.10203 -0.01789,-3.69842 -0.01677,-7.39661 -0.01106,-11.09506 0.0031,-3.09385 -0.003,-6.18765 -0.009,-9.28149 -0.01403,-7.30178 -0.0125,-14.603427 -0.0011,-21.905202 0.01148,-7.519231 -0.0026,-15.038104 -0.0294,-22.557288 -0.02219,-6.469027 -0.02879,-12.937944 -0.02292,-19.407007 0.0034,-3.857859 9.98e-4,-7.71549 -0.01625,-11.573316 -0.0155200006,-3.62895 -0.01146,-7.257374 0.0073,-10.886303 0.0054,-1.95695 -0.0088,-3.913924 -0.02370000062,-5.870825 C 0.05901286,14.183446 0.67010186,9.4443599 4.5310289,3.4532434 8.5510748,-0.12357972 12.752396,0.05569326 17.894287,0.16022466 Z"
     fill="#000000"
     id="path4" />
  <path
     d="m 180.53101,46.453194 c 14.85,0 29.7,0 45,0 2,11 2,11 2,15 -9.57,0 -19.14,0 -29,0 0,4.29 0,8.58 0,13 6.6,0 13.2,0 20,0 0.66,4.62 1.32,9.24 2,14 -7.26,0 -14.52,0 -22,0 0,4.29 0,8.58 0,12.999996 10.23,0 20.46,0 31,0 0.66,4.62 1.32,9.24 2,14 -1,1 -1,1 -3.01845,1.12026 -0.88603,-0.002 -1.77205,-0.004 -2.68492,-0.007 -1.01502,-1.2e-4 -2.03004,-2.4e-4 -3.07581,-3.7e-4 -1.07447,-0.005 -2.14895,-0.0102 -3.25598,-0.0155 -0.9819,-0.001 -1.96381,-0.002 -2.97546,-0.003 -3.68398,-0.005 -7.36793,-0.0192 -11.05188,-0.0321 -8.22938,-0.0206 -16.45875,-0.0412 -24.9375,-0.0625 0,-23.099996 0,-46.199996 0,-69.999996 z"
     fill="#000000"
     id="path5" />
  <path
     d="m 285.53101,49.453194 c 0.98437,1.8125 0.98437,1.8125 1,4 -0.77735,2.578125 -0.77735,2.578125 -1.9375,5.25 -0.57041,1.338047 -0.57041,1.338047 -1.15235,2.703125 -0.30035,0.675469 -0.6007,1.350938 -0.91015,2.046875 -0.92813,-0.144375 -1.85625,-0.28875 -2.8125,-0.4375 -0.63551,-0.08508 -1.27102,-0.170156 -1.92579,-0.257812 -1.64648,-0.221807 -3.28946,-0.47021 -4.92968,-0.734375 -6.34564,-0.867033 -6.34564,-0.867033 -12.33203,0.992187 -4.50306,3.658736 -6.35189,7.734104 -7,13.4375 -0.59551,8.249993 0.2683,15.143489 5.125,22 3.95811,2.753466 7.09348,3.284696 11.875,2.999996 3.75028,-0.76941 7.36683,-1.797996 11,-2.999996 1.0329,1.931086 2.05098,3.870116 3.0625,5.812496 0.56847,1.07895 1.13695,2.15789 1.72265,3.26953 1.21485,2.91797 1.21485,2.91797 0.21485,5.91797 -10.53361,4.95212 -22.71184,5.89987 -33.72266,2.02735 -7.99228,-3.60544 -12.62807,-9.11283 -16.27734,-17.027346 -2.01995,-5.672451 -2.38622,-10.860136 -2.375,-16.8125 0.002,-0.886392 0.003,-1.772783 0.005,-2.686035 0.12244,-6.525379 0.98907,-11.815734 4.3701,-17.501465 0.59812,-1.0725 1.19625,-2.145 1.8125,-3.25 11.09823,-13.952061 29.29168,-16.734877 45.1875,-8.75 z"
     fill="#000000"
     id="path6" />
</svg>
