<?xml version="1.0" encoding="UTF-8" standalone="no"?>
<svg
   width="1059.2145pt"
   height="408.85388pt"
   viewBox="0 0 1059.2145 408.85388"
   version="1.1"
   id="svg117"
   xmlns:xlink="http://www.w3.org/1999/xlink"
   xmlns="http://www.w3.org/2000/svg"
   xmlns:svg="http://www.w3.org/2000/svg">
  <defs
     id="defs117">
    <linearGradient
       id="linearGradient117">
      <stop
         style="stop-color:#258103;stop-opacity:1;"
         offset="0.32941177"
         id="stop117" />
      <stop
         style="stop-color:#e6f500;stop-opacity:1;"
         offset="1"
         id="stop118" />
    </linearGradient>
    <linearGradient
       xlink:href="#linearGradient117"
       id="linearGradient120"
       x1="172.13681"
       y1="98.837204"
       x2="172.22247"
       y2="109.11681"
       gradientUnits="userSpaceOnUse"
       gradientTransform="matrix(43.199633,0,0,43.199633,-7014.8542,-4269.0556)" />
    <linearGradient
       xlink:href="#linearGradient117"
       id="linearGradient132"
       gradientUnits="userSpaceOnUse"
       x1="172.13681"
       y1="98.837204"
       x2="172.22247"
       y2="109.11681"
       gradientTransform="matrix(43.199633,0,0,43.199633,-7014.8542,-4269.0556)" />
    <linearGradient
       xlink:href="#linearGradient117"
       id="linearGradient133"
       gradientUnits="userSpaceOnUse"
       x1="172.13681"
       y1="98.837204"
       x2="172.22247"
       y2="109.11681"
       gradientTransform="matrix(43.199633,0,0,43.199633,-7014.8542,-4269.0556)" />
    <linearGradient
       xlink:href="#linearGradient117"
       id="linearGradient134"
       gradientUnits="userSpaceOnUse"
       x1="172.13681"
       y1="98.837204"
       x2="172.22247"
       y2="109.11681"
       gradientTransform="matrix(43.199633,0,0,43.199633,-7014.8542,-4269.0556)" />
    <linearGradient
       xlink:href="#linearGradient117"
       id="linearGradient135"
       gradientUnits="userSpaceOnUse"
       x1="172.13681"
       y1="98.837204"
       x2="172.22247"
       y2="109.11681"
       gradientTransform="matrix(43.199633,0,0,43.199633,-7014.8542,-4269.0556)" />
  </defs>
  <g
     id="g1"
     transform="translate(8.3675766e-6,2.5042803e-4)">
    <path
       d="m 111.97353,344.21467 h -4.14717 v 39.91649 h -4.66556 l -5.183964,-36.80612 q -3.110376,0 -10.36792,-1.03679 -7.257544,-1.03679 -9.849524,-2.07358 -1.036792,0 -4.147168,-0.5184 -3.110376,-1.03679 -3.628772,-1.55519 -2.073584,-1.03679 -6.739148,-3.11037 -4.147168,-2.07359 -5.18396,-3.11038 l -3.628772,-3.62877 q -1.555188,-1.55519 -3.110376,-2.59198 -1.036792,-1.03679 -1.555188,-1.55519 0,-1.03679 -2.59198,-4.14717 -2.073584,-3.62877 -3.110376,-4.66556 -1.036792,-1.55519 -3.110376,-5.70236 -1.555188,-4.66556 -1.555188,-5.70235 -1.036792,-1.03679 -2.59198,-5.18396 -1.036792,-4.14717 -1.036792,-5.18396 v -17.62547 -13.99669 q 0,-2.07358 2.59198,-7.25754 2.59198,-5.18396 3.628772,-6.73915 -1.555188,0 -5.702356,-0.5184 -4.147168,-0.51839 -8.294336,-0.51839 -4.147168,-0.5184 -8.294336,-1.03679 -4.147168,-0.5184 -5.702356,-0.5184 -1.036792,0 -3.110376,-1.03679 -2.0735837,-1.03679 -3.1103757,-2.07359 -1.036792,0 -3.110376,-2.07358 -1.555188,-2.59198 -2.5919799,-2.59198 0,-0.5184 -1.036792,-3.62877 Q 0.51838837,236.3883 -7.6293945e-6,235.35151 v -6.73915 -7.25754 q 0,-0.5184 1.0367920293945,-5.18396 1.036792,-4.66557 1.036792,-6.22076 1.0367919,-2.07358 2.5919799,-6.73914 2.073584,-5.18396 3.628772,-10.36792 2.0735837,-5.70236 3.6287717,-10.36792 1.555188,-4.66557 2.073584,-6.22076 0.518396,-2.59198 5.18396,-9.84952 4.665564,-7.77594 6.220752,-12.4415 1.036792,-2.07359 3.628772,-8.29434 2.59198,-6.22075 5.702356,-13.4783 3.110376,-7.25754 5.702356,-13.47829 2.59198,-6.73915 3.628772,-9.33113 2.59198,-6.22075 6.739148,-11.923107 4.665564,-6.220752 9.331128,-11.923108 4.665564,-6.220752 8.812732,-12.9599 4.147168,-6.739148 6.220752,-14.515088 0.518396,-0.518396 2.073584,-3.110376 1.555188,-2.59198 3.110376,-5.18396 2.073584,-3.110376 3.628772,-5.702356 2.073584,-3.110376 3.110376,-4.665564 0,-0.518396 1.555188,-3.628772 2.073584,-3.628772 3.110376,-5.702356 1.555188,-1.555188 4.665564,-5.18396 3.628772,-4.147168 4.665562,-4.665564 1.03679,-2.073584 5.18396,-6.220752 4.66557,-4.6655637 5.70236,-5.7023557 0.51839,0 3.62877,-2.59198 3.11038,-2.59198 4.14717,-3.628772 0.51839,0 3.62877,-1.036792 1.03679,-0.51839596 2.59198,-1.0367919582 h 9.84952 9.33113 L 151.37162,6.2204773 q 1.0368,0.518396 2.59198,3.628772 2.07359,3.1103757 3.11038,4.1471677 0,1.036792 1.55519,6.220752 2.07358,5.18396 3.11037,7.77594 1.0368,1.555188 3.62878,8.294336 2.59198,6.220752 2.59198,7.77594 0,1.036792 0.51839,4.147168 1.03679,2.59198 2.07359,5.702356 1.03679,3.110376 1.55518,6.220752 1.0368,2.59198 1.0368,4.147168 0,1.036792 1.03679,5.702356 1.55519,4.147168 1.55519,6.220752 0.51839,3.110376 2.07358,8.812732 1.55519,5.18396 3.11038,10.886316 1.55518,5.702355 2.59197,10.367915 1.0368,4.66557 1.55519,5.70236 0,2.59198 2.07359,6.73915 2.59198,3.62877 2.59198,7.25754 1.03679,3.62877 2.07358,10.36792 1.55519,6.22075 1.55519,7.25755 v 12.4415 6.22075 q 0,1.03679 -1.55519,3.11038 -1.03679,1.55519 -2.07358,2.59198 -1.0368,1.55519 -4.14717,6.22075 -3.11038,4.66556 -3.62877,5.18396 -1.03679,1.03679 -5.70236,4.66556 -4.14717,3.11038 -5.18396,4.14717 -1.03679,0 -4.66556,1.03679 -3.11038,1.0368 -4.66557,1.0368 h -1.03679 -1.55519 q -0.51839,0 -2.59198,-1.0368 -2.07358,-1.03679 -2.59198,-1.03679 -1.03679,-1.03679 -1.55518,-2.59198 -1.0368,-3.11037 -1.0368,-3.62877 -1.03679,-1.03679 -2.07358,-4.14717 -0.5184,-3.11037 -1.55519,-3.62877 0,-2.07358 -1.55519,-6.22075 -1.03679,-4.66557 -1.03679,-5.70236 0,-1.55519 -0.51839,-5.18396 0,-4.14717 -0.5184,-8.81273 -0.5184,-4.66556 -1.03679,-8.81273 0,-4.14717 0,-5.18396 -1.03679,-3.11038 -1.55519,-5.70236 -0.5184,-2.59198 -1.03679,-4.66556 -0.5184,-2.59198 -0.5184,-3.62877 -1.03679,-5.18396 -4.66556,-12.44151 -3.11038,-7.25754 -4.14717,-9.849521 -0.5184,-2.073584 -2.59198,-9.331128 -2.07358,-7.77594 -2.59198,-10.36792 -1.03679,-2.59198 -2.59198,-6.739148 -1.03679,-4.147168 -2.59198,-8.294336 -2.07358,-4.665564 -3.62877,-9.849524 h -3.11038 q 0,1.555188 0,6.220752 0.5184,4.665564 0.5184,10.36792 0,5.18396 0,9.849524 0.51839,4.665564 0.51839,6.220752 0,2.073584 -1.55518,8.294336 -1.0368,5.702353 -1.55519,7.257543 0,-1.03679 -1.55519,-4.665563 -1.03679,-3.628772 -1.03679,-4.665564 -0.5184,-1.555188 -1.03679,-4.665564 -0.5184,-3.628772 -1.0368,-7.257544 0,-4.147168 -0.51839,-7.77594 -0.5184,-3.628772 -1.03679,-5.18396 l -4.66557,10.886316 v 51.321199 l -3.110374,4.66557 -4.147168,-4.66557 V 87.608649 q -1.036792,1.036792 -3.110376,3.628772 -1.555188,2.59198 -3.628772,5.702356 -2.073584,2.59198 -3.628772,5.183963 -1.555188,2.59198 -2.073584,4.14716 -0.518396,1.0368 -3.110376,6.73915 -2.59198,5.18396 -5.702356,12.44151 -3.110376,7.25754 -6.739148,14.51508 -3.110376,7.25755 -4.665564,11.40472 -0.518396,2.07358 -2.59198,4.66556 -2.073584,2.07358 -2.59198,4.14717 -1.036792,3.11037 -3.110376,8.29433 -1.555188,5.18396 -3.628772,10.36792 -1.555188,5.18396 -3.110376,9.84953 -1.555188,4.14717 -2.073584,4.66556 0,1.03679 1.036792,5.18396 1.555188,4.14717 1.555188,5.70236 1.555188,0 6.220752,0.51839 5.18396,0 10.36792,0 5.702356,0 10.36792,0 5.18396,0 7.77594,-0.51839 0.518396,0 3.110376,0 2.59198,-0.5184 5.702356,-1.03679 3.628772,-0.5184 6.739148,-0.5184 3.110376,-0.5184 4.147166,-0.5184 2.07359,-0.51839 5.70236,-1.03679 3.62877,-1.03679 7.25754,-1.55519 3.62877,-0.51839 6.22075,-1.03679 2.59198,-0.51839 3.11038,-0.51839 h 24.36461 20.21745 q 1.55518,1.03679 7.77594,3.11037 6.73914,2.07359 9.33112,3.11038 1.03679,1.03679 5.18396,5.70235 4.66557,4.14717 5.70236,6.22076 0.51839,1.55518 2.59198,5.70235 2.59198,4.14717 2.59198,5.70236 v 13.99669 16.58867 q 0,0.5184 -1.03679,3.62877 -1.0368,3.11038 -1.0368,4.14717 -0.51839,1.03679 -1.55518,3.62877 -1.0368,2.07359 -2.59198,4.66557 -1.55519,2.59198 -3.11038,5.18396 -1.55519,2.59198 -2.07358,4.14717 -0.5184,1.55518 -1.55519,3.11037 -1.03679,1.03679 -2.07359,2.59198 -0.51839,1.03679 -1.03679,2.07359 -2.07358,2.07358 -5.18396,6.22075 -3.11037,3.62877 -4.14716,4.66556 0,1.03679 -2.07359,3.11038 -1.55519,1.55519 -2.59198,2.59198 -1.03679,1.03679 -3.62877,3.11037 -2.59198,2.07359 -5.70236,4.66557 -2.59198,2.07358 -5.18396,4.14716 -2.07358,1.55519 -2.59198,2.07359 -1.03679,1.03679 -4.66556,3.11037 -3.11038,2.07359 -4.14717,3.11038 -1.03679,0 -3.62877,2.07358 -2.59198,1.55519 -6.22075,3.62878 -3.11038,1.55518 -6.22075,3.62877 -2.59198,1.55519 -3.11038,2.07358 -0.5184,0 -2.07358,1.55519 -0.5184,0.5184 -0.5184,1.03679 v 3.11038 4.66556 q 0,1.55519 0.5184,7.25755 0.51839,6.22075 0.51839,12.9599 0.5184,6.73914 1.03679,12.4415 0.5184,5.70236 0.5184,6.73915 v 18.66225 18.14386 q 0,1.0368 -0.5184,3.62878 -0.51839,3.11037 -1.03679,6.22075 0,3.11037 -0.51839,5.70235 -0.5184,3.11038 -0.5184,3.62878 -1.03679,-1.55519 -2.07358,-6.73915 -0.5184,-5.18396 -1.55519,-7.25755 -0.5184,-4.14716 -1.55519,-15.03348 -0.5184,-10.36792 -1.55519,-22.80942 -0.51839,-11.92311 -1.03679,-22.80943 -0.5184,-10.36792 -0.5184,-14.51509 z M 79.832976,260.23452 q 0,1.03679 0,3.62877 0,2.07358 0.518396,4.66556 0.518396,2.59198 1.036792,5.70236 0,2.07358 1.555188,6.22075 2.073584,3.62877 4.147168,5.70236 0,0.51839 4.147168,5.18396 4.665564,4.66556 6.739148,6.22075 0.518396,0 2.591984,1.55519 2.07358,1.03679 2.59198,1.03679 h 15.55188 12.4415 q 0.5184,0 2.59198,-1.03679 2.59198,-1.0368 5.18396,-2.07359 2.59198,-1.55519 5.18396,-3.11037 2.59198,-1.55519 3.62877,-2.59198 1.03679,-0.5184 3.11038,-2.59198 2.07358,-2.07359 3.11037,-2.59198 0.5184,-2.07359 2.59198,-5.70236 2.59198,-4.14717 2.59198,-6.22075 v -6.73915 -7.25754 q 0,-1.0368 -2.59198,-5.18396 -2.07358,-4.66557 -2.59198,-5.70236 -1.03679,-0.5184 -4.66556,-2.59198 -3.11038,-2.59198 -4.14717,-2.59198 -0.51839,-1.03679 -6.22075,-1.55519 -5.70236,-1.03679 -7.77594,-1.03679 h -6.73915 -7.25754 q -2.59198,0 -7.25755,0.5184 -4.66556,0 -9.84952,0.51839 -4.665564,0 -8.812732,0.5184 -3.628772,0.51839 -4.147168,1.03679 -1.036792,0 -3.110376,1.03679 -1.555188,0.5184 -2.59198,1.03679 0,2.07359 -1.036792,7.25755 -0.518396,5.18396 -0.518396,6.73915 z"
       id="text132"
       style="font-size:518.396px;font-family:'a dripping marker';-inkscape-font-specification:'a dripping marker, Normal';white-space:pre;display:inline;fill:url(#linearGradient132);stroke:#ababab;stroke-width:0"
       transform="scale(1.096755,0.91178065)"
       aria-label="S" />
    <path
       d="m 210.46862,348.36183 q -1.03679,0 -4.66556,1.0368 -3.11038,1.03679 -4.14717,1.03679 -0.5184,-0.5184 -3.11038,-2.59198 -2.07358,-2.07359 -2.07358,-2.59198 v -32.65895 -32.14055 q 0,-3.62877 0,-18.14386 0.5184,-15.03348 1.03679,-35.25093 0.5184,-20.21744 1.03679,-43.54526 1.0368,-23.32782 1.55519,-43.54527 0.5184,-20.21744 1.03679,-35.25092 0.5184,-15.033487 0.5184,-18.662259 1.03679,-1.555188 4.14717,-7.77594 3.62877,-6.739148 4.66556,-8.294336 0,-1.036792 3.11038,-4.147168 3.62877,-3.628772 4.66556,-4.665564 1.03679,-0.518396 4.14717,-2.59198 3.11038,-2.073584 4.14717,-2.59198 1.55519,-1.555188 3.11037,-2.59198 1.0368,-1.036792 2.59198,-1.555188 h 4.66557 3.62877 q 1.03679,0 2.07358,1.555188 1.0368,1.555188 1.0368,2.59198 0,0.518396 1.03679,3.628772 1.55519,3.110376 1.55519,4.147168 v 6.220752 5.18396 q 0,1.036792 -0.5184,4.665564 -0.5184,3.110376 -1.03679,6.739148 0,3.628772 -0.5184,7.257544 -0.51839,3.110376 -0.51839,4.147168 0,4.665561 -0.5184,21.772631 -0.5184,16.58867 -1.55519,39.91649 -0.51839,22.80943 -1.55519,49.24762 -1.03679,25.9198 -2.07358,49.24762 -0.5184,22.80943 -1.55519,39.91649 -0.51839,16.58867 -0.51839,21.25424 -1.0368,2.07358 -2.07359,5.18396 -0.51839,3.11037 -1.55519,4.14717 -1.55518,1.55518 -2.59198,3.62877 -3.11037,4.14717 -3.11037,4.14717 0,1.03679 -1.03679,3.11037 -1.0368,2.07359 -1.0368,3.11038 0,2.07358 -0.51839,7.25754 -0.5184,5.70236 -1.03679,11.92311 0,6.22075 -0.5184,11.40471 -0.5184,5.70236 -0.5184,7.77594 -0.51839,2.59198 -1.55518,7.25755 -0.5184,4.66556 -1.0368,9.33112 -0.51839,5.18396 -1.03679,9.33113 0,4.14717 0,5.70236 0,1.03679 -1.55519,7.77594 -1.03679,6.73915 -1.03679,8.81273 0,0.5184 -1.03679,5.18396 -1.03679,4.66556 -2.07358,6.22075 0,1.03679 -1.0368,4.14717 -1.03679,3.11038 -1.03679,3.62877 z"
       id="text131"
       style="font-size:518.396px;font-family:'a dripping marker';-inkscape-font-specification:'a dripping marker, Normal';white-space:pre;display:inline;fill:url(#linearGradient133);stroke:#ababab;stroke-width:0"
       transform="scale(1.096755,0.91178065)"
       aria-label="I" />
    <path
       d="m 377.39237,337.47552 q 0.5184,-1.03679 -1.55518,-1.55519 -1.55519,-1.03679 -3.11038,-2.59198 l -6.22075,53.39479 -3.62877,2.07358 q -1.0368,-1.03679 -1.0368,-4.66556 0,-3.11038 -1.03679,-3.62877 0,-1.55519 0,-7.77594 0.5184,-6.22076 0.5184,-13.4783 0.51839,-6.73915 1.03679,-12.9599 0.5184,-6.22075 0.5184,-7.77594 0,-1.55519 0,-5.70236 0.51839,-4.14716 0.51839,-8.29433 0.5184,-4.14717 0.5184,-7.77594 0,-3.62877 0,-4.66557 -0.5184,-0.51839 -1.03679,-1.55518 -1.0368,-2.07359 -1.0368,-3.11038 -1.03679,-1.55519 -4.14716,-6.22075 -2.59198,-4.66556 -3.62878,-6.22075 -1.03679,-1.55519 -3.11037,-4.66557 -1.55519,-3.62877 -3.62877,-7.25754 -2.07359,-3.62877 -4.14717,-6.22075 -1.55519,-3.11038 -2.07359,-4.14717 -1.55518,-1.03679 -5.70235,-5.18396 -3.62877,-4.66556 -7.77594,-9.33113 -3.62877,-5.18396 -7.25755,-9.84952 -3.11037,-4.66557 -4.66556,-6.73915 -0.5184,1.03679 -1.03679,3.62877 0,2.59198 0,3.11038 -0.5184,1.55519 -0.5184,4.66556 0,1.55519 -0.51839,2.59198 0,2.59198 0,12.44151 0.51839,9.33112 0.51839,20.21744 0.5184,10.88632 0.5184,20.73584 0.51839,9.33113 0.51839,11.92311 -0.51839,0.51839 -0.51839,2.59198 0,1.03679 -0.5184,2.07358 v 4.66556 q -1.03679,0.5184 -4.14717,4.66557 -2.59198,3.62877 -3.62877,4.14717 -1.03679,1.03679 -3.62877,3.11037 -2.07358,2.07359 -5.18396,4.66557 -3.11038,2.07358 -6.22075,4.14716 -2.59198,2.59198 -3.62877,3.62878 l -5.18396,2.07358 q -1.0368,0 -3.11038,-0.5184 -2.07358,0 -3.11038,0 -1.03679,0 -2.07358,-0.51839 -0.5184,0 -1.55519,0 -1.03679,0 -1.55519,-0.5184 l -2.07358,-2.59198 q 0,-0.51839 0,-3.11037 0,-2.59198 0,-5.70236 0,-3.11038 -0.5184,-6.22075 -0.51839,-3.62877 -1.03679,-5.18396 0,-0.5184 0,-3.62877 0,-3.62878 0,-7.25755 0,-3.62877 0,-6.73915 0.5184,-3.62877 0.5184,-4.66556 0,-1.55519 0,-4.14717 0,-3.11037 0,-6.22075 0,-3.62877 -0.5184,-6.22075 0,-3.11038 -0.51839,-4.14717 0,-2.59198 -0.5184,-7.77594 0,-5.18396 0,-10.36792 0,-5.70235 0,-9.84952 0,-4.66557 0,-5.70236 0,-3.11037 -1.03679,-9.33113 -0.5184,-6.73914 -1.03679,-13.47829 -0.5184,-6.73915 -1.55519,-12.44151 -0.5184,-5.70235 -0.5184,-7.25754 0,-2.07358 -0.51839,-7.25754 -0.5184,-5.18396 -1.55519,-10.36792 -0.5184,-5.70236 -1.03679,-10.36792 -0.5184,-5.18396 -1.0368,-6.73915 0,-1.03679 -1.03679,-4.66557 -0.51839,-4.14716 -1.55519,-8.29433 -0.51839,-4.14717 -1.55518,-8.29434 -0.5184,-4.14717 -0.5184,-5.70235 2.07358,0 2.59198,-1.55519 0.5184,-0.5184 0.5184,-2.59198 0.51839,-2.07359 0.51839,-4.14717 0.5184,-2.59198 0.5184,-4.66556 0,-2.07359 0,-2.59198 1.03679,0 3.11037,-3.11038 2.59198,-3.11038 3.62878,-3.62877 4.14716,-3.11038 6.73914,-5.70236 0.5184,0 4.14717,-1.55519 3.62877,-2.07358 4.66557,-3.11037 0.51839,-0.5184 1.55518,-0.5184 1.0368,0 2.07359,-0.51839 1.55519,0 2.59198,-0.5184 0.51839,0.5184 1.55519,0.5184 1.03679,0 1.55518,0.51839 0.5184,0 1.55519,0 h 3.11038 q 1.03679,0.5184 2.59198,2.59198 1.55519,2.07359 2.59198,3.62877 0,0.5184 1.03679,2.59198 1.03679,2.07359 2.07358,4.66557 1.55519,2.07358 2.07359,4.66556 1.03679,2.07359 1.03679,2.59198 1.03679,2.59198 4.14717,6.73915 3.11037,4.14717 3.11037,5.18396 0.5184,1.03679 3.62878,5.18396 3.11037,3.62877 6.73914,8.29434 4.14717,4.14716 7.25755,8.81273 3.62877,4.14717 5.18396,6.73915 3.11037,3.11037 10.36792,11.9231 7.25754,8.81274 15.03348,19.18066 8.29434,9.84952 15.55188,19.18065 7.25755,8.81273 10.36792,12.4415 v -1.55519 l 0.5184,-1.03679 q 0,-1.55519 -0.5184,-5.18396 -0.51839,-4.14717 -1.03679,-8.29433 -0.5184,-4.14717 -1.03679,-7.77594 -0.5184,-3.62878 -0.5184,-4.66557 0,-3.62877 -1.03679,-16.58867 -1.03679,-12.9599 -2.07358,-27.99338 -1.0368,-15.55188 -2.07359,-28.51178 -1.03679,-12.9599 -1.55519,-16.58868 0,-2.59198 -0.51839,-4.66556 -0.5184,-1.55519 -0.5184,-3.62877 0,0 -4.14717,-1.03679 -2.07358,-0.5184 -3.62877,-1.55519 -3.62877,-1.03679 -2.59198,-4.66557 v -1.03679 q 0,-2.07358 0,-2.07358 v -3.11038 q 0,-1.03679 0.5184,-1.55519 0.51839,-1.03679 2.07358,-3.628767 1.55519,-3.110376 2.59198,-4.147168 0,-1.036792 1.55519,-2.59198 1.55519,-1.555188 1.55519,-2.59198 1.03679,-1.555188 3.11037,-4.665564 2.59198,-3.110376 3.11038,-2.59198 1.55519,-2.59198 6.22075,-5.702356 4.66557,-3.110376 7.25755,-4.665564 1.55518,-1.036792 3.62877,-2.073584 4.14717,-2.073584 4.66556,-2.073584 1.03679,-0.518396 3.11038,-1.555188 2.07358,-1.036792 3.11037,-0.518396 h 1.0368 q 0.51839,0 1.03679,0.518396 0.51839,0 1.55519,0 h 2.59198 2.07358 q 1.03679,0.518396 2.59198,3.110376 1.55519,2.59198 2.07358,3.628772 0,1.555188 0.5184,3.628772 1.03679,4.147168 1.03679,4.665564 0,1.036792 0.5184,6.739148 1.03679,5.18396 0.51839,7.77594 0,2.073584 0.5184,11.404713 1.03679,8.81273 1.55519,19.69905 0.51839,10.88631 1.03679,20.21744 0.5184,9.33113 0.5184,11.40471 0.51839,2.59198 1.03679,7.25755 0.51839,4.14716 0.51839,8.81273 0.5184,4.66556 0.5184,8.29433 0.5184,3.11038 0.5184,3.62878 1.03679,7.77594 2.59198,23.32782 2.07358,15.55188 4.66556,35.25092 2.59198,19.69905 5.18396,41.47168 3.11038,21.25424 5.70236,40.95329 2.59198,19.18065 4.66556,34.73253 2.07358,15.55188 3.11038,22.80942 l -0.5184,2.59198 q 0,2.07359 -0.5184,3.62877 0,1.0368 -3.11037,4.66557 -2.59198,3.62877 -3.11038,4.66556 -0.51839,0.5184 -3.11037,2.07359 -2.07359,2.07358 -4.66557,4.14716 -2.59198,2.07359 -5.18396,3.62878 -2.07358,2.07358 -2.59198,2.59198 -1.03679,1.03679 -5.70235,2.07358 -4.14717,1.55519 -6.22076,2.59198 -1.03679,0 -2.07358,-0.5184 -0.5184,0 -1.03679,0 l -2.59198,-0.51839 q -1.03679,-1.03679 -3.62877,-4.66557 -2.07359,-3.62877 -3.11038,-4.66556 -1.55519,-2.07358 -4.66556,-8.81273 -2.59198,-6.22075 -5.70236,-13.4783 -3.11038,-7.25754 -6.22075,-13.99669 -2.59198,-6.22075 -4.14717,-8.81273 l -4.66556,-0.5184 -7.77594,61.68913 -3.62878,7.25754 q 0,-1.55519 0,-6.22075 0,-4.14717 0,-8.81273 0.5184,-4.66557 0.5184,-9.33113 0,-4.14717 -0.5184,-5.70236 0.5184,-3.62877 1.55519,-11.92311 1.03679,-7.77594 2.07359,-16.58867 1.03679,-8.81273 2.07358,-17.10707 1.03679,-7.77594 1.55519,-10.88631 z"
       id="text130"
       style="font-size:518.396px;font-family:'a dripping marker';-inkscape-font-specification:'a dripping marker, Normal';white-space:pre;display:inline;fill:url(#linearGradient134);stroke:#ababab;stroke-width:0"
       transform="scale(1.096755,0.91178065)"
       aria-label="N" />
    <path
       d="m 525.13511,341.62269 q -1.55518,-0.5184 -5.70235,-2.07359 -3.62877,-2.07358 -7.77594,-4.14717 -3.62877,-2.59198 -7.25755,-4.66556 -3.62877,-2.07358 -4.66556,-3.11038 -2.07358,-1.03679 -5.70236,-2.59198 -3.11037,-2.07358 -3.11037,-3.11037 -1.55519,-1.55519 -5.70236,-5.18396 -3.62877,-3.62877 -7.77594,-7.77594 -4.14717,-4.14717 -7.77594,-7.25754 -3.62877,-3.62878 -4.14717,-4.66557 0,-0.51839 -4.14716,-6.73915 -4.14717,-6.73914 -6.22076,-10.36792 -1.03679,0 -2.07358,-1.55518 -0.5184,-2.07359 -1.55519,-3.11038 -1.03679,-2.59198 -3.11037,-7.77594 -1.55519,-5.18396 -2.59198,-6.22075 0,-1.55519 -1.0368,-6.22075 -1.03679,-4.66557 -1.03679,-5.18396 v -22.80943 -23.32782 q 0.5184,-2.59198 1.03679,-5.18396 0.5184,-2.59198 0.5184,-4.66556 0.5184,-2.59198 0.5184,-4.14717 1.03679,-0.5184 1.55518,-3.62877 1.0368,-3.11038 1.55519,-4.14717 1.03679,-2.07358 3.62877,-7.25754 2.59198,-5.18396 5.18396,-10.36792 2.59198,-5.70236 4.66557,-10.36792 2.59198,-4.66557 3.11037,-6.22076 1.0368,-0.51839 4.14717,-4.66556 3.11038,-4.66556 4.14717,-5.18396 2.59198,-2.59198 7.77594,-7.77594 5.18396,-5.18396 10.36792,-10.36792 5.70236,-5.70236 9.84952,-9.84952 4.66557,-4.66557 5.70236,-6.22076 0.5184,-0.51839 2.59198,-2.07358 2.59198,-1.55519 5.18396,-3.110375 3.11038,-2.073584 5.70236,-3.628772 2.59198,-2.073584 4.14716,-3.110376 2.07359,-0.518396 8.29434,-3.628772 6.22075,-3.110376 8.29434,-4.147168 1.55518,-1.036792 7.77594,-3.110376 6.73914,-2.073584 9.33112,-3.110376 1.55519,0 7.77594,-1.036792 6.73915,-1.036792 8.29434,-1.036792 h 8.81273 7.77594 q 1.55519,0 8.29434,1.036792 6.73914,1.036792 9.33112,1.036792 1.0368,1.036792 4.14717,2.073584 3.11038,1.036792 3.62877,2.073584 2.07359,0 6.22076,2.59198 4.66556,2.073584 5.70235,2.59198 1.55519,1.036792 5.70236,4.665564 4.14717,3.110376 5.18396,4.147168 0.51839,0 3.62877,4.147165 3.11038,4.14717 4.14717,5.70236 0.51839,1.03679 1.03679,2.07358 1.03679,0.5184 1.55519,1.55519 0.51839,1.55519 1.03679,2.59198 v 5.70236 6.22075 q 0,0.51839 -1.55519,3.62877 -1.03679,3.11038 -2.07358,4.14717 -1.03679,1.55519 -3.62877,4.66556 -2.59198,2.59198 -5.70236,5.70236 -2.59198,3.11037 -5.18396,6.22075 -2.59198,2.59198 -4.14717,3.62877 -1.03679,0 -4.66556,1.03679 -3.11038,1.0368 -4.66557,1.0368 h -2.59198 -2.07358 q -2.07358,-1.0368 -5.18396,-4.14717 -3.11038,-3.11038 -4.14717,-4.14717 0,-1.03679 -1.55519,-4.14717 -1.03679,-3.11037 -1.03679,-3.62877 -0.51839,-1.03679 -3.62877,-4.14717 -3.11038,-3.62877 -4.14717,-4.66556 -1.03679,-0.5184 -5.70235,-2.59198 -4.14717,-2.07359 -5.70236,-2.59198 -1.03679,-1.03679 -4.66556,-2.59198 -3.11038,-1.55519 -4.14717,-1.55519 H 563.49642 553.1285 q 0,2.59198 -0.5184,8.29434 0,5.70235 -0.51839,11.9231 -0.5184,6.22076 -1.55519,11.92311 -0.5184,5.70236 -1.03679,7.77594 0,1.55519 -1.55519,6.73915 -1.03679,5.18396 -1.03679,7.25754 l -4.66557,-5.70235 V 119.7492 l -6.73915,20.21744 -2.59198,-2.07358 q -0.51839,-2.07358 -1.55518,-5.70236 -0.5184,-4.14716 -0.5184,-6.22075 h -2.59198 -0.5184 q -1.03679,1.03679 -2.59198,1.55519 -1.03679,0.5184 -2.07358,1.03679 -1.03679,0.5184 -1.55519,0.5184 -1.03679,1.03679 -4.14717,3.11037 -3.11037,1.55519 -3.62877,1.55519 -1.03679,1.03679 -4.66556,4.66557 -3.11038,3.11037 -4.14717,4.66556 -1.55519,1.03679 -4.66556,5.70236 -3.11038,4.14716 -3.11038,5.18396 -1.03679,1.03679 -3.11038,5.70235 -2.07358,4.14717 -3.11037,6.22075 -0.5184,0.5184 -1.55519,3.62878 -0.5184,3.11037 -1.55519,4.14716 0,2.59198 -1.03679,7.77594 -1.03679,5.18396 -1.03679,6.22076 v 13.99669 13.99669 q 0,1.03679 1.03679,5.18396 1.03679,3.62877 1.03679,6.22075 1.03679,1.03679 2.07359,4.66557 1.03679,3.11037 1.03679,4.14716 1.03679,0.5184 3.11037,5.18396 2.07359,4.66557 3.11038,6.22076 l 2.07358,3.11037 q 1.0368,1.03679 1.55519,2.59198 1.03679,1.03679 1.03679,2.07359 2.07359,2.07358 5.18396,6.73914 3.11038,4.14717 4.14717,4.14717 1.03679,2.07359 5.18396,6.73915 4.14717,4.14717 5.18396,5.18396 1.55519,0.5184 6.22075,3.62877 4.66557,3.11038 5.18396,4.14717 1.0368,0.5184 4.14717,2.07358 3.11038,1.55519 6.22075,3.62878 3.62878,1.55518 7.25755,3.62877 3.62877,1.55519 5.18396,2.07358 0.51839,0 3.62877,1.55519 3.11038,1.03679 4.14717,1.03679 1.55519,0.5184 4.66556,1.55519 3.62877,0.5184 6.73915,1.03679 3.11038,0.5184 5.70236,1.03679 2.59198,0 3.11037,0 1.55519,0 5.70236,-1.03679 4.66556,-1.55519 5.70235,-2.59198 1.03679,-1.03679 5.18396,-4.66556 4.14717,-3.62877 5.18396,-5.70236 2.59198,-3.62877 5.70236,-9.84952 3.62877,-6.73915 3.62877,-7.77594 v -38.36131 q -4.14717,-0.51839 -13.4783,-1.03679 -9.33112,-0.51839 -20.21744,-0.51839 -10.88631,-0.5184 -20.73584,-1.0368 -9.33113,-0.51839 -13.47829,-1.03679 -3.11038,0 -9.33113,-0.51839 -5.70236,-0.5184 -11.92311,-0.5184 -6.22075,-0.5184 -11.40471,-1.03679 -5.18396,-0.5184 -6.73915,-0.5184 -1.03679,-0.51839 -4.14717,-1.03679 -3.11037,-1.03679 -3.62877,-2.07358 -1.03679,-1.0368 -1.55519,-2.07359 -1.03679,-2.07358 -1.03679,-2.59198 v -2.07358 -1.55519 q 0,-1.55519 1.03679,-4.66556 0.5184,-1.55519 1.55519,-3.11038 0.5184,-1.55519 3.11038,-4.66556 3.11037,-3.11038 6.22075,-6.22076 3.11037,-3.11037 5.70235,-5.70235 3.11038,-2.59198 4.14717,-3.62877 1.03679,0 4.14717,-1.0368 3.62877,-1.55518 4.66556,-1.55518 h 6.73915 10.36792 q 8.29434,0 20.73584,0.51839 12.9599,0 26.95659,0.5184 14.51509,0 28.51178,0.51839 14.51509,0 26.4382,0.5184 11.92311,0 19.69905,0.5184 8.29433,0 9.84952,0 1.03679,0 4.14717,0.51839 3.62877,0 7.25754,0.5184 4.14717,0.51839 7.77594,1.03679 3.62877,0 4.66557,0 l 4.14716,4.14717 v 5.18396 4.66556 q 0,1.03679 -1.55518,3.11038 -1.55519,2.07358 -2.59198,3.11037 -0.5184,1.0368 -2.59198,4.66557 -2.07359,3.62877 -2.59198,4.66556 -1.0368,0 -1.55519,0.5184 -1.03679,1.03679 -1.03679,2.07358 -1.55519,1.55519 -6.22076,4.66557 -4.66556,3.11037 -5.18396,3.11037 -2.07358,1.03679 -8.29433,3.11038 -6.22075,2.07358 -8.29434,3.11037 -1.03679,0.5184 -2.07358,3.62878 -0.5184,3.11037 -1.55519,4.14716 v 4.66557 3.62877 q 0.5184,1.03679 1.03679,5.18396 1.03679,4.14717 2.07359,9.84952 1.03679,5.18396 1.55518,10.36792 1.0368,5.18396 1.55519,8.29434 0.5184,1.55519 1.03679,7.25754 1.0368,5.70236 2.07359,6.73915 0,1.55519 0.51839,4.66557 1.0368,3.11037 2.07359,6.73914 1.03679,3.11038 2.07358,6.22075 1.03679,3.11038 1.55519,4.66557 0,1.03679 0.5184,4.14717 1.03679,3.11037 1.55518,6.73914 1.0368,3.11038 1.55519,5.70236 1.03679,2.59198 1.03679,3.11038 0,1.03679 0,5.70235 0.5184,4.14717 0.5184,5.70236 0,3.11037 -0.5184,6.73915 0,4.14716 0,5.18396 -1.03679,2.07358 -2.07358,3.62877 -1.03679,1.55519 -2.07358,2.59198 -0.5184,1.03679 -0.5184,2.07358 -2.07358,2.07359 -6.73915,5.70236 -4.14717,3.62877 -5.18396,4.66556 -1.55519,1.03679 -5.70235,3.62877 -4.14717,2.59198 -5.70236,2.59198 h -4.14717 -4.66556 l -2.07359,-2.59198 q -1.03679,-1.03679 -3.11037,-8.29433 -1.55519,-6.73915 -2.59198,-9.33113 l -1.03679,-4.14717 q -0.5184,-1.55519 -1.55519,-3.62877 -0.5184,-1.55519 -1.03679,-2.59198 0,-1.55519 -1.0368,-6.73915 -1.03679,-5.18396 -2.59198,-11.40471 -1.55518,-6.22075 -3.11037,-11.92311 -1.03679,-5.70235 -1.03679,-7.25754 0,-1.03679 -1.55519,-4.14717 -1.03679,-3.11038 -1.03679,-4.14717 -1.55519,1.55519 -6.73915,5.70236 -5.18396,4.14717 -7.25755,5.70235 -2.59198,2.07359 -6.73914,5.70236 -4.14717,3.11038 -4.66557,3.11038 -2.07358,0.51839 -8.29433,3.62877 -6.22075,3.11037 -8.29434,4.14717 -1.55519,1.03679 -8.29433,3.62877 -6.73915,2.59198 -9.33113,2.59198 1.03679,1.55519 1.03679,7.77594 0,6.73915 -1.03679,9.33113 0,1.03679 -1.55519,6.22075 -1.03679,5.70235 -1.03679,7.77594 -0.5184,-1.03679 -1.55519,-2.07359 -0.5184,-0.51839 -0.5184,-1.03679 -1.03679,0 -2.07358,-4.66556 -0.5184,-4.66557 -1.03679,-6.22075 0,-2.07359 -1.55519,-7.77594 -1.03679,-5.18396 -1.03679,-7.25755 l -1.03679,-1.03679 q -1.0368,-1.03679 -2.59198,-1.03679 h -1.0368 -1.55518 q 0,2.59198 -0.5184,9.33113 0,6.73914 -0.5184,13.99669 -0.51839,7.77594 -1.03679,14.51509 0,6.73914 0,9.33112 -0.51839,1.55519 -1.03679,5.18396 -0.5184,3.62878 -1.03679,7.25755 0,4.14717 -0.5184,7.77594 -0.51839,4.14717 -0.51839,5.70235 0,1.55519 -1.55519,6.73915 -1.03679,5.18396 -1.03679,7.25755 -1.0368,0 -2.07359,1.03679 -0.51839,1.03679 -1.55519,1.03679 0,-1.55519 -1.55518,-6.73915 -1.0368,-5.18396 -1.0368,-7.25754 v -27.99339 q 0,-0.51839 -1.03679,-5.70235 -1.03679,-4.66557 -1.03679,-5.70236 -0.5184,-1.55519 -1.03679,-6.73915 -0.5184,-5.18396 -1.03679,-10.88631 -0.5184,-5.70236 -1.0368,-10.88632 0,-5.18396 0,-7.25754 z"
       id="text129"
       style="font-size:518.396px;font-family:'a dripping marker';-inkscape-font-specification:'a dripping marker, Normal';white-space:pre;display:inline;fill:url(#linearGradient135);stroke:#ababab;stroke-width:0"
       transform="scale(1.096755,0.91178065)"
       aria-label="G" />
    <path
       d="m 760.48649,328.66279 q -1.0368,1.03679 -2.07359,1.55518 -1.03679,0.5184 -2.07358,1.0368 -0.5184,0.51839 -1.55519,0.51839 -1.55519,1.03679 -3.62877,2.59198 -4.14717,3.11038 -4.66557,3.62877 -3.11037,1.0368 -6.22075,2.59198 l -4.14716,2.07359 q -1.0368,0 -2.59198,0.51839 -1.0368,0.5184 -2.07359,0.5184 -1.03679,0 -2.59198,-0.5184 -1.03679,-0.51839 -2.07358,-0.51839 l -1.03679,-1.03679 q -1.0368,-1.0368 -1.0368,-1.0368 v -4.14716 -4.66557 q 0,0 0,-2.07358 0.5184,-2.07359 1.0368,-4.14717 0.51839,-2.59198 0.51839,-4.66556 0.5184,-2.59198 0.5184,-3.11038 1.03679,-3.62877 2.07358,-9.84952 1.03679,-6.22075 1.03679,-7.25755 v -39.39809 -41.47168 q 0,-0.5184 -1.03679,-1.03679 -1.03679,-1.0368 -2.07358,-2.07359 h -1.55519 -0.5184 q -0.51839,0.5184 -3.11037,1.03679 -2.07359,0.5184 -4.66557,1.0368 -2.07358,0 -4.14716,0.51839 -2.07359,0.5184 -2.07359,0.5184 h -7.25754 -6.73915 q -1.03679,-0.5184 -1.55519,-1.03679 -1.03679,-1.0368 -1.03679,-2.07359 l -1.03679,-1.03679 q -0.5184,-0.5184 -0.5184,-2.59198 0,-1.55519 0.5184,-2.59198 l 1.03679,-2.07358 q 0,-1.0368 0.5184,-2.59198 1.55518,-2.59198 2.07358,-3.11038 0.5184,-1.03679 2.59198,-4.14717 2.07358,-3.11037 2.59198,-4.14717 0,-1.03679 2.59198,-2.59198 2.59198,-2.07358 3.62877,-3.11037 1.03679,0 5.18396,-3.62877 4.14717,-3.62878 5.18396,-4.66557 1.55519,0 2.59198,-1.03679 0.5184,-0.5184 1.03679,-1.55519 v -3.11037 -2.07359 q -0.51839,-1.03679 -1.55518,-8.81273 -0.5184,-7.77594 -1.55519,-17.10707 -1.03679,-9.33113 -2.07359,-17.10707 -0.51839,-8.29433 -1.03679,-9.84952 l -5.18396,-10.36792 q -1.03679,-1.55519 -3.11037,-4.66556 -2.07359,-3.62878 -3.11038,-3.62878 -1.03679,-2.073579 -5.18396,-6.220747 -4.14717,-4.665564 -5.18396,-5.702356 -1.03679,0 -4.66556,-2.073584 -3.62878,-2.59198 -4.66557,-3.110376 l -2.07358,-2.59198 v -6.220752 -5.18396 q 0,-1.036792 2.59198,-5.18396 2.07358,-4.665564 2.59198,-5.702356 1.03679,-2.073584 5.18396,-6.220752 4.66556,-4.665564 5.70235,-5.702356 2.07359,-0.518396 6.22076,-2.59198 4.66556,-2.073584 5.70235,-2.59198 h 4.66557 3.11037 q 0.5184,0 3.62877,1.555188 3.11038,1.036792 6.22076,2.59198 3.62877,1.555188 6.22075,2.59198 3.11037,1.036792 4.14716,1.036792 2.59198,1.555188 7.77594,4.147168 5.18396,2.073584 6.22076,2.073584 2.59198,1.036792 7.25754,2.59198 5.18396,1.555188 10.36792,3.628772 5.70236,1.555188 9.84952,3.110376 4.66557,1.555188 5.70236,2.073584 1.03679,0 5.18396,1.036792 4.14717,1.036792 9.33113,2.59198 5.70235,1.555188 10.88631,3.110376 5.70236,1.036792 8.81274,1.036792 1.03679,0 6.22075,1.555188 5.18396,1.036792 7.77594,1.036792 1.03679,0.518396 3.62877,1.555188 2.59198,0.518396 5.18396,1.036792 2.59198,0.518396 4.66556,1.036792 2.59198,0 3.11038,0 3.62877,0 11.92311,1.036792 8.29433,0.518396 17.62546,1.555188 9.33113,1.036792 17.62547,2.073584 8.29433,0.518396 11.9231,1.036792 l 1.0368,1.036792 1.03679,1.036792 v 6.220752 5.702351 l -2.07359,4.66557 q -1.03679,1.55519 -3.11037,4.14717 -2.07359,2.59198 -4.14717,5.18396 -2.07358,2.59198 -4.14717,5.18396 -2.07358,2.59198 -2.59198,3.11037 l -5.70235,110.41835 -4.66557,2.59198 V 129.08033 l -2.07358,1.03679 q -0.5184,0.5184 -1.03679,0.5184 -0.5184,0 -0.5184,0.51839 -0.5184,0.5184 -1.03679,7.77594 -0.5184,6.73915 -1.03679,15.03349 0,7.77594 -0.5184,14.51508 -0.5184,6.22076 -0.5184,6.22076 0,1.03679 -2.07358,2.07358 l -2.07358,1.03679 v -48.72922 q -2.07359,-0.5184 -7.77594,-1.03679 -5.18396,-0.5184 -11.40472,-0.5184 -5.70235,-0.5184 -11.40471,-1.03679 -5.18396,-0.5184 -7.25754,-0.5184 -1.55519,0 -5.18396,-0.51839 -3.11038,-0.5184 -6.73915,-0.5184 -3.62877,-0.5184 -6.73915,-1.03679 -3.11037,-0.5184 -4.14717,-0.5184 -1.55518,-0.51839 -7.77594,-1.55519 -6.22075,-1.55518 -13.47829,-3.11037 -6.73915,-1.55519 -12.9599,-2.59198 -6.22075,-1.03679 -7.77594,-1.03679 h -2.07359 q 0,1.03679 -0.51839,4.14716 -0.5184,3.11038 0.51839,4.14717 0,0.5184 0,7.77594 0.5184,6.73915 0.5184,15.03349 0.5184,8.29433 1.03679,15.55188 0.5184,6.73914 0.5184,6.73914 3.11037,0.5184 10.88631,1.0368 7.77594,0.51839 16.07028,1.03679 8.81273,0.51839 16.07028,1.03679 7.77594,0.5184 10.88631,1.03679 1.03679,0 5.18396,1.03679 4.66557,1.0368 5.70236,1.0368 0.51839,1.03679 2.59198,3.11037 2.59198,1.55519 2.59198,2.59198 v 3.62877 4.66557 q 0,1.03679 -1.03679,3.11037 -1.0368,1.55519 -1.0368,2.59198 -1.03679,2.07359 -3.11037,5.18396 -1.55519,2.07359 -2.59198,3.11038 -1.03679,2.07358 -4.14717,5.18396 -3.11038,3.11038 -4.14717,4.14717 -2.07358,1.03679 -6.73915,3.11037 -4.14716,1.55519 -5.18396,1.55519 -0.51839,0.5184 -1.55518,0.5184 -1.0368,0.51839 -3.11038,0.51839 -1.55519,0 -3.62877,-0.51839 -2.07359,-0.5184 -3.11038,-0.5184 -1.03679,0 -6.73915,-1.03679 -5.70235,-1.03679 -7.25754,-1.03679 h -13.99669 v 72.05704 q 1.55519,0 8.81273,-1.03679 7.25754,-1.03679 8.81273,-1.03679 2.07359,0 7.77594,-0.5184 6.22075,-0.51839 12.9599,-0.51839 6.73915,-0.5184 12.44151,-1.0368 6.22075,-0.51839 8.81273,-0.51839 -1.03679,-1.55519 -3.62877,-6.73915 -2.59198,-5.18396 -2.59198,-7.25754 0,-1.0368 -1.0368,-6.22076 -1.03679,-5.70235 -1.03679,-7.77594 v -2.07358 -1.55519 q 0,-1.03679 1.03679,-4.14717 1.0368,-3.11037 1.0368,-3.62877 0,-0.51839 1.03679,-3.62877 0.51839,-1.55519 1.55519,-2.59198 0.51839,-1.03679 3.11037,-3.11038 2.59198,-2.59198 5.18396,-5.18396 2.59198,-2.59198 5.18396,-4.66556 2.59198,-2.59198 4.14717,-3.62877 1.03679,-0.5184 2.59198,-1.03679 2.07358,-1.0368 3.11038,-2.07359 h 6.22075 4.66556 q 0.5184,1.55519 1.03679,2.59198 0.5184,1.55519 2.07359,3.11038 0,1.03679 1.03679,6.22075 1.03679,4.66556 1.03679,5.18396 1.03679,2.07358 4.14717,8.29434 3.62877,6.22075 4.66556,8.29433 0.5184,1.55519 3.62878,5.70236 3.11037,4.14717 4.14716,5.70235 0.5184,1.0368 3.11038,3.62878 2.59198,2.07358 5.18396,4.66556 2.59198,2.59198 5.18396,5.18396 2.59198,2.07358 4.14717,3.11038 1.03679,1.03679 6.73915,5.70235 5.70235,4.14717 7.25754,5.70236 1.03679,1.03679 4.14717,3.11037 3.11037,2.07359 3.62877,3.11038 1.55519,0.5184 6.22075,3.11038 5.18396,2.07358 10.88632,4.66556 5.70235,2.59198 10.36792,5.18396 5.18396,2.59198 6.73915,3.62877 1.03679,0.5184 3.11037,2.59198 2.59198,2.07358 2.59198,2.59198 v 4.66556 6.22076 q 0,1.03679 -1.55519,3.62877 -1.03679,2.07358 -1.55518,2.07358 -1.0368,1.55519 -3.62878,4.14717 -2.07358,2.59198 -4.66556,5.18396 -2.59198,2.59198 -5.18396,5.18396 -2.07358,2.59198 -3.11038,3.11038 -1.03679,0 -3.11037,1.03679 -2.07359,1.55519 -3.11038,1.55519 h -6.73915 -7.25754 q -1.03679,0 -3.62877,-1.0368 -2.59198,-0.51839 -6.22075,-1.55518 -3.11038,-1.0368 -6.22076,-2.07359 -2.59198,-1.03679 -3.11037,-1.55519 -4.14717,-1.03679 -11.40471,-2.59198 -6.73915,-2.07358 -13.9967,-3.62877 -7.25754,-1.55519 -12.9599,-2.59198 -5.18396,-1.55519 -6.22075,-1.55519 -1.03679,0 -2.59198,-0.51839 -3.11037,-1.03679 -3.62877,-1.03679 -0.5184,0 -2.59198,1.03679 -2.07358,0.51839 -2.59198,0.51839 0,1.0368 -0.5184,4.66557 -0.51839,3.62877 -1.03679,7.25754 0,4.14717 -0.51839,7.77594 -0.5184,3.62877 -0.5184,4.66557 0,1.55518 -1.55519,7.25754 -1.03679,5.70236 -2.07358,6.73915 0,1.03679 -1.55519,3.11037 -1.03679,2.07359 -1.03679,3.11038 0,-1.03679 -0.5184,-4.14717 0,-2.59198 -0.51839,-5.70235 -0.5184,-3.11038 -1.0368,-6.22076 0,-2.59198 0,-4.14716 -0.51839,-1.0368 -1.03679,-5.18396 -0.51839,-3.62878 -1.03679,-8.29434 -0.5184,-4.66556 -1.03679,-8.81273 0,-4.14717 0,-5.70236 l -2.59198,-2.59198 q -1.03679,0 -2.59198,1.03679 -1.03679,0.5184 -2.07359,0.5184 v 82.42496 l -3.62877,13.9967 q -1.03679,-0.5184 -2.07358,-3.62878 -1.03679,-3.11037 -1.03679,-4.14716 0,-1.55519 -0.5184,-5.18396 -0.5184,-3.11038 -1.03679,-7.25755 0,-3.62877 -0.5184,-7.77594 -0.51839,-3.62877 -0.51839,-5.18396 -0.5184,-3.62877 -1.0368,-13.47829 -0.51839,-9.33113 -1.03679,-20.21745 0,-10.88631 -0.51839,-20.21744 -0.5184,-9.84953 -1.0368,-13.99669 z"
       id="text128"
       style="font-size:518.396px;font-family:'a dripping marker';-inkscape-font-specification:'a dripping marker, Normal';white-space:pre;fill:url(#linearGradient120);stroke:#ababab;stroke-width:0"
       transform="scale(1.096755,0.91178065)"
       aria-label="E" />
  </g>
</svg>
