<?xml version="1.0" encoding="UTF-8" standalone="no"?>
<!-- Created with Inkscape (http://www.inkscape.org/) -->

<svg
   width="80.728333mm"
   height="15.47729mm"
   viewBox="0 0 80.728333 15.47729"
   version="1.1"
   id="svg1052"
   inkscape:version="1.1.2 (b8e25be833, 2022-02-05)"
   sodipodi:docname="technos.svg"
   xmlns:inkscape="http://www.inkscape.org/namespaces/inkscape"
   xmlns:sodipodi="http://sodipodi.sourceforge.net/DTD/sodipodi-0.dtd"
   xmlns="http://www.w3.org/2000/svg"
   xmlns:svg="http://www.w3.org/2000/svg">
  <sodipodi:namedview
     id="namedview1054"
     pagecolor="#ffffff"
     bordercolor="#666666"
     borderopacity="1.0"
     inkscape:pageshadow="2"
     inkscape:pageopacity="0.0"
     inkscape:pagecheckerboard="0"
     inkscape:document-units="mm"
     showgrid="false"
     inkscape:zoom="6.2217172"
     inkscape:cx="176.80007"
     inkscape:cy="122.47423"
     inkscape:window-width="3840"
     inkscape:window-height="2097"
     inkscape:window-x="-8"
     inkscape:window-y="-8"
     inkscape:window-maximized="1"
     inkscape:current-layer="layer1" />
  <defs
     id="defs1049" />
  <g
     inkscape:label="Calque 1"
     inkscape:groupmode="layer"
     id="layer1"
     transform="translate(-44.006967,-115.07579)">
    <path
       d="m 53.057751,115.09867 c 0.345766,0.58943 0.677609,1.18814 0.995529,1.79381 -1.004811,0.4618 -1.944646,1.05122 -2.833429,1.70563 0.568543,-1.19046 1.253114,-2.31826 1.8379,-3.49944 z"
       fill="#62afff"
       stroke="#62afff"
       stroke-miterlimit="10"
       stroke-width="0.0217554"
       id="path31" />
    <path
       d="m 76.107917,128.63794 c -0.0029,-0.76422 0.491218,-1.23471 1.437419,-1.22377 0.745985,0 1.424159,0.46683 1.40959,1.22377 v 1.76843 h -0.56071 v -1.15216 h -1.773933 v 1.15216 h -0.52149 m 0.52149,-1.76843 h 1.773933 c -4.64e-4,-0.27711 -0.129728,-0.73388 -0.84888,-0.73542 -0.719153,-0.002 -0.925053,0.43044 -0.925053,0.73542 z"
       fill="#14121e"
       id="path103"
       style="stroke-width:0;fill:#cccccc;stroke-miterlimit:5.25;stroke-dasharray:none" />
    <path
       d="m 100.06804,127.40965 h 2.99916 v 0.62022 h -2.40351 v 0.57653 h 2.40351 v 0.62022 l -2.40351,0.01 v 0.55059 h 2.40351 v 0.61916 h -2.40351 c -0.29578,0.0173 -0.60293,-0.24057 -0.59565,-0.52997 z"
       fill="#171520"
       stroke="#161423"
       stroke-miterlimit="10"
       stroke-width="0.00853208"
       id="path157"
       style="fill:#cccccc;stroke-width:0;stroke-miterlimit:5.25;stroke-dasharray:none" />
    <path
       d="m 111.56126,128.04935 c 0.39766,-0.52809 0.99243,-0.60508 1.55369,-0.60508 0.56127,0 1.14459,0.2036 1.44187,0.54621 0.29729,0.3426 0.33153,0.76542 0.29711,1.17213 -0.0136,0.49911 -0.38498,0.93028 -0.83698,1.10602 -0.56252,0.21286 -1.18301,0.20471 -1.7573,0.0462 -0.44295,-0.15489 -0.83155,-0.50635 -0.92756,-0.9792 -0.0525,-0.43479 -0.0616,-0.92575 0.22917,-1.28627 m 1.55369,-0.0145 c -0.54932,0 -1.22293,0.12439 -1.22293,0.89908 0,0.7747 0.78222,0.91877 1.22293,0.91877 0.44071,0 1.17465,-0.19511 1.17465,-0.91877 0,-0.72365 -0.62533,-0.89908 -1.17465,-0.89908 z"
       fill="#161422"
       stroke="#151422"
       stroke-miterlimit="10"
       stroke-width="0.00849216"
       id="path159"
       style="fill:#cccccc;stroke-width:0;stroke-miterlimit:5.25;stroke-dasharray:none" />
    <path
       d="m 93.359812,127.53652 c 0.153636,-0.0808 0.175503,-0.10505 0.730751,-0.10583 l 1.985502,-0.003 c 0.0093,0.15548 -0.007,0.50473 0,0.66253 h -1.969012 l 1.756679,1.32157 c 0.538639,0.37142 0.334781,0.96906 0.12067,0.99437 h -2.552638 c 0.0046,-0.15547 -0.0046,-0.46876 0,-0.62656 h 1.970173 c -0.659045,-0.50124 -1.352899,-0.96652 -1.979455,-1.50954 -0.25354,-0.21606 -0.216306,-0.65296 -0.06267,-0.73375 z"
       fill="#161421"
       stroke="#161421"
       stroke-miterlimit="10"
       stroke-width="0.0217554"
       id="path161"
       style="fill:#cccccc;stroke-width:0;stroke-miterlimit:5.25;stroke-dasharray:none" />
    <path
       d="m 121.87704,127.53652 c 0.15364,-0.0808 0.1755,-0.12485 0.73075,-0.12485 h 1.9855 c 0.009,0.15548 -0.007,0.52096 0,0.67876 h -1.96901 l 1.75668,1.32157 c 0.53864,0.37142 0.33478,0.96906 0.12067,0.99437 h -2.55264 c 0.005,-0.15547 -0.005,-0.46876 0,-0.62656 h 1.97018 c -0.65905,-0.50124 -1.3529,-0.96652 -1.97946,-1.50954 -0.25354,-0.21606 -0.21631,-0.65296 -0.0627,-0.73375 z"
       fill="#161421"
       stroke="#161421"
       stroke-miterlimit="10"
       stroke-width="0.0217554"
       id="path163"
       style="fill:#cccccc;stroke-width:0;stroke-miterlimit:5.25;stroke-dasharray:none" />
    <path
       d="m 115.27376,127.41167 c 0.64881,0 2.07431,-0.12492 2.56703,0.48964 0.19989,0.24932 0.1945,0.62436 0.005,0.90735 -0.18986,0.28299 -0.57249,0.34773 -0.98001,0.46003 l 1.29282,1.13768 h -0.68225 l -1.32653,-1.13768 v -0.48924 c 0.42281,0 1.31028,0.10751 1.31028,-0.36391 0,-0.47142 -1.02474,-0.36762 -1.64993,-0.36762 0.002,0.77971 0,1.57874 0,2.35845 h -0.53373 c -0.002,-1.00017 -0.002,-1.99453 -0.002,-2.9947 z"
       fill="#191724"
       stroke="#191724"
       stroke-miterlimit="10"
       stroke-width="0.0217554"
       id="path167"
       style="fill:#cccccc;stroke-width:0;stroke-miterlimit:5.25;stroke-dasharray:none" />
    <path
       d="m 108.90484,118.07598 c 0,-0.25527 0.002,-0.50821 0.005,-0.76115 2.05371,0 4.1051,-0.009 6.15882,0.007 0,0.18796 0,0.5639 -0.002,0.75187 -2.05372,0.0139 -4.10743,0 -6.16114,0.002 z"
       fill="#151221"
       stroke="#151221"
       id="path43"
       style="stroke-width:0;fill:#cccccc;stroke-miterlimit:5.25;stroke-dasharray:none" />
    <path
       d="m 50.542242,121.16235 c 0.538375,-1.72419 2.109407,-2.91465 3.752378,-3.49015 0.552298,0.24598 0.663686,1.03729 0.993209,1.52462 0.426986,0.0255 0.851653,0.0511 1.28096,0.0766 0.07426,0.28311 0.153158,0.5639 0.232058,0.84701 -1.327372,-0.25063 -2.682591,-0.17869 -4.021566,-0.0928 0.02785,0.14388 0.08586,0.43395 0.113709,0.57783 1.218304,0.21813 2.487662,-0.1346 3.689722,0.22974 1.232229,0.34344 2.241681,1.16957 3.218645,1.95857 -0.515168,0.44555 -1.023376,0.90038 -1.517659,1.36914 0.102105,0.32024 0.204211,0.6428 0.310958,0.96536 -0.255264,0.18333 -0.508207,0.36665 -0.75883,0.5523 -0.111388,-1.19278 -0.561581,-2.30666 -1.083711,-3.36948 -0.271508,0.0394 -0.543016,0.0789 -0.812203,0.12299 0.475719,1.06746 1.034979,2.15349 1.074428,3.34627 -0.06962,1.16261 -0.60103,2.22776 -1.146366,3.23489 -0.601031,-0.28311 -1.174214,-0.64048 -1.812373,-0.84005 -0.322561,0.15316 -0.614954,0.36665 -0.937515,0.51981 -0.350408,-0.10442 -0.672968,-0.28311 -1.002491,-0.43627 1.190458,-0.51053 2.415725,-1.07443 3.295224,-2.05835 0.08122,-0.35969 -0.06265,-0.52213 -0.433948,-0.48964 -0.821486,0.50356 -1.508377,1.23222 -2.431968,1.56639 -1.383066,0.62423 -2.928573,0.45019 -4.395179,0.34808 0.109067,-0.60567 0.225096,-1.20902 0.329522,-1.81469 -0.294714,-0.22742 -0.865576,-0.27383 -0.886462,-0.7333 0.03713,-0.26687 -0.07194,-0.78436 0.364332,-0.66137 0.949117,0.74259 1.884311,1.578 3.074768,1.90288 0.83773,-0.37594 -0.183325,-0.88646 -0.60335,-1.07675 -1.817015,-0.81453 -3.065487,-2.67795 -3.091013,-4.67365 0.594068,-0.0534 1.188137,-0.10675 1.782205,-0.16244 l 0.362011,-1.13477 c 0.413063,-0.0464 0.828447,-0.0905 1.243831,-0.13691 -0.703136,1.09531 -1.273999,2.31594 -1.32041,3.63867 0.997849,0.16244 0.874858,-0.97696 1.137084,-1.61048 z"
       fill="#66aeff"
       stroke="#66aeff"
       id="path45"
       style="stroke-width:0.232058" />
    <path
       d="m 62.347034,118.82088 7.63703,0.002 v 7.63703 l -1.55711,-0.002 v -6.06599 h -6.065997 z"
       fill="#151323"
       stroke="#151323"
       id="path55"
       style="stroke-width:0;fill:#cccccc;stroke-miterlimit:5.25;stroke-dasharray:none" />
    <path
       d="m 71.464594,118.81044 h 7.647472 v 1.58148 h -6.128652 v 1.47008 h 6.128652 v 1.58148 l -6.128652,0.0255 v 1.40396 h 6.128652 v 1.58843 h -6.128652 c -0.754189,0.0441 -1.537385,-0.62307 -1.51882,-1.36102 z"
       fill="#161423"
       stroke="#161423"
       id="path57"
       style="stroke-width:0;fill:#cccccc;stroke-miterlimit:5.25;stroke-dasharray:none" />
    <path
       d="m 80.746915,120.67271 c 0.183326,-1.1951 1.413234,-1.90404 2.552638,-1.86227 h 5.03798 v 1.58612 c -1.684741,0.0302 -3.376444,-0.0603 -5.058865,0.058 -0.895744,0.0719 -1.062826,1.1162 -1.12084,1.83094 -0.04873,0.91895 0.02089,2.12797 0.990888,2.55728 1.726512,0.0975 3.459985,0.0441 5.188817,0.058 v 1.56639 c -1.765961,-0.007 -3.534243,0.0232 -5.297885,-0.009 -1.053543,-0.0371 -2.158139,-0.70313 -2.292733,-1.81933 -0.0673,-1.32041 -0.07426,-2.64778 0,-3.96587 z"
       fill="#161422"
       stroke="#161422"
       id="path59"
       style="stroke-width:0;fill:#cccccc;stroke-miterlimit:5.25;stroke-dasharray:none" />
    <path
       d="m 89.880719,118.81276 h 1.538545 v 3.0504 l 4.608672,-0.005 v -3.04576 h 1.468928 v 7.64863 h -1.468928 v -3.00399 l -4.608672,0.005 v 2.99935 H 89.88304 Z"
       fill="#161323"
       stroke="#161323"
       id="path61"
       style="stroke-width:0;fill:#cccccc;stroke-miterlimit:5.25;stroke-dasharray:none" />
    <path
       d="m 99.012203,118.81392 h 5.627407 c 0.96072,-0.0719 1.94465,0.75419 1.96785,1.73347 v 5.91748 h -1.50489 v -4.88018 c 0.0186,-0.51981 -0.32837,-1.20206 -0.92011,-1.17189 h -3.70133 c 0.009,2.02587 0.009,4.02621 0,6.05207 h -1.475889 c 0.02785,-2.54335 0.01392,-5.10759 0.007,-7.65095 z"
       fill="#161322"
       stroke="#161322"
       id="path63"
       style="stroke-width:0;fill:#cccccc;stroke-miterlimit:5.25;stroke-dasharray:none" />
    <path
       d="m 108.06479,120.36175 c 1.01873,-1.3529 2.54245,-1.55015 3.98032,-1.55015 1.43786,0 2.93224,0.52162 3.69384,1.39931 0.76159,0.87769 0.84933,1.96089 0.76115,3.00283 -0.0348,1.27864 -0.98625,2.38324 -2.14422,2.83343 -1.44108,0.54534 -3.03068,0.52445 -4.50193,0.11835 -1.13476,-0.39682 -2.13029,-1.29721 -2.37627,-2.50855 -0.13459,-1.11388 -0.1578,-2.37163 0.58711,-3.29522 m 3.98032,-0.0372 c -1.40727,0 -3.13296,0.31866 -3.13296,2.30331 0,1.98465 2.00393,2.35374 3.13296,2.35374 1.12903,0 3.00926,-0.49984 3.00926,-2.35374 0,-1.8539 -1.60199,-2.30331 -3.00926,-2.30331 z"
       fill="#151422"
       stroke="#151422"
       id="path65"
       style="stroke-width:0;fill:#cccccc;stroke-miterlimit:5.25;stroke-dasharray:none" />
    <path
       d="m 117.94814,119.15969 c 0.2965,-0.34668 0.80423,-0.34809 1.06979,-0.34809 h 5.56939 v 1.6128 h -5.14473 c 1.46429,1.19974 3.08637,2.21848 4.58083,3.37413 0.92823,0.70777 0.71474,2.52711 -0.56855,2.64778 l -5.79913,0.0116 0.007,-1.59076 h 5.1424 l -4.59243,-3.39616 c -0.95522,-0.69389 -0.56104,-1.96462 -0.26454,-2.3113 z"
       fill="#161423"
       stroke="#161423"
       id="path67"
       style="stroke-width:0;fill:#cccccc;stroke-miterlimit:5.25;stroke-dasharray:none" />
    <path
       d="m 57.738361,120.48474 c 1.415554,0.11835 2.817185,0.36433 4.23506,0.45715 -0.533734,0.47108 -1.069788,0.93984 -1.631368,1.37611 -0.777395,-0.72867 -1.649933,-1.35058 -2.603692,-1.83326 z"
       fill="#67b0ff"
       stroke="#67b0ff"
       id="path71"
       style="stroke-width:0.232058" />
    <path
       d="m 44.253469,120.92101 c 0.742586,-0.058 1.485172,-0.11371 2.225437,-0.18101 0.118349,1.04194 0.526772,2.00962 0.914308,2.97267 -1.065146,-0.90967 -2.190627,-1.75668 -3.139745,-2.79166 z"
       fill="#63adfe"
       stroke="#63adfe"
       id="path73"
       style="stroke-width:0.232058" />
    <path
       d="m 56.603598,129.37024 c 0.512848,-0.89574 0.798279,-1.89359 1.246151,-2.8195 0.241341,1.23454 0.524451,2.45981 0.707777,3.70596 -0.663686,-0.27151 -1.313448,-0.57086 -1.953928,-0.88646 z"
       fill="#64b1ff"
       stroke="#64b1ff"
       id="path97"
       style="stroke-width:0.232058" />
    <path
       d="m 68.45132,127.40471 h 0.59871 v 0.65672 c 0.677619,0 1.555685,-0.0367 2.017745,0.41539 0.396819,0.35505 0.375934,0.97464 0.129952,1.41091 -0.728662,0.73794 -1.815731,0.51864 -2.746407,0.51864 0.0023,-1.01873 -0.03713,-1.98525 0,-3.00166 m 0.59871,1.21134 c 0.0023,0.39682 -0.0046,0.79364 0,1.19046 0.503722,0 1.723031,0.1963 1.723031,-0.56622 0,-0.76252 -1.157854,-0.62424 -1.723031,-0.62424 z"
       fill="#161324"
       stroke="#161324"
       id="path99"
       style="stroke-width:0;fill:#cccccc;stroke-miterlimit:5.25;stroke-dasharray:none" />
    <path
       d="m 79.575022,127.41417 c 0.648813,0 2.074313,-0.12742 2.567031,0.48714 0.199892,0.24932 0.194504,0.62436 0.0046,0.90735 -0.189861,0.28299 -0.572485,0.34773 -0.980009,0.46003 l 1.292818,1.13768 h -0.68225 l -1.326525,-1.13768 v -0.48924 c 0.422807,0 1.310281,0.10751 1.310281,-0.36391 0,-0.47142 -1.024741,-0.36762 -1.649933,-0.36762 0.0023,0.77971 0,1.57874 0,2.35845 h -0.533733 c -0.0023,-1.00017 -0.0023,-1.99203 -0.0023,-2.9922 z"
       fill="#191724"
       stroke="#191724"
       stroke-width="0.0217554"
       id="path105"
       style="fill:#cccccc;stroke-width:0;stroke-miterlimit:5.25;stroke-dasharray:none" />
    <path
       d="m 82.932902,127.77136 c 0.528273,-0.49879 1.729941,-0.35041 2.684911,-0.35041 -0.0023,0.16476 -0.0023,0.49197 -0.0023,0.65673 -0.666007,0.005 -1.65175,-0.0374 -2.030541,0.0604 -0.456437,0.11786 -0.459145,1.10412 -0.20415,1.36447 0.365092,0.37277 0.980487,0.28543 2.218447,0.28543 0.007,0.15548 0.02088,0.46063 0.02785,0.61843 h -2.215804 c -0.167955,-0.0283 -0.288483,-0.16895 -0.460877,-0.37403 -0.508288,-0.73108 -0.391493,-1.83829 -0.01752,-2.26099 z"
       fill="#161421"
       stroke="#161421"
       stroke-width="0.0217554"
       id="path107"
       style="fill:#cccccc;stroke-width:0;stroke-miterlimit:5.25;stroke-dasharray:none" />
    <path
       d="m 86.706151,127.53652 c 0.153637,-0.0808 0.175504,-0.10505 0.730751,-0.10583 l 1.985503,-0.003 c 0.0093,0.15548 -0.007,0.50473 0,0.66253 h -1.969013 l 1.75668,1.32157 c 0.538639,0.37142 0.33478,0.96906 0.12067,0.99437 h -2.552639 c 0.0046,-0.15547 -0.0046,-0.46876 0,-0.62656 h 1.970173 c -0.659045,-0.50124 -1.352898,-0.96652 -1.979455,-1.50954 -0.25354,-0.21606 -0.216306,-0.65296 -0.06267,-0.73375 z"
       fill="#161421"
       stroke="#161421"
       stroke-width="0.0217554"
       id="path109"
       style="fill:#cccccc;stroke-width:0;stroke-miterlimit:5.25;stroke-dasharray:none" />
    <path
       d="m 90.036198,127.42211 h 0.514173 v 0.9664 c 0,0.0947 0.150625,0.27316 0.261841,0.27316 h 1.318031 c 0.08311,0 0.206817,-0.19006 0.206817,-0.27316 v -0.9664 h 0.517481 v 1.29345 c 0,0.16707 -0.353606,0.54201 -0.542322,0.54201 h -0.594171 v 1.1488 h -0.565096 v -1.1488 h -0.669139 c -0.253538,0 -0.447615,-0.40587 -0.447615,-0.54201 z"
       fill="#16141d"
       stroke="#16141d"
       stroke-width="0.0217554"
       id="path111"
       style="fill:#cccccc;stroke-width:0;stroke-miterlimit:5.25;stroke-dasharray:none" />
    <path
       d="m 96.533823,127.42559 c 0.995529,-0.007 1.991058,-0.009 2.988907,0 0.0116,0.99785 0.007,1.98525 0.007,2.98078 h -0.652083 c 0.0023,-0.78203 0,-1.55362 0.007,-2.33333 -0.782036,0.002 -1.564071,0.005 -2.346107,-0.002 0,-0.16245 -0.0046,-0.48501 -0.0046,-0.64513 z"
       fill="#171520"
       stroke="#171520"
       stroke-width="0.0217554"
       id="path113"
       style="fill:#cccccc;stroke-width:0;stroke-miterlimit:5.25;stroke-dasharray:none" />
    <path
       d="m 103.63944,127.4281 h 0.52784 l 0.86219,1.20188 0.94795,-1.20188 c 0.13924,-0.009 0.39682,0.007 0.53606,0 v 2.97827 h -0.53606 v -1.92491 l -0.93403,1.14404 -0.87611,-1.15564 v 1.93651 h -0.53016 z"
       fill="#171523"
       stroke="#171523"
       stroke-width="0.0217554"
       id="path115"
       style="fill:#cccccc;stroke-width:0;stroke-miterlimit:5.25;stroke-dasharray:none" />
    <path
       d="m 107.67029,127.40819 h 0.63932 v 1.88779 l 0.86209,-1.09299 0.85398,1.0489 c 0.0139,-0.62191 -0.0139,-1.22178 0,-1.8437 h 0.61727 c 0.0302,0.99785 0.0186,2.00033 0.0186,2.99818 h -0.63584 l -0.84237,-1.22178 -0.8737,1.22178 h -0.64396 c 0.002,-1.00017 -0.005,-1.99801 0.005,-2.99818 z"
       fill="#151321"
       stroke="#151321"
       stroke-width="0.0217554"
       id="path117"
       style="fill:#cccccc;stroke-width:0;stroke-miterlimit:5.25;stroke-dasharray:none" />
    <path
       d="m 118.57585,127.41167 h 0.55702 v 2.9947 h -0.55702 z"
       fill="#17151f"
       stroke="#17151f"
       stroke-width="0.0217554"
       id="path119"
       style="fill:#cccccc;stroke-width:0;stroke-miterlimit:5.25;stroke-dasharray:none" />
    <path
       d="m 120.54255,127.41167 h 0.81452 l -1.44667,1.55015 1.44667,1.44455 h -0.81452 l -1.13046,-1.1844 v -0.51309 z"
       fill="#14121e"
       stroke="#14121e"
       stroke-width="0.0217554"
       id="path121"
       style="fill:#cccccc;stroke-width:0;stroke-miterlimit:5.25;stroke-dasharray:none" />
    <path
       d="m 74.245809,127.76788 h 0.609928 v 2.26016 c 0,0.19972 -0.161568,0.37833 -0.284385,0.37833 h -2.67513 c 0.0093,-0.15547 0.03017,-0.46991 0.03945,-0.62307 h 2.310137 v -0.52213 h -2.057194 c -0.152017,0 -0.256498,-0.1814 -0.25761,-0.3221 l -0.0093,-1.17119 h 0.67993 v 0.87006 h 1.644131 z"
       fill="#161421"
       stroke="#161421"
       stroke-width="0.0217554"
       id="path123"
       style="fill:#cccccc;stroke-width:0;stroke-miterlimit:5.25;stroke-dasharray:none" />
    <path
       d="m 48.031374,128.38863 c 1.188137,-0.0441 2.378595,0.1578 3.566732,-0.0186 -1.304166,0.69385 -2.657064,1.28328 -3.970513,1.95161 0.09282,-0.64976 0.116029,-1.32969 0.403781,-1.93305 z"
       fill="#63afff"
       stroke="#63afff"
       stroke-width="0.0217554"
       id="path125" />
  </g>
</svg>
