<?xml version="1.0" encoding="UTF-8" standalone="no"?>
<svg
   xmlns:dc="http://purl.org/dc/elements/1.1/"
   xmlns:cc="http://creativecommons.org/ns#"
   xmlns:rdf="http://www.w3.org/1999/02/22-rdf-syntax-ns#"
   xmlns:svg="http://www.w3.org/2000/svg"
   xmlns="http://www.w3.org/2000/svg"
   xmlns:sodipodi="http://sodipodi.sourceforge.net/DTD/sodipodi-0.dtd"
   xmlns:inkscape="http://www.inkscape.org/namespaces/inkscape"
   version="1.1"
   width="596.17938"
   height="242.68915"
   id="svg2"
   sodipodi:docname="triforce.svg"
   inkscape:version="1.0.1 (3bc2e813f5, 2020-09-07)">
  <sodipodi:namedview
     pagecolor="#ffffff"
     bordercolor="#666666"
     borderopacity="1"
     objecttolerance="10"
     gridtolerance="10"
     guidetolerance="10"
     inkscape:pageopacity="0"
     inkscape:pageshadow="2"
     inkscape:window-width="2560"
     inkscape:window-height="1387"
     id="namedview37"
     showgrid="false"
     inkscape:zoom="2.0362999"
     inkscape:cx="298.08969"
     inkscape:cy="121.34457"
     inkscape:window-x="-8"
     inkscape:window-y="22"
     inkscape:window-maximized="1"
     inkscape:current-layer="svg2" />
  <defs
     id="defs4" />
  <metadata
     id="metadata7">
    <rdf:RDF>
      <cc:Work
         rdf:about="">
        <dc:format>image/svg+xml</dc:format>
        <dc:type
           rdf:resource="http://purl.org/dc/dcmitype/StillImage" />
        <dc:title />
      </cc:Work>
    </rdf:RDF>
  </metadata>
  <g
     transform="translate(-44.951788,-687.69711)"
     id="layer1">
    <path
       d="m 390.92904,781.89384 -54.2957,-94.19673 -54.80078,94.19673 15.40483,0 39.39595,-67.68022 39.64848,67.68022 z"
       id="path3010"
       style="fill:#6b4386;fill-opacity:1;stroke:none" />
    <path
       d="m 221.47595,886.19209 14.64721,0 -16.92006,31.06219 234.86047,0 -17.42513,-31.06219 15.15229,0 25.00127,44.19417 -280.82241,0 25.50636,-44.19417 z"
       id="path3804"
       style="fill:#6b4386;fill-opacity:1;stroke:none" />
    <path
       d="m 44.951788,789.46998 78.034282,0 0,14.77348 -29.168152,0 0,50.12882 -19.824244,0 0,-50.12882 -29.041886,0 z"
       id="path3884"
       style="fill:#6b4386;fill-opacity:1;stroke:none" />
    <path
       d="m 127.65803,854.37228 0,-64.9023 53.28554,0 c 0,0 18.30902,-1.13642 18.30902,14.77348 0,15.90991 0,13.13198 0,13.13198 0,0 -1.89405,14.52095 -18.30902,14.52095 28.28428,22.47589 28.28428,22.47589 28.28428,22.47589 l -24.87501,0 -28.66308,-22.47589 0,-14.52095 21.33947,0 c 0,0 3.91434,0.63134 3.91434,-2.77792 0,-3.40926 0,-7.70241 0,-7.70241 0,0 1.51523,-2.65165 -4.41941,-2.65165 -5.93465,0 -29.7995,0 -29.7995,0 l 0,50.12882 z"
       id="path3886"
       style="fill:#6b4386;fill-opacity:1;stroke:none" />
    <path
       d="m 210.99561,789.46998 19.82425,0 0,64.9023 -19.82425,0 z"
       id="path3888"
       style="fill:#6b4386;fill-opacity:1;stroke:none" />
    <path
       d="m 242.31034,854.37228 20.07678,0 0,-25.12754 34.85027,0 0,-14.64722 -34.85027,0 0,-10.35406 41.28999,0 0,-14.77348 -61.36677,0 z"
       id="path3890"
       style="fill:#6b4386;fill-opacity:1;stroke:none" />
    <path
       d="m 329.4375,789.46875 c -20.32932,0 -20.46875,14.78125 -20.46875,14.78125 l 0,35.96875 c 0,16.28872 20.46875,14.15625 20.46875,14.15625 l 39.28125,0 c 19.1929,0 19.5625,-14.15625 19.5625,-14.15625 l 0,-35.96875 c 0,-15.78363 -19.5625,-14.78125 -19.5625,-14.78125 l -39.28125,0 z m 0,14.78125 39.28125,0 0,35.96875 -39.28125,0 0,-35.96875 z"
       id="path3892"
       style="fill:#6b4386;fill-opacity:1;stroke:none" />
    <path
       d="m 395.60099,854.37228 0,-64.9023 53.28554,0 c 0,0 18.30902,-1.13642 18.30902,14.77348 0,15.90991 0,13.13198 0,13.13198 0,0 -1.89405,14.52095 -18.30902,14.52095 28.28428,22.47589 28.28428,22.47589 28.28428,22.47589 l -24.87501,0 -28.66308,-22.47589 0,-14.52095 21.33947,0 c 0,0 3.91434,0.63134 3.91434,-2.77792 0,-3.40926 0,-7.70241 0,-7.70241 0,0 1.51523,-2.65165 -4.41941,-2.65165 -5.93465,0 -29.7995,0 -29.7995,0 l 0,50.12882 z"
       id="path3886-1"
       style="fill:#6b4386;fill-opacity:1;stroke:none" />
    <path
       d="m 494.34375,789.46875 c -20.32932,0 -19.19325,14.77471 -19.19325,14.77471 l 0,35.98669 c 0,16.28872 19.19325,14.14485 19.19325,14.14485 l 39.28125,0 c 19.1929,0 16.15052,-14.14485 16.15052,-14.14485 l 0,-10.98541 -16.15052,0.005 -2.53125,0 0,10.96875 -36.75,0 0,-35.96875 36.75,0 0,10.34375 2.53125,0 16.15052,0.004 0,-10.35406 c 0,-15.78363 -16.15052,-14.77471 -16.15052,-14.77471 z"
       id="path3892-7"
       style="fill:#6b4386;fill-opacity:1;stroke:none" />
    <path
       d="m 555.45763,789.46998 0,64.9023 64.5235,0 0,-14.14213 -43.81537,0 0,-10.98541 31.06219,0 0,-14.64722 -31.06219,0 0,-10.35406 43.81537,0 0,-14.77348 -64.5235,0 z"
       id="path3941"
       style="fill:#6b4386;fill-opacity:1;stroke:none" />
    <path
       d="m 623.20099,789.46998 7.1342,0 0,1.32582 -2.84105,0 0,7.19734 -1.2627,0 0,-7.19734 -3.03045,0 z"
       id="path3965"
       style="fill:#6b4386;fill-opacity:1;stroke:none" />
    <path
       d="m 631.59788,797.99314 1.45209,0 0,-4.54568 3.21987,4.54568 3.40926,-4.54568 0,4.54568 1.45209,0 0,-8.52316 -1.45209,0 -3.40926,3.97748 -3.21987,-3.97748 -1.45209,0 z"
       id="path3971"
       style="fill:#6b4386;fill-opacity:1;stroke:none" />
    <path
       d="m 224.00133,870.91351 a 2.3991137,2.3991137 0 1 1 -4.79823,0 2.3991137,2.3991137 0 1 1 4.79823,0 z"
       id="path3973"
       style="fill:#6b4386;fill-opacity:1;stroke:none" />
    <path
       d="m 224.00133,870.91351 a 2.3991137,2.3991137 0 1 1 -4.79823,0 2.3991137,2.3991137 0 1 1 4.79823,0 z"
       transform="translate(152.28049,0.37882532)"
       id="path3973-4"
       style="fill:#6b4386;fill-opacity:1;stroke:none" />
    <path
       d="m 61.366767,862.57977 3.661803,0 8.965104,10.22779 2.020305,0 0,-10.22779 3.535534,0 0,16.66752 -3.535534,0 -10.985409,-13.25825 0,13.25825 -3.661803,0 z"
       id="path4041"
       style="fill:#6b4386;fill-opacity:1;stroke:none" />
    <path
       d="m 93.375,862.53125 c -0.78129,0.0118 -2.34375,0.43829 -2.34375,3.46875 l 0,13.25 2.78125,0 0,-6.4375 11.875,0 0,6.4375 3.15625,0 0,-13.25 c 0,0 0.12675,-3.40625 -3.15625,-3.40625 l -11.875,0 c 0,0 -0.17707,-0.0665 -0.4375,-0.0625 z M 93.8125,866 l 11.875,0 0,4.03125 -11.875,0 0,-4.03125 z"
       id="path4043"
       style="fill:#6b4386;fill-opacity:1;stroke:none" />
    <path
       d="m 120.46069,879.24729 2.52538,0 0,-13.25825 2.02031,0 4.79822,13.25825 3.91434,0 4.67196,-13.25825 1.89403,0 0,13.25825 3.283,0 0,-16.66752 -7.32361,0 -4.67195,13.8896 -3.91434,-13.8896 -7.19734,0 z"
       id="path4054"
       style="fill:#6b4386;fill-opacity:1;stroke:none" />
    <path
       d="m 152.91184,865.98904 c 0,0 0.12628,-3.40927 4.67196,-3.40927 4.54568,0 12.75317,0 12.75317,0 l 0,3.40927 -12.75317,0 0,10.48033 12.75317,0 0,2.77792 -14.64721,0 c 0,0 -2.77792,0 -2.77792,-2.77792 0,-3.66181 0,-10.48033 0,-10.48033 z"
       id="path4056"
       style="fill:#6b4386;fill-opacity:1;stroke:none" />
    <path
       d="m 184.5625,862.53125 c -1.20745,0.0118 -3.625,0.43829 -3.625,3.46875 l 0,10.46875 c 0,0 0.14562,2.78125 4.3125,2.78125 l 9.34375,0 c 0,0 4.65625,0.88056 4.65625,-2.78125 L 199.25,866 c 0,0 -0.11057,-3.40625 -4.65625,-3.40625 l -9.34375,0 c 0,0 -0.28502,-0.0665 -0.6875,-0.0625 z M 185.25,866 l 9.34375,0 0,10.46875 -9.34375,0 0,-10.46875 z"
       id="path4058"
       style="fill:#6b4386;fill-opacity:1;stroke:none" />
    <path
       d="m 338.97709,862.52029 c -0.78129,0.0118 -2.34375,0.43829 -2.34375,3.46875 l 0,13.25 2.78125,0 0,-6.4375 11.875,0 0,6.4375 3.15625,0 0,-13.25 c 0,0 0.12675,-3.40625 -3.15625,-3.40625 l -11.875,0 c 0,0 -0.17707,-0.0665 -0.4375,-0.0625 z m 0.4375,3.46875 11.875,0 0,4.03125 -11.875,0 0,-4.03125 z"
       id="path4043-0"
       style="fill:#6b4386;fill-opacity:1;stroke:none" />
    <path
       d="m 274.50895,865.98904 c 0,0 -1.38896,-3.40927 4.29315,-3.40927 5.68211,0 13.76333,0 13.76333,0 l 0,3.40927 -13.76333,0 0,4.04061 10.2278,0 0,2.77791 -10.2278,0 0,3.66181 13.76333,0 0,2.77792 -13.76333,0 c 0,0 -4.29315,0.88389 -4.29315,-2.77792 0,-3.66181 0,-10.48033 0,-10.48033 z"
       id="path4103"
       style="fill:#6b4386;fill-opacity:1;stroke:none" />
    <path
       d="m 260.61936,862.57977 -12.62691,0 c 0,0 -3.91434,-0.63134 -3.91434,3.40927 0,4.04061 0,4.04061 0,4.04061 0,0 0.50507,2.77791 3.91434,2.77791 3.40927,0 9.84899,0 9.84899,0 l 0,3.66181 -13.76333,0 0,2.77792 13.76333,0 c 0,0 4.54568,0.88389 4.54568,-2.77792 0,-3.66181 0,-3.66181 0,-3.66181 0,0 0,-2.77791 -1.76776,-2.77791 -2.77792,0 -12.62691,0 -12.62691,0 l 0,-4.04061 12.62691,0 z"
       id="path4107"
       style="fill:#6b4386;fill-opacity:1;stroke:none" />
    <path
       d="m 304.9398,865.98904 c 0,0 -0.25254,-3.40927 4.04061,-3.40927 4.29315,0 14.52094,0 14.52094,0 l 0,3.40927 -14.52094,0 0,10.48033 10.35406,0 0,-3.66181 -6.06091,0 0,-2.77791 10.22779,0 0,6.43972 c 0,0 -1.01016,2.77792 -4.16688,2.77792 -3.15672,0 -10.35406,0 -10.35406,0 0,0 -4.04061,0.88389 -4.04061,-2.77792 0,-3.66181 0,-10.48033 0,-10.48033 z"
       id="path4109"
       style="fill:#6b4386;fill-opacity:1;stroke:none" />
    <path
       d="m 395.60099,862.57977 3.6618,0 8.9651,10.22779 2.02031,0 0,-10.22779 3.53553,0 0,16.66752 -3.53553,0 -10.98541,-13.25825 0,13.25825 -3.6618,0 z"
       id="path4041-9"
       style="fill:#6b4386;fill-opacity:1;stroke:none" />
    <path
       d="m 443.70951,862.57977 3.66181,0 8.9651,10.22779 2.02031,0 0,-10.22779 3.53553,0 0,16.66752 -3.53553,0 -10.98541,-13.25825 0,13.25825 -3.66181,0 z"
       id="path4041-4"
       style="fill:#6b4386;fill-opacity:1;stroke:none" />
    <rect
       width="4.2931499"
       height="16.667521"
       x="426.41064"
       y="862.57977"
       id="rect4142"
       style="fill:#6b4386;fill-opacity:1;stroke:none" />
    <path
       d="m 527.42589,862.57977 3.66181,0 8.9651,10.22779 2.02031,0 0,-10.22779 3.53553,0 0,16.66752 -3.53553,0 -10.98541,-13.25825 0,13.25825 -3.66181,0 z"
       id="path4041-8"
       style="fill:#6b4386;fill-opacity:1;stroke:none" />
    <path
       d="m 591.78632,862.53187 c -1.20745,0.0118 -3.625,0.43829 -3.625,3.46875 l 0,10.46875 c 0,0 0.14562,2.78125 4.3125,2.78125 l 9.34375,0 c 0,0 4.65625,0.88056 4.65625,-2.78125 l 0,-10.46875 c 0,0 -0.11057,-3.40625 -4.65625,-3.40625 l -9.34375,0 c 0,0 -0.28502,-0.0665 -0.6875,-0.0625 z m 0.6875,3.46875 9.34375,0 0,10.46875 -9.34375,0 0,-10.46875 z"
       id="path4058-8"
       style="fill:#6b4386;fill-opacity:1;stroke:none" />
    <path
       d="m 472.49885,862.57977 17.67767,0 0,3.40927 -6.43972,0 0,13.25825 -4.79822,0 0,-13.25825 -6.43973,0 z"
       id="path4191"
       style="fill:#6b4386;fill-opacity:1;stroke:none" />
    <path
       d="m 501.2882,862.57977 15.02602,0 0,3.40927 -10.73287,0 0,4.04061 10.73287,0 0,2.77791 -10.73287,0 0,3.66181 10.73287,0 0,2.77792 -15.02602,0 z"
       id="path4193"
       style="fill:#6b4386;fill-opacity:1;stroke:none" />
    <path
       d="m 558.25,862.59375 0,16.65625 14.375,0 c 0,0 3.53125,0.88056 3.53125,-2.78125 l 0,-10.46875 c 0,0 -0.37452,-3.40625 -3.53125,-3.40625 l -14.375,0 z m 3.40625,3.40625 10.96875,0 0,10.46875 -10.96875,0 0,-10.46875 z"
       id="path4195"
       style="fill:#6b4386;fill-opacity:1;stroke:none" />
  </g>
</svg>
