<?xml version="1.0" encoding="UTF-8" standalone="no"?>
<!-- Generator: Adobe Illustrator 19.0.0, SVG Export Plug-In . SVG Version: 6.00 Build 0)  -->

<svg
   version="1.1"
   id="Camada_1"
   x="0px"
   y="0px"
   viewBox="0 0 284.5 136.1"
   style="enable-background:new 0 0 284.5 136.1;"
   xml:space="preserve"
   sodipodi:docname="vc4000.svg"
   inkscape:version="1.1.2 (b8e25be833, 2022-02-05)"
   xmlns:inkscape="http://www.inkscape.org/namespaces/inkscape"
   xmlns:sodipodi="http://sodipodi.sourceforge.net/DTD/sodipodi-0.dtd"
   xmlns="http://www.w3.org/2000/svg"
   xmlns:svg="http://www.w3.org/2000/svg"><defs
   id="defs87" /><sodipodi:namedview
   id="namedview85"
   pagecolor="#ffffff"
   bordercolor="#666666"
   borderopacity="1.0"
   inkscape:pageshadow="2"
   inkscape:pageopacity="0.0"
   inkscape:pagecheckerboard="0"
   showgrid="false"
   inkscape:zoom="1.328466"
   inkscape:cx="90.329749"
   inkscape:cy="-60.219833"
   inkscape:window-width="1280"
   inkscape:window-height="961"
   inkscape:window-x="3832"
   inkscape:window-y="568"
   inkscape:window-maximized="1"
   inkscape:current-layer="Camada_1" />
<g
   id="g18"
   style="fill:#ffffff">
	<path
   d="M7.8,10.1h8.9v29.3H7.8V10.1z"
   id="path2"
   style="fill:#ffffff" />
	<path
   d="M33.5,10.1l16.9,21.9V10.1h8.9v29.3H45.1L28.2,17.5v21.9h-8.9V10.1H33.5z"
   id="path4"
   style="fill:#ffffff" />
	<path
   d="M91.4,10.1v7.6H79.8v21.8h-8V17.6H60.2v-7.6H91.4z"
   id="path6"
   style="fill:#ffffff" />
	<path
   d="M92.7,10.1H125v6.8h-23.3v4h22v6.3h-22v5.3h23.6v6.8H92.7V10.1z"
   id="path8"
   style="fill:#ffffff" />
	<path
   d="M153.1,10.1c1.2,0,2.4,0.1,3.6,0.2c2.7,0.3,4.6,1.3,5.6,3c0.4,0.7,0.7,1.4,0.8,2.1c0.3,1.4,0.4,2.9,0.5,4.4   c0,2.4-0.3,4.2-1,5.5c-0.7,1.2-2.2,2.2-4.6,2.9c2.5,0.7,4,1.5,4.6,2.5c0.6,1,0.9,2.7,0.9,5.3v3.6h-8.9l-0.1-2.7   c0-1.9-0.2-3.1-0.7-3.6c-0.5-0.7-1.6-1-3.5-1h-14.2v7.3h-8.9V10.1H153.1z M136.1,17.6v6.9h12.5c0.9,0,1.8,0,2.8,0   c0.7,0,1.4-0.1,1.9-0.3c0.9-0.4,1.3-1.5,1.3-3.2c0-1.2-0.3-2.1-0.9-2.6c-0.5-0.4-1.4-0.6-2.7-0.7l-2.6-0.1H136.1z"
   id="path10"
   style="fill:#ffffff" />
	<path
   d="M196.3,10.1v7.6h-11.6v21.8h-8V17.6h-11.6v-7.6H196.3z"
   id="path12"
   style="fill:#ffffff" />
	<path
   d="M210.5,39.7c-1.4,0-2.7,0-3.8-0.1c-2.8-0.1-4.9-1-6.4-2.6c-0.6-0.7-1.1-1.3-1.4-2c-0.8-1.8-1.2-4.9-1.2-9.5l0-3.8   c0.1-2.6,0.4-4.7,0.9-6.5c0.7-2.1,2.2-3.6,4.5-4.5c1.7-0.6,6-0.9,13.1-1l6.4,0c4.6,0,7.6,0.3,9,0.8c3.1,1.1,4.9,3.4,5.3,6.8   c0.1,1.1,0.2,2.5,0.2,4.3l0.1,4.8c0,2-0.1,3.7-0.2,5.1c-0.1,1.1-0.4,2.2-0.9,3.3c-1.4,3.1-4.2,4.8-8.3,4.8c-0.6,0-2.1,0-4.5,0   L210.5,39.7z M221.9,32.2c1.4,0,2.5,0,3.2-0.1c1.2-0.2,2.1-0.8,2.6-1.7c0.5-1,0.7-3.1,0.7-6.4c0-1.7-0.1-2.9-0.2-3.6   c-0.3-1.4-1-2.2-2.2-2.6c-0.8-0.2-1.8-0.4-2.8-0.4c-1.6,0-3.5-0.1-5.7-0.1h-3.2c-1.2,0-2.4,0.1-3.6,0.1c-1.5,0.1-2.5,0.6-3.1,1.5   c-0.5,0.8-0.8,3.2-0.8,7.1c0,2.8,0.5,4.5,1.4,5.2c0.7,0.5,2.5,0.8,5.4,0.8L221.9,32.2z"
   id="path14"
   style="fill:#ffffff" />
	<path
   d="M252.9,10.1l16.9,21.9V10.1h8.9v29.3h-14.2l-16.9-21.9v21.9h-8.9V10.1H252.9z"
   id="path16"
   style="fill:#ffffff" />
</g>
<g
   id="g40"
   style="fill:#ffffff">
	<path
   d="M6.7,42.7h25.8v5.5H13.8v3.2h17.6v5.1H13.8v4.2h18.9v5.5h-26V42.7z"
   id="path20"
   style="fill:#ffffff" />
	<path
   d="M40.7,42.7v17.4h14.9v6.1H33.9V42.7H40.7z"
   id="path22"
   style="fill:#ffffff" />
	<path
   d="M56.9,42.7h25.8v5.5H64v3.2h17.6v5.1H64v4.2h18.9v5.5h-26V42.7z"
   id="path24"
   style="fill:#ffffff" />
	<path
   d="M103.9,48.9c-0.6-0.3-1.4-0.5-2.5-0.5H97c-2.2,0-3.6,0-4.1,0.1c-1.5,0.1-2.4,0.7-2.8,1.7c-0.2,0.6-0.3,1.7-0.3,3.4   c0,2.4,0.1,3.9,0.2,4.5c0.4,1.4,1.6,2.2,3.6,2.2l4.7,0l3.9,0c1.7-0.1,2.7-0.9,2.8-2.4l0-0.9h7.1v1.2c0,1.9-0.2,3.4-0.6,4.5   c-0.2,0.5-0.4,0.9-0.8,1.3c-1.1,1.1-3.1,1.8-5.9,2.1c-1.4,0.1-2.9,0.2-4.4,0.2c-0.6,0-1.5,0-2.8,0c-2.1,0-3.7,0-4.8-0.1   s-2.1-0.1-3.1-0.3c-1-0.1-2-0.3-2.8-0.6c-1-0.3-1.8-0.9-2.4-1.6c-0.9-1-1.4-2.2-1.6-3.6c-0.2-1.5-0.3-3.3-0.3-5.4   c0-2,0.1-3.8,0.2-5.5c0.1-0.9,0.3-1.7,0.6-2.5c0.8-2.2,2.6-3.5,5.3-4c2.1-0.3,5-0.5,8.7-0.5h3.3c4,0,6.8,0.4,8.4,1.2   c1.2,0.6,2,1.7,2.5,3.3c0.2,0.7,0.3,2.1,0.3,4.3h-7.1C104.8,50,104.4,49.2,103.9,48.9z"
   id="path26"
   style="fill:#ffffff" />
	<path
   d="M140.7,42.7v6.1h-10.3v17.4h-7.1V48.7H113v-6.1H140.7z"
   id="path28"
   style="fill:#ffffff" />
	<path
   d="M162.5,42.7c1,0,1.9,0.1,2.9,0.2c2.2,0.2,3.7,1,4.5,2.4c0.3,0.6,0.5,1.1,0.7,1.6c0.2,1.1,0.4,2.3,0.4,3.5   c0,1.9-0.3,3.4-0.8,4.4s-1.8,1.7-3.7,2.3c2,0.5,3.2,1.2,3.7,2s0.7,2.2,0.7,4.2v2.9h-7.1l-0.1-2.2c0-1.5-0.2-2.4-0.5-2.9   c-0.4-0.5-1.3-0.8-2.8-0.8H149v5.8h-7.1V42.7H162.5z M149,48.7v5.5h10c0.7,0,1.5,0,2.3,0c0.6,0,1.1-0.1,1.5-0.3   c0.7-0.3,1.1-1.2,1.1-2.5c0-1-0.2-1.6-0.7-2.1c-0.4-0.3-1.1-0.5-2.2-0.5l-2.1-0.1H149z"
   id="path30"
   style="fill:#ffffff" />
	<path
   d="M182.6,66.3c-1.1,0-2.2,0-3-0.1c-2.2-0.1-3.9-0.8-5.1-2.1c-0.5-0.5-0.9-1.1-1.1-1.6c-0.6-1.4-1-3.9-1-7.6l0-3   c0.1-2.1,0.3-3.8,0.7-5.2c0.5-1.7,1.7-2.9,3.6-3.6c1.3-0.5,4.8-0.7,10.4-0.8l5.1,0c3.7,0,6.1,0.2,7.2,0.6c2.5,0.9,3.9,2.7,4.3,5.5   c0.1,0.8,0.2,2,0.2,3.4l0.1,3.9c0,1.6-0.1,2.9-0.2,4.1c-0.1,0.9-0.3,1.8-0.7,2.6c-1.1,2.5-3.3,3.8-6.7,3.9c-0.5,0-1.7,0-3.6,0   L182.6,66.3z M191.7,60.3c1.2,0,2,0,2.6-0.1c1-0.1,1.6-0.6,2-1.4s0.6-2.5,0.6-5.1c0-1.4-0.1-2.4-0.2-2.9c-0.2-1.1-0.8-1.8-1.8-2.1   c-0.7-0.2-1.4-0.3-2.3-0.3c-1.3,0-2.8,0-4.6-0.1h-2.6c-1,0-1.9,0-2.9,0.1c-1.2,0.1-2,0.5-2.5,1.2c-0.4,0.7-0.6,2.5-0.6,5.7   c0,2.2,0.4,3.6,1.1,4.2c0.5,0.4,2,0.7,4.4,0.7L191.7,60.3z"
   id="path32"
   style="fill:#ffffff" />
	<path
   d="M216.6,42.7l13.5,17.5V42.7h7.1v23.5h-11.4l-13.5-17.5v17.5h-7.1V42.7H216.6z"
   id="path34"
   style="fill:#ffffff" />
	<path
   d="M240,42.7h7.1v23.5H240V42.7z"
   id="path36"
   style="fill:#ffffff" />
	<path
   d="M270.6,48.9c-0.6-0.3-1.4-0.5-2.5-0.5h-4.4c-2.2,0-3.6,0-4.1,0.1c-1.5,0.1-2.4,0.7-2.8,1.7c-0.2,0.6-0.3,1.7-0.3,3.4   c0,2.4,0.1,3.9,0.2,4.5c0.4,1.4,1.6,2.2,3.6,2.2l4.7,0l3.9,0c1.7-0.1,2.7-0.9,2.8-2.4l0-0.9h7.1v1.2c0,1.9-0.2,3.4-0.6,4.5   c-0.2,0.5-0.4,0.9-0.8,1.3c-1.1,1.1-3.1,1.8-5.9,2.1c-1.4,0.1-2.9,0.2-4.4,0.2c-0.6,0-1.5,0-2.8,0c-2.1,0-3.7,0-4.8-0.1   s-2.1-0.1-3.1-0.3s-2-0.3-2.8-0.6c-1-0.3-1.8-0.9-2.4-1.6c-0.9-1-1.4-2.2-1.6-3.6c-0.2-1.5-0.3-3.3-0.3-5.4c0-2,0.1-3.8,0.2-5.5   c0.1-0.9,0.3-1.7,0.6-2.5c0.8-2.2,2.6-3.5,5.3-4c2.1-0.3,5-0.5,8.7-0.5h3.3c4,0,6.8,0.4,8.4,1.2c1.2,0.6,2,1.7,2.5,3.3   c0.2,0.7,0.3,2.1,0.3,4.3h-7.1C271.5,50,271.2,49.2,270.6,48.9z"
   id="path38"
   style="fill:#ffffff" />
</g>
<g
   id="g54"
   style="fill:#ff0000">
	<path
   d="M16.7,70.1l13.5,25.5l13.7-25.5h11.3l-18.4,34H23.5l-18.4-34H16.7z"
   id="path42"
   style="fill:#ff0000" />
	<path
   d="M82.1,79.2c-0.8-0.5-2.1-0.7-3.6-0.7h-6.3c-3.2,0-5.2,0-5.9,0.1c-2.2,0.1-3.5,1-4,2.5c-0.3,0.8-0.5,2.5-0.5,5   c0,3.5,0.1,5.7,0.3,6.6c0.5,2.1,2.3,3.1,5.2,3.1l6.9,0l5.7,0c2.5-0.1,3.9-1.2,4.1-3.5l0.1-1.2h10.4v1.7c0,2.7-0.3,4.9-0.9,6.5   c-0.2,0.7-0.6,1.4-1.2,1.9c-1.6,1.7-4.4,2.7-8.6,3c-2.1,0.2-4.2,0.3-6.3,0.3c-0.9,0-2.2,0-4,0c-3.1,0-5.4,0-7-0.1s-3.1-0.2-4.6-0.4   c-1.5-0.2-2.8-0.5-4.1-0.9c-1.5-0.5-2.7-1.2-3.5-2.3c-1.3-1.5-2.1-3.2-2.4-5.2c-0.3-2.1-0.5-4.7-0.5-7.8c0-2.9,0.1-5.6,0.3-7.9   c0.1-1.3,0.4-2.5,0.8-3.7c1.2-3.2,3.8-5.1,7.7-5.8c3-0.5,7.2-0.7,12.6-0.7h4.7c5.9,0,9.9,0.6,12.2,1.7c1.7,0.8,2.9,2.5,3.6,4.8   c0.3,1,0.4,3.1,0.5,6.2H83.5C83.4,80.7,82.9,79.6,82.1,79.2z"
   id="path44"
   style="fill:#ff0000" />
	<path
   d="M135.1,70h11.8v20.4h5.1v7.4h-5.1v6.3h-9.7v-6.3h-26.3V85.3L135.1,70z M118.1,90.4h19.1v-12L118.1,90.4z"
   id="path46"
   style="fill:#ff0000" />
	<path
   d="M155.4,72.9c1.8-1.7,5.1-2.7,9.7-3c2.8-0.2,5.4-0.3,7.8-0.3c2.5,0,5.1,0.1,7.8,0.3c2.4,0.2,4.5,0.5,6.3,1   c1.3,0.4,2.4,1,3.4,2c0.8,0.8,1.4,1.7,1.8,2.7c0.5,1.4,0.9,3,1.1,4.8c0.2,2.4,0.4,5,0.4,7.7c0,2.1-0.1,4-0.2,5.7   c-0.3,3.3-1.2,5.8-2.6,7.4c-1.3,1.5-3.7,2.5-7.2,2.9c-1.4,0.2-2.7,0.3-4,0.4c-1,0.1-2.5,0.1-4.5,0.1c-7,0-11.8-0.2-14.3-0.7   c-2.9-0.6-5-1.7-6.2-3.3c-1.1-1.5-1.8-3.8-2.1-6.8c-0.2-1.9-0.3-3.9-0.3-5.9C152.2,79.8,153.3,74.8,155.4,72.9z M161.9,86.1   c0,2.5,0,4,0,4.4c0.1,2.8,1.5,4.4,4,4.8c1.5,0.2,3.9,0.4,6.9,0.4c1.7,0,3.5-0.1,5.6-0.2c1.8-0.1,3.1-0.5,3.9-1.2   c0.9-0.8,1.3-2,1.4-3.8l0.1-3.1l-0.1-3.6c-0.1-3.3-2-5.1-5.6-5.4l-5.4-0.1l-5.4,0.1c-3.6,0.2-5.5,2-5.6,5.4L161.9,86.1z"
   id="path48"
   style="fill:#ff0000" />
	<path
   d="M198,72.9c1.8-1.7,5.1-2.7,9.7-3c2.8-0.2,5.4-0.3,7.8-0.3c2.5,0,5.1,0.1,7.8,0.3c2.4,0.2,4.5,0.5,6.3,1   c1.3,0.4,2.4,1,3.4,2c0.8,0.8,1.4,1.7,1.8,2.7c0.5,1.4,0.9,3,1.1,4.8c0.2,2.4,0.4,5,0.4,7.7c0,2.1-0.1,4-0.2,5.7   c-0.3,3.3-1.2,5.8-2.6,7.4c-1.3,1.5-3.7,2.5-7.2,2.9c-1.4,0.2-2.7,0.3-4,0.4c-1,0.1-2.5,0.1-4.5,0.1c-7,0-11.8-0.2-14.3-0.7   c-2.9-0.6-5-1.7-6.2-3.3c-1.1-1.5-1.8-3.8-2.1-6.8c-0.2-1.9-0.3-3.9-0.3-5.9C194.8,79.8,195.9,74.8,198,72.9z M204.5,86.1   c0,2.5,0,4,0,4.4c0.1,2.8,1.5,4.4,4,4.8c1.5,0.2,3.9,0.4,6.9,0.4c1.7,0,3.5-0.1,5.6-0.2c1.8-0.1,3.1-0.5,3.9-1.2   c0.9-0.8,1.3-2,1.4-3.8l0.1-3.1l-0.1-3.6c-0.1-3.3-2-5.1-5.6-5.4l-5.4-0.1l-5.4,0.1c-3.6,0.2-5.5,2-5.6,5.4L204.5,86.1z"
   id="path50"
   style="fill:#ff0000" />
	<path
   d="M240.6,72.9c1.8-1.7,5.1-2.7,9.7-3c2.8-0.2,5.4-0.3,7.8-0.3c2.5,0,5.1,0.1,7.8,0.3c2.4,0.2,4.5,0.5,6.3,1   c1.3,0.4,2.4,1,3.4,2c0.8,0.8,1.4,1.7,1.8,2.7c0.5,1.4,0.9,3,1.1,4.8c0.2,2.4,0.4,5,0.4,7.7c0,2.1-0.1,4-0.2,5.7   c-0.3,3.3-1.2,5.8-2.6,7.4c-1.3,1.5-3.7,2.5-7.2,2.9c-1.4,0.2-2.7,0.3-4,0.4c-1,0.1-2.5,0.1-4.5,0.1c-7,0-11.8-0.2-14.3-0.7   c-2.9-0.6-5-1.7-6.2-3.3c-1.1-1.5-1.8-3.8-2.1-6.8c-0.2-1.9-0.3-3.9-0.3-5.9C237.3,79.8,238.4,74.8,240.6,72.9z M247.1,86.1   c0,2.5,0,4,0,4.4c0.1,2.8,1.5,4.4,4,4.8c1.5,0.2,3.9,0.4,6.9,0.4c1.7,0,3.5-0.1,5.6-0.2c1.8-0.1,3.1-0.5,3.9-1.2   c0.9-0.8,1.3-2,1.4-3.8l0.1-3.1l-0.1-3.6c-0.1-3.3-2-5.1-5.6-5.4l-5.4-0.1l-5.4,0.1c-3.6,0.2-5.5,2-5.6,5.4L247.1,86.1z"
   id="path52"
   style="fill:#ff0000" />
</g>
<g
   id="g82"
   style="fill:#ffffff">
	<path
   d="M10.1,109.7l8.6,15.2l8.6-15.2h2.5l-9.9,17.6h-2.4l-9.9-17.6H10.1z"
   id="path56"
   style="fill:#ffffff" />
	<path
   d="M29.7,109.7h2.2v17.6h-2.2V109.7z"
   id="path58"
   style="fill:#ffffff" />
	<path
   d="M45.4,109.7c2.4,0,4,0.1,4.8,0.4c1.7,0.5,2.8,1.6,3.3,3.3c0.4,1.3,0.6,3.2,0.6,5.6c0,2.9-0.4,4.9-1.1,6   c-0.9,1.5-2.7,2.2-5.4,2.3l-2.4,0H33.1v-17.6H45.4z M35.3,111.6v13.7h9.2l2.9,0c1.3,0,2.3-0.2,2.9-0.6c0.7-0.5,1.2-1.3,1.4-2.6   c0.1-0.9,0.2-1.8,0.2-2.8c0-1.3-0.1-2.6-0.2-3.9c-0.1-0.8-0.3-1.6-0.5-2.1c-0.3-0.7-0.8-1.1-1.6-1.3c-0.6-0.2-2.1-0.3-4.4-0.3H35.3   z"
   id="path60"
   style="fill:#ffffff" />
	<path
   d="M72.8,109.7v1.9H57.4v5.7h14.6v1.9H57.4v6.1h15.4v1.9H55.2v-17.6H72.8z"
   id="path62"
   style="fill:#ffffff" />
	<path
   d="M73.8,115.1c0.1-1.2,0.3-2.3,0.7-3.1c0.3-0.7,0.8-1.3,1.5-1.6c0.7-0.4,1.3-0.6,2.1-0.7c1-0.1,2.2-0.2,3.5-0.2   c0.9,0,2.1,0,3.4,0c1.2,0,2.2,0,3.3,0c2.7,0,4.5,0.3,5.5,0.8c1.4,0.7,2.1,2.3,2.3,4.8c0.1,1.1,0.1,2.2,0.1,3.4c0,1.1,0,2.2-0.1,3.4   c-0.1,1.2-0.3,2.3-0.7,3.1c-0.6,1.4-2.2,2.2-4.8,2.4c-1.8,0.1-3.6,0.2-5.6,0.1l-3.3,0c-1.4,0-2.5-0.1-3.5-0.2   c-0.8-0.1-1.5-0.3-2.1-0.7c-1.3-0.8-2-2.3-2.2-4.7c-0.1-1.2-0.1-2.3-0.1-3.4C73.7,117.3,73.8,116.2,73.8,115.1z M76,118.4   c0,1.9,0,3.3,0.2,4.2s0.4,1.6,0.8,2s1,0.6,1.9,0.7c0.7,0.1,1.5,0.1,2.5,0.1l3.5,0l3.5,0c0.9,0,1.7,0,2.5-0.1   c1.1-0.1,1.9-0.5,2.3-1.1c0.3-0.5,0.5-1.4,0.6-2.6c0.1-1.1,0.1-2.1,0.1-3.2c0-1.1,0-2.1-0.1-3.2c-0.1-1.2-0.3-2-0.6-2.5   c-0.4-0.7-1.2-1.1-2.3-1.2c-0.7-0.1-1.5-0.1-2.5-0.1l-3.6,0l-3.5,0c-2,0-3.3,0.2-3.8,0.5c-0.9,0.4-1.4,1.5-1.5,3.4   C76,116.3,76,117.4,76,118.4z"
   id="path64"
   style="fill:#ffffff" />
	<path
   d="M126.2,121.3v1.2c0,1.5-0.3,2.6-0.8,3.3c-0.6,0.8-1.6,1.3-2.9,1.5c-1.2,0.2-3.5,0.3-6.8,0.3c-2,0-3.6,0-4.8-0.1   c-1-0.1-1.8-0.3-2.6-0.7c-0.7-0.3-1.2-0.8-1.5-1.5c-0.6-1.3-0.9-3.7-1-7.3c0-1.6,0.1-3,0.2-4.2c0.1-0.9,0.4-1.6,0.8-2.2   c0.5-0.7,1.2-1.2,2-1.4c1.4-0.4,4.2-0.6,8.3-0.6c1.2,0,2.3,0,3.3,0c0.6,0,1.2,0.1,1.7,0.1c2.3,0.3,3.6,1.7,3.8,4.1l0.1,1.5h-2.2   v-0.5c0-1.1-0.2-2-0.7-2.5c-0.4-0.5-1.2-0.7-2.5-0.8c-1.6,0-3.1-0.1-4.3-0.1c-1,0-2.2,0-3.6,0.1c-1.4,0-2.3,0.2-2.9,0.4   c-0.9,0.3-1.4,1.1-1.6,2.3c-0.1,1.1-0.2,2.3-0.2,3.8c0,1.2,0,2.4,0.1,3.5c0.1,1.7,0.4,2.8,1,3.3s1.7,0.8,3.4,0.8c1.2,0,2.4,0,3.5,0   l4.6-0.1c0.5,0,1.1-0.1,1.5-0.3c0.8-0.2,1.4-0.7,1.5-1.6c0.1-0.3,0.1-1,0.1-2.3H126.2z"
   id="path66"
   style="fill:#ffffff" />
	<path
   d="M126.9,115.1c0.1-1.2,0.3-2.3,0.7-3.1c0.3-0.7,0.8-1.3,1.5-1.6c0.7-0.4,1.3-0.6,2.1-0.7c1-0.1,2.2-0.2,3.5-0.2   c0.9,0,2.1,0,3.4,0c1.2,0,2.2,0,3.3,0c2.7,0,4.5,0.3,5.5,0.8c1.4,0.7,2.1,2.3,2.3,4.8c0.1,1.1,0.1,2.2,0.1,3.4c0,1.1,0,2.2-0.1,3.4   c-0.1,1.2-0.3,2.3-0.7,3.1c-0.6,1.4-2.2,2.2-4.8,2.4c-1.8,0.1-3.6,0.2-5.6,0.1l-3.3,0c-1.4,0-2.5-0.1-3.5-0.2   c-0.8-0.1-1.5-0.3-2.1-0.7c-1.3-0.8-2-2.3-2.2-4.7c-0.1-1.2-0.1-2.3-0.1-3.4C126.8,117.3,126.9,116.2,126.9,115.1z M129.1,118.4   c0,1.9,0,3.3,0.2,4.2s0.4,1.6,0.8,2s1,0.6,1.9,0.7c0.7,0.1,1.5,0.1,2.5,0.1l3.5,0l3.5,0c0.9,0,1.7,0,2.5-0.1   c1.1-0.1,1.9-0.5,2.3-1.1c0.3-0.5,0.5-1.4,0.6-2.6c0.1-1.1,0.1-2.1,0.1-3.2c0-1.1,0-2.1-0.1-3.2c-0.1-1.2-0.3-2-0.6-2.5   c-0.4-0.7-1.2-1.1-2.3-1.2c-0.7-0.1-1.5-0.1-2.5-0.1l-3.6,0l-3.5,0c-2,0-3.3,0.2-3.8,0.5c-0.9,0.4-1.4,1.5-1.5,3.4   C129.1,116.3,129,117.4,129.1,118.4z"
   id="path68"
   style="fill:#ffffff" />
	<path
   d="M153.7,109.7l10.3,15.3l10.3-15.3h3.3v17.6h-2.2v-15.5l-10.5,15.5h-1.8l-10.5-15.5v15.5h-2.2v-17.6H153.7z"
   id="path70"
   style="fill:#ffffff" />
	<path
   d="M192.1,109.7l1.9,0.1c0.5,0,1,0.1,1.4,0.1c1.3,0.2,2.2,0.9,2.7,2c0.3,0.8,0.5,1.9,0.5,3.4c0,1.9-0.3,3.1-0.9,3.8   c-0.7,0.9-1.9,1.4-3.6,1.4c-0.4,0-1.1,0-1.9,0h-10.7v6.8h-2.2v-17.6H192.1z M181.4,111.6v7h10.9c1.7,0,2.7-0.2,3.2-0.7   c0.5-0.4,0.7-1.5,0.7-3.2c0-1.3-0.3-2.2-1-2.7c-0.4-0.3-1.4-0.4-2.9-0.4H181.4z"
   id="path72"
   style="fill:#ffffff" />
	<path
   d="M201.3,109.7v11.5c0,1.3,0.1,2.1,0.1,2.4c0.2,0.9,0.7,1.4,1.6,1.6c0.7,0.2,1.4,0.2,2.3,0.3c1.7,0.1,3.5,0.1,5.4,0.1h1.2   c2.3,0,3.7-0.2,4.3-0.5c0.6-0.3,1-0.8,1.1-1.7c0.1-0.4,0.1-1.1,0.1-2.2v-11.5h2.2v11.5c0,1,0,1.8-0.1,2.5c-0.1,1.6-1,2.7-2.6,3.3   c-0.9,0.3-2.4,0.5-4.5,0.5c-1.4,0-2.6,0-3.6,0l-2.7,0c-1,0-2-0.1-2.9-0.2c-1-0.1-1.8-0.3-2.5-0.7c-0.6-0.3-1-0.8-1.3-1.4   c-0.3-0.5-0.4-1.1-0.5-1.6c-0.1-0.7-0.1-1.5-0.1-2.5v-11.4H201.3z"
   id="path74"
   style="fill:#ffffff" />
	<path
   d="M220,109.7h20v1.9h-8.9v15.7h-2.2v-15.7H220V109.7z"
   id="path76"
   style="fill:#ffffff" />
	<path
   d="M257.6,109.7v1.9h-15.4v5.7h14.6v1.9h-14.6v6.1h15.4v1.9H240v-17.6H257.6z"
   id="path78"
   style="fill:#ffffff" />
	<path
   d="M272.5,109.7c2.3,0,3.9,0.3,4.8,0.8c0.8,0.4,1.3,1.1,1.5,1.9c0.1,0.5,0.2,1.4,0.2,2.4c0,1.5-0.2,2.5-0.5,3.1   c-0.4,0.8-1.3,1.3-2.6,1.6l0.9,0.3c0.4,0.1,0.8,0.4,1.1,0.6c0.6,0.5,0.9,1.4,0.9,2.7c0,0.6,0,1.3,0,2.2l0,2h-2.2v-1.7v-1.3   c0-1.1-0.1-1.8-0.2-2.3c-0.3-0.8-0.8-1.3-1.6-1.6c-0.4-0.1-0.7-0.2-1.1-0.2H261v7h-2.2v-17.6H272.5z M261,111.6v6.7h11.5l1.5,0   c1.2-0.1,1.9-0.4,2.3-1c0.3-0.5,0.4-1.3,0.4-2.5c0-1.4-0.4-2.3-1.2-2.7c-0.6-0.3-1.6-0.4-3.1-0.4H261z"
   id="path80"
   style="fill:#ffffff" />
</g>
</svg>
