<?xml version="1.0" encoding="UTF-8" standalone="no"?>
<!-- Created with Inkscape (http://www.inkscape.org/) -->

<svg
   version="1.1"
   id="svg2"
   width="379.86084"
   height="153.65862"
   viewBox="0 0 1101.5964 445.60998"
   sodipodi:docname="vpinball.svg"
   inkscape:version="1.1.2 (0a00cf5339, 2022-02-04)"
   xmlns:inkscape="http://www.inkscape.org/namespaces/inkscape"
   xmlns:sodipodi="http://sodipodi.sourceforge.net/DTD/sodipodi-0.dtd"
   xmlns:xlink="http://www.w3.org/1999/xlink"
   xmlns="http://www.w3.org/2000/svg"
   xmlns:svg="http://www.w3.org/2000/svg">
  <defs
     id="defs6">
    <linearGradient
       inkscape:collect="always"
       id="linearGradient39864">
      <stop
         style="stop-color:#edea22;stop-opacity:1"
         offset="0"
         id="stop39860" />
      <stop
         style="stop-color:#ffffff;stop-opacity:1"
         offset="0.74777329"
         id="stop54640" />
      <stop
         style="stop-color:#ffffff;stop-opacity:1"
         offset="1"
         id="stop39862" />
    </linearGradient>
    <linearGradient
       inkscape:collect="always"
       xlink:href="#linearGradient39864"
       id="linearGradient39866"
       x1="521.14966"
       y1="328.12241"
       x2="547.15253"
       y2="114.90797"
       gradientUnits="userSpaceOnUse" />
  </defs>
  <sodipodi:namedview
     id="namedview4"
     pagecolor="#000000"
     bordercolor="#111111"
     borderopacity="1"
     inkscape:pageshadow="0"
     inkscape:pageopacity="0"
     inkscape:pagecheckerboard="1"
     showgrid="false"
     inkscape:snap-global="true"
     inkscape:zoom="1.5948905"
     inkscape:cx="127.90847"
     inkscape:cy="69.910755"
     inkscape:window-width="1366"
     inkscape:window-height="703"
     inkscape:window-x="0"
     inkscape:window-y="0"
     inkscape:window-maximized="1"
     inkscape:current-layer="g8"
     fit-margin-top="0"
     fit-margin-left="0"
     fit-margin-right="0"
     fit-margin-bottom="0" />
  <g
     inkscape:groupmode="layer"
     inkscape:label="VisualPinball"
     id="g8"
     transform="translate(-65.245522,-52.552734)">
    <text
       xml:space="preserve"
       style="font-size:5.8px;line-height:1.25;font-family:TrasksHand;-inkscape-font-specification:TrasksHand;text-decoration-color:#000000;fill:#ef00eb;stroke:#0105ff;stroke-width:7.25;-inkscape-stroke:none;stop-color:#000000"
       x="214.21596"
       y="106.57784"
       id="text4082"
       inkscape:label="Signature"><tspan
         sodipodi:role="line"
         id="tspan4080"
         style="font-size:5.8px;fill:#fafafa;fill-opacity:0.4;stroke:none;stroke-width:7.25"
         x="214.21596"
         y="106.57784">John Loreth 2022</tspan></text>
    <path
       id="path1219"
       style="color:#000000;display:inline;fill:#f0352b;fill-opacity:1;stroke-linecap:round;-inkscape-stroke:none"
       inkscape:label="Red offset"
       sodipodi:type="inkscape:offset"
       inkscape:radius="16.955635"
       inkscape:original="M 395.49023 69.507812 C 373.38328 69.507813 353.63933 80.177294 338.8418 94.998047 C 333.89754 99.950055 329.48225 105.49482 325.70898 111.45117 C 321.21701 107.33128 314.86073 104.95598 309.18945 105.9668 C 300.50666 107.51437 294.38428 114.41636 291.88867 122.19531 C 291.86667 122.26481 291.84512 122.33447 291.82422 122.4043 C 291.02111 125.04638 290.46049 127.13315 289.7832 129.48633 C 285.65701 128.20402 280.61658 128.15511 276.04102 130.27734 C 267.66128 128.06902 259.14316 130.19074 251.90625 135.37891 C 248.59894 130.8973 244.14161 128.83959 239.95898 128.11133 C 235.75704 127.37971 231.36962 127.87147 227.10352 130.19531 C 226.78879 130.36675 226.50237 130.63551 226.19336 130.83203 C 225.13197 130.20797 224.13699 129.51209 222.9043 129.05859 L 222.90234 129.05859 C 216.32538 126.63962 209.09479 128.46373 204.18555 132.99414 C 203.52012 131.71494 202.77581 130.55017 201.95508 129.64258 C 201.60047 129.24954 201.22423 128.87657 200.82812 128.52539 C 195.61912 123.91753 187.5253 122.61968 182.02344 124.11719 C 181.73229 124.19639 181.50155 124.32129 181.2207 124.4082 C 181.09783 113.88625 171.52866 104.35935 160.99414 104.35938 C 156.53966 104.35935 152.30462 106.12571 148.83203 108.88672 C 146.18954 107.09372 143.16175 105.68831 139.625 105.48438 C 139.30697 105.46658 138.98843 105.45939 138.66992 105.46289 C 133.11888 105.51529 130.7419 107.16094 128.05078 108.97461 C 128.02638 108.99111 128.00487 109.0166 127.98047 109.0332 C 124.63364 106.58177 120.87837 105.58886 117.99414 105.4082 C 109.38166 104.86875 102.32528 107.86948 96.677734 115.36914 C 96.449172 115.67287 96.232853 115.98562 96.029297 116.30664 C 87.872547 129.15901 84.650561 144.21738 82.683594 156.2168 C 82.635064 156.51431 82.595974 156.81329 82.566406 157.11328 C 81.825621 164.56762 80.962477 176.7313 90.273438 186.80273 C 90.299368 186.83083 90.325413 186.85882 90.351562 186.88672 C 96.42392 193.34878 104.67302 195.64779 111.97852 195.3125 C 114.41178 195.20084 116.80329 194.80464 119.13477 194.12695 C 119.65303 193.97629 120.16231 193.79632 120.66016 193.58789 C 126.43959 191.16907 130.70736 187.83244 134.36523 184.35547 C 136.7868 187.92927 140.10595 190.53575 144.53906 192.25586 C 150.43874 194.54503 155.10785 194.51978 160.66016 193.87305 C 163.03651 193.59625 165.55959 193.10321 168.11719 192.28711 C 170.76621 193.39579 173.48893 194.20706 176.12109 194.55078 C 176.46873 194.59618 176.81793 194.62874 177.16797 194.64844 C 179.22437 194.76403 181.01051 194.63944 182.66211 194.42773 C 153.56865 211.61257 130.98426 239.66951 123.37109 273.58984 C 123.26179 274.07445 123.17123 274.5631 123.09961 275.05469 L 101.21875 426.32812 C 101.17295 426.64679 101.13525 426.96655 101.10547 427.28711 C 99.830897 440.84648 104.37029 454.13814 112.85156 462.84766 C 121.33283 471.55717 132.68024 475.71891 143.87109 475.97461 C 166.25178 476.48598 190.11182 459.00608 194.07617 430.9082 L 198.83594 398.11719 C 199.0432 398.22132 199.23872 398.36149 199.44727 398.46094 C 221.11366 408.79309 246.05327 403.94536 274.51953 392.48438 C 274.54623 392.47337 274.57291 392.46227 274.59961 392.45117 C 286.21069 387.71584 296.92787 381.44473 305.35742 372.03906 C 307.90475 370.04435 310.34328 367.94685 312.67578 365.75391 C 313.71392 374.1587 316.99182 381.99332 322.08984 387.94336 C 330.17543 397.38027 341.40409 402.1488 352.63867 403.17969 C 365.85975 404.39286 380.2058 399.42939 390.97461 389.51758 C 399.4412 399.15213 411.26198 403.62425 422.37891 404.23633 C 445.0358 405.48378 470.47604 391.05861 474.22461 363.99414 C 474.22961 363.96164 474.23358 363.92908 474.23828 363.89648 C 474.23828 363.89648 477.1875 341.78348 480.07031 319.72266 C 481.51172 308.69224 482.93593 297.67887 483.97266 289.40234 C 484.49102 285.26408 484.91116 281.82506 485.19727 279.32031 C 485.26597 278.71893 485.30371 278.30527 485.35742 277.80469 C 487.34185 272.28771 492.76169 269.78556 496.20312 269.73633 C 496.78751 269.72833 496.95457 269.79303 497.22266 269.84375 C 497.21766 270.19859 497.24687 270.3847 497.07812 271.68359 C 497.07313 271.72659 497.0676 271.76949 497.0625 271.8125 L 483.66602 380.63867 C 483.66569 380.64167 483.66634 380.64348 483.66602 380.64648 C 479.8061 411.55712 489.73634 438.32409 507.37695 455.625 C 524.98522 472.89418 548.85878 481.06268 572.57422 481.20312 C 601.70436 481.68212 622.11178 458.59442 624.27344 435.53711 C 625.35606 423.9893 622.42037 411.39431 613.60547 401.69141 C 605.06701 392.29279 591.3778 387.37212 577.13477 388.11914 C 577.12977 388.11714 577.11242 388.10717 577.10742 388.10547 C 576.95054 386.83598 577.68185 378.4923 579.57227 364.79297 L 580.375 359.12695 C 583.63948 363.75387 587.17135 368.18456 591.06641 372.23047 C 609.76798 391.65634 635.90207 404.96941 664.12891 402.94531 C 663.79244 402.93831 663.45343 402.99417 663.11719 402.98438 L 664.80273 402.93555 C 705.86832 403.52299 748.46644 381.83434 772.89062 343.95312 C 776.15994 351.81074 780.35916 359.20822 785.53711 365.89648 C 785.74008 366.159 785.94979 366.41625 786.16602 366.66797 C 811.11884 395.68122 844.47408 407.28045 875.30469 402.66992 C 875.36139 402.66092 875.41801 402.65198 875.47461 402.64258 C 885.38978 401.06952 893.96626 396.8131 900.84375 390.94336 C 900.85445 390.95496 900.86235 390.96887 900.87305 390.98047 C 909.77884 400.66376 922.06431 404.14023 932.98242 404.07031 C 943.90053 404.00041 954.33971 400.79311 963.47656 394.66406 C 965.68231 393.18443 967.82292 391.46667 969.84961 389.5625 C 978.08904 397.82228 988.83153 401.82851 999.34375 402.51172 C 1012.4348 403.36253 1026.5404 398.35961 1036.9141 388.63672 C 1045.2616 397.54616 1056.4353 401.80277 1067.3438 402.51172 C 1089.5856 403.95727 1115.0567 388.89943 1119.457 361.55664 C 1119.477 361.43313 1119.4957 361.30943 1119.5137 361.18555 L 1149.4941 148.60547 L 1149.5039 148.57031 C 1151.2975 135.6843 1145.9865 122.6888 1137.5996 114.89648 C 1129.2127 107.10417 1118.6209 103.40134 1107.7617 102.99805 C 1095.4042 102.53911 1082.2013 107.76652 1072.0234 117.45312 C 1071.2415 116.56294 1070.4488 115.68549 1069.5996 114.89648 C 1061.2127 107.10417 1050.6209 103.40134 1039.7617 102.99805 C 1018.0438 102.19147 993.36951 118.43446 987.96289 146.87305 C 987.91069 147.14741 987.86449 147.42286 987.82422 147.69922 L 977.6543 217.59961 C 962.60599 195.32743 935.82182 176.31863 899.8125 175.32422 L 899.78906 175.32422 C 854.6824 174.13381 810.39836 197.13048 785.66211 235.99219 C 782.31367 228.1191 777.9189 220.41565 772.33398 213.18945 C 758.93681 195.85518 737.95782 181.66729 711.39648 178.44531 C 698.67443 173.97458 685.63384 174.20527 674.62109 178.04297 C 675.62362 170.05923 676.77298 161.61196 677.45117 154.73633 L 677.45117 154.73047 C 678.99186 139.50771 675.49766 125.18529 666.5957 115.25977 C 657.69257 105.33295 644.88639 101.37695 633.47656 101.77148 C 610.65664 102.56055 587.74094 118.72212 584.36523 145.37695 L 584.39453 145.15234 L 575.47656 209.51562 C 559.79002 189.75708 534.59888 175.61264 501.99023 175.53906 C 501.88736 175.5389 501.7845 175.53953 501.68164 175.54102 C 482.43009 175.80674 465.20303 181.06471 450.56445 189.02734 C 461.33232 175.15729 467.99259 157.80003 467.87695 138.56055 C 467.75667 118.55038 460.05043 100.23665 446.60938 87.914062 C 433.16832 75.591477 414.89807 69.507812 395.49414 69.507812 L 395.49023 69.507812 z M 262.69336 149.79102 C 262.71486 149.77962 262.68736 149.88102 262.57227 150.08203 C 262.55527 150.11323 262.53828 150.14448 262.52148 150.17578 C 262.60108 149.92659 262.67182 149.8024 262.69336 149.79102 z M 324.13281 188.93945 C 327.58266 194.4444 331.70775 199.46174 336.48047 203.76758 C 335.23631 206.4455 334.19122 209.47098 333.90625 213.26367 L 334.06641 211.84375 L 332.79492 220.31445 C 326.11308 210.06155 317.24265 201.01858 306.25 193.74805 C 306.77833 193.74405 307.30541 193.76925 307.83789 193.74805 C 312.69511 193.55448 317.06042 194.23511 324.13281 188.93945 z M 661.94141 264.36133 C 669.96354 268.49201 679.61374 270.46091 689.96289 270.31836 C 695.69525 272.2204 696.58268 273.73425 697.36523 275.68359 C 698.25402 277.89756 698.7711 283.97121 696.04688 293.74023 C 694.34492 299.84336 686.15638 307.25533 676.79688 309.10156 C 665.70551 309.7812 663.74593 308.09674 662.31445 306.19336 C 660.84758 304.24291 658.18664 295.90963 659.45117 279.79883 C 659.51067 279.44891 661.23278 268.62891 661.94141 264.36133 z M 887.25 268.9375 C 888.52989 268.8866 889.63013 268.9824 890.58594 269.15625 C 894.64218 270.23515 902.45334 276.1713 901.08008 286.16992 C 901.0797 286.17292 901.08046 286.17473 901.08008 286.17773 L 896.60156 315.41992 C 887.79138 310.05027 877.05841 307.37513 865.00977 307.13086 C 863.16235 305.18983 861.8019 303.66735 861.08008 302.37891 C 859.80918 300.11037 858.65673 297.38688 859.79492 288.83594 C 861.54038 283.05126 866.19858 277.33935 872.52734 273.50781 C 877.46265 270.5199 883.06414 269.10402 887.25 268.9375 z M 239.85938 269.02539 C 243.19451 268.78276 246.07474 269.3063 248.24414 270.30078 C 250.88176 271.5099 253.00941 273.26237 254.97852 277.65234 C 257.8316 291.09662 248.96703 307.7641 230.75586 309.09766 C 229.92845 309.15796 229.10578 309.27145 228.29297 309.4375 C 224.38644 310.23697 219.80966 310.48958 213.11133 312.61133 C 212.45808 312.81825 211.79136 313.1403 211.13477 313.38672 L 214.63477 289.27734 C 217.16677 279.68449 226.89831 271.59883 236.38281 269.5332 C 237.58615 269.27113 238.74765 269.10627 239.85938 269.02539 z M 770.35352 270.21289 C 770.31992 270.31875 770.30674 270.42537 770.27344 270.53125 C 770.22734 270.69971 770.16072 270.85658 770.11523 271.02539 L 770.35352 270.21289 z "
       d="m 395.49023,52.552734 c -27.56248,2e-6 -51.39555,13.186844 -68.64648,30.464844 -2.15459,2.157971 -4.11904,4.491974 -6.08789,6.81836 -4.50729,-1.162352 -9.36318,-1.485372 -14.54102,-0.5625 -13.90725,2.478747 -23.68362,12.142872 -28.63867,23.011722 -0.91779,0.16382 -1.82522,0.30966 -2.74805,0.55273 -7.20087,-0.8907 -14.33479,0.13624 -20.89257,2.52539 -3.72665,-2.01826 -7.56249,-3.3466 -11.06836,-3.95703 -5.16149,-0.89869 -10.96111,-0.58933 -16.59766,1.02539 -6.34059,-1.8098 -12.76929,-1.72697 -18.73828,-0.0762 -4.475,-2.99608 -9.15561,-4.77283 -13.94141,-5.54688 -6.21987,-11.597155 -18.24117,-19.404334 -32.5957,-19.404293 -4.67551,-3.2e-5 -9.01695,0.980605 -12.97266,2.564453 -2.30462,-0.695925 -4.7377,-1.257452 -7.41992,-1.412109 a 16.957331,16.957331 0 0 0 -0.0293,-0.002 c -0.68595,-0.03839 -1.37318,-0.05389 -2.0625,-0.04688 h -0.004 c -3.54499,0.034 -6.91943,0.863051 -9.99219,1.867188 -3.27595,-1.130225 -6.47379,-1.701688 -9.45898,-1.888672 -13.10453,-0.820813 -27.499029,5.49847 -35.921878,16.683592 a 16.957331,16.957331 0 0 0 -0.0039,0.004 c -0.499045,0.66317 -0.971386,1.34602 -1.416015,2.04687 -3.08e-4,4.9e-4 3.07e-4,0.001 0,0.002 -9.71e-4,0.002 -0.0029,0.002 -0.0039,0.004 -10.282009,16.20407 -13.679273,33.56798 -15.757812,46.24805 a 16.957331,16.957331 0 0 0 -0.002,0.0117 c -0.106205,0.65108 -0.191073,1.30557 -0.25586,1.96289 -0.792036,7.97433 -2.149146,27.40737 12.119141,42.85156 0.0013,0.001 0.0026,0.003 0.0039,0.004 0.0023,0.002 0.0036,0.005 0.0059,0.008 0.05405,0.0585 0.107593,0.11592 0.158203,0.16992 a 16.957331,16.957331 0 0 0 0.01563,0.0156 c 9.945659,10.58393 23.324276,14.27679 34.759766,13.75195 3.7598,-0.17253 7.49652,-0.79108 11.11133,-1.8418 1.13411,-0.32969 2.25009,-0.72353 3.33984,-1.17968 2.39024,-1.00037 4.55958,-2.14694 6.61719,-3.34766 1.49448,0.81528 3.01683,1.57432 4.58203,2.18164 0.26746,0.10378 0.53315,0.14073 0.80078,0.23828 -15.50974,17.13546 -27.08478,37.99461 -32.37695,61.5586 -8.7e-4,0.004 -0.001,0.008 -0.002,0.0117 -4.5e-4,0.002 -0.001,0.004 -0.002,0.006 -0.20349,0.90435 -0.37223,1.81523 -0.50586,2.73243 a 16.957331,16.957331 0 0 0 -0.002,0.0176 L 84.4375,423.90039 a 16.957331,16.957331 0 0 0 -0.002,0.0156 c -0.08578,0.59683 -0.155554,1.19209 -0.210938,1.78515 -6.1e-5,6.5e-4 6.2e-5,0.001 0,0.002 -1.721653,18.32126 4.091949,36.2547 16.478511,48.97461 11.87151,12.19099 27.65165,17.90235 42.78126,18.24805 31.47633,0.71919 62.23593,-23.19286 67.38085,-59.64453 l 1.91797,-13.21289 c 22.09757,3.44892 45.1916,-2.64491 68.06836,-11.85547 a 16.957331,16.957331 0 0 0 0.13086,-0.0527 c 0.0596,-0.0246 0.10303,-0.0428 0.12696,-0.0527 l -0.10743,0.043 c 8.47051,-3.45452 16.9249,-7.98955 24.78516,-13.88477 1.09588,1.59872 2.15351,3.22181 3.42773,4.70899 11.29583,13.18366 26.92623,19.71814 41.875,21.08984 13.591,1.24712 27.2228,-2.05772 39.14258,-9.05468 9.77464,6.39533 20.7995,9.58279 31.21485,10.15625 15.67875,0.86324 32.2465,-4.01967 45.36523,-13.89649 2.85995,23.98504 13.08199,45.15211 28.69141,60.46094 21.14537,20.73817 49.36388,30.23935 76.875,30.42383 38.17146,0.58264 65.78842,-29.17473 68.77539,-61.03516 0.56758,-6.05419 0.27413,-12.41879 -0.99414,-18.74805 7.55956,1.43344 15.4117,1.92851 23.44726,1.49805 v 0.0644 l 1.68555,-0.0488 -0.73242,0.004 c 38.83452,0.55553 77.97047,-15.94176 106.05664,-45.71679 0.51044,0.69368 0.97731,1.41286 1.50586,2.0957 5.6e-4,7.2e-4 0.001,0.001 0.002,0.002 0.001,0.002 0.002,0.004 0.004,0.006 0.37937,0.49041 0.77191,0.97125 1.17578,1.44141 a 16.957331,16.957331 0 0 0 0.006,0.008 c 28.36692,32.9829 67.78821,47.20516 104.50195,41.71484 a 16.957331,16.957331 0 0 0 0.15039,-0.0234 c 0.0277,-0.004 0.10722,-0.0176 0.16797,-0.0274 7.90144,-1.25358 15.13861,-3.94913 21.70898,-7.5 10.67906,6.66946 22.66793,9.2045 33.25196,9.13672 12.90357,-0.0826 25.45066,-3.78159 36.53515,-10.4043 9.03647,5.37204 19.00199,8.18564 28.61719,8.81055 13.32006,0.86569 26.66306,-2.49867 38.30276,-9.45117 9.3273,5.79705 19.7222,8.80289 29.6972,9.45117 30.6823,1.99412 64.0772,-18.66919 69.9532,-55.18164 0.037,-0.23276 0.069,-0.44396 0.096,-0.62695 a 16.957331,16.957331 0 0 0 0.01,-0.0703 l 29.8243,-211.47265 -0.2891,1.04297 a 16.957331,16.957331 0 0 0 0.459,-2.21485 c 2.6382,-18.95441 -4.4976,-36.67234 -17.1563,-48.43359 -11.6396,-10.814458 -26.4529,-15.888958 -40.75,-16.419922 -12.5946,-0.467747 -24.9712,3.119134 -35.875,9.80664 -9.9068,-6.290757 -21.1612,-9.399467 -32.125,-9.80664 -30.6294,-1.137544 -62.1291,21.077292 -69.08396,57.648432 -0.0983,0.51683 -0.18644,1.03415 -0.26172,1.55079 a 16.957331,16.957331 0 0 0 0,0.004 l -5.20508,35.77149 C 948.50142,168.03179 926.30328,159.09361 900.28125,158.375 a 16.957331,16.957331 0 0 0 -0.0449,0 c -42.28407,-1.11592 -83.52859,16.37401 -112.40625,47.33008 -0.69699,-0.96042 -1.34794,-1.93747 -2.08008,-2.88477 -15.55204,-20.12241 -39.86624,-36.57959 -70.32031,-40.85547 -7.09117,-2.32109 -14.2695,-3.53819 -21.32813,-3.72461 0.0602,-0.57298 0.16335,-1.24182 0.21875,-1.80273 v -0.01 c 8.4e-4,-0.009 0.003,-0.0188 0.004,-0.0273 a 16.957331,16.957331 0 0 0 0.008,-0.1543 c 1.85919,-18.77772 -2.31402,-38.0357 -15.11328,-52.30664 -12.80411,-14.27634 -30.56818,-19.658227 -46.32813,-19.113278 -30.27798,1.046956 -60.57254,22.929808 -65.26171,57.939448 a 16.957331,16.957331 0 0 0 -0.0293,0.0605 l -4.58008,33.05664 C 546.20498,165.19933 525.48679,158.63692 502.0293,158.58398 a 16.957331,16.957331 0 0 0 -0.0117,0 c -0.18968,-2.9e-4 -0.38469,0.001 -0.58203,0.004 -6.58605,0.0915 -12.90417,0.83101 -19.07617,1.87109 1.60038,-7.06507 2.5183,-14.40574 2.47265,-22 C 484.68596,114.15797 475.29811,91.212036 458.06836,75.416016 441.03479,59.799862 418.44211,52.552734 395.49414,52.552734 Z m -147.875,89.617186 31.0586,13.16602 c -0.15477,0.48452 -0.33792,1.01561 -0.73828,1.85547 -0.20019,0.41993 -0.42858,0.89274 -0.96289,1.73242 -0.5339,0.83901 1.50012,1.70337 -6.34571,5.85156 -0.99062,0.52225 -4.0201,1.51381 -4.01953,1.51367 5.8e-4,-1.3e-4 -6.81688,0.205 -6.8164,0.20508 4.7e-4,8e-5 -7.72303,-3.49249 -7.72266,-3.49219 3.7e-4,3e-4 -4.40652,-5.37552 -4.40625,-5.375 2.7e-4,5.2e-4 -1.26378,-3.03044 -1.51172,-4.14257 -0.24794,-1.11214 -0.33498,-1.98264 -0.37695,-2.70508 -0.0839,-1.44489 0.009,-2.33247 0.0957,-3.03711 0.3453,-2.81857 0.7158,-3.25357 0.95703,-3.89063 0.36949,-0.97579 0.57216,-1.29464 0.78906,-1.68164 z m 428.59766,144.06641 c 1.302,0.19322 2.58827,0.45114 3.9043,0.58203 -0.13515,0.80068 -0.15879,1.49381 -0.40235,2.36719 0.56193,-2.01504 0.18783,-0.4082 -1.25,0.78515 -0.64135,0.53231 -1.43865,1.00699 -2.22851,1.42188 -0.0885,-1.45578 -0.0545,-3.22995 -0.0234,-5.15625 z m 207.58984,0.7539 -0.81445,5.31836 c -1.77985,-0.3833 -3.56037,-0.76454 -5.375,-1.03515 0.90379,-1.09723 2.15661,-2.33017 3.69531,-3.26172 0.70265,-0.42539 1.62001,-0.70941 2.49414,-1.02149 z m -646.24023,0.27735 c -0.89234,1.85738 -2.42439,3.5257 -5.11328,4.36914 1.31564,-1.44898 3.29312,-3.20487 5.11328,-4.36914 z" />
    <path
       id="path19646"
       style="color:#000000;display:inline;fill:url(#linearGradient39866);fill-opacity:1;stroke-linecap:round;-inkscape-stroke:none"
       inkscape:label="offset"
       d="m 395.49023,69.507812 c -22.10695,10e-7 -41.8509,10.669482 -56.64843,25.490235 -4.94426,4.952008 -9.35955,10.496773 -13.13282,16.453123 -4.49197,-4.11989 -10.84825,-6.49519 -16.51953,-5.48437 -8.68279,1.54757 -14.80517,8.44956 -17.30078,16.22851 -0.022,0.0695 -0.0435,0.13916 -0.0644,0.20899 -0.80311,2.64208 -1.36373,4.72885 -2.04102,7.08203 -4.12619,-1.28231 -9.16662,-1.33122 -13.74218,0.79101 -8.37974,-2.20832 -16.89786,-0.0866 -24.13477,5.10157 -3.30731,-4.48161 -7.76464,-6.53932 -11.94727,-7.26758 -4.20194,-0.73162 -8.58936,-0.23986 -12.85546,2.08398 -0.31473,0.17144 -0.60115,0.4402 -0.91016,0.63672 -1.06139,-0.62406 -2.05637,-1.31994 -3.28906,-1.77344 h -0.002 c -6.57696,-2.41897 -13.80755,-0.59486 -18.71679,3.93555 -0.66543,-1.2792 -1.40974,-2.44397 -2.23047,-3.35156 -0.35461,-0.39304 -0.73085,-0.76601 -1.12696,-1.11719 -5.209,-4.60786 -13.30282,-5.90571 -18.80468,-4.4082 -0.29115,0.0792 -0.52189,0.2041 -0.80274,0.29101 -0.12287,-10.52195 -9.69204,-20.04884 -20.22656,-20.04882 -4.45448,-2e-5 -8.68952,1.76633 -12.16211,4.52734 -2.64249,-1.793 -5.67028,-3.1984 -9.20703,-3.40234 -0.31803,-0.0178 -0.63657,-0.025 -0.95508,-0.0215 -5.55104,0.0524 -7.92802,1.69805 -10.61914,3.51172 -0.0244,0.0165 -0.0459,0.042 -0.0703,0.0586 -3.34683,-2.45143 -7.1021,-3.44434 -9.98633,-3.625 -8.61248,-0.53945 -15.66886,2.46128 -21.316406,9.96094 -0.228562,0.30373 -0.444881,0.61648 -0.648437,0.9375 -8.15675,12.85237 -11.378736,27.91074 -13.345703,39.91016 -0.04853,0.29751 -0.08762,0.59649 -0.117188,0.89648 -0.740785,7.45434 -1.603928,19.61802 7.707032,29.68945 0.02593,0.0281 0.05197,0.0561 0.07812,0.084 6.072358,6.46206 14.321462,8.76107 21.626962,8.42578 2.43326,-0.11166 4.82477,-0.50786 7.15625,-1.18555 0.51826,-0.15066 1.02754,-0.33063 1.52539,-0.53906 5.77943,-2.41882 10.0472,-5.75545 13.70507,-9.23242 2.42157,3.5738 5.74072,6.18028 10.17383,7.90039 5.89968,2.28917 10.56879,2.26392 16.1211,1.61719 2.37635,-0.2768 4.89943,-0.76984 7.45703,-1.58594 2.64902,1.10868 5.37174,1.91995 8.0039,2.26367 0.34764,0.0454 0.69684,0.078 1.04688,0.0977 2.0564,0.11559 3.84254,-0.009 5.49414,-0.22071 -29.09346,17.18484 -51.67785,45.24178 -59.29102,79.16211 -0.1093,0.48461 -0.19986,0.97326 -0.27148,1.46485 l -21.88086,151.27343 c -0.0458,0.31867 -0.0835,0.63843 -0.11328,0.95899 -1.274572,13.55937 3.26482,26.85103 11.74609,35.56055 8.48127,8.70951 19.82868,12.87125 31.01953,13.12695 22.38069,0.51137 46.24073,-16.96853 50.20508,-45.06641 l 4.75977,-32.79101 c 0.20726,0.10413 0.40278,0.2443 0.61133,0.34375 21.66639,10.33215 46.606,5.48442 75.07226,-5.97656 0.0267,-0.011 0.0534,-0.0221 0.0801,-0.0332 11.61108,-4.73533 22.32826,-11.00644 30.75781,-20.41211 2.54733,-1.99471 4.98586,-4.09221 7.31836,-6.28515 1.03814,8.40479 4.31604,16.23941 9.41406,22.18945 8.08559,9.43691 19.31425,14.20544 30.54883,15.23633 13.22108,1.21317 27.56713,-3.7503 38.33594,-13.66211 8.46659,9.63455 20.28737,14.10667 31.4043,14.71875 22.65689,1.24745 48.09713,-13.17772 51.8457,-40.24219 0.005,-0.0325 0.009,-0.0651 0.0137,-0.0977 0,0 2.94922,-22.113 5.83203,-44.17382 1.44141,-11.03042 2.86562,-22.04379 3.90235,-30.32032 0.51836,-4.13826 0.9385,-7.57728 1.22461,-10.08203 0.0687,-0.60138 0.10644,-1.01504 0.16015,-1.51562 1.98443,-5.51698 7.40426,-8.01913 10.8457,-8.06836 0.58439,-0.008 0.75145,0.0567 1.01954,0.10742 -0.005,0.35484 0.0242,0.54095 -0.14454,1.83984 -0.005,0.043 -0.0105,0.0859 -0.0156,0.12891 l -13.39648,108.82617 c -3.3e-4,0.003 3.2e-4,0.005 0,0.008 -3.85992,30.91064 6.07032,57.67761 23.71093,74.97852 17.60827,17.26918 41.48183,25.43768 65.19727,25.57812 29.13014,0.479 49.53756,-22.6087 51.69922,-45.66601 1.08262,-11.54781 -1.85307,-24.1428 -10.66797,-33.8457 -8.53846,-9.39862 -22.22767,-14.31929 -36.4707,-13.57227 -0.005,-0.002 -0.0223,-0.012 -0.0273,-0.0137 -0.15688,-1.26949 0.57443,-9.61317 2.46485,-23.3125 l 0.80273,-5.66602 c 3.26448,4.62692 6.79635,9.05761 10.69141,13.10352 18.70157,19.42587 44.83566,32.73894 73.0625,30.71484 41.27241,0.8357 84.20414,-20.9041 108.76171,-58.99219 3.26932,7.85761 7.46854,15.2551 12.64649,21.94336 0.20297,0.26252 0.41268,0.51977 0.62891,0.77149 24.95282,29.01325 58.30806,40.61248 89.13867,36.00195 0.0567,-0.009 0.11332,-0.0179 0.16992,-0.0273 9.91517,-1.57306 18.49165,-5.82948 25.36914,-11.69922 0.0107,0.0116 0.0186,0.0255 0.0293,0.0371 8.90579,9.68329 21.19126,13.15976 32.10937,13.08984 10.91811,-0.0699 21.35729,-3.2772 30.49414,-9.40625 2.20575,-1.47963 4.34636,-3.19739 6.37305,-5.10156 8.23943,8.25978 18.98192,12.26601 29.49414,12.94922 13.09101,0.85081 27.19661,-4.15211 37.57031,-13.875 8.3475,8.90944 19.5213,13.16605 30.4297,13.875 22.2419,1.44555 47.7129,-13.61229 52.1132,-40.95508 0.02,-0.12351 0.039,-0.24721 0.057,-0.37109 l 29.9804,-212.58008 0.01,-0.0352 c 1.7936,-12.88601 -3.5174,-25.88151 -11.9043,-33.67383 -8.3869,-7.79231 -18.9787,-11.49514 -29.8379,-11.89843 -12.3575,-0.45894 -25.5604,4.76847 -35.7383,14.45507 -0.7819,-0.89018 -1.5746,-1.76763 -2.4238,-2.55664 -8.3869,-7.79231 -18.9787,-11.49514 -29.8379,-11.89843 -21.7179,-0.80658 -46.39216,15.43641 -51.79878,43.875 -0.0522,0.27436 -0.0984,0.54981 -0.13867,0.82617 l -10.16992,69.90039 C 962.60662,195.3276 935.82245,176.3188 899.81313,175.32439 h -0.0234 c -45.10666,-1.19041 -89.39071,21.80626 -114.12696,60.66797 -3.34844,-7.87309 -7.7432,-15.57654 -13.32812,-22.80274 -13.39717,-17.33427 -34.37616,-31.52216 -60.9375,-34.74414 -12.72205,-4.47073 -25.76264,-4.24004 -36.77539,-0.40234 1.00253,-7.98374 2.15189,-16.43101 2.83008,-23.30664 v -0.006 c 1.54069,-15.22276 -1.95351,-29.54518 -10.85547,-39.4707 -8.90313,-9.92682 -21.70931,-13.88282 -33.11914,-13.48829 -22.81992,0.78907 -45.73562,16.95064 -49.11133,43.60547 l 0.0293,-0.22461 -8.91796,64.36328 c -15.68654,-19.75854 -40.87768,-33.90298 -73.48633,-33.97656 -0.10287,-1.6e-4 -0.20574,5.1e-4 -0.3086,0.002 -19.25155,0.26572 -36.4786,5.52369 -51.11718,13.48632 10.76787,-13.87005 17.42814,-31.22731 17.3125,-50.46679 -0.12028,-20.01017 -7.82652,-38.3239 -21.26758,-50.646488 -13.44106,-12.322585 -31.71131,-18.40625 -51.11524,-18.40625 z M 664.12891,402.94531 c -0.33647,-0.007 -0.67548,0.0489 -1.01172,0.0391 l 2.25195,-0.0645 c -0.41762,0.0366 -0.82352,-0.004 -1.24023,0.0254 z M 262.69336,149.79102 c 0.0215,-0.0114 -0.006,0.09 -0.12109,0.29101 -0.017,0.0312 -0.034,0.0624 -0.0508,0.0937 0.0796,-0.24919 0.15034,-0.37338 0.17188,-0.38476 z m 61.43945,39.14843 c 3.44985,5.50495 7.57494,10.52229 12.34766,14.82813 -1.24416,2.67792 -2.28925,5.7034 -2.57422,9.49609 l 0.16016,-1.41992 -1.27149,8.4707 c -6.68184,-10.2529 -15.55227,-19.29587 -26.54492,-26.5664 0.52833,-0.004 1.05541,0.0212 1.58789,0 4.85722,-0.19357 9.22253,0.48706 16.29492,-4.8086 z m 337.8086,75.42188 c 8.02213,4.13068 17.67233,6.09958 28.02148,5.95703 5.73236,1.90204 6.61979,3.41589 7.40234,5.36523 0.88879,2.21397 1.40587,8.28762 -1.31835,18.05664 -1.70196,6.10313 -9.89049,13.5151 -19.25,15.36133 -11.09136,0.67964 -13.05095,-1.00482 -14.48243,-2.9082 -1.46687,-1.95045 -4.12781,-10.28373 -2.86328,-26.39453 0.0595,-0.34992 1.78161,-11.16992 2.49024,-15.4375 z M 887.25,268.9375 c 1.27989,-0.0509 2.38013,0.0449 3.33594,0.21875 4.05624,1.0789 11.8674,7.01505 10.49414,17.01367 -3.8e-4,0.003 3.8e-4,0.005 0,0.008 l -4.47852,29.24219 c -8.81018,-5.36965 -19.54315,-8.04479 -31.59179,-8.28906 -1.84742,-1.94103 -3.20787,-3.46351 -3.92969,-4.75195 -1.2709,-2.26854 -2.42335,-4.99203 -1.28516,-13.54297 1.74546,-5.78468 6.40366,-11.49659 12.73242,-15.32813 4.93531,-2.98791 10.5368,-4.40379 14.72266,-4.57031 z m -647.39062,0.0879 c 3.33514,-0.24263 6.21536,0.28091 8.38476,1.27539 2.63762,1.20912 4.76527,2.96159 6.73438,7.35156 2.85308,13.44428 -6.01149,30.11176 -24.22266,31.44532 -0.82741,0.0603 -1.65008,0.17379 -2.46289,0.33984 -3.90653,0.79947 -8.48331,1.05208 -15.18164,3.17383 -0.65325,0.20692 -1.31997,0.52897 -1.97656,0.77539 l 3.5,-24.10938 c 2.532,-9.59285 12.26354,-17.67851 21.74804,-19.74414 1.20334,-0.26207 2.36484,-0.42693 3.47657,-0.50781 z m 530.49414,1.1875 c -0.0336,0.10586 -0.0468,0.21248 -0.0801,0.31836 -0.0461,0.16846 -0.11272,0.32533 -0.15821,0.49414 z"
       sodipodi:nodetypes="sscscccccssccccccccscccccsccccscssccsscsscccccsscccccccsscsccssscccccccscssccccsccccccccsscscsccccsscssscccccsccccsscccsccsssscccccccccccccccccccsscsccccscccscsccsscccsccsscccc" />
    <g
       id="g101921"
       inkscape:label="Pinball"
       style="display:inline">
      <path
         style="color:#000000;fill:#000000;fill-opacity:1;stroke-linecap:round;-inkscape-stroke:none"
         d="m 245.34961,195.44922 c -46.63184,1.28473 -92.85982,36.58679 -103.13573,82.37095 l -21.8799,151.27358 c -3.31312,35.24639 49.05144,38.57714 54.61671,-0.88711 l 20.76025,-143.01328 c 8.67074,-36.12053 62.88413,-51.50242 77.82669,-13.3751 6.51668,25.21003 -11.01023,54.31847 -41.37157,56.54174 -5.10199,1.04412 -9.10297,1.35948 -13.22239,2.66434 -4.97792,1.57679 -7.53018,3.16313 -15.56287,9.73167 -21.97625,41.54109 12.3452,54.57949 63.92634,33.81207 10.47244,-4.27096 19.56888,-10.04241 25.03041,-16.75582 46.4023,-35.06559 54.05847,-117.7644 0.58467,-149.81877 -14.18723,-8.72042 -30.97224,-12.87001 -47.57261,-12.54427 z"
         id="path948"
         sodipodi:nodetypes="cccccccsccccc" />
      <path
         style="color:#000000;fill:#000000;fill-opacity:1;stroke-linecap:round;-inkscape-stroke:none"
         d="m 383.59766,191.12305 c -4.95292,3.79763 -12.02596,-0.13698 -16.2933,1.9888 -2.19935,1.09561 -3.81209,8.0804 -3.81209,8.0804 -3.62382,4.20313 -9.92762,8.20854 -10.32664,13.51912 L 332.17383,354.5 c -7.18624,35.35854 47.97711,41.99311 55.46621,3.51822 l 19.45611,-139.88358 c 0.699,-5.28164 -2.86135,-12.38655 -5.55783,-16.0864 -4.23,-5.80399 -10.72101,-9.97285 -17.94066,-10.92519 z"
         id="path2150"
         sodipodi:nodetypes="cssccccsc" />
      <path
         style="color:#000000;fill:#000000;fill-opacity:1;stroke-linecap:round;-inkscape-stroke:none"
         d="m 501.94336,194.85156 c -50.20143,0.69291 -83.04128,41.7782 -88.0506,68.3245 l -13.94354,89.23214 c -6.50654,43.27592 50.76826,40.52953 55.14425,8.93507 0,0 11.78658,-88.38515 11.23984,-87.82883 8.15506,-29.88088 54.12727,-31.91165 49.89725,0.65703 L 502.83011,383.0332 c -6.47679,51.83642 31.34009,78.68447 69.97093,78.86296 39.18671,0.74907 45.308,-57.68673 4.46425,-54.48529 -2.42911,0.21018 -4.86256,0.0182 -6.93235,-1.15031 -16.00891,-9.03797 -13.62463,-17.08527 -9.88287,-44.17639 l 12.92821,-91.24603 c 6.71639,-32.1749 -17.91627,-75.86582 -71.43492,-75.98658 z"
         id="path2356"
         sodipodi:nodetypes="cccccccccsccc" />
      <path
         style="color:#000000;fill:#000000;fill-opacity:1;stroke-linecap:round;-inkscape-stroke:none"
         d="m 603.52096,147.80268 -20.96119,151.29157 c -5.70412,42.78796 38.4505,88.32818 81.12185,84.5854 52.49282,1.53398 111.02042,-40.4675 110.46915,-111.99548 -0.57763,-29.25619 -22.58486,-70.42521 -67.32852,-74.42054 -47.05309,-19.12695 -72.65862,57.76302 -13.9607,53.68542 24.07175,6.75972 28.47163,24.01671 21.78953,47.9786 -4.19039,15.02664 -18.8861,26.69138 -35.45976,29.41103 -31.13447,2.25721 -42.03943,-13.49897 -38.97378,-50.56879 0,0 13.60723,-80.26505 18.0141,-124.98059 4.64484,-45.85459 -50.6482,-37.06427 -54.71068,-4.98662 z"
         id="path3322"
         sodipodi:nodetypes="ccccccscccc" />
      <path
         style="color:#000000;fill:#000000;fill-opacity:1;stroke-linecap:round;-inkscape-stroke:none"
         d="m 899.27539,194.63086 c -48.54518,-1.28115 -96.87289,30.80097 -110.51225,81.42035 -9.18039,28.94784 -3.67901,57.71404 12.04461,78.02396 21.38343,24.86303 46.93358,33.18752 71.64076,29.49271 35.77742,-5.67614 40.1884,-61.75964 -15.6023,-56.99836 -8.39029,-9.06782 -19.9116,-16.30277 -16.01239,-41.91028 6.15961,-23.6788 33.6769,-38.65272 54.01827,-34.38529 13.90407,3.30535 28.15083,18.30346 25.3617,38.54084 l -10.1552,66.31021 c -6.51736,42.30533 49.33062,34.27083 53.95872,7.33274 l 11.75993,-80.29893 c 4.71065,-27.92685 -16.62211,-85.87434 -76.50185,-87.52795 z"
         id="path4250"
         sodipodi:nodetypes="cccccccccccc" />
      <path
         style="color:#000000;fill:#000000;fill-opacity:1;stroke-linecap:round;-inkscape-stroke:none"
         d="m 1006.9314,150.48061 -29.58765,203.36705 c -5.74905,37.15359 49.40675,39.67556 55.04495,4.64107 l 29.9833,-212.58078 c 3.8929,-27.96776 -47.6297,-36.51288 -55.4406,4.57266 z"
         id="path4836"
         sodipodi:nodetypes="ccccc" />
      <path
         id="path9108"
         style="fill:#000000;fill-opacity:1;stroke-width:54;stroke-linecap:round;stroke-opacity:0.659414"
         d="m 448.56034,138.6758 c 0.21129,35.15024 -31.29637,64.01161 -62.22432,64.01161 -30.92795,0 -53.61349,-20.09813 -53.61349,-51.02608 0,-30.92795 31.84018,-62.840868 62.76813,-62.840868 30.92795,0 52.88378,18.927958 53.06968,49.855338 z"
         sodipodi:nodetypes="sssss" />
      <path
         style="color:#000000;fill:#000000;fill-opacity:1;stroke-linecap:round;-inkscape-stroke:none"
         d="m 1074.9314,150.48061 -29.5877,203.36705 c -5.749,37.15359 49.4068,39.67556 55.045,4.64107 l 29.9833,-212.58078 c 3.8929,-27.96776 -47.6297,-36.51288 -55.4406,4.57266 z"
         id="path19620"
         sodipodi:nodetypes="ccccc" />
    </g>
    <g
       id="g102547"
       inkscape:label="Visual"
       style="display:inline">
      <path
         style="color:#000000;fill:#110000;fill-opacity:1;stroke:#000000;stroke-linecap:round;stroke-opacity:1;-inkscape-stroke:none"
         d="m 108.06095,123.94167 c -6.12013,9.64332 -9.497043,23.49192 -11.314655,34.5802 -0.628119,6.32061 -0.592168,13.65126 3.989215,18.60683 3.64266,3.87643 9.46531,4.75527 14.42217,3.31445 6.11509,-2.5593 11.48413,-8.45784 16.8485,-14.23409 5.52658,-6.60287 8.57844,-17.5573 10.12235,-25.77317 6.05061,3.74454 11.01187,-3.10757 3.96427,-5.3499 -2.4695,-1.00819 -2.22522,-2.93991 -2.00956,-4.73188 1.15894,-4.12091 -0.62402,-10.37422 -5.27802,-10.64261 -2.92141,0.0276 -10.68232,6.03196 -3.61087,14.09017 0.73871,1.70091 1.21604,2.95515 0.53395,5.54152 -2.4598,6.75773 -4.63236,15.0494 -8.81312,21.02656 -1.66944,1.94386 -3.35544,3.91098 -5.17928,5.68124 -7.26079,7.37312 -16.22439,5.85028 -15.91833,-3.11015 0.26494,-5.94226 1.62964,-10.51653 3.57029,-16.52417 1.83877,-7.20563 6.3446,-15.35652 10.51263,-21.01236 3.8213,-7.4678 -7.33456,-7.44503 -11.83954,-1.46264 z"
         id="path19721"
         sodipodi:nodetypes="ccccccccccccccccc" />
      <path
         id="path20438"
         style="color:#000000;fill:#110000;fill-opacity:1;stroke:#000000;stroke-linecap:round;stroke-opacity:1;-inkscape-stroke:none"
         d="m 295.38275,175.66912 c 1.66155,-0.85061 2.92505,1.85243 4.05831,2.5751 2.38234,1.94092 13.03747,1.71977 16.38151,-0.85473 7.3774,-5.48416 5.21691,-9.73777 1.26958,-6.35297 -4.7514,5.40812 -14.84943,5.24494 -13.93953,-0.50543 2.09528,-12.42327 5.44423,-27.55958 10.66358,-34.01688 1.60842,-1.98992 2.86597,-3.61112 3.47759,-6.22274 0.37969,-2.27067 0.71131,-4.54394 0.0412,-6.69359 -1.77933,-5.54867 -9.31413,-5.03954 -11.87764,2.95106 -6.23576,20.51449 -8.14629,30.53533 -8.87003,39.22965 -0.70565,9.84208 -19.45604,12.23194 -16.89005,3.03788 l 8.26554,-22.00746 c 1.36637,-3.13149 -4.42326,-6.01117 -7.07331,-2.79412 -0.63031,0.76518 -1.5576,1.47357 -2.27363,2.66762 0,0 -0.9484,-0.34785 -3.47469,-1.64598 -6.47871,-3.32906 -18.07554,0.41287 -24.19209,13.39519 -1.2551,3.72336 -1.79135,7.12815 -1.61605,11.04189 -0.27198,1.19519 -0.86926,2.11342 -1.91847,3.0914 -4.74799,4.57377 -14.63493,2.75121 -12.77654,-6.06233 2.4349,-7.04306 3.50414,-12.80507 6.23473,-19.01661 1.96283,-5.99857 -7.81142,-7.68521 -9.32576,-1.63824 -2.65443,9.78855 -3.43187,14.6829 -7.01951,20.85283 l -3.05364,4.24898 c -4.96885,6.94585 -8.55134,0.56739 -6.69325,-5.62888 l 6.37252,-17.83239 c 0.76252,-2.07322 -1.09558,-4.29339 -3.16874,-5.05609 -2.07322,-0.76252 -4.37206,0.2999 -5.13476,2.37305 l -5.2769,19.53891 c -1.75288,7.27459 -3.09509,7.59861 -9.02372,10.51397 -5.45969,2.6187 -7.1068,-0.22962 -4.39389,-4.93486 2.27793,-4.24156 2.20226,-10.95419 -0.84233,-15.77852 -0.66447,-1.14678 -1.33304,-1.99318 -2.2693,-3.11577 -1.65309,-1.71455 -0.52167,-4.92813 0.61797,-6.43031 0.54697,-1.56424 1.81939,-3.08498 -0.27448,-5.40045 -3.59365,-3.17892 -8.02424,-0.95325 -10.10749,1.73355 h -5e-5 c -1.46236,1.83461 -2.04959,4.5638 0.80214,8.1976 l -13.99443,20.94508 c -1.45803,1.45118 -4.40893,4.06879 -12.04237,3.85534 -3.84458,-0.47994 -3.51907,-3.82104 -2.82857,-5.49486 l 6.90997,-21.45285 c 1.72169,-6.20897 -8.20369,-5.98338 -9.60999,-1.28993 l -5.67372,22.16448 c -0.5101,1.43772 -0.70139,3.58297 0.11663,6.07362 0.59605,2.1092 2.48792,4.16935 4.73438,5.04101 4.28284,1.66181 14.25754,1.34982 18.92786,-3.05483 2.47253,2.61178 5.56073,4.01175 9.34558,4.506 4.46874,0.25122 7.01319,-1.13997 10.40399,-2.24233 4.76513,2.4439 7.69518,2.37215 12.72419,0.17139 0.90324,-0.40245 1.67147,-0.86646 2.43153,-1.34986 2.28228,-1.61133 2.94276,-2.9846 4.40003,-0.008 2.19753,3.90106 10.8625,1.67489 13.09692,-0.21932 1.40276,-0.94472 2.32309,-1.69524 3.15656,-2.96351 1.95849,-4.37834 3.16532,-1.50605 3.43467,-0.0326 1.51513,8.37196 14.14841,7.42853 17.90908,4.6928 4.56272,-2.57442 3.51163,-2.98821 7.57905,0.50256 2.81792,2.30825 9.43564,3.17588 16.08015,-5.07439 1.09794,-2.03819 1.76606,-0.59195 3.36746,1.92808 3.01293,6.27531 15.6651,5.47873 22.83221,-0.15821 z m -30.58904,-3.54958 c -5.60038,5.47427 -9.58093,-1.36287 -7.22406,-7.85888 1.22473,-3.37559 3.43876,-6.3667 4.53035,-7.72535 2.52808,-3.05664 5.44073,-5.36767 8.56112,-6.2603 1.83153,-0.25855 8.92469,-1.23982 4.28067,6.88042 -2.66773,5.05001 -5.97407,10.04466 -10.14808,14.96411 z m -81.27874,-14.22475 c 0.45297,-0.74124 1.01735,-0.82361 2.09489,1.05876 2.6844,4.69576 0.0405,10.50304 -2.87927,14.0952 -2.70683,2.62516 -8.70856,-2.24687 -5.32438,-6.70595 z"
         sodipodi:nodetypes="cccccsccccccscscccccccccccccccccccccccccccccsccccccccccccccccccccccccc" />
      <ellipse
         style="fill:#110000;fill-opacity:1;stroke:none;stroke-width:7.99999;stroke-linecap:round;stroke-miterlimit:4;stroke-dasharray:none;stroke-opacity:0.659414"
         id="path22102"
         cx="160.99332"
         cy="-124.60928"
         rx="6"
         ry="6.0000005"
         transform="scale(1,-1)" />
    </g>
  </g>
</svg>
